<svg width="923" height="164" xmlns="http://www.w3.org/2000/svg" xmlns:xlink="http://www.w3.org/1999/xlink" overflow="hidden"><defs><filter id="fx0" x="-10%" y="-10%" width="120%" height="120%" filterUnits="userSpaceOnUse" primitiveUnits="userSpaceOnUse"><feComponentTransfer color-interpolation-filters="sRGB"><feFuncR type="discrete" tableValues="0 0"/><feFuncG type="discrete" tableValues="0 0"/><feFuncB type="discrete" tableValues="0 0"/><feFuncA type="linear" slope="0.431373" intercept="0"/></feComponentTransfer><feGaussianBlur stdDeviation="2.15239 2.15239"/></filter><filter id="fx1" x="-10%" y="-10%" width="120%" height="120%" filterUnits="userSpaceOnUse" primitiveUnits="userSpaceOnUse"><feComponentTransfer color-interpolation-filters="sRGB"><feFuncR type="discrete" tableValues="0 0"/><feFuncG type="discrete" tableValues="0 0"/><feFuncB type="discrete" tableValues="0 0"/><feFuncA type="linear" slope="0.431373" intercept="0"/></feComponentTransfer><feGaussianBlur stdDeviation="2.15239 2.15239"/></filter><clipPath id="clip2"><rect x="191" y="2193" width="923" height="164"/></clipPath><clipPath id="clip3"><rect x="-2.14748e+09" y="-2.14748e+09" width="4.29497e+09" height="4.29496e+09"/></clipPath><clipPath id="clip4"><rect x="0" y="0" width="22" height="18"/></clipPath><clipPath id="clip5"><rect x="-2.14748e+09" y="-2.14748e+09" width="4.29497e+09" height="4.29496e+09"/></clipPath><clipPath id="clip6"><rect x="0" y="0" width="20" height="18"/></clipPath></defs><g clip-path="url(#clip2)" transform="translate(-191 -2193)"><path d="M197 2274C197.708 2237.88 222.665 2200.58 267.774 2203 309.74 2203.23 411.555 2202.93 475.526 2203 539.497 2203.07 605.86 2205.57 675.584 2203 745.307 2200.43 811.621 2197.23 860.252 2203 908.884 2208.77 977.869 2198.26 1037.23 2203 1075.6 2202.23 1106.94 2241.21 1108 2274L1108 2274C1100.53 2308.07 1075.65 2341.29 1037.23 2345 967.38 2342.48 912.523 2343.34 860.252 2345 807.981 2346.66 721.798 2351.3 683.278 2345 644.759 2338.7 537.266 2346.25 483.22 2345 429.175 2343.75 374.616 2337.54 267.774 2345 226.776 2338.32 198.218 2307.94 197 2274L197 2274Z" fill="#F6BE3C" fill-rule="evenodd"/><path d="M197 2274C200.316 2231.19 237.014 2200.23 267.774 2203 306.588 2211.03 411.116 2209.06 460.137 2203 509.158 2196.94 558.359 2202.39 637.111 2203 715.863 2203.61 779.685 2193.51 837.169 2203 894.653 2212.49 960.224 2207.87 1037.23 2203 1074.3 2201.04 1109.07 2235.43 1108 2274L1108 2274C1106.2 2304.3 1073.21 2346.06 1037.23 2345 996.642 2338.51 899.312 2352.15 837.169 2345 775.025 2337.85 694.123 2341.49 637.111 2345 580.099 2348.51 511.139 2337.32 467.831 2345 424.524 2352.68 333.146 2343.12 267.774 2345 229.294 2343.03 198.319 2309.8 197 2274L197 2274Z" stroke="#462100" stroke-width="10.3125" stroke-miterlimit="8" fill="none" fill-rule="evenodd"/><g clip-path="url(#clip3)" filter="url(#fx0)" transform="translate(627 2266)"><g clip-path="url(#clip4)"><path d="M28.0166 2.17432C20.9827 2.17432 14.9945 0.15446 10.0518-3.88525 4.77637-8.21012 2.13867-13.8063 2.13867-20.6738 2.13867-28.7533 4.66943-36.1198 9.73096-42.7734 15.4103-50.2588 22.563-54.0015 31.189-54.0015 39.4823-54.0015 45.6963-52.1004 49.8311-48.2983 53.9658-44.4963 56.0332-38.7812 56.0332-31.1533 56.0332-23.0739 53.7044-15.7549 49.0469-9.19629 43.6764-1.61589 36.6663 2.17432 28.0166 2.17432ZM31.189-44.3418C25.8898-44.3418 21.3511-41.7754 17.5728-36.6426 14.0321-31.8424 12.2617-26.5195 12.2617-20.6738 12.2617-16.7292 13.7944-13.5212 16.8599-11.0498 19.8065-8.6735 23.5254-7.48535 28.0166-7.48535 33.2445-7.48535 37.605-10.0518 41.0981-15.1846 44.3061-19.8659 45.9101-25.1888 45.9102-31.1533 45.9101-36.1436 44.7933-39.613 42.5596-41.5615 40.4209-43.415 36.6307-44.3418 31.189-44.3418ZM87.2383-28.1948C86.5967-28.1948 85.6402-28.2245 84.3689-28.2839 83.0976-28.3433 82.1411-28.373 81.4995-28.373 81.1431-28.373 80.751-28.3493 80.3232-28.3018 80.8223-17.6322 81.0718-10.0993 81.0718-5.70312 81.0718-0.380208 79.3371 2.28125 75.8677 2.28125 74.5845 2.28125 73.4557 1.88916 72.4814 1.10498 71.4359 0.273275 70.9131-0.78418 70.9131-2.06738 70.9131-2.89909 70.9487-4.16447 71.02-5.86352 71.0913-7.56258 71.1269-8.82796 71.1269-9.65967 71.1269-12.9152 70.9131-19.0817 70.4853-28.1592 70.0576-28.1592 69.0002-28.1592 67.313-28.1592 64.8892-28.1592 63.1188-28.3849 62.0019-28.8364 60.2197-29.5493 59.3286-30.9157 59.3286-32.9355 59.3286-34.2187 59.7742-35.3297 60.6653-36.2683 61.5564-37.2069 62.7148-37.6763 64.1406-37.6763L85.2065-37.6763C89.8403-37.6763 92.1572-36.0841 92.1572-32.8999 92.1572-31.5692 91.6998-30.4523 90.7849-29.5493 89.87-28.6463 88.6878-28.1948 87.2383-28.1948ZM101.403 1.63965C100.12 1.63965 98.9315 1.18815 97.8384 0.285156 96.6502-0.665365 96.0561-1.77034 96.0561-3.02978L96.0561-9.30322C96.0561-11.9647 96.1037-15.446 96.1987-19.7471 96.3413-25.3789 96.4126-28.8483 96.4126-30.1553 96.4364-31.9375 96.5908-33.2207 96.876-34.0049 97.3512-35.3356 98.3017-36.1792 99.7275-36.5356 101.771-37.0822 104.682-37.3555 108.46-37.3555 112.524-37.3555 116.231-36.4287 119.582-34.5752 123.693-32.3415 125.748-29.2879 125.748-25.4145 125.748-22.5392 124.453-20.258 121.863-18.5708 126.211-15.8143 128.386-12.9152 128.386-9.87353 128.386-5.54867 124.833-2.38818 117.728-0.39209 112.952 0.962402 107.51 1.63965 101.403 1.63965ZM109.672-28.979 108.211-28.979C107.308-28.979 106.548-28.9671 105.93-28.9434 105.93-28.4681 105.93-27.672 105.93-26.5552 105.93-26.0799 105.965-25.272 106.037-24.1313 106.132-22.8006 106.179-21.9927 106.179-21.7075 107.177-21.6362 107.926-21.6006 108.425-21.6006 110.017-21.6006 111.585-21.862 113.13-22.3848 115.197-23.0977 116.231-24.1076 116.231-25.4145 116.231-26.1987 115.482-26.9888 113.985-27.7849 112.488-28.581 111.051-28.979 109.672-28.979ZM112.203-15.4341C111.68-15.5291 109.494-15.6361 105.645-15.7549 105.597-14.8756 105.573-13.5924 105.573-11.9053L105.573-6.84375C114.175-7.22396 118.477-8.32894 118.477-10.1587 118.477-11.1805 117.669-12.2855 116.053-13.4736 114.627-14.543 113.344-15.1964 112.203-15.4341ZM151.653 1.63965C145.973 1.63965 141.328 0.285156 137.716-2.42383 133.723-5.41797 131.727-9.6359 131.727-15.0776 131.727-21.0897 133.308-26.175 136.468-30.3335 139.985-34.9435 144.726-37.2485 150.69-37.2485 154.825-37.2485 158.259-36.5832 160.992-35.2524 164.58-33.494 166.374-30.7612 166.374-27.0542 166.374-24.4403 164.912-22.1234 161.99-20.1035 160.659-19.1768 157.986-17.8223 153.97-16.04L141.957-10.729C143.098-9.49333 144.476-8.56657 146.092-7.94873 147.708-7.33089 149.562-7.02197 151.653-7.02197 154.837-7.02197 157.534-7.67545 159.744-8.98242 161.716-10.1468 163.297-10.729 164.485-10.729 166.956-10.729 168.192-9.52897 168.192-7.12891 168.192-4.41992 166.208-2.20996 162.239-0.499023 158.912 0.926758 155.383 1.63965 151.653 1.63965ZM150.69-28.6226C148.48-28.6226 146.591-27.8859 145.023-26.4126 143.454-24.9393 142.195-22.7293 141.244-19.7827 143.93-20.9471 146.603-22.0996 149.264-23.2402 152.472-24.6898 155.027-26.0324 156.928-27.2681 155.336-28.1711 153.257-28.6226 150.69-28.6226ZM200.103-28.1948C199.461-28.1948 198.505-28.2245 197.233-28.2839 195.962-28.3433 195.006-28.373 194.364-28.373 194.008-28.373 193.616-28.3493 193.188-28.3018 193.687-17.6322 193.936-10.0993 193.936-5.70312 193.936-0.380208 192.202 2.28125 188.732 2.28125 187.449 2.28125 186.32 1.88916 185.346 1.10498 184.3 0.273275 183.778-0.78418 183.778-2.06738 183.778-2.89909 183.813-4.16447 183.885-5.86352 183.956-7.56258 183.992-8.82796 183.992-9.65967 183.992-12.9152 183.778-19.0817 183.35-28.1592 182.922-28.1592 181.865-28.1592 180.178-28.1592 177.754-28.1592 175.983-28.3849 174.867-28.8364 173.084-29.5493 172.193-30.9157 172.193-32.9355 172.193-34.2187 172.639-35.3297 173.53-36.2683 174.421-37.2069 175.579-37.6763 177.005-37.6763L198.071-37.6763C202.705-37.6763 205.022-36.0841 205.022-32.8999 205.022-31.5692 204.564-30.4523 203.649-29.5493 202.735-28.6463 201.552-28.1948 200.103-28.1948ZM248.023-2.56641C248.023-1.25944 247.548-0.1604 246.597 0.730713 245.646 1.62183 244.47 2.06738 243.068 2.06738 241.642 2.06738 240.454 1.62183 239.504 0.730713 238.553-0.1604 238.078-1.25944 238.078-2.56641 238.078-3.99219 238.149-6.1368 238.292-9.00024 238.434-11.8637 238.506-14.0083 238.506-15.4341 238.506-16.741 238.446-18.1193 238.327-19.5688 233.908-13.6043 229.939-9.22005 226.422-6.41602 223.238-3.89714 220.874-1.8951 219.329-0.409912 217.784 1.07528 216.121 1.81787 214.339 1.81787 213.008 1.81787 211.82 1.48519 210.774 0.819824 209.562 0.0118815 208.956-1.11686 208.956-2.56641 208.956-8.86361 208.838-15.4341 208.6-22.2778 208.339-29.383 208.208-32.8643 208.208-32.7217 208.208-34.0762 208.671-35.199 209.598-36.0901 210.525-36.9812 211.725-37.4268 213.198-37.4268 215.86-37.4268 217.487-36.0485 218.081-33.292 218.176-32.9118 218.283-30.6068 218.402-26.377L218.759-12.7964C221.824-15.5529 225.091-18.9629 228.561-23.0264 229.369-23.9769 232.327-27.6245 237.436-33.9692 239.124-36.0841 241.001-37.1416 243.068-37.1416 244.47-37.1416 245.646-36.696 246.597-35.8049 247.548-34.9138 248.023-33.8148 248.023-32.5078 248.023-30.0365 248.07-26.3294 248.165-21.3867 248.26-16.444 248.308-12.737 248.308-10.2656 248.308-9.41016 248.26-8.12695 248.165-6.41602 248.07-4.70508 248.023-3.42187 248.023-2.56641ZM281.457-28.1948C280.815-28.1948 279.859-28.2245 278.588-28.2839 277.316-28.3433 276.36-28.373 275.718-28.373 275.362-28.373 274.97-28.3493 274.542-28.3018 275.041-17.6322 275.291-10.0993 275.291-5.70312 275.291-0.380208 273.556 2.28125 270.086 2.28125 268.803 2.28125 267.674 1.88916 266.7 1.10498 265.655 0.273275 265.132-0.78418 265.132-2.06738 265.132-2.89909 265.167-4.16447 265.239-5.86352 265.31-7.56258 265.346-8.82796 265.346-9.65967 265.346-12.9152 265.132-19.0817 264.704-28.1592 264.276-28.1592 263.219-28.1592 261.532-28.1592 259.108-28.1592 257.338-28.3849 256.221-28.8364 254.438-29.5493 253.547-30.9157 253.547-32.9355 253.547-34.2187 253.993-35.3297 254.884-36.2683 255.775-37.2069 256.934-37.6763 258.359-37.6763L279.425-37.6763C284.059-37.6763 286.376-36.0841 286.376-32.8999 286.376-31.5692 285.919-30.4523 285.004-29.5493 284.089-28.6463 282.907-28.1948 281.457-28.1948ZM303.535 0.499023C302.679 0.499023 301.515 0.47526 300.042 0.427734 298.307 0.356445 297.142 0.308919 296.548 0.285156 296.121 0.380208 295.681 0.427734 295.229 0.427734 291.855 0.427734 290.168-1.5446 290.168-5.48926 290.168-5.94075 290.299-7.30713 290.56-9.58838 290.893-12.5112 291.059-15.244 291.059-17.7866 291.059-19.5451 290.946-22.0402 290.72-25.272 290.495-28.5037 290.382-31.0107 290.382-32.793 290.382-36.0247 292.01-37.6406 295.265-37.6406 296.81-37.6406 298.045-37.2248 298.972-36.3931 299.899-35.5614 300.362-34.5158 300.362-33.2563 300.362-31.3315 300.481-28.5869 300.719-25.0225 301.242-25.0462 301.717-25.0581 302.145-25.0581 308.109-25.0581 312.553-24.2739 315.476-22.7056 319.301-20.6619 321.214-17.0856 321.214-11.9766 321.214-7.5804 319.361-4.30111 315.654-2.13867 312.588-0.380208 308.549 0.499023 303.535 0.499023ZM303.321-16.7529C302.632-16.7529 301.836-16.7292 300.933-16.6816 300.933-14.7806 300.754-11.8459 300.398-7.87744 301.61-7.87744 302.655-7.87744 303.535-7.87744 308.834-7.87744 311.483-9.24381 311.483-11.9766 311.483-13.9251 310.901-15.2083 309.737-15.8262 308.667-16.444 306.529-16.7529 303.321-16.7529ZM388.215 1.31885C386.789 1.31885 385.601 0.879232 384.651 0 383.7-0.879232 383.225-1.98421 383.225-3.31494 383.225-5.38232 383.177-9.08935 383.082-14.436 382.631-14.436 382.239-14.436 381.906-14.436 376.797-14.436 371.842-13.9251 367.042-12.9033 367.019-11.9766 366.888-10.3013 366.65-7.87744 366.46-5.81006 366.365-4.10506 366.365-2.76245 366.365-1.41984 365.896-0.308919 364.957 0.570312 364.018 1.44954 362.836 1.88916 361.41 1.88916 359.985 1.88916 358.802 1.44954 357.864 0.570312 356.925-0.308919 356.456-1.42578 356.456-2.78027 356.456-3.58822 356.569-4.68725 356.795-6.07739 357.02-7.46753 357.133-8.56657 357.133-9.37451 357.133-10.7052 357.097-12.7073 357.026-15.3806 356.955-18.054 356.919-20.056 356.919-21.3867 356.919-22.7887 356.919-24.8561 356.919-27.5889 356.943-30.3216 356.955-32.389 356.955-33.791 356.955-35.1217 357.424-36.2267 358.363-37.106 359.302-37.9852 360.484-38.4248 361.91-38.4248 363.335-38.4248 364.523-37.9852 365.474-37.106 366.424-36.2267 366.9-35.1217 366.9-33.791 366.9-32.2702 366.924-30.3691 366.971-28.0879 367.042-24.9274 367.078-23.0501 367.078-22.4561 372.092-23.4066 377.379-23.8224 382.94-23.7036L382.94-24.4878C382.94-25.6997 382.987-27.4344 383.082-29.6919 383.177-31.9494 383.225-33.6603 383.225-34.8247 383.225-36.1554 383.7-37.2604 384.651-38.1396 385.601-39.0189 386.789-39.4585 388.215-39.4585 389.641-39.4585 390.823-39.0189 391.762-38.1396 392.7-37.2604 393.17-36.1554 393.17-34.8247 393.17-33.6366 393.122-31.9137 393.027-29.6562 392.932-27.3988 392.885-25.6759 392.885-24.4878 392.885-22.064 392.932-18.5352 393.027-13.9014 393.122-9.26758 393.17-5.73877 393.17-3.31494 393.17-1.98421 392.7-0.879232 391.762 0 390.823 0.879232 389.641 1.31885 388.215 1.31885ZM430.855 1.96045C429.762 1.96045 428.028 0.902995 425.651-1.21191 423.465-0.166341 421.54 0.623779 419.877 1.15845 418.213 1.69311 416.799 1.96045 415.635 1.96045 409.908 1.96045 405.613 0.427734 402.75-2.6377 399.886-5.70312 398.454-10.2894 398.454-16.3965 398.454-22.1234 400.569-27.0245 404.799-31.0998 409.029-35.1752 414.091-37.2129 419.984-37.2129 422.241-37.2129 424.855-36.5776 427.826-35.307 431.414-33.7776 433.208-32.0014 433.208-29.9782 433.208-29.1312 432.935-28.3901 432.388-27.7548 432.15-26.8136 431.966-25.6313 431.836-24.2079 431.705-22.7846 431.639-21.1199 431.639-19.2141 431.639-14.7206 431.96-11.4857 432.602-9.50929 432.673-9.29765 433.22-8.07423 434.242-5.83902 435.168-3.81545 435.632-2.66257 435.632-2.38039 435.632-1.13357 435.15-0.0983937 434.188 0.725143 433.226 1.54868 432.115 1.96045 430.855 1.96045ZM422.015-22.0996C422.015-22.86 422.069-23.7333 422.176-24.7195 422.283-25.7056 422.443-26.8047 422.657-28.0166 422.182-28.2542 421.76-28.4265 421.392-28.5334 421.023-28.6404 420.708-28.6938 420.447-28.6938 417.215-28.6938 414.388-27.4285 411.964-24.8977 409.54-22.3669 408.328-19.4381 408.328-16.1113 408.328-12.9271 408.898-10.533 410.039-8.92895 411.18-7.32495 412.89-6.52295 415.172-6.52295 416.645-6.52295 418.041-6.76652 419.36-7.25366 420.679-7.7408 421.92-8.45963 423.085-9.41016 422.372-15.0658 422.015-19.2956 422.015-22.0996Z" fill="#462100" transform="matrix(0.01 0 0 0.01 8.84314 9)"/></g></g><text fill="#462100" font-family="Comic Sans MS,Comic Sans MS_MSFontService,sans-serif" font-weight="700" font-size="73" transform="matrix(1 0 0 1 251.857 2294)">Ответить на </text><g clip-path="url(#clip5)" filter="url(#fx1)" transform="translate(632 2266)"><g clip-path="url(#clip6)"><path d="M8.59033 1.63965C7.30713 1.63965 6.11898 1.18815 5.02588 0.285156 3.83773-0.665365 3.24365-1.77034 3.24365-3.02978L3.24365-9.30322C3.24365-11.9647 3.29118-15.446 3.38623-19.7471 3.52881-25.3789 3.6001-28.8483 3.6001-30.1553 3.62386-31.9375 3.77832-33.2207 4.06348-34.0049 4.53874-35.3356 5.48926-36.1792 6.91504-36.5356 8.95866-37.0822 11.8696-37.3555 15.6479-37.3555 19.7114-37.3555 23.4185-36.4287 26.769-34.5752 30.88-32.3415 32.9355-29.2879 32.9355-25.4145 32.9355-22.5392 31.6405-20.258 29.0503-18.5708 33.3989-15.8143 35.5732-12.9152 35.5732-9.87353 35.5732-5.54867 32.0207-2.38818 24.9155-0.39209 20.1392 0.962402 14.6974 1.63965 8.59033 1.63965ZM16.8599-28.979 15.3984-28.979C14.4954-28.979 13.735-28.9671 13.1172-28.9434 13.1172-28.4681 13.1172-27.672 13.1172-26.5552 13.1172-26.0799 13.1528-25.272 13.2241-24.1313 13.3192-22.8006 13.3667-21.9927 13.3667-21.7075 14.3647-21.6362 15.1133-21.6006 15.6123-21.6006 17.2044-21.6006 18.7728-21.862 20.3174-22.3848 22.3848-23.0977 23.4185-24.1076 23.4185-25.4145 23.4185-26.1987 22.6699-26.9888 21.1728-27.7849 19.6758-28.581 18.2381-28.979 16.8599-28.979ZM19.3906-15.4341C18.8678-15.5291 16.6816-15.6361 12.832-15.7549 12.7845-14.8756 12.7607-13.5924 12.7607-11.9053L12.7607-6.84375C21.363-7.22396 25.6641-8.32894 25.6641-10.1587 25.6641-11.1805 24.8561-12.2855 23.2402-13.4736 21.8144-14.543 20.5312-15.1964 19.3906-15.4341ZM58.1273 2.20996C52.7568 2.20996 48.1706 0.724772 44.3685-2.24561 40.305-5.45361 38.2733-9.60026 38.2733-14.6855 38.2733-20.4362 40.1506-25.6997 43.9051-30.4761 48.2062-35.9653 53.6836-38.71 60.3372-38.71 73.0742-38.71 79.4427-33.0781 79.4427-21.8145 79.4427-16.0638 77.7199-10.8359 74.2742-6.13086 70.187-0.570313 64.8047 2.20996 58.1273 2.20996ZM60.3372-29.3354C57.1768-29.3354 54.4202-27.8206 52.0677-24.7908 49.7152-21.761 48.5389-18.3926 48.5389-14.6855 48.5389-12.4518 49.436-10.634 51.2301-9.23193 53.0242-7.82991 55.3232-7.1289 58.1273-7.12891 61.1927-7.1289 63.8185-8.64974 66.0047-11.6914 68.1196-14.6143 69.1771-17.9886 69.1771-21.8145 69.1771-24.7848 68.5652-26.7809 67.3414-27.8027 66.1176-28.8245 63.7829-29.3354 60.3372-29.3354ZM119.527 1.2832C118.101 1.2832 116.919 0.849528 115.98-0.0178223 115.042-0.885172 114.572-1.98421 114.572-3.31494 114.572-5.12093 114.418-7.79427 114.109-11.335 113.8-14.8756 113.646-17.5371 113.646-19.3193 113.646-20.6263 113.729-23.4897 113.895-27.9097 105.364-27.981 100.897-28.0166 100.493-28.0166 99.6134-28.0166 98.4253-27.9215 96.9282-27.7314 96.952-26.6621 97.1064-24.1432 97.3916-20.1748 97.6055-17.0856 97.7124-14.5786 97.7124-12.6538 97.7124-11.5845 97.6055-9.98641 97.3916-7.85962 97.1777-5.73283 97.0708-4.13477 97.0708-3.06543 97.0708-1.7347 96.5955-0.62972 95.645 0.249512 94.6945 1.12874 93.5063 1.56836 92.0806 1.56836 90.6548 1.56836 89.4726 1.12874 88.5339 0.249512 87.5953-0.62972 87.126-1.7347 87.126-3.06543 87.126-4.13477 87.2388-5.73283 87.4646-7.85962 87.6903-9.98641 87.8032-11.5845 87.8032-12.6538 87.8032-14.6974 87.6547-17.7629 87.3577-21.8501 87.0606-25.9373 86.9121-29.0146 86.9121-31.082 86.9121-32.6504 87.4587-33.9574 88.5518-35.0029 89.6449-36.0485 91.0469-36.5713 92.7578-36.5713 93.6133-36.5713 94.8965-36.6901 96.6074-36.9277 98.3184-37.1654 99.6134-37.2842 100.493-37.2842 102.536-37.2842 105.614-37.2604 109.725-37.2129 113.836-37.1654 116.913-37.1416 118.957-37.1416 120.287-37.1416 121.446-36.6782 122.432-35.7515 123.418-34.8247 123.911-33.7435 123.911-32.5078 123.911-31.0583 123.852-28.8958 123.733-26.0205 123.614-23.1452 123.555-20.9946 123.555-19.5688 123.555-17.7391 123.715-15.0301 124.036-11.4419 124.357-7.85368 124.517-5.14469 124.517-3.31494 124.517-1.98421 124.048-0.885172 123.109-0.0178223 122.17 0.849528 120.976 1.2832 119.527 1.2832ZM148.437 2.10303C146.393 2.10303 144.243 1.8654 141.985 1.39014L141.95 15.9331C141.95 17.3114 141.486 18.452 140.559 19.355 139.633 20.258 138.456 20.7095 137.031 20.7095 135.605 20.7095 134.429 20.258 133.502 19.355 132.575 18.452 132.112 17.3114 132.112 15.9331 132.112 14.8162 132.135 10.3844 132.183 2.6377 132.23-3.11296 132.23-7.80615 132.183-11.4419 132.112-16.5747 131.945-20.9946 131.684-24.7017 131.327-29.8107 131.149-32.1514 131.149-31.7236 131.149-33.696 131.589-35.3831 132.468-36.7852 133.49-38.3773 134.868-39.1733 136.603-39.1733 137.934-39.1733 139.05-38.7218 139.953-37.8188 140.856-36.9158 141.308-35.8346 141.308-34.5752L141.272-34.2187C142.864-35.1217 144.462-35.793 146.066-36.2327 147.67-36.6723 149.28-36.8921 150.896-36.8921 156.362-36.8921 160.354-34.5752 162.873-29.9414 164.75-26.4482 165.689-21.9214 165.689-16.3608 165.689-11.1567 164.204-6.84375 161.233-3.42187 158.049 0.261393 153.784 2.10303 148.437 2.10303ZM150.896-27.375C149.399-27.375 147.878-27.0245 146.334-26.3235 144.789-25.6225 143.233-24.571 141.664-23.1689 141.95-18.2738 142.092-13.3667 142.092-8.44775 144.207-7.75863 146.322-7.41406 148.437-7.41406 150.884-7.41406 152.762-8.28141 154.069-10.0161 155.257-11.5845 155.851-13.6994 155.851-16.3608 155.851-19.5688 155.708-21.7907 155.423-23.0264 154.734-25.9255 153.225-27.375 150.896-27.375ZM188.179 2.20996C182.809 2.20996 178.223 0.724772 174.421-2.24561 170.357-5.45361 168.325-9.60026 168.325-14.6855 168.325-20.4362 170.203-25.6997 173.957-30.4761 178.258-35.9653 183.736-38.71 190.389-38.71 203.126-38.71 209.495-33.0781 209.495-21.8145 209.495-16.0638 207.772-10.8359 204.326-6.13086 200.239-0.570313 194.857 2.20996 188.179 2.20996ZM190.389-29.3354C187.229-29.3354 184.472-27.8206 182.12-24.7908 179.767-21.761 178.591-18.3926 178.591-14.6855 178.591-12.4518 179.488-10.634 181.282-9.23193 183.076-7.82991 185.375-7.1289 188.179-7.12891 191.245-7.1289 193.871-8.64974 196.057-11.6914 198.172-14.6143 199.229-17.9886 199.229-21.8145 199.229-24.7848 198.617-26.7809 197.393-27.8027 196.17-28.8245 193.835-29.3354 190.389-29.3354ZM230.866 2.24561C225.638 2.24561 221.253 0.760417 217.713-2.20996 213.982-5.34668 212.117-9.48144 212.117-14.6143 212.117-19.3431 213.792-24.2264 217.142-29.2642 220.944-35.0148 225.364-37.8901 230.402-37.8901 232.874-37.8901 235.761-37.2248 239.064-35.894 243.08-34.2544 245.088-32.3652 245.088-30.2266 245.088-29.0622 244.684-28.0285 243.876-27.1255 243.02-26.1512 241.915-25.6641 240.561-25.6641 239.539-25.6641 238.309-26.2166 236.872-27.3215 235.434-28.4265 233.277-28.979 230.402-28.979 228.572-28.979 226.588-27.1849 224.45-23.5967 222.406-20.1273 221.384-17.1331 221.384-14.6143 221.384-12.1191 222.287-10.1587 224.093-8.73291 225.804-7.37842 228.061-6.70117 230.866-6.70117 232.458-6.70117 234.406-7.30713 236.711-8.51904 239.016-9.73096 240.478-10.3369 241.096-10.3369 242.379-10.3369 243.478-9.87353 244.393-8.94678 245.308-8.02002 245.765-6.96256 245.765-5.77441 245.765-3.9209 243.745-2.06738 239.705-0.213867 236.093 1.42578 233.147 2.24561 230.866 2.24561ZM299.368 0.142578C295.518 0.142578 291.17 0.594076 286.322 1.49707 285.918 1.56836 285.538 1.604 285.181 1.604 283.827 1.604 282.71 1.14062 281.831 0.213867 280.952-0.712891 280.512-1.78223 280.512-2.99414 280.512-4.65755 281.391-5.85758 283.15-6.59424 284.1-6.99821 285.716-7.33089 287.997-7.59228 287.902-10.729 287.855-12.8083 287.855-13.8301 287.855-14.234 287.962-19.1649 288.176-28.6226 287.7-28.6463 287.178-28.6582 286.607-28.6582 286.275-28.6582 285.787-28.6107 285.146-28.5156 284.504-28.4206 284.017-28.373 283.684-28.373 282.33-28.373 281.213-28.783 280.334-29.6028 279.455-30.4226 279.015-31.4504 279.015-32.686 279.015-35.6802 281.165-37.1772 285.467-37.1772 286.061-37.1772 286.964-37.1535 288.176-37.106 289.388-37.0584 290.302-37.0347 290.92-37.0347 291.918-37.0347 293.421-37.1 295.429-37.2307 297.437-37.3614 298.952-37.4268 299.974-37.4268 301.352-37.4268 302.493-37.005 303.396-36.1614 304.299-35.3178 304.75-34.2425 304.75-32.9355 304.75-31.6523 304.293-30.6305 303.378-29.8701 302.463-29.1097 301.328-28.7295 299.974-28.7295 298.81-28.7295 297.954-28.7057 297.408-28.6582 297.17-19.557 297.051-14.6143 297.051-13.8301 297.051-12.6895 297.099-10.931 297.194-8.55469 297.954-8.60221 298.679-8.62597 299.368-8.62598 303.693-8.62597 305.855-7.15267 305.855-4.20605 305.855-2.75651 305.119-1.63965 303.645-0.855469 302.433-0.190104 301.008 0.142578 299.368 0.142578ZM265.149 0.570312C264.365 0.570312 263.177 0.534668 261.585 0.463379 259.993 0.39209 258.805 0.356445 258.02 0.356445L257.343 0.463379C257.201 0.487142 257.034 0.499023 256.844 0.499023 253.47 0.499023 251.783-1.47331 251.783-5.41797 251.783-5.94075 251.913-7.31901 252.175-9.55273 252.507-12.4043 252.674-15.137 252.674-17.751 252.674-19.4144 252.561-21.9154 252.335-25.2541 252.109-28.5928 251.996-31.1058 251.996-32.793 251.996-36.0247 253.624-37.6406 256.88-37.6406 258.258-37.6406 259.422-37.2723 260.373-36.5356 261.442-35.7277 261.977-34.6346 261.977-33.2563 261.977-31.1177 262.096-28.3612 262.333-24.9868 262.856-25.0106 263.331-25.0225 263.759-25.0225 269.51-25.0225 273.823-24.2977 276.698-22.8481 280.785-20.8283 282.829-17.1925 282.829-11.9409 282.829-7.42594 280.88-4.09912 276.983-1.96045 273.918-0.273275 269.973 0.570312 265.149 0.570312ZM264.935-16.7173C264.246-16.7173 263.45-16.6935 262.547-16.646 262.571-14.9113 262.405-11.9766 262.048-7.8418 263.213-7.81803 264.246-7.80615 265.149-7.80615 270.448-7.80615 273.098-9.18441 273.098-11.9409 273.098-14.1034 272.242-15.5054 270.532-16.147 269.581-16.5272 267.716-16.7173 264.935-16.7173Z" fill="#462100" transform="matrix(0.01 0 0 0.01 8.53534 9)"/></g></g><text fill="#462100" font-family="Comic Sans MS,Comic Sans MS_MSFontService,sans-serif" font-weight="700" font-size="73" transform="matrix(1 0 0 1 721.076 2294)">вопросы</text></g></svg>