<svg width="824" height="377" xmlns="http://www.w3.org/2000/svg" xmlns:xlink="http://www.w3.org/1999/xlink" overflow="hidden"><defs><filter id="fx0" x="-10%" y="-10%" width="120%" height="120%" filterUnits="userSpaceOnUse" primitiveUnits="userSpaceOnUse"><feComponentTransfer color-interpolation-filters="sRGB"><feFuncR type="discrete" tableValues="0 0"/><feFuncG type="discrete" tableValues="0 0"/><feFuncB type="discrete" tableValues="0 0"/><feFuncA type="linear" slope="0.219608" intercept="0"/></feComponentTransfer><feGaussianBlur stdDeviation="6.4089 6.4336"/></filter><clipPath id="clip1"><rect x="3530" y="2033" width="824" height="377"/></clipPath><clipPath id="clip2"><rect x="-17.5787" y="-17.4459" width="86.0956" height="57.9525"/></clipPath><clipPath id="clip3"><rect x="0" y="0" width="165" height="76"/></clipPath></defs><g clip-path="url(#clip1)" transform="translate(-3530 -2033)"><g clip-path="url(#clip2)" filter="url(#fx0)" transform="matrix(5.00606 0 0 4.98684 3529 2032)"><g clip-path="url(#clip3)"><path d="M20.575 36.7969C19.5531 29.7944 26.8922 21.562 34.6699 22.6596 54.796 23.3091 62.537 20.7687 80.491 22.6596 98.445 24.5506 105.597 23.4582 130.13 22.6596 136.739 22.3532 145.147 30.2462 144.225 36.7969L144.225 36.7969C145.02 45.771 138.117 50.4897 130.13 50.9341 106.813 48.6142 103.652 53.2947 81.4455 50.934 59.2386 48.5734 48.9455 50.317 34.6699 50.934 26.0493 51.0462 21.4819 44.9621 20.575 36.7968L20.575 36.7969Z" fill="#FFFFFF" fill-rule="evenodd"/><path d="M20.575 36.7969C22.2913 29.5506 26.8422 22.4246 34.6699 22.6596 55.0569 20.5149 62.4651 24.9039 84.3093 22.6596 106.154 20.4154 113.218 22.4302 130.13 22.6596 138.342 22.3209 145.987 29.2505 144.225 36.7969L144.225 36.7969C144.083 43.3308 137.338 50.2245 130.13 50.9341 109.282 51.4298 100.893 50.9909 83.3547 50.9341 65.8167 50.8773 53.8275 51.5278 34.6699 50.934 27.1679 51.3222 20.3289 44.2637 20.575 36.7968L20.575 36.7969Z" stroke="#462100" stroke-width="2" stroke-miterlimit="8" fill="none" fill-rule="evenodd"/><path d="M53.1006 1.27441C50.8633 1.18945 48.6118-1.44434 46.3462-6.62695 44.8452-9.96875 43.5566-13.8203 42.4805-18.1816 40.3848-17.8701 36.958-17.5586 32.2002-17.2471 27.7256-16.9355 24.2988-16.5674 21.9199-16.1426 20.6172-13.0273 18.3516-8.34033 15.123-2.08154 13.877-0.0424805 12.1494 0.977051 9.94043 0.977051 8.38281 0.977051 6.98096 0.446045 5.73486-0.615967 4.48877-1.67798 3.86572-3.03027 3.86572-4.67285 3.86572-6.11719 5.9331-11.0166 10.0679-19.3711 9.67139-20.249 9.50146-21.0703 9.5581-21.835 9.67139-23.1943 11.0449-24.2563 13.6787-25.021 17.7002-31.9878 22.1748-39.2095 27.1025-46.686 34.1826-57.4194 38.5439-62.7861 40.1865-62.7861 43.3018-62.7861 45.3833-60.9028 46.4311-57.1362 46.9976-54.106 47.8896-49.5605 49.1074-43.5 50.835-35.3437 52.9448-26.0122 55.437-15.5054 55.6353-14.7124 56.3574-12.8433 57.6035-9.89795 58.623-7.4624 59.1328-5.63574 59.1328-4.41797 59.1328-2.77539 58.5168-1.40186 57.2849-0.297363 56.053 0.807129 54.6582 1.33105 53.1006 1.27441ZM37.2554-42.3105C35.0464-38.5156 32.0019-33.3472 28.1221-26.8052 29.3965-27.0884 31.3789-27.3149 34.0693-27.4849 37.2412-27.6831 39.2378-27.8389 40.0591-27.9521 39.3794-31.6338 38.4448-36.4199 37.2554-42.3105ZM73.8315 1.9541C72.3022 1.9541 70.8862 1.41602 69.5835 0.339844 68.1675-0.792969 67.4595-2.10986 67.4595-3.61084L67.4595-11.0874C67.4595-14.2593 67.5161-18.4082 67.6294-23.5342 67.7993-30.2461 67.8843-34.3809 67.8843-35.9385 67.9126-38.0625 68.0967-39.5918 68.4365-40.5264 69.0029-42.1123 70.1357-43.1177 71.835-43.5425 74.2705-44.1938 77.7397-44.5195 82.2427-44.5195 87.0854-44.5195 91.5034-43.415 95.4966-41.2061 100.396-38.5439 102.846-34.9048 102.846-30.2886 102.846-26.8618 101.302-24.1431 98.2153-22.1323 103.398-18.8472 105.989-15.3921 105.989-11.7671 105.989-6.61279 101.755-2.84619 93.2876-0.467285 87.5952 1.14697 81.1098 1.9541 73.8315 1.9541ZM83.687-34.5366 81.9453-34.5366C80.8691-34.5366 79.9629-34.5225 79.2266-34.4941 79.2265-33.9277 79.2265-32.979 79.2266-31.6479 79.2265-31.0815 79.269-30.1187 79.354-28.7593 79.4673-27.1733 79.5239-26.2104 79.5239-25.8706 80.7134-25.7856 81.6055-25.7432 82.2002-25.7432 84.0976-25.7432 85.9668-26.0547 87.8076-26.6777 90.2715-27.5273 91.5034-28.731 91.5034-30.2886 91.5034-31.2231 90.6113-32.1648 88.8271-33.1135 87.043-34.0623 85.3296-34.5366 83.687-34.5366ZM86.7031-18.394C86.0801-18.5073 83.4746-18.6348 78.8867-18.7764 78.8301-17.7285 78.8017-16.1992 78.8018-14.1885L78.8018-8.15625C89.0537-8.60937 94.1797-9.92627 94.1797-12.1069 94.1797-13.3247 93.2168-14.6416 91.291-16.0576 89.5918-17.332 88.0625-18.1108 86.7031-18.394ZM148.702 2.33643C147.399 2.33643 145.332 1.07617 142.5-1.44434 139.894-0.198242 137.6 0.743408 135.618 1.38062 133.636 2.01782 131.951 2.33643 130.563 2.33643 123.738 2.33643 118.619 0.509765 115.206-3.14355 111.794-6.79687 110.087-12.2627 110.087-19.541 110.087-26.3662 112.608-32.2073 117.649-37.0642 122.69-41.9211 128.722-44.3496 135.745-44.3496 138.436-44.3496 141.551-43.5925 145.091-42.0782 149.368-40.2556 151.506-38.1386 151.506-35.7274 151.506-34.718 151.18-33.8348 150.529-33.0777 150.245-31.9559 150.026-30.5469 149.87-28.8505 149.714-27.1542 149.637-25.1703 149.637-22.899 149.637-17.5438 150.019-13.6884 150.784-11.333 150.868-11.0808 151.52-9.62271 152.738-6.95883 153.842-4.54718 154.394-3.1732 154.394-2.8369 154.394-1.35097 153.821-0.117264 152.674 0.864212 151.527 1.84569 150.203 2.33643 148.702 2.33643ZM138.167-26.3379C138.167-27.2441 138.231-28.2849 138.358-29.4602 138.485-30.6355 138.677-31.9453 138.931-33.3896 138.365-33.6728 137.862-33.8782 137.423-34.0056 136.984-34.1331 136.609-34.1968 136.298-34.1968 132.446-34.1968 129.076-32.6887 126.187-29.6726 123.299-26.6565 121.854-23.166 121.854-19.2012 121.854-15.4062 122.534-12.553 123.893-10.6414 125.253-8.72974 127.292-7.77393 130.011-7.77393 131.766-7.77393 133.43-8.06421 135.002-8.64477 136.574-9.22534 138.054-10.082 139.441-11.2148 138.592-17.9551 138.167-22.9961 138.167-26.3379ZM195.17 1.57178C193.471 1.57178 192.055 1.04785 190.922 0 189.789-1.04785 189.223-2.36475 189.223-3.95068 189.223-6.41455 189.166-10.8325 189.053-17.2046 188.515-17.2046 188.048-17.2046 187.651-17.2046 181.562-17.2046 175.658-16.5957 169.937-15.3779 169.909-14.2734 169.753-12.2769 169.47-9.38818 169.243-6.92432 169.13-4.89233 169.13-3.29224 169.13-1.69214 168.57-0.368164 167.452 0.679687 166.333 1.72754 164.924 2.25146 163.225 2.25146 161.526 2.25146 160.117 1.72754 158.998 0.679687 157.879-0.368164 157.32-1.69922 157.32-3.31348 157.32-4.27637 157.455-5.58618 157.724-7.24292 157.993-8.89966 158.127-10.2095 158.127-11.1724 158.127-12.7583 158.085-15.1443 158-18.3303 157.915-21.5164 157.872-23.9023 157.872-25.4883 157.872-27.1592 157.872-29.623 157.872-32.8799 157.901-36.1367 157.915-38.6006 157.915-40.2715 157.915-41.8574 158.474-43.1743 159.593-44.2222 160.711-45.27 162.12-45.7939 163.82-45.7939 165.519-45.7939 166.935-45.27 168.068-44.2222 169.201-43.1743 169.767-41.8574 169.767-40.2715 169.767-38.459 169.795-36.1934 169.852-33.4746 169.937-29.708 169.979-27.4707 169.979-26.7627 175.955-27.8955 182.256-28.3911 188.883-28.2495L188.883-29.1841C188.883-30.6284 188.94-32.6958 189.053-35.3862 189.166-38.0767 189.223-40.1157 189.223-41.5034 189.223-43.0894 189.789-44.4062 190.922-45.4541 192.055-46.5019 193.471-47.0259 195.17-47.0259 196.869-47.0259 198.278-46.5019 199.397-45.4541 200.516-44.4062 201.075-43.0894 201.075-41.5034 201.075-40.0874 201.018-38.0342 200.905-35.3437 200.792-32.6533 200.735-30.6001 200.735-29.1841 200.735-26.2954 200.792-22.0898 200.905-16.5674 201.018-11.0449 201.075-6.83935 201.075-3.95068 201.075-2.36475 200.516-1.04785 199.397 0 198.278 1.04785 196.869 1.57178 195.17 1.57178ZM220.631-34.0269C220.83-32.5825 221.056-30.4302 221.311-27.5698 221.736-16.1284 221.948-8.12793 221.948-3.56836 221.948-1.98242 221.382-0.665527 220.249 0.382324 219.116 1.43018 217.7 1.9541 216.001 1.9541 214.302 1.9541 212.893 1.43018 211.774 0.382324 210.656-0.665527 210.096-1.98242 210.096-3.56836 210.096-7.95801 209.898-15.8452 209.501-27.23 209.473-28.2778 209.289-30.0054 208.949-32.4126 208.666-34.6216 208.524-36.335 208.524-37.5527 208.524-42.5088 212.362-44.9868 220.037-44.9868 221.623-44.9868 224.023-44.916 227.237-44.7744 230.451-44.6328 232.852-44.562 234.438-44.562 235.089-44.562 236.059-44.6116 237.347-44.7107 238.636-44.8098 239.606-44.8594 240.257-44.8594 241.928-44.8594 243.33-44.3071 244.463-43.2026 245.511-42.1265 246.035-40.8237 246.035-39.2944 246.035-36.689 244.689-34.9756 241.999-34.1543 240.611-33.7295 238.19-33.5171 234.735-33.5171 233.234-33.5171 230.883-33.602 227.683-33.772 224.596-33.9419 222.246-34.0269 220.631-34.0269ZM286.202 2.33643C284.899 2.33643 282.832 1.07617 280-1.44434 277.394-0.198242 275.1 0.743408 273.118 1.38062 271.136 2.01782 269.451 2.33643 268.063 2.33643 261.238 2.33643 256.119 0.509765 252.706-3.14355 249.294-6.79687 247.587-12.2627 247.587-19.541 247.587-26.3662 250.108-32.2073 255.149-37.0642 260.19-41.9211 266.222-44.3496 273.245-44.3496 275.936-44.3496 279.051-43.5925 282.591-42.0782 286.867-40.2556 289.006-38.1386 289.006-35.7274 289.006-34.718 288.68-33.8348 288.029-33.0777 287.745-31.9559 287.526-30.5469 287.37-28.8505 287.214-27.1542 287.137-25.1703 287.137-22.899 287.137-17.5438 287.519-13.6884 288.284-11.333 288.368-11.0808 289.02-9.62271 290.238-6.95883 291.342-4.54718 291.894-3.1732 291.894-2.8369 291.894-1.35097 291.321-0.117264 290.174 0.864212 289.027 1.84569 287.703 2.33643 286.202 2.33643ZM275.667-26.3379C275.667-27.2441 275.731-28.2849 275.858-29.4602 275.985-30.6355 276.177-31.9453 276.431-33.3896 275.865-33.6728 275.362-33.8782 274.923-34.0056 274.484-34.1331 274.109-34.1968 273.798-34.1968 269.946-34.1968 266.576-32.6887 263.687-29.6726 260.799-26.6565 259.354-23.166 259.354-19.2012 259.354-15.4062 260.034-12.553 261.393-10.6414 262.753-8.72974 264.792-7.77393 267.511-7.77393 269.266-7.77393 270.93-8.06421 272.502-8.64477 274.074-9.22534 275.554-10.082 276.941-11.2148 276.092-17.9551 275.667-22.9961 275.667-26.3379ZM317.292 2.50635C314.857 2.50635 312.294 2.22314 309.603 1.65674L309.561 18.9888C309.561 20.6313 309.009 21.9907 307.904 23.0669 306.8 24.1431 305.398 24.6812 303.699 24.6812 301.999 24.6812 300.597 24.1431 299.493 23.0669 298.388 21.9907 297.836 20.6313 297.836 18.9888 297.836 17.6577 297.865 12.376 297.921 3.14355 297.978-3.70996 297.978-9.30322 297.921-13.6362 297.836-19.7534 297.638-25.021 297.326-29.439 296.902-35.5278 296.689-38.3174 296.689-37.8076 296.689-40.1582 297.213-42.1689 298.261-43.8398 299.479-45.7373 301.121-46.686 303.189-46.686 304.775-46.686 306.106-46.1479 307.182-45.0718 308.258-43.9956 308.796-42.707 308.796-41.2061L308.754-40.7812C310.651-41.8574 312.556-42.6575 314.467-43.1814 316.379-43.7053 318.298-43.9673 320.223-43.9673 326.737-43.9673 331.495-41.2061 334.497-35.6836 336.734-31.5205 337.853-26.1255 337.853-19.4985 337.853-13.2964 336.083-8.15625 332.543-4.07812 328.748 0.311523 323.664 2.50635 317.292 2.50635ZM320.223-32.625C318.439-32.625 316.627-32.2073 314.786-31.3718 312.945-30.5364 311.09-29.2832 309.221-27.6123 309.561-21.7783 309.731-15.9302 309.731-10.0679 312.251-9.24658 314.772-8.83594 317.292-8.83594 320.209-8.83594 322.447-9.86963 324.004-11.937 325.42-13.8062 326.128-16.3267 326.128-19.4985 326.128-23.3218 325.958-25.9697 325.618-27.4424 324.797-30.8975 322.999-32.625 320.223-32.625ZM385.109 10.875C382.418 10.875 380.634 9.72803 379.756 7.43408 379.19 5.98975 378.963 3.72412 379.076 0.637207L357.199 0.637207C356.972 0.637207 355.033 0.778808 351.379 1.06201 351.379 1.51514 351.393 2.24438 351.422 3.24976 351.45 4.25513 351.464 5.02685 351.464 5.56494 351.464 7.1792 350.905 8.51025 349.786 9.5581 348.668 10.606 347.259 11.1299 345.559 11.1299 341.481 11.1299 339.442 8.62353 339.442 3.61084 339.442 2.59131 339.471 1.21777 339.527-0.509766 339.584-2.2373 339.612-3.59668 339.612-4.58789 339.612-6.23047 340.179-7.57568 341.311-8.62353 342.359-9.58642 343.704-10.0962 345.347-10.1528 347.867-13.7212 349.595-17.9551 350.53-22.8545 351.181-26.3379 351.507-30.9116 351.507-36.5757 351.507-42.1548 354.537-44.9443 360.597-44.9443 361.305-44.9443 362.629-44.8948 364.569-44.7957 366.509-44.6965 368.046-44.647 369.179-44.647 370.255-44.647 371.855-44.7319 373.979-44.9019 376.103-45.0718 377.632-45.1567 378.567-45.1567 381.399-45.1567 383.282-44.0947 384.217-41.9707 384.783-40.6963 385.066-38.5723 385.066-35.5986 385.066-34.3809 384.988-32.5684 384.833-30.1611 384.677-27.7539 384.599-25.9414 384.599-24.7236 384.599-23.6475 384.67-18.479 384.811-9.21826 388.833-8.82178 390.844-6.98096 390.844-3.6958 390.844-2.59131 390.872-1.09033 390.929 0.807129 390.985 2.70459 391.013 4.19141 391.013 5.26758 391.013 6.88184 390.454 8.21997 389.336 9.28198 388.217 10.344 386.808 10.875 385.109 10.875ZM357.539-9.68555 372.959-9.68555C372.818-19.0029 372.747-24.0156 372.747-24.7236 372.747-25.8564 372.818-27.5415 372.959-29.7788 373.129-32.5542 373.214-34.2534 373.214-34.8765 368.201-34.7349 364.874-34.7065 363.231-34.7915 362.976-24.9927 361.079-16.624 357.539-9.68555Z" fill="#462100" transform="matrix(0.199758 0 0 0.200528 43.3119 41)"/><path d="M53.1006 1.27441C50.8633 1.18945 48.6118-1.44434 46.3462-6.62695 44.8452-9.96875 43.5566-13.8203 42.4805-18.1816 40.3848-17.8701 36.958-17.5586 32.2002-17.2471 27.7256-16.9355 24.2988-16.5674 21.9199-16.1426 20.6172-13.0273 18.3516-8.34033 15.123-2.08154 13.877-0.0424805 12.1494 0.977051 9.94043 0.977051 8.38281 0.977051 6.98096 0.446045 5.73486-0.615967 4.48877-1.67798 3.86572-3.03027 3.86572-4.67285 3.86572-6.11719 5.9331-11.0166 10.0679-19.3711 9.67139-20.249 9.50146-21.0703 9.5581-21.835 9.67139-23.1943 11.0449-24.2563 13.6787-25.021 17.7002-31.9878 22.1748-39.2095 27.1025-46.686 34.1826-57.4194 38.5439-62.7861 40.1865-62.7861 43.3018-62.7861 45.3833-60.9028 46.4311-57.1362 46.9976-54.106 47.8896-49.5605 49.1074-43.5 50.835-35.3437 52.9448-26.0122 55.437-15.5054 55.6353-14.7124 56.3574-12.8433 57.6035-9.89795 58.623-7.4624 59.1328-5.63574 59.1328-4.41797 59.1328-2.77539 58.5168-1.40186 57.2849-0.297363 56.053 0.807129 54.6582 1.33105 53.1006 1.27441ZM37.2554-42.3105C35.0464-38.5156 32.0019-33.3472 28.1221-26.8052 29.3965-27.0884 31.3789-27.3149 34.0693-27.4849 37.2412-27.6831 39.2378-27.8389 40.0591-27.9521 39.3794-31.6338 38.4448-36.4199 37.2554-42.3105ZM73.8315 1.9541C72.3022 1.9541 70.8862 1.41602 69.5835 0.339844 68.1675-0.792969 67.4595-2.10986 67.4595-3.61084L67.4595-11.0874C67.4595-14.2593 67.5161-18.4082 67.6294-23.5342 67.7993-30.2461 67.8843-34.3809 67.8843-35.9385 67.9126-38.0625 68.0967-39.5918 68.4365-40.5264 69.0029-42.1123 70.1357-43.1177 71.835-43.5425 74.2705-44.1938 77.7397-44.5195 82.2427-44.5195 87.0854-44.5195 91.5034-43.415 95.4966-41.2061 100.396-38.5439 102.846-34.9048 102.846-30.2886 102.846-26.8618 101.302-24.1431 98.2153-22.1323 103.398-18.8472 105.989-15.3921 105.989-11.7671 105.989-6.61279 101.755-2.84619 93.2876-0.467285 87.5952 1.14697 81.1098 1.9541 73.8315 1.9541ZM83.687-34.5366 81.9453-34.5366C80.8691-34.5366 79.9629-34.5225 79.2266-34.4941 79.2265-33.9277 79.2265-32.979 79.2266-31.6479 79.2265-31.0815 79.269-30.1187 79.354-28.7593 79.4673-27.1733 79.5239-26.2104 79.5239-25.8706 80.7134-25.7856 81.6055-25.7432 82.2002-25.7432 84.0976-25.7432 85.9668-26.0547 87.8076-26.6777 90.2715-27.5273 91.5034-28.731 91.5034-30.2886 91.5034-31.2231 90.6113-32.1648 88.8271-33.1135 87.043-34.0623 85.3296-34.5366 83.687-34.5366ZM86.7031-18.394C86.0801-18.5073 83.4746-18.6348 78.8867-18.7764 78.8301-17.7285 78.8017-16.1992 78.8018-14.1885L78.8018-8.15625C89.0537-8.60937 94.1797-9.92627 94.1797-12.1069 94.1797-13.3247 93.2168-14.6416 91.291-16.0576 89.5918-17.332 88.0625-18.1108 86.7031-18.394ZM148.702 2.33643C147.399 2.33643 145.332 1.07617 142.5-1.44434 139.894-0.198242 137.6 0.743408 135.618 1.38062 133.636 2.01782 131.951 2.33643 130.563 2.33643 123.738 2.33643 118.619 0.509765 115.206-3.14355 111.794-6.79687 110.087-12.2627 110.087-19.541 110.087-26.3662 112.608-32.2073 117.649-37.0642 122.69-41.9211 128.722-44.3496 135.745-44.3496 138.436-44.3496 141.551-43.5925 145.091-42.0782 149.368-40.2556 151.506-38.1386 151.506-35.7274 151.506-34.718 151.18-33.8348 150.529-33.0777 150.245-31.9559 150.026-30.5469 149.87-28.8505 149.714-27.1542 149.637-25.1703 149.637-22.899 149.637-17.5438 150.019-13.6884 150.784-11.333 150.868-11.0808 151.52-9.62271 152.738-6.95883 153.842-4.54718 154.394-3.1732 154.394-2.8369 154.394-1.35097 153.821-0.117264 152.674 0.864212 151.527 1.84569 150.203 2.33643 148.702 2.33643ZM138.167-26.3379C138.167-27.2441 138.231-28.2849 138.358-29.4602 138.485-30.6355 138.677-31.9453 138.931-33.3896 138.365-33.6728 137.862-33.8782 137.423-34.0056 136.984-34.1331 136.609-34.1968 136.298-34.1968 132.446-34.1968 129.076-32.6887 126.187-29.6726 123.299-26.6565 121.854-23.166 121.854-19.2012 121.854-15.4062 122.534-12.553 123.893-10.6414 125.253-8.72974 127.292-7.77393 130.011-7.77393 131.766-7.77393 133.43-8.06421 135.002-8.64477 136.574-9.22534 138.054-10.082 139.441-11.2148 138.592-17.9551 138.167-22.9961 138.167-26.3379ZM195.17 1.57178C193.471 1.57178 192.055 1.04785 190.922 0 189.789-1.04785 189.223-2.36475 189.223-3.95068 189.223-6.41455 189.166-10.8325 189.053-17.2046 188.515-17.2046 188.048-17.2046 187.651-17.2046 181.562-17.2046 175.658-16.5957 169.937-15.3779 169.909-14.2734 169.753-12.2769 169.47-9.38818 169.243-6.92432 169.13-4.89233 169.13-3.29224 169.13-1.69214 168.57-0.368164 167.452 0.679687 166.333 1.72754 164.924 2.25146 163.225 2.25146 161.526 2.25146 160.117 1.72754 158.998 0.679687 157.879-0.368164 157.32-1.69922 157.32-3.31348 157.32-4.27637 157.455-5.58618 157.724-7.24292 157.993-8.89966 158.127-10.2095 158.127-11.1724 158.127-12.7583 158.085-15.1443 158-18.3303 157.915-21.5164 157.872-23.9023 157.872-25.4883 157.872-27.1592 157.872-29.623 157.872-32.8799 157.901-36.1367 157.915-38.6006 157.915-40.2715 157.915-41.8574 158.474-43.1743 159.593-44.2222 160.711-45.27 162.12-45.7939 163.82-45.7939 165.519-45.7939 166.935-45.27 168.068-44.2222 169.201-43.1743 169.767-41.8574 169.767-40.2715 169.767-38.459 169.795-36.1934 169.852-33.4746 169.937-29.708 169.979-27.4707 169.979-26.7627 175.955-27.8955 182.256-28.3911 188.883-28.2495L188.883-29.1841C188.883-30.6284 188.94-32.6958 189.053-35.3862 189.166-38.0767 189.223-40.1157 189.223-41.5034 189.223-43.0894 189.789-44.4062 190.922-45.4541 192.055-46.5019 193.471-47.0259 195.17-47.0259 196.869-47.0259 198.278-46.5019 199.397-45.4541 200.516-44.4062 201.075-43.0894 201.075-41.5034 201.075-40.0874 201.018-38.0342 200.905-35.3437 200.792-32.6533 200.735-30.6001 200.735-29.1841 200.735-26.2954 200.792-22.0898 200.905-16.5674 201.018-11.0449 201.075-6.83935 201.075-3.95068 201.075-2.36475 200.516-1.04785 199.397 0 198.278 1.04785 196.869 1.57178 195.17 1.57178ZM220.631-34.0269C220.83-32.5825 221.056-30.4302 221.311-27.5698 221.736-16.1284 221.948-8.12793 221.948-3.56836 221.948-1.98242 221.382-0.665527 220.249 0.382324 219.116 1.43018 217.7 1.9541 216.001 1.9541 214.302 1.9541 212.893 1.43018 211.774 0.382324 210.656-0.665527 210.096-1.98242 210.096-3.56836 210.096-7.95801 209.898-15.8452 209.501-27.23 209.473-28.2778 209.289-30.0054 208.949-32.4126 208.666-34.6216 208.524-36.335 208.524-37.5527 208.524-42.5088 212.362-44.9868 220.037-44.9868 221.623-44.9868 224.023-44.916 227.237-44.7744 230.451-44.6328 232.852-44.562 234.438-44.562 235.089-44.562 236.059-44.6116 237.347-44.7107 238.636-44.8098 239.606-44.8594 240.257-44.8594 241.928-44.8594 243.33-44.3071 244.463-43.2026 245.511-42.1265 246.035-40.8237 246.035-39.2944 246.035-36.689 244.689-34.9756 241.999-34.1543 240.611-33.7295 238.19-33.5171 234.735-33.5171 233.234-33.5171 230.883-33.602 227.683-33.772 224.596-33.9419 222.246-34.0269 220.631-34.0269ZM286.202 2.33643C284.899 2.33643 282.832 1.07617 280-1.44434 277.394-0.198242 275.1 0.743408 273.118 1.38062 271.136 2.01782 269.451 2.33643 268.063 2.33643 261.238 2.33643 256.119 0.509765 252.706-3.14355 249.294-6.79687 247.587-12.2627 247.587-19.541 247.587-26.3662 250.108-32.2073 255.149-37.0642 260.19-41.9211 266.222-44.3496 273.245-44.3496 275.936-44.3496 279.051-43.5925 282.591-42.0782 286.867-40.2556 289.006-38.1386 289.006-35.7274 289.006-34.718 288.68-33.8348 288.029-33.0777 287.745-31.9559 287.526-30.5469 287.37-28.8505 287.214-27.1542 287.137-25.1703 287.137-22.899 287.137-17.5438 287.519-13.6884 288.284-11.333 288.368-11.0808 289.02-9.62271 290.238-6.95883 291.342-4.54718 291.894-3.1732 291.894-2.8369 291.894-1.35097 291.321-0.117264 290.174 0.864212 289.027 1.84569 287.703 2.33643 286.202 2.33643ZM275.667-26.3379C275.667-27.2441 275.731-28.2849 275.858-29.4602 275.985-30.6355 276.177-31.9453 276.431-33.3896 275.865-33.6728 275.362-33.8782 274.923-34.0056 274.484-34.1331 274.109-34.1968 273.798-34.1968 269.946-34.1968 266.576-32.6887 263.687-29.6726 260.799-26.6565 259.354-23.166 259.354-19.2012 259.354-15.4062 260.034-12.553 261.393-10.6414 262.753-8.72974 264.792-7.77393 267.511-7.77393 269.266-7.77393 270.93-8.06421 272.502-8.64477 274.074-9.22534 275.554-10.082 276.941-11.2148 276.092-17.9551 275.667-22.9961 275.667-26.3379ZM317.292 2.50635C314.857 2.50635 312.294 2.22314 309.603 1.65674L309.561 18.9888C309.561 20.6313 309.009 21.9907 307.904 23.0669 306.8 24.1431 305.398 24.6812 303.699 24.6812 301.999 24.6812 300.597 24.1431 299.493 23.0669 298.388 21.9907 297.836 20.6313 297.836 18.9888 297.836 17.6577 297.865 12.376 297.921 3.14355 297.978-3.70996 297.978-9.30322 297.921-13.6362 297.836-19.7534 297.638-25.021 297.326-29.439 296.902-35.5278 296.689-38.3174 296.689-37.8076 296.689-40.1582 297.213-42.1689 298.261-43.8398 299.479-45.7373 301.121-46.686 303.189-46.686 304.775-46.686 306.106-46.1479 307.182-45.0718 308.258-43.9956 308.796-42.707 308.796-41.2061L308.754-40.7812C310.651-41.8574 312.556-42.6575 314.467-43.1814 316.379-43.7053 318.298-43.9673 320.223-43.9673 326.737-43.9673 331.495-41.2061 334.497-35.6836 336.734-31.5205 337.853-26.1255 337.853-19.4985 337.853-13.2964 336.083-8.15625 332.543-4.07812 328.748 0.311523 323.664 2.50635 317.292 2.50635ZM320.223-32.625C318.439-32.625 316.627-32.2073 314.786-31.3718 312.945-30.5364 311.09-29.2832 309.221-27.6123 309.561-21.7783 309.731-15.9302 309.731-10.0679 312.251-9.24658 314.772-8.83594 317.292-8.83594 320.209-8.83594 322.447-9.86963 324.004-11.937 325.42-13.8062 326.128-16.3267 326.128-19.4985 326.128-23.3218 325.958-25.9697 325.618-27.4424 324.797-30.8975 322.999-32.625 320.223-32.625ZM385.109 10.875C382.418 10.875 380.634 9.72803 379.756 7.43408 379.19 5.98975 378.963 3.72412 379.076 0.637207L357.199 0.637207C356.972 0.637207 355.033 0.778808 351.379 1.06201 351.379 1.51514 351.393 2.24438 351.422 3.24976 351.45 4.25513 351.464 5.02685 351.464 5.56494 351.464 7.1792 350.905 8.51025 349.786 9.5581 348.668 10.606 347.259 11.1299 345.559 11.1299 341.481 11.1299 339.442 8.62353 339.442 3.61084 339.442 2.59131 339.471 1.21777 339.527-0.509766 339.584-2.2373 339.612-3.59668 339.612-4.58789 339.612-6.23047 340.179-7.57568 341.311-8.62353 342.359-9.58642 343.704-10.0962 345.347-10.1528 347.867-13.7212 349.595-17.9551 350.53-22.8545 351.181-26.3379 351.507-30.9116 351.507-36.5757 351.507-42.1548 354.537-44.9443 360.597-44.9443 361.305-44.9443 362.629-44.8948 364.569-44.7957 366.509-44.6965 368.046-44.647 369.179-44.647 370.255-44.647 371.855-44.7319 373.979-44.9019 376.103-45.0718 377.632-45.1567 378.567-45.1567 381.399-45.1567 383.282-44.0947 384.217-41.9707 384.783-40.6963 385.066-38.5723 385.066-35.5986 385.066-34.3809 384.988-32.5684 384.833-30.1611 384.677-27.7539 384.599-25.9414 384.599-24.7236 384.599-23.6475 384.67-18.479 384.811-9.21826 388.833-8.82178 390.844-6.98096 390.844-3.6958 390.844-2.59131 390.872-1.09033 390.929 0.807129 390.985 2.70459 391.013 4.19141 391.013 5.26758 391.013 6.88184 390.454 8.21997 389.336 9.28198 388.217 10.344 386.808 10.875 385.109 10.875ZM357.539-9.68555 372.959-9.68555C372.818-19.0029 372.747-24.0156 372.747-24.7236 372.747-25.8564 372.818-27.5415 372.959-29.7788 373.129-32.5542 373.214-34.2534 373.214-34.8765 368.201-34.7349 364.874-34.7065 363.231-34.7915 362.976-24.9927 361.079-16.624 357.539-9.68555Z" fill="#462100" transform="matrix(0.199758 0 0 0.200528 43.3119 41)"/></g></g><path d="M3632 2160.5C3626.88 2125.58 3663.62 2084.53 3702.56 2090 3803.31 2093.24 3842.06 2080.57 3931.94 2090 4021.82 2099.43 4057.63 2093.98 4180.44 2090 4213.52 2088.47 4255.62 2127.83 4251 2160.5L4251 2160.5C4254.98 2205.25 4220.42 2228.78 4180.44 2231 4063.71 2219.43 4047.89 2242.77 3936.72 2231 3825.55 2219.23 3774.02 2227.92 3702.56 2231 3659.4 2231.56 3636.54 2201.22 3632 2160.5L3632 2160.5Z" fill="#FFFFFF" fill-rule="evenodd"/><path d="M3632 2160.5C3640.59 2124.36 3663.37 2088.83 3702.56 2090 3804.62 2079.3 3841.7 2101.19 3951.06 2090 4060.41 2078.81 4095.78 2088.86 4180.44 2090 4221.55 2088.31 4259.82 2122.87 4251 2160.5L4251 2160.5C4250.29 2193.08 4216.52 2227.46 4180.44 2231 4076.07 2233.47 4034.08 2231.28 3946.28 2231 3858.48 2230.72 3798.46 2233.96 3702.56 2231 3665 2232.94 3630.77 2197.74 3632 2160.5L3632 2160.5Z" stroke="#462100" stroke-width="10.3125" stroke-miterlimit="8" fill="none" fill-rule="evenodd"/><text fill="#462100" font-family="Comic Sans MS,Comic Sans MS_MSFontService,sans-serif" font-weight="700" font-size="87" transform="matrix(1 0 0 1 3745.82 2184)">Авангард</text><path d="M4024 2243C4024 2264.54 4006.32 2282 3984.5 2282 3962.68 2282 3945 2264.54 3945 2243 3945 2221.46 3962.68 2204 3984.5 2204 4006.32 2204 4024 2221.46 4024 2243Z" fill="#F2EBEA" fill-rule="evenodd"/><path d="M4006.84 2242.11C4007.34 2254.37 3997.82 2264.72 3985.56 2265.23 3973.3 2265.74 3962.95 2256.21 3962.44 2243.96 3961.93 2231.7 3971.46 2221.35 3983.72 2220.84 3995.98 2220.33 4006.33 2229.85 4006.84 2242.11Z" fill="#C9AFAB" fill-rule="evenodd"/><path d="M4051.45 2283.11C4046.69 2282.84 4042.54 2285.59 4040.7 2289.61L4040.7 2284.7C4040.7 2278.54 4035.7 2273.55 4029.55 2273.55L4029.55 2273.55C4025.48 2273.55 4021.93 2275.75 4019.99 2278.98L4019.99 2278.32C4019.99 2272.16 4014.99 2267.18 4008.85 2267.18L4008.85 2267.18C4003.52 2267.18 3999.06 2270.92 3997.95 2275.94L3997.95 2245.62C3997.95 2239.9 3993.84 2234.74 3988.16 2234.08 3981.4 2233.28 3975.66 2238.54 3975.66 2245.15L3975.66 2310.64C3975.66 2311.4 3974.63 2311.65 3974.28 2310.97L3963.25 2289.32C3960.66 2283.73 3954.03 2281.31 3948.44 2283.93 3942.86 2286.53 3940.44 2293.16 3943.05 2298.74L3962.05 2349.36 3976.59 2375.98C3977.27 2377.23 3978.57 2378 3980 2378L4047.73 2378C4049.56 2378 4051.13 2376.74 4051.51 2374.96L4061.11 2331.18C4061.69 2328.89 4062 2326.54 4062 2324.2L4062 2294.77C4062 2288.95 4057.29 2283.48 4051.47 2283.15Z" fill="#875E21" fill-rule="evenodd"/></g></svg>