<svg width="1290" height="369" xmlns="http://www.w3.org/2000/svg" xmlns:xlink="http://www.w3.org/1999/xlink" overflow="hidden"><defs><filter id="fx0" x="-10%" y="-10%" width="120%" height="120%" filterUnits="userSpaceOnUse" primitiveUnits="userSpaceOnUse"><feComponentTransfer color-interpolation-filters="sRGB"><feFuncR type="discrete" tableValues="0 0"/><feFuncG type="discrete" tableValues="0 0"/><feFuncB type="discrete" tableValues="0 0"/><feFuncA type="linear" slope="0.219608" intercept="0"/></feComponentTransfer><feGaussianBlur stdDeviation="6.40673 6.38217"/></filter><clipPath id="clip1"><rect x="602" y="310" width="1290" height="369"/></clipPath><clipPath id="clip2"><rect x="-17.5728" y="-17.5054" width="111.028" height="58.086"/></clipPath><clipPath id="clip3"><rect x="0" y="0" width="258" height="74"/></clipPath></defs><g clip-path="url(#clip1)" transform="translate(-602 -310)"><g clip-path="url(#clip2)" filter="url(#fx0)" transform="matrix(5.00775 0 0 5.02703 601 308)"><g clip-path="url(#clip3)"><path d="M20.5681 35.8065C20.7777 29.5741 23.6064 21.2383 28.7948 21.6828 44.5257 22.5903 51.891 20.5399 61.4331 21.6828 70.9752 22.8257 81.2836 20.1032 92.0672 21.6828 102.851 23.2624 108.885 21.4005 118.693 21.6828 128.502 21.9651 134.243 19.5837 143.315 21.6828 152.388 23.7819 167.9 21.789 175.953 21.6828 184.007 21.5766 191.703 20.3085 202.579 21.6828 213.456 23.0571 222.614 22.3505 229.205 21.6828 233.519 21.619 237.358 26.9547 237.432 35.8065L237.432 35.8065C237.177 44.6224 233.721 49.7375 229.205 49.9302 215.926 51.096 207.77 51.1493 198.571 49.9302 189.372 48.711 182.075 48.9398 175.953 49.9302 169.831 50.9206 156.764 47.8219 149.327 49.9302 141.89 52.0384 132.844 48.5427 126.71 49.9301 120.575 51.3175 106.035 52.3654 94.0713 49.9301 82.1074 47.4948 76.0092 49.1184 65.4413 49.9301 54.8734 50.7418 39.4801 48.5053 28.7948 49.9301 24.8202 49.8068 20.1664 45.4149 20.5681 35.8064L20.5681 35.8065Z" fill="#FFFFFF" fill-rule="evenodd"/><path d="M20.5681 35.8065C20.3807 27.6931 24.3756 21.8109 28.7948 21.6828 37.8181 20.3 50.9628 24.0005 59.429 21.6828 67.8952 19.3651 75.5925 23.3799 90.0631 21.6828 104.534 19.9857 115.875 23.0953 122.701 21.6828 129.528 20.2703 139.328 20.2348 149.327 21.6828 159.327 23.1307 164.472 20.8817 177.957 21.6828 191.442 22.4839 206.288 22.6849 229.205 21.6828 233.963 20.7351 237.263 27.6433 237.432 35.8065L237.432 35.8065C237.003 43.4953 233.73 48.9571 229.205 49.9302 219.975 51.0382 210.711 49.5027 200.575 49.9302 190.44 50.3576 183.241 49.2726 171.945 49.9302 160.65 50.5877 152.1 49.5351 143.315 49.9302 134.53 50.3252 125.272 52.3186 110.677 49.9301 96.0818 47.5416 93.8982 52.3484 78.0385 49.9301 62.1789 47.5118 44.7542 50.9711 28.7948 49.9301 24.4143 49.3822 20.6651 44.7666 20.5681 35.8064L20.5681 35.8065Z" stroke="#462100" stroke-width="2" stroke-miterlimit="8" fill="none" fill-rule="evenodd"/><path d="M50.6592 1.21582C48.5247 1.13477 46.3768-1.37793 44.2153-6.32227 42.7834-9.51042 41.554-13.1849 40.5273-17.3457 38.528-17.0485 35.2588-16.7513 30.7197-16.4541 26.4508-16.1569 23.1816-15.8057 20.9121-15.4004 19.6693-12.4284 17.5078-7.95687 14.4277-1.98584 13.2389-0.0405273 11.5908 0.932129 9.4834 0.932129 7.99739 0.932129 6.65999 0.425537 5.47119-0.587646 4.28239-1.60083 3.68799-2.89095 3.68799-4.45801 3.68799-5.83594 5.66032-10.5101 9.60498-18.4805 9.22672-19.318 9.06461-20.1016 9.11865-20.8311 9.22672-22.1279 10.5371-23.1411 13.0498-23.8706 16.8864-30.5171 21.1553-37.4067 25.8564-44.5395 32.611-54.7795 36.7718-59.8994 38.3389-59.8994 41.3109-59.8994 43.2967-58.1027 44.2964-54.5093 44.8367-51.6183 45.6878-47.2819 46.8496-41.5 48.4977-33.7187 50.5106-24.8162 52.8882-14.7925 53.0773-14.036 53.7663-12.2528 54.9551-9.44287 55.9277-7.1193 56.4141-5.37663 56.4141-4.21484 56.4141-2.64779 55.8264-1.3374 54.6511-0.283691 53.4758 0.770019 52.1452 1.26986 50.6592 1.21582ZM35.5425-40.3652C33.4351-36.7448 30.5306-31.814 26.8291-25.5728 28.0449-25.8429 29.9362-26.0591 32.5029-26.2212 35.529-26.4103 37.4338-26.5589 38.2173-26.667 37.5688-30.1794 36.6772-34.7454 35.5425-40.3652ZM104.047 1.58057C102.426 1.58057 101.082 1.08073 100.015 0.0810547 98.9477-0.91862 98.4141-2.17497 98.4141-3.68799 98.4141-4.49853 98.3465-5.60628 98.2114-7.01123 98.0493-8.6053 97.9547-9.69954 97.9277-10.2939 97.8467-12.3473 97.8061-14.9951 97.8061-18.2373 97.8061-19.4261 97.8602-23.9111 97.9683-31.6924 96.6984-31.5843 95.442-31.5303 94.1992-31.5303 90.2545-31.5303 86.418-31.5978 82.6894-31.7329L82.7705-23.8301C82.7705-15.6436 82.1221-9.82113 80.8252-6.36279 78.8799-1.22933 75.0703 1.3374 69.3965 1.3374 67.1269 1.3374 65.1006 0.878092 63.3174-0.0405273 60.9398-1.25635 59.751-3.05306 59.751-5.43066 59.751-6.75456 60.217-7.90283 61.1492-8.87549 62.0813-9.84814 63.3039-10.3345 64.8169-10.3345 65.4113-10.3345 66.2083-10.1453 67.208-9.76709 68.2077-9.38883 68.9372-9.19971 69.3965-9.19971 71.2337-9.19971 72.1523-12.6715 72.1523-19.6152 72.1523-21.5876 72.0105-24.5326 71.7268-28.4502 71.4431-32.3678 71.3013-35.3128 71.3013-37.2852 71.3013-38.8792 71.8822-40.1491 73.0439-41.0947 74.2057-42.0404 75.5972-42.5132 77.2183-42.5132 77.9207-42.5132 78.8664-42.4862 80.0552-42.4321 81.5412-42.3241 82.4868-42.2565 82.8921-42.2295 85.8371-42.1214 89.6061-42.0674 94.1992-42.0674 95.1989-42.0674 96.6849-42.243 98.6572-42.5942 100.63-42.9455 102.129-43.1211 103.156-43.1211 107.236-43.1211 109.275-41.4054 109.275-37.9741 109.275-35.7856 109.242-32.5097 109.174-28.1462 109.107-23.7828 109.073-20.5203 109.073-18.3589 109.073-15.2788 109.113-12.7256 109.194-10.6992 109.221-10.0508 109.316-8.87549 109.478-7.17334 109.64-5.71435 109.721-4.55257 109.721-3.68799 109.721-2.17497 109.181-0.91862 108.1 0.0810547 107.019 1.08073 105.668 1.58057 104.047 1.58057ZM157.329 1.58057C155.708 1.58057 154.363 1.08073 153.296 0.0810547 152.229-0.91862 151.695-2.17497 151.695-3.68799 151.695-4.49853 151.628-5.60628 151.493-7.01123 151.331-8.6053 151.236-9.69954 151.209-10.2939 151.128-12.3473 151.087-14.9951 151.087-18.2373 151.087-19.4261 151.141-23.9111 151.249-31.6924 149.98-31.5843 148.723-31.5303 147.48-31.5303 143.536-31.5303 139.699-31.5978 135.971-31.7329L136.052-23.8301C136.052-15.6436 135.403-9.82113 134.106-6.36279 132.161-1.22933 128.352 1.3374 122.678 1.3374 120.408 1.3374 118.382 0.878092 116.599-0.0405273 114.221-1.25635 113.032-3.05306 113.032-5.43066 113.032-6.75456 113.498-7.90283 114.43-8.87549 115.363-9.84814 116.585-10.3345 118.098-10.3345 118.693-10.3345 119.49-10.1453 120.489-9.76709 121.489-9.38883 122.218-9.19971 122.678-9.19971 124.515-9.19971 125.434-12.6715 125.434-19.6152 125.434-21.5876 125.292-24.5326 125.008-28.4502 124.724-32.3678 124.583-35.3128 124.583-37.2852 124.583-38.8792 125.163-40.1491 126.325-41.0947 127.487-42.0404 128.878-42.5132 130.499-42.5132 131.202-42.5132 132.148-42.4862 133.336-42.4321 134.822-42.3241 135.768-42.2565 136.173-42.2295 139.118-42.1214 142.887-42.0674 147.48-42.0674 148.48-42.0674 149.966-42.243 151.938-42.5942 153.911-42.9455 155.41-43.1211 156.437-43.1211 160.517-43.1211 162.557-41.4054 162.557-37.9741 162.557-35.7856 162.523-32.5097 162.455-28.1462 162.388-23.7828 162.354-20.5203 162.354-18.3589 162.354-15.2788 162.395-12.7256 162.476-10.6992 162.503-10.0508 162.597-8.87549 162.759-7.17334 162.921-5.71435 163.002-4.55257 163.002-3.68799 163.002-2.17497 162.462-0.91862 161.381 0.0810547 160.301 1.08073 158.95 1.58057 157.329 1.58057ZM191.278 1.86426C184.821 1.86426 179.539 0.324219 175.432-2.75586 170.893-6.16016 168.624-10.9559 168.624-17.1431 168.624-23.9787 170.42-29.7606 174.014-34.4888 178.012-39.7303 183.402-42.3511 190.184-42.3511 194.885-42.3511 198.789-41.5946 201.896-40.0815 205.976-38.0822 208.016-34.9751 208.016-30.7603 208.016-27.7882 206.354-25.154 203.031-22.8574 201.518-21.8037 198.479-20.2637 193.913-18.2373L180.255-12.1987C181.552-10.7938 183.119-9.74007 184.956-9.0376 186.793-8.33512 188.901-7.98389 191.278-7.98389 194.899-7.98389 197.965-8.72689 200.478-10.2129 202.721-11.5368 204.517-12.1987 205.868-12.1987 208.678-12.1987 210.083-10.8343 210.083-8.10547 210.083-5.02539 207.827-2.5127 203.315-0.567383 199.532 1.05371 195.52 1.86426 191.278 1.86426ZM190.184-32.5435C187.671-32.5435 185.523-31.7059 183.74-30.0308 181.957-28.3556 180.525-25.8429 179.444-22.4927 182.497-23.8166 185.537-25.1269 188.563-26.4238 192.21-28.0719 195.115-29.5985 197.276-31.0034 195.466-32.0301 193.102-32.5435 190.184-32.5435ZM245.871 1.45898C244.277 1.45898 242.913 0.972656 241.778 0 240.562-0.999674 239.954-2.26953 239.954-3.80957 239.954-4.56608 239.9-6.91667 239.792-10.8613 235.55-9.29427 229.93-5.67383 222.933 0 221.69 0.999674 220.325 1.49951 218.839 1.49951 217.272 1.49951 215.888 0.99292 214.685-0.0202637 213.483-1.03345 212.882-2.28304 212.882-3.76904 212.882-6.30876 216.745-9.84814 224.473-14.3872 218.772-17.1971 215.921-20.6554 215.921-24.7622 215.921-31.0304 220.352-36.1234 229.214-40.041 232.862-41.6621 237.928-42.4726 244.412-42.4727 246.303-42.4726 247.877-41.8445 249.134-40.5881 250.39-39.3318 251.018-37.8255 251.018-36.0693 251.018-32.5029 251.146-27.1331 251.403-19.9597 251.66-12.7864 251.788-7.40299 251.788-3.80957 251.788-2.29655 251.194-1.0402 250.005-0.0405273 248.816 0.959147 247.438 1.45898 245.871 1.45898ZM239.144-32.3003C237.036-32.1652 234.767-31.4222 232.335-30.0713 229.525-28.5042 228.012-26.8021 227.796-24.9648 228.877-23.1276 230.592-21.9118 232.943-21.3174 234.429-20.9121 236.631-20.723 239.549-20.75 239.414-23.2627 239.279-27.1128 239.144-32.3003ZM333.955 1.41846C332.333 1.41846 330.983 0.884847 329.902-0.182373 328.821-1.24959 328.281-2.55322 328.281-4.09326 328.281-5.55225 328.227-7.74072 328.119-10.6587 328.011-13.5767 327.957-15.7516 327.957-17.1836 317.852-14.0495 308.422-8.38916 299.668-0.202637 298.48 0.932129 297.142 1.49951 295.656 1.49951 294.089 1.49951 292.738 0.945638 291.604-0.162109 290.469-1.26986 289.901-2.56673 289.901-4.05273 289.901-5.34961 290.374-6.55192 291.32-7.65967 295.048-11.9285 301.114-16.4271 309.517-21.1553 299.331-24.9108 294.238-30.2469 294.238-37.1636 294.238-45.7283 300.006-52.9287 311.543-58.7646 314.191-60.0885 317.406-60.9936 321.188-61.48 321.486-61.507 324.849-61.7637 331.28-62.25 333.711-62.4391 335.616-61.6151 336.994-59.7778 338.048-58.3459 338.575-56.7518 338.575-54.9956 338.575-51.3211 338.717-45.8499 339-38.582 339.284-31.3141 339.426-25.87 339.426-22.2495 339.426-20.2231 339.466-17.1971 339.547-13.1714 339.628-9.14567 339.669-6.11963 339.669-4.09326 339.669-2.55322 339.122-1.24959 338.028-0.182373 336.933 0.884847 335.576 1.41846 333.955 1.41846ZM327.105-50.8213C326.16-50.7672 324.755-50.6592 322.891-50.4971 318.865-50.0918 315.028-48.5518 311.381-45.8769 307.544-43.0941 305.626-40.1896 305.626-37.1636 305.626-36.5692 306.207-35.6911 307.369-34.5293 308.53-33.3675 309.787-32.4354 311.138-31.7329 314.326-30.0848 319.243-29.2607 325.89-29.2607 326.268-29.2607 326.889-29.2742 327.754-29.3013 327.727-30.6522 327.592-34.0835 327.349-39.5952 327.159-44.0802 327.078-47.8223 327.105-50.8213ZM391.353-8.87549C391.542-10.5506 391.637-12.5229 391.637-14.7925 391.637-16.6838 391.569-19.5004 391.434-23.2424 391.299-26.9845 391.231-29.8011 391.231-31.6924 391.231-34.5563 391.623-37.0015 392.407-39.0278 393.514-41.8647 395.257-43.2832 397.635-43.2832 399.121-43.2832 400.458-42.7969 401.647-41.8242 402.836-40.8516 403.43-39.6222 403.43-38.1362 403.43-37.6499 403.275-36.6097 402.964-35.0156 402.653-33.4215 402.498-32.1652 402.498-31.2466 402.498-29.4904 402.572-26.8629 402.721-23.364 402.87-19.8652 402.944-17.2376 402.944-15.4814 402.944-14.6169 402.876-13.32 402.741-11.5908 402.606-9.86165 402.539-8.56478 402.539-7.70019 402.539-4.16081 401.998-1.70215 400.917-0.324219 399.621 1.26986 397.148 2.06689 393.501 2.06689 388.692 2.06689 381.505 1.94531 371.94 1.70215 362.376 1.45898 355.189 1.3374 350.38 1.3374 348.867 1.3374 347.55 0.810547 346.428-0.243164 345.307-1.29687 344.747-2.5262 344.747-3.93115 344.747-4.17432 345.003-6.98421 345.517-12.3608 346.057-18.0347 346.327-26.8021 346.327-38.6631 346.327-40.1491 346.867-41.3987 347.948-42.4119 349.029-43.425 350.366-43.9316 351.96-43.9316 353.555-43.9316 354.892-43.425 355.973-42.4119 357.053-41.3987 357.594-40.1491 357.594-38.6631 357.594-26.1266 357.202-16.1839 356.418-8.83496 357.931-8.75391 359.593-8.71338 361.403-8.71338 362.187-8.71338 363.335-8.7404 364.848-8.79443 366.361-8.84847 367.496-8.87549 368.252-8.87549 368.442-10.5506 368.536-12.5229 368.536-14.7925 368.536-16.6838 368.469-19.5004 368.333-23.2424 368.198-26.9845 368.131-29.8011 368.131-31.6924 368.131-34.5563 368.523-37.0015 369.306-39.0278 370.414-41.8647 372.157-43.2832 374.534-43.2832 376.02-43.2832 377.358-42.7969 378.546-41.8242 379.735-40.8516 380.33-39.6222 380.33-38.1362 380.33-37.6499 380.174-36.6097 379.864-35.0156 379.553-33.4215 379.397-32.1652 379.397-31.2466 379.397-29.4904 379.472-26.8629 379.62-23.364 379.769-19.8652 379.843-17.2376 379.843-15.4814 379.843-14.6439 379.789-13.5361 379.681-12.1582 379.573-10.4831 379.506-9.37532 379.479-8.83496 380.992-8.75391 382.667-8.71338 384.504-8.71338 385.287-8.71338 386.436-8.7404 387.949-8.79443 389.462-8.84847 390.596-8.87549 391.353-8.87549ZM453.771-2.91797C453.771-1.43197 453.231-0.182373 452.15 0.83081 451.07 1.84399 449.732 2.35059 448.138 2.35059 446.517 2.35059 445.166 1.84399 444.085 0.83081 443.005-0.182373 442.464-1.43197 442.464-2.91797 442.464-4.53906 442.545-6.97746 442.708-10.2332 442.87-13.4888 442.951-15.9272 442.951-17.5483 442.951-19.0343 442.883-20.6014 442.748-22.2495 437.723-15.4679 433.211-10.4831 429.212-7.29492 425.591-4.43099 422.903-2.1547 421.147-0.466064 419.391 1.22257 417.5 2.06689 415.473 2.06689 413.96 2.06689 412.609 1.68864 411.42 0.932129 410.042 0.0135092 409.353-1.26986 409.354-2.91797 409.353-10.0778 409.218-17.5483 408.948-25.3296 408.651-33.408 408.502-37.3662 408.502-37.2041 408.502-38.7441 409.029-40.0207 410.083-41.0339 411.137-42.0471 412.501-42.5537 414.176-42.5537 417.202-42.5537 419.053-40.9866 419.729-37.8525 419.837-37.4202 419.958-34.7995 420.093-29.9902L420.499-14.5493C423.984-17.6834 427.699-21.5605 431.644-26.1807 432.562-27.2614 435.926-31.4087 441.735-38.6226 443.653-41.0272 445.788-42.2295 448.138-42.2295 449.732-42.2295 451.07-41.7229 452.15-40.7097 453.231-39.6965 453.771-38.4469 453.771-36.9609 453.771-34.151 453.826-29.9362 453.934-24.3164 454.042-18.6966 454.096-14.4818 454.096-11.6719 454.096-10.6992 454.042-9.24023 453.934-7.29492 453.826-5.34961 453.771-3.89062 453.771-2.91797ZM538.596-43.1616C536.165-43.1616 534.368-44.445 533.206-47.0117 532.666-48.2275 532.125-48.957 531.585-49.2002 531.18-49.3893 530.113-49.4839 528.383-49.4839 524.979-49.4839 521.048-46.8361 516.59-41.5405 510.349-34.1375 507.228-27.2074 507.228-20.75 507.228-17.805 508.214-15.2788 510.187-13.1714 512.159-11.064 514.523-10.0103 517.279-10.0103 519.954-10.0103 522.669-10.7127 525.425-12.1177 526.398-12.631 528.451-13.9549 531.585-16.0894 533.693-17.4943 535.287-18.1968 536.367-18.1968 537.988-18.1968 539.366-17.6024 540.501-16.4136 541.555-15.3058 542.082-14.036 542.082-12.604 542.082-11.0099 541.379-9.61849 539.974-8.42969 532.544-2.16146 524.979 0.972656 517.279 0.972656 511.2 0.972656 506.066-1.24284 501.879-5.67383 497.88-9.94271 495.881-14.9681 495.881-20.75 495.881-29.8011 499.839-39.0413 507.755-48.4707 514.483-56.4681 521.359-60.4668 528.383-60.4668 529.572-60.4668 530.646-60.4263 531.605-60.3452 532.565-60.2642 533.409-60.1426 534.138-59.9805 535.327-61.1422 536.759-61.7231 538.434-61.7231 541.19-61.7231 542.892-60.1426 543.541-56.9814 544-54.7119 544.23-52.0641 544.23-49.0381 544.23-47.6872 543.838-46.4578 543.054-45.3501 542.028-43.8911 540.542-43.1616 538.596-43.1616ZM577.59-32.0571C576.86-32.0571 575.773-32.0909 574.327-32.1584 572.882-32.226 571.794-32.2598 571.065-32.2598 570.66-32.2598 570.214-32.2327 569.728-32.1787 570.295-20.0475 570.579-11.4827 570.579-6.48437 570.579-0.432292 568.606 2.59375 564.662 2.59375 563.203 2.59375 561.919 2.14795 560.812 1.25635 559.623 0.31071 559.028-0.891601 559.028-2.35059 559.028-3.29622 559.069-4.73494 559.15-6.66675 559.231-8.59855 559.271-10.0373 559.271-10.9829 559.271-14.6844 559.028-21.6956 558.542-32.0166 558.056-32.0166 556.853-32.0166 554.935-32.0166 552.179-32.0166 550.166-32.2733 548.896-32.7866 546.87-33.5972 545.857-35.1507 545.857-37.4473 545.857-38.9062 546.364-40.1693 547.377-41.2366 548.39-42.3038 549.707-42.8374 551.328-42.8374L575.28-42.8374C580.548-42.8374 583.183-41.0272 583.183-37.4067 583.183-35.8937 582.662-34.6239 581.622-33.5972 580.582-32.5705 579.238-32.0571 577.59-32.0571ZM608.362 1.86426C601.904 1.86426 596.622 0.324219 592.515-2.75586 587.976-6.16016 585.707-10.9559 585.707-17.1431 585.707-23.9787 587.504-29.7606 591.097-34.4888 595.096-39.7303 600.486-42.3511 607.267-42.3511 611.969-42.3511 615.873-41.5946 618.98-40.0815 623.06-38.0822 625.099-34.9751 625.099-30.7603 625.099-27.7882 623.438-25.154 620.115-22.8574 618.602-21.8037 615.562-20.2637 610.996-18.2373L597.338-12.1987C598.635-10.7938 600.202-9.74007 602.039-9.0376 603.877-8.33512 605.984-7.98389 608.362-7.98389 611.982-7.98389 615.049-8.72689 617.561-10.2129 619.804-11.5368 621.601-12.1987 622.951-12.1987 625.761-12.1987 627.166-10.8343 627.166-8.10547 627.166-5.02539 624.91-2.5127 620.398-0.567383 616.616 1.05371 612.603 1.86426 608.362 1.86426ZM607.267-32.5435C604.755-32.5435 602.607-31.7059 600.824-30.0308 599.04-28.3556 597.608-25.8429 596.528-22.4927 599.581-23.8166 602.62-25.1269 605.646-26.4238 609.294-28.0719 612.198-29.5985 614.36-31.0034 612.549-32.0301 610.185-32.5435 607.267-32.5435ZM674.262 1.45898C672.64 1.45898 671.296 0.965902 670.229-0.0202637 669.162-1.00643 668.628-2.25602 668.628-3.76904 668.628-5.82243 668.453-8.86198 668.101-12.8877 667.75-16.9134 667.574-19.9394 667.575-21.9658 667.574-23.4518 667.669-26.7075 667.858-31.7329 658.159-31.814 653.079-31.8545 652.62-31.8545 651.62-31.8545 650.269-31.7464 648.567-31.5303 648.594-30.3144 648.77-27.4505 649.094-22.9385 649.337-19.4261 649.459-16.5757 649.459-14.3872 649.459-13.1714 649.337-11.3544 649.094-8.93628 648.851-6.51815 648.729-4.70117 648.729-3.48535 648.729-1.97233 648.189-0.715983 647.108 0.283691 646.027 1.28337 644.677 1.7832 643.055 1.7832 641.434 1.7832 640.09 1.28337 639.023 0.283691 637.956-0.715983 637.422-1.97233 637.422-3.48535 637.422-4.70117 637.55-6.51815 637.807-8.93628 638.064-11.3544 638.192-13.1714 638.192-14.3872 638.192-16.7108 638.023-20.1961 637.686-24.8433 637.348-29.4904 637.179-32.9893 637.179-35.3398 637.179-37.123 637.8-38.609 639.043-39.7978 640.286-40.9866 641.88-41.5811 643.826-41.5811 644.798-41.5811 646.257-41.7161 648.202-41.9863 650.148-42.2565 651.62-42.3916 652.62-42.3916 654.943-42.3916 658.442-42.3646 663.117-42.3105 667.791-42.2565 671.289-42.2295 673.613-42.2295 675.126-42.2295 676.443-41.7026 677.565-40.6489 678.686-39.5952 679.246-38.3659 679.246-36.9609 679.246-35.3128 679.179-32.8542 679.044-29.585 678.909-26.3158 678.841-23.8706 678.841-22.2495 678.841-20.1691 679.023-17.089 679.388-13.0093 679.753-8.92952 679.935-5.84945 679.935-3.76904 679.935-2.25602 679.402-1.00643 678.335-0.0202637 677.267 0.965902 675.91 1.45898 674.262 1.45898ZM722.598 2.229C721.356 2.229 719.383 1.02669 716.681-1.37793 714.196-0.189128 712.007 0.709228 710.116 1.31714 708.225 1.92505 706.617 2.229 705.293 2.229 698.782 2.229 693.898 0.486328 690.643-2.99902 687.387-6.48437 685.759-11.6989 685.759-18.6426 685.759-25.154 688.164-30.7265 692.973-35.3601 697.782-39.9937 703.537-42.3105 710.238-42.3105 712.804-42.3105 715.776-41.5882 719.154-40.1436 723.233-38.4047 725.273-36.3851 725.273-34.0848 725.273-33.1218 724.963-32.2792 724.341-31.5569 724.071-30.4867 723.862-29.1424 723.713-27.5241 723.564-25.9057 723.49-24.0131 723.49-21.8461 723.49-16.7372 723.855-13.0591 724.584-10.8119 724.665-10.5713 725.287-9.18029 726.449-6.63889 727.502-4.33811 728.029-3.02731 728.029-2.70647 728.029-1.28885 727.482-0.111872 726.388 0.824478 725.294 1.76083 724.03 2.229 722.598 2.229ZM712.548-25.127C712.548-25.9915 712.608-26.9845 712.73-28.1057 712.852-29.227 713.034-30.4766 713.277-31.8545 712.737-32.1247 712.257-32.3205 711.838-32.4421 711.42-32.5637 711.062-32.6245 710.764-32.6245 707.09-32.6245 703.875-31.1858 701.119-28.3083 698.363-25.4309 696.985-22.1009 696.985-18.3184 696.985-14.6979 697.634-11.9758 698.93-10.1521 700.227-8.32837 702.173-7.4165 704.766-7.4165 706.442-7.4165 708.029-7.69344 709.528-8.24731 711.028-8.80119 712.44-9.61849 713.763-10.6992 712.953-17.1296 712.548-21.9388 712.548-25.127ZM766.851 1.49951C765.23 1.49951 763.879 0.999674 762.798 0 761.718-0.999674 761.177-2.25602 761.177-3.76904 761.177-6.11963 761.123-10.3345 761.015-16.4136 760.502-16.4136 760.056-16.4136 759.678-16.4136 753.869-16.4136 748.236-15.8327 742.778-14.6709 742.751-13.6172 742.602-11.7124 742.332-8.95654 742.116-6.60596 742.008-4.6674 742.008-3.14087 742.008-1.61434 741.474-0.351237 740.407 0.648437 739.34 1.64811 737.996 2.14795 736.375 2.14795 734.754 2.14795 733.409 1.64811 732.342 0.648437 731.275-0.351237 730.741-1.62109 730.741-3.16113 730.741-4.07975 730.87-5.32935 731.126-6.90991 731.383-8.49048 731.511-9.74007 731.511-10.6587 731.511-12.1717 731.471-14.448 731.39-17.4875 731.309-20.5271 731.268-22.8034 731.268-24.3164 731.268-25.9105 731.268-28.2611 731.268-31.3682 731.295-34.4753 731.309-36.8258 731.309-38.4199 731.309-39.9329 731.842-41.1893 732.91-42.189 733.977-43.1886 735.321-43.6885 736.942-43.6885 738.563-43.6885 739.914-43.1886 740.995-42.189 742.075-41.1893 742.616-39.9329 742.616-38.4199 742.616-36.6908 742.643-34.5293 742.697-31.9355 742.778-28.3421 742.818-26.2077 742.818-25.5322 748.519-26.613 754.531-27.0858 760.853-26.9507L760.853-27.8423C760.853-29.2202 760.907-31.1925 761.015-33.7593 761.123-36.326 761.177-38.2713 761.177-39.5952 761.177-41.1082 761.718-42.3646 762.798-43.3643 763.879-44.3639 765.23-44.8638 766.851-44.8638 768.472-44.8638 769.816-44.3639 770.884-43.3643 771.951-42.3646 772.484-41.1082 772.484-39.5952 772.484-38.2443 772.43-36.2855 772.322-33.7187 772.214-31.152 772.16-29.1932 772.16-27.8423 772.16-25.0864 772.214-21.0742 772.322-15.8057 772.43-10.5371 772.484-6.5249 772.484-3.76904 772.484-2.25602 771.951-0.999674 770.884 0 769.816 0.999674 768.472 1.49951 766.851 1.49951ZM799.478 2.5127C793.372 2.51269 788.157 0.824056 783.835-2.55322 779.214-6.20068 776.904-10.9154 776.904-16.6973 776.904-23.2357 779.039-29.2202 783.308-34.6509 788.198-40.8921 794.426-44.0127 801.991-44.0127 816.473-44.0127 823.713-37.6094 823.714-24.8027 823.713-18.2643 821.755-12.3203 817.837-6.9707 813.19-0.648438 807.07 2.51269 799.478 2.5127ZM801.991-33.354C798.397-33.354 795.263-31.6316 792.589-28.1868 789.914-24.7419 788.576-20.9121 788.576-16.6973 788.576-14.1576 789.596-12.0907 791.636-10.4966 793.676-8.90251 796.29-8.10547 799.478-8.10547 802.964-8.10547 805.949-9.83463 808.435-13.293 810.839-16.6162 812.042-20.4528 812.042-24.8027 812.042-28.18 811.346-30.4495 809.954-31.6113 808.563-32.7731 805.908-33.354 801.991-33.354ZM834.194 1.86426C832.735 1.86426 831.384 1.35091 830.141 0.324219 828.79-0.75651 828.115-2.01286 828.115-3.44482L828.115-10.5776C828.115-13.6037 828.169-17.5618 828.277-22.4521 828.439-28.8555 828.52-32.8001 828.52-34.2861 828.547-36.3125 828.723-37.7715 829.047-38.6631 829.588-40.1761 830.668-41.1352 832.289-41.5405 834.613-42.1619 837.923-42.4726 842.219-42.4727 846.839-42.4726 851.053-41.4189 854.863-39.3115 859.537-36.7718 861.874-33.3 861.874-28.896 861.874-25.6268 860.402-23.033 857.457-21.1147 862.401-17.9806 864.873-14.6844 864.873-11.2261 864.873-6.30876 860.834-2.71533 852.756-0.445801 847.325 1.09424 841.138 1.86426 834.194 1.86426ZM843.596-32.9487 841.935-32.9487C840.908-32.9487 840.044-32.9352 839.341-32.9082 839.341-32.3678 839.341-31.4627 839.341-30.1929 839.341-29.6525 839.382-28.7339 839.463-27.437 839.571-25.924 839.625-25.0054 839.625-24.6812 840.76-24.6001 841.611-24.5596 842.178-24.5596 843.988-24.5596 845.771-24.8568 847.528-25.4512 849.878-26.2617 851.053-27.41 851.054-28.896 851.053-29.7876 850.202-30.6859 848.5-31.5911 846.798-32.4962 845.164-32.9487 843.596-32.9487ZM846.474-17.5483C845.88-17.6564 843.394-17.778 839.017-17.9131 838.963-16.9134 838.936-15.4544 838.936-13.5361L838.936-7.78125C848.716-8.21354 853.607-9.46989 853.607-11.5503 853.607-12.7121 852.688-13.9684 850.851-15.3193 849.23-16.5352 847.771-17.2782 846.474-17.5483ZM905.359 2.229C904.116 2.229 902.144 1.02669 899.442-1.37793 896.956-0.189128 894.768 0.709228 892.876 1.31714 890.985 1.92505 889.378 2.229 888.054 2.229 881.542 2.229 876.659 0.486328 873.403-2.99902 870.147-6.48437 868.52-11.6989 868.52-18.6426 868.52-25.154 870.924-30.7265 875.733-35.3601 880.543-39.9937 886.297-42.3105 892.998-42.3105 895.565-42.3105 898.537-41.5882 901.914-40.1436 905.994-38.4047 908.034-36.3851 908.034-34.0848 908.034-33.1218 907.723-32.2792 907.102-31.5569 906.831-30.4867 906.622-29.1424 906.473-27.5241 906.325-25.9057 906.25-24.0131 906.25-21.8461 906.25-16.7372 906.615-13.0591 907.345-10.8119 907.426-10.5713 908.047-9.18029 909.209-6.63889 910.263-4.33811 910.79-3.02731 910.79-2.70647 910.79-1.28885 910.242-0.111872 909.148 0.824478 908.054 1.76083 906.791 2.229 905.359 2.229ZM895.308-25.127C895.308-25.9915 895.369-26.9845 895.49-28.1057 895.612-29.227 895.794-30.4766 896.038-31.8545 895.497-32.1247 895.018-32.3205 894.599-32.4421 894.18-32.5637 893.822-32.6245 893.525-32.6245 889.85-32.6245 886.635-31.1858 883.879-28.3083 881.123-25.4309 879.746-22.1009 879.746-18.3184 879.746-14.6979 880.394-11.9758 881.691-10.1521 882.988-8.32837 884.933-7.4165 887.527-7.4165 889.202-7.4165 890.789-7.69344 892.289-8.24731 893.788-8.80119 895.2-9.61849 896.524-10.6992 895.713-17.1296 895.308-21.9388 895.308-25.127Z" fill="#462100" transform="matrix(0.19969 0 0 0.198925 40.5291 41)"/><path d="M50.6592 1.21582C48.5247 1.13477 46.3768-1.37793 44.2153-6.32227 42.7834-9.51042 41.554-13.1849 40.5273-17.3457 38.528-17.0485 35.2588-16.7513 30.7197-16.4541 26.4508-16.1569 23.1816-15.8057 20.9121-15.4004 19.6693-12.4284 17.5078-7.95687 14.4277-1.98584 13.2389-0.0405273 11.5908 0.932129 9.4834 0.932129 7.99739 0.932129 6.65999 0.425537 5.47119-0.587646 4.28239-1.60083 3.68799-2.89095 3.68799-4.45801 3.68799-5.83594 5.66032-10.5101 9.60498-18.4805 9.22672-19.318 9.06461-20.1016 9.11865-20.8311 9.22672-22.1279 10.5371-23.1411 13.0498-23.8706 16.8864-30.5171 21.1553-37.4067 25.8564-44.5395 32.611-54.7795 36.7718-59.8994 38.3389-59.8994 41.3109-59.8994 43.2967-58.1027 44.2964-54.5093 44.8367-51.6183 45.6878-47.2819 46.8496-41.5 48.4977-33.7187 50.5106-24.8162 52.8882-14.7925 53.0773-14.036 53.7663-12.2528 54.9551-9.44287 55.9277-7.1193 56.4141-5.37663 56.4141-4.21484 56.4141-2.64779 55.8264-1.3374 54.6511-0.283691 53.4758 0.770019 52.1452 1.26986 50.6592 1.21582ZM35.5425-40.3652C33.4351-36.7448 30.5306-31.814 26.8291-25.5728 28.0449-25.8429 29.9362-26.0591 32.5029-26.2212 35.529-26.4103 37.4338-26.5589 38.2173-26.667 37.5688-30.1794 36.6772-34.7454 35.5425-40.3652ZM104.047 1.58057C102.426 1.58057 101.082 1.08073 100.015 0.0810547 98.9477-0.91862 98.4141-2.17497 98.4141-3.68799 98.4141-4.49853 98.3465-5.60628 98.2114-7.01123 98.0493-8.6053 97.9547-9.69954 97.9277-10.2939 97.8467-12.3473 97.8061-14.9951 97.8061-18.2373 97.8061-19.4261 97.8602-23.9111 97.9683-31.6924 96.6984-31.5843 95.442-31.5303 94.1992-31.5303 90.2545-31.5303 86.418-31.5978 82.6894-31.7329L82.7705-23.8301C82.7705-15.6436 82.1221-9.82113 80.8252-6.36279 78.8799-1.22933 75.0703 1.3374 69.3965 1.3374 67.1269 1.3374 65.1006 0.878092 63.3174-0.0405273 60.9398-1.25635 59.751-3.05306 59.751-5.43066 59.751-6.75456 60.217-7.90283 61.1492-8.87549 62.0813-9.84814 63.3039-10.3345 64.8169-10.3345 65.4113-10.3345 66.2083-10.1453 67.208-9.76709 68.2077-9.38883 68.9372-9.19971 69.3965-9.19971 71.2337-9.19971 72.1523-12.6715 72.1523-19.6152 72.1523-21.5876 72.0105-24.5326 71.7268-28.4502 71.4431-32.3678 71.3013-35.3128 71.3013-37.2852 71.3013-38.8792 71.8822-40.1491 73.0439-41.0947 74.2057-42.0404 75.5972-42.5132 77.2183-42.5132 77.9207-42.5132 78.8664-42.4862 80.0552-42.4321 81.5412-42.3241 82.4868-42.2565 82.8921-42.2295 85.8371-42.1214 89.6061-42.0674 94.1992-42.0674 95.1989-42.0674 96.6849-42.243 98.6572-42.5942 100.63-42.9455 102.129-43.1211 103.156-43.1211 107.236-43.1211 109.275-41.4054 109.275-37.9741 109.275-35.7856 109.242-32.5097 109.174-28.1462 109.107-23.7828 109.073-20.5203 109.073-18.3589 109.073-15.2788 109.113-12.7256 109.194-10.6992 109.221-10.0508 109.316-8.87549 109.478-7.17334 109.64-5.71435 109.721-4.55257 109.721-3.68799 109.721-2.17497 109.181-0.91862 108.1 0.0810547 107.019 1.08073 105.668 1.58057 104.047 1.58057ZM157.329 1.58057C155.708 1.58057 154.363 1.08073 153.296 0.0810547 152.229-0.91862 151.695-2.17497 151.695-3.68799 151.695-4.49853 151.628-5.60628 151.493-7.01123 151.331-8.6053 151.236-9.69954 151.209-10.2939 151.128-12.3473 151.087-14.9951 151.087-18.2373 151.087-19.4261 151.141-23.9111 151.249-31.6924 149.98-31.5843 148.723-31.5303 147.48-31.5303 143.536-31.5303 139.699-31.5978 135.971-31.7329L136.052-23.8301C136.052-15.6436 135.403-9.82113 134.106-6.36279 132.161-1.22933 128.352 1.3374 122.678 1.3374 120.408 1.3374 118.382 0.878092 116.599-0.0405273 114.221-1.25635 113.032-3.05306 113.032-5.43066 113.032-6.75456 113.498-7.90283 114.43-8.87549 115.363-9.84814 116.585-10.3345 118.098-10.3345 118.693-10.3345 119.49-10.1453 120.489-9.76709 121.489-9.38883 122.218-9.19971 122.678-9.19971 124.515-9.19971 125.434-12.6715 125.434-19.6152 125.434-21.5876 125.292-24.5326 125.008-28.4502 124.724-32.3678 124.583-35.3128 124.583-37.2852 124.583-38.8792 125.163-40.1491 126.325-41.0947 127.487-42.0404 128.878-42.5132 130.499-42.5132 131.202-42.5132 132.148-42.4862 133.336-42.4321 134.822-42.3241 135.768-42.2565 136.173-42.2295 139.118-42.1214 142.887-42.0674 147.48-42.0674 148.48-42.0674 149.966-42.243 151.938-42.5942 153.911-42.9455 155.41-43.1211 156.437-43.1211 160.517-43.1211 162.557-41.4054 162.557-37.9741 162.557-35.7856 162.523-32.5097 162.455-28.1462 162.388-23.7828 162.354-20.5203 162.354-18.3589 162.354-15.2788 162.395-12.7256 162.476-10.6992 162.503-10.0508 162.597-8.87549 162.759-7.17334 162.921-5.71435 163.002-4.55257 163.002-3.68799 163.002-2.17497 162.462-0.91862 161.381 0.0810547 160.301 1.08073 158.95 1.58057 157.329 1.58057ZM191.278 1.86426C184.821 1.86426 179.539 0.324219 175.432-2.75586 170.893-6.16016 168.624-10.9559 168.624-17.1431 168.624-23.9787 170.42-29.7606 174.014-34.4888 178.012-39.7303 183.402-42.3511 190.184-42.3511 194.885-42.3511 198.789-41.5946 201.896-40.0815 205.976-38.0822 208.016-34.9751 208.016-30.7603 208.016-27.7882 206.354-25.154 203.031-22.8574 201.518-21.8037 198.479-20.2637 193.913-18.2373L180.255-12.1987C181.552-10.7938 183.119-9.74007 184.956-9.0376 186.793-8.33512 188.901-7.98389 191.278-7.98389 194.899-7.98389 197.965-8.72689 200.478-10.2129 202.721-11.5368 204.517-12.1987 205.868-12.1987 208.678-12.1987 210.083-10.8343 210.083-8.10547 210.083-5.02539 207.827-2.5127 203.315-0.567383 199.532 1.05371 195.52 1.86426 191.278 1.86426ZM190.184-32.5435C187.671-32.5435 185.523-31.7059 183.74-30.0308 181.957-28.3556 180.525-25.8429 179.444-22.4927 182.497-23.8166 185.537-25.1269 188.563-26.4238 192.21-28.0719 195.115-29.5985 197.276-31.0034 195.466-32.0301 193.102-32.5435 190.184-32.5435ZM245.871 1.45898C244.277 1.45898 242.913 0.972656 241.778 0 240.562-0.999674 239.954-2.26953 239.954-3.80957 239.954-4.56608 239.9-6.91667 239.792-10.8613 235.55-9.29427 229.93-5.67383 222.933 0 221.69 0.999674 220.325 1.49951 218.839 1.49951 217.272 1.49951 215.888 0.99292 214.685-0.0202637 213.483-1.03345 212.882-2.28304 212.882-3.76904 212.882-6.30876 216.745-9.84814 224.473-14.3872 218.772-17.1971 215.921-20.6554 215.921-24.7622 215.921-31.0304 220.352-36.1234 229.214-40.041 232.862-41.6621 237.928-42.4726 244.412-42.4727 246.303-42.4726 247.877-41.8445 249.134-40.5881 250.39-39.3318 251.018-37.8255 251.018-36.0693 251.018-32.5029 251.146-27.1331 251.403-19.9597 251.66-12.7864 251.788-7.40299 251.788-3.80957 251.788-2.29655 251.194-1.0402 250.005-0.0405273 248.816 0.959147 247.438 1.45898 245.871 1.45898ZM239.144-32.3003C237.036-32.1652 234.767-31.4222 232.335-30.0713 229.525-28.5042 228.012-26.8021 227.796-24.9648 228.877-23.1276 230.592-21.9118 232.943-21.3174 234.429-20.9121 236.631-20.723 239.549-20.75 239.414-23.2627 239.279-27.1128 239.144-32.3003ZM333.955 1.41846C332.333 1.41846 330.983 0.884847 329.902-0.182373 328.821-1.24959 328.281-2.55322 328.281-4.09326 328.281-5.55225 328.227-7.74072 328.119-10.6587 328.011-13.5767 327.957-15.7516 327.957-17.1836 317.852-14.0495 308.422-8.38916 299.668-0.202637 298.48 0.932129 297.142 1.49951 295.656 1.49951 294.089 1.49951 292.738 0.945638 291.604-0.162109 290.469-1.26986 289.901-2.56673 289.901-4.05273 289.901-5.34961 290.374-6.55192 291.32-7.65967 295.048-11.9285 301.114-16.4271 309.517-21.1553 299.331-24.9108 294.238-30.2469 294.238-37.1636 294.238-45.7283 300.006-52.9287 311.543-58.7646 314.191-60.0885 317.406-60.9936 321.188-61.48 321.486-61.507 324.849-61.7637 331.28-62.25 333.711-62.4391 335.616-61.6151 336.994-59.7778 338.048-58.3459 338.575-56.7518 338.575-54.9956 338.575-51.3211 338.717-45.8499 339-38.582 339.284-31.3141 339.426-25.87 339.426-22.2495 339.426-20.2231 339.466-17.1971 339.547-13.1714 339.628-9.14567 339.669-6.11963 339.669-4.09326 339.669-2.55322 339.122-1.24959 338.028-0.182373 336.933 0.884847 335.576 1.41846 333.955 1.41846ZM327.105-50.8213C326.16-50.7672 324.755-50.6592 322.891-50.4971 318.865-50.0918 315.028-48.5518 311.381-45.8769 307.544-43.0941 305.626-40.1896 305.626-37.1636 305.626-36.5692 306.207-35.6911 307.369-34.5293 308.53-33.3675 309.787-32.4354 311.138-31.7329 314.326-30.0848 319.243-29.2607 325.89-29.2607 326.268-29.2607 326.889-29.2742 327.754-29.3013 327.727-30.6522 327.592-34.0835 327.349-39.5952 327.159-44.0802 327.078-47.8223 327.105-50.8213ZM391.353-8.87549C391.542-10.5506 391.637-12.5229 391.637-14.7925 391.637-16.6838 391.569-19.5004 391.434-23.2424 391.299-26.9845 391.231-29.8011 391.231-31.6924 391.231-34.5563 391.623-37.0015 392.407-39.0278 393.514-41.8647 395.257-43.2832 397.635-43.2832 399.121-43.2832 400.458-42.7969 401.647-41.8242 402.836-40.8516 403.43-39.6222 403.43-38.1362 403.43-37.6499 403.275-36.6097 402.964-35.0156 402.653-33.4215 402.498-32.1652 402.498-31.2466 402.498-29.4904 402.572-26.8629 402.721-23.364 402.87-19.8652 402.944-17.2376 402.944-15.4814 402.944-14.6169 402.876-13.32 402.741-11.5908 402.606-9.86165 402.539-8.56478 402.539-7.70019 402.539-4.16081 401.998-1.70215 400.917-0.324219 399.621 1.26986 397.148 2.06689 393.501 2.06689 388.692 2.06689 381.505 1.94531 371.94 1.70215 362.376 1.45898 355.189 1.3374 350.38 1.3374 348.867 1.3374 347.55 0.810547 346.428-0.243164 345.307-1.29687 344.747-2.5262 344.747-3.93115 344.747-4.17432 345.003-6.98421 345.517-12.3608 346.057-18.0347 346.327-26.8021 346.327-38.6631 346.327-40.1491 346.867-41.3987 347.948-42.4119 349.029-43.425 350.366-43.9316 351.96-43.9316 353.555-43.9316 354.892-43.425 355.973-42.4119 357.053-41.3987 357.594-40.1491 357.594-38.6631 357.594-26.1266 357.202-16.1839 356.418-8.83496 357.931-8.75391 359.593-8.71338 361.403-8.71338 362.187-8.71338 363.335-8.7404 364.848-8.79443 366.361-8.84847 367.496-8.87549 368.252-8.87549 368.442-10.5506 368.536-12.5229 368.536-14.7925 368.536-16.6838 368.469-19.5004 368.333-23.2424 368.198-26.9845 368.131-29.8011 368.131-31.6924 368.131-34.5563 368.523-37.0015 369.306-39.0278 370.414-41.8647 372.157-43.2832 374.534-43.2832 376.02-43.2832 377.358-42.7969 378.546-41.8242 379.735-40.8516 380.33-39.6222 380.33-38.1362 380.33-37.6499 380.174-36.6097 379.864-35.0156 379.553-33.4215 379.397-32.1652 379.397-31.2466 379.397-29.4904 379.472-26.8629 379.62-23.364 379.769-19.8652 379.843-17.2376 379.843-15.4814 379.843-14.6439 379.789-13.5361 379.681-12.1582 379.573-10.4831 379.506-9.37532 379.479-8.83496 380.992-8.75391 382.667-8.71338 384.504-8.71338 385.287-8.71338 386.436-8.7404 387.949-8.79443 389.462-8.84847 390.596-8.87549 391.353-8.87549ZM453.771-2.91797C453.771-1.43197 453.231-0.182373 452.15 0.83081 451.07 1.84399 449.732 2.35059 448.138 2.35059 446.517 2.35059 445.166 1.84399 444.085 0.83081 443.005-0.182373 442.464-1.43197 442.464-2.91797 442.464-4.53906 442.545-6.97746 442.708-10.2332 442.87-13.4888 442.951-15.9272 442.951-17.5483 442.951-19.0343 442.883-20.6014 442.748-22.2495 437.723-15.4679 433.211-10.4831 429.212-7.29492 425.591-4.43099 422.903-2.1547 421.147-0.466064 419.391 1.22257 417.5 2.06689 415.473 2.06689 413.96 2.06689 412.609 1.68864 411.42 0.932129 410.042 0.0135092 409.353-1.26986 409.354-2.91797 409.353-10.0778 409.218-17.5483 408.948-25.3296 408.651-33.408 408.502-37.3662 408.502-37.2041 408.502-38.7441 409.029-40.0207 410.083-41.0339 411.137-42.0471 412.501-42.5537 414.176-42.5537 417.202-42.5537 419.053-40.9866 419.729-37.8525 419.837-37.4202 419.958-34.7995 420.093-29.9902L420.499-14.5493C423.984-17.6834 427.699-21.5605 431.644-26.1807 432.562-27.2614 435.926-31.4087 441.735-38.6226 443.653-41.0272 445.788-42.2295 448.138-42.2295 449.732-42.2295 451.07-41.7229 452.15-40.7097 453.231-39.6965 453.771-38.4469 453.771-36.9609 453.771-34.151 453.826-29.9362 453.934-24.3164 454.042-18.6966 454.096-14.4818 454.096-11.6719 454.096-10.6992 454.042-9.24023 453.934-7.29492 453.826-5.34961 453.771-3.89062 453.771-2.91797ZM538.596-43.1616C536.165-43.1616 534.368-44.445 533.206-47.0117 532.666-48.2275 532.125-48.957 531.585-49.2002 531.18-49.3893 530.113-49.4839 528.383-49.4839 524.979-49.4839 521.048-46.8361 516.59-41.5405 510.349-34.1375 507.228-27.2074 507.228-20.75 507.228-17.805 508.214-15.2788 510.187-13.1714 512.159-11.064 514.523-10.0103 517.279-10.0103 519.954-10.0103 522.669-10.7127 525.425-12.1177 526.398-12.631 528.451-13.9549 531.585-16.0894 533.693-17.4943 535.287-18.1968 536.367-18.1968 537.988-18.1968 539.366-17.6024 540.501-16.4136 541.555-15.3058 542.082-14.036 542.082-12.604 542.082-11.0099 541.379-9.61849 539.974-8.42969 532.544-2.16146 524.979 0.972656 517.279 0.972656 511.2 0.972656 506.066-1.24284 501.879-5.67383 497.88-9.94271 495.881-14.9681 495.881-20.75 495.881-29.8011 499.839-39.0413 507.755-48.4707 514.483-56.4681 521.359-60.4668 528.383-60.4668 529.572-60.4668 530.646-60.4263 531.605-60.3452 532.565-60.2642 533.409-60.1426 534.138-59.9805 535.327-61.1422 536.759-61.7231 538.434-61.7231 541.19-61.7231 542.892-60.1426 543.541-56.9814 544-54.7119 544.23-52.0641 544.23-49.0381 544.23-47.6872 543.838-46.4578 543.054-45.3501 542.028-43.8911 540.542-43.1616 538.596-43.1616ZM577.59-32.0571C576.86-32.0571 575.773-32.0909 574.327-32.1584 572.882-32.226 571.794-32.2598 571.065-32.2598 570.66-32.2598 570.214-32.2327 569.728-32.1787 570.295-20.0475 570.579-11.4827 570.579-6.48437 570.579-0.432292 568.606 2.59375 564.662 2.59375 563.203 2.59375 561.919 2.14795 560.812 1.25635 559.623 0.31071 559.028-0.891601 559.028-2.35059 559.028-3.29622 559.069-4.73494 559.15-6.66675 559.231-8.59855 559.271-10.0373 559.271-10.9829 559.271-14.6844 559.028-21.6956 558.542-32.0166 558.056-32.0166 556.853-32.0166 554.935-32.0166 552.179-32.0166 550.166-32.2733 548.896-32.7866 546.87-33.5972 545.857-35.1507 545.857-37.4473 545.857-38.9062 546.364-40.1693 547.377-41.2366 548.39-42.3038 549.707-42.8374 551.328-42.8374L575.28-42.8374C580.548-42.8374 583.183-41.0272 583.183-37.4067 583.183-35.8937 582.662-34.6239 581.622-33.5972 580.582-32.5705 579.238-32.0571 577.59-32.0571ZM608.362 1.86426C601.904 1.86426 596.622 0.324219 592.515-2.75586 587.976-6.16016 585.707-10.9559 585.707-17.1431 585.707-23.9787 587.504-29.7606 591.097-34.4888 595.096-39.7303 600.486-42.3511 607.267-42.3511 611.969-42.3511 615.873-41.5946 618.98-40.0815 623.06-38.0822 625.099-34.9751 625.099-30.7603 625.099-27.7882 623.438-25.154 620.115-22.8574 618.602-21.8037 615.562-20.2637 610.996-18.2373L597.338-12.1987C598.635-10.7938 600.202-9.74007 602.039-9.0376 603.877-8.33512 605.984-7.98389 608.362-7.98389 611.982-7.98389 615.049-8.72689 617.561-10.2129 619.804-11.5368 621.601-12.1987 622.951-12.1987 625.761-12.1987 627.166-10.8343 627.166-8.10547 627.166-5.02539 624.91-2.5127 620.398-0.567383 616.616 1.05371 612.603 1.86426 608.362 1.86426ZM607.267-32.5435C604.755-32.5435 602.607-31.7059 600.824-30.0308 599.04-28.3556 597.608-25.8429 596.528-22.4927 599.581-23.8166 602.62-25.1269 605.646-26.4238 609.294-28.0719 612.198-29.5985 614.36-31.0034 612.549-32.0301 610.185-32.5435 607.267-32.5435ZM674.262 1.45898C672.64 1.45898 671.296 0.965902 670.229-0.0202637 669.162-1.00643 668.628-2.25602 668.628-3.76904 668.628-5.82243 668.453-8.86198 668.101-12.8877 667.75-16.9134 667.574-19.9394 667.575-21.9658 667.574-23.4518 667.669-26.7075 667.858-31.7329 658.159-31.814 653.079-31.8545 652.62-31.8545 651.62-31.8545 650.269-31.7464 648.567-31.5303 648.594-30.3144 648.77-27.4505 649.094-22.9385 649.337-19.4261 649.459-16.5757 649.459-14.3872 649.459-13.1714 649.337-11.3544 649.094-8.93628 648.851-6.51815 648.729-4.70117 648.729-3.48535 648.729-1.97233 648.189-0.715983 647.108 0.283691 646.027 1.28337 644.677 1.7832 643.055 1.7832 641.434 1.7832 640.09 1.28337 639.023 0.283691 637.956-0.715983 637.422-1.97233 637.422-3.48535 637.422-4.70117 637.55-6.51815 637.807-8.93628 638.064-11.3544 638.192-13.1714 638.192-14.3872 638.192-16.7108 638.023-20.1961 637.686-24.8433 637.348-29.4904 637.179-32.9893 637.179-35.3398 637.179-37.123 637.8-38.609 639.043-39.7978 640.286-40.9866 641.88-41.5811 643.826-41.5811 644.798-41.5811 646.257-41.7161 648.202-41.9863 650.148-42.2565 651.62-42.3916 652.62-42.3916 654.943-42.3916 658.442-42.3646 663.117-42.3105 667.791-42.2565 671.289-42.2295 673.613-42.2295 675.126-42.2295 676.443-41.7026 677.565-40.6489 678.686-39.5952 679.246-38.3659 679.246-36.9609 679.246-35.3128 679.179-32.8542 679.044-29.585 678.909-26.3158 678.841-23.8706 678.841-22.2495 678.841-20.1691 679.023-17.089 679.388-13.0093 679.753-8.92952 679.935-5.84945 679.935-3.76904 679.935-2.25602 679.402-1.00643 678.335-0.0202637 677.267 0.965902 675.91 1.45898 674.262 1.45898ZM722.598 2.229C721.356 2.229 719.383 1.02669 716.681-1.37793 714.196-0.189128 712.007 0.709228 710.116 1.31714 708.225 1.92505 706.617 2.229 705.293 2.229 698.782 2.229 693.898 0.486328 690.643-2.99902 687.387-6.48437 685.759-11.6989 685.759-18.6426 685.759-25.154 688.164-30.7265 692.973-35.3601 697.782-39.9937 703.537-42.3105 710.238-42.3105 712.804-42.3105 715.776-41.5882 719.154-40.1436 723.233-38.4047 725.273-36.3851 725.273-34.0848 725.273-33.1218 724.963-32.2792 724.341-31.5569 724.071-30.4867 723.862-29.1424 723.713-27.5241 723.564-25.9057 723.49-24.0131 723.49-21.8461 723.49-16.7372 723.855-13.0591 724.584-10.8119 724.665-10.5713 725.287-9.18029 726.449-6.63889 727.502-4.33811 728.029-3.02731 728.029-2.70647 728.029-1.28885 727.482-0.111872 726.388 0.824478 725.294 1.76083 724.03 2.229 722.598 2.229ZM712.548-25.127C712.548-25.9915 712.608-26.9845 712.73-28.1057 712.852-29.227 713.034-30.4766 713.277-31.8545 712.737-32.1247 712.257-32.3205 711.838-32.4421 711.42-32.5637 711.062-32.6245 710.764-32.6245 707.09-32.6245 703.875-31.1858 701.119-28.3083 698.363-25.4309 696.985-22.1009 696.985-18.3184 696.985-14.6979 697.634-11.9758 698.93-10.1521 700.227-8.32837 702.173-7.4165 704.766-7.4165 706.442-7.4165 708.029-7.69344 709.528-8.24731 711.028-8.80119 712.44-9.61849 713.763-10.6992 712.953-17.1296 712.548-21.9388 712.548-25.127ZM766.851 1.49951C765.23 1.49951 763.879 0.999674 762.798 0 761.718-0.999674 761.177-2.25602 761.177-3.76904 761.177-6.11963 761.123-10.3345 761.015-16.4136 760.502-16.4136 760.056-16.4136 759.678-16.4136 753.869-16.4136 748.236-15.8327 742.778-14.6709 742.751-13.6172 742.602-11.7124 742.332-8.95654 742.116-6.60596 742.008-4.6674 742.008-3.14087 742.008-1.61434 741.474-0.351237 740.407 0.648437 739.34 1.64811 737.996 2.14795 736.375 2.14795 734.754 2.14795 733.409 1.64811 732.342 0.648437 731.275-0.351237 730.741-1.62109 730.741-3.16113 730.741-4.07975 730.87-5.32935 731.126-6.90991 731.383-8.49048 731.511-9.74007 731.511-10.6587 731.511-12.1717 731.471-14.448 731.39-17.4875 731.309-20.5271 731.268-22.8034 731.268-24.3164 731.268-25.9105 731.268-28.2611 731.268-31.3682 731.295-34.4753 731.309-36.8258 731.309-38.4199 731.309-39.9329 731.842-41.1893 732.91-42.189 733.977-43.1886 735.321-43.6885 736.942-43.6885 738.563-43.6885 739.914-43.1886 740.995-42.189 742.075-41.1893 742.616-39.9329 742.616-38.4199 742.616-36.6908 742.643-34.5293 742.697-31.9355 742.778-28.3421 742.818-26.2077 742.818-25.5322 748.519-26.613 754.531-27.0858 760.853-26.9507L760.853-27.8423C760.853-29.2202 760.907-31.1925 761.015-33.7593 761.123-36.326 761.177-38.2713 761.177-39.5952 761.177-41.1082 761.718-42.3646 762.798-43.3643 763.879-44.3639 765.23-44.8638 766.851-44.8638 768.472-44.8638 769.816-44.3639 770.884-43.3643 771.951-42.3646 772.484-41.1082 772.484-39.5952 772.484-38.2443 772.43-36.2855 772.322-33.7187 772.214-31.152 772.16-29.1932 772.16-27.8423 772.16-25.0864 772.214-21.0742 772.322-15.8057 772.43-10.5371 772.484-6.5249 772.484-3.76904 772.484-2.25602 771.951-0.999674 770.884 0 769.816 0.999674 768.472 1.49951 766.851 1.49951ZM799.478 2.5127C793.372 2.51269 788.157 0.824056 783.835-2.55322 779.214-6.20068 776.904-10.9154 776.904-16.6973 776.904-23.2357 779.039-29.2202 783.308-34.6509 788.198-40.8921 794.426-44.0127 801.991-44.0127 816.473-44.0127 823.713-37.6094 823.714-24.8027 823.713-18.2643 821.755-12.3203 817.837-6.9707 813.19-0.648438 807.07 2.51269 799.478 2.5127ZM801.991-33.354C798.397-33.354 795.263-31.6316 792.589-28.1868 789.914-24.7419 788.576-20.9121 788.576-16.6973 788.576-14.1576 789.596-12.0907 791.636-10.4966 793.676-8.90251 796.29-8.10547 799.478-8.10547 802.964-8.10547 805.949-9.83463 808.435-13.293 810.839-16.6162 812.042-20.4528 812.042-24.8027 812.042-28.18 811.346-30.4495 809.954-31.6113 808.563-32.7731 805.908-33.354 801.991-33.354ZM834.194 1.86426C832.735 1.86426 831.384 1.35091 830.141 0.324219 828.79-0.75651 828.115-2.01286 828.115-3.44482L828.115-10.5776C828.115-13.6037 828.169-17.5618 828.277-22.4521 828.439-28.8555 828.52-32.8001 828.52-34.2861 828.547-36.3125 828.723-37.7715 829.047-38.6631 829.588-40.1761 830.668-41.1352 832.289-41.5405 834.613-42.1619 837.923-42.4726 842.219-42.4727 846.839-42.4726 851.053-41.4189 854.863-39.3115 859.537-36.7718 861.874-33.3 861.874-28.896 861.874-25.6268 860.402-23.033 857.457-21.1147 862.401-17.9806 864.873-14.6844 864.873-11.2261 864.873-6.30876 860.834-2.71533 852.756-0.445801 847.325 1.09424 841.138 1.86426 834.194 1.86426ZM843.596-32.9487 841.935-32.9487C840.908-32.9487 840.044-32.9352 839.341-32.9082 839.341-32.3678 839.341-31.4627 839.341-30.1929 839.341-29.6525 839.382-28.7339 839.463-27.437 839.571-25.924 839.625-25.0054 839.625-24.6812 840.76-24.6001 841.611-24.5596 842.178-24.5596 843.988-24.5596 845.771-24.8568 847.528-25.4512 849.878-26.2617 851.053-27.41 851.054-28.896 851.053-29.7876 850.202-30.6859 848.5-31.5911 846.798-32.4962 845.164-32.9487 843.596-32.9487ZM846.474-17.5483C845.88-17.6564 843.394-17.778 839.017-17.9131 838.963-16.9134 838.936-15.4544 838.936-13.5361L838.936-7.78125C848.716-8.21354 853.607-9.46989 853.607-11.5503 853.607-12.7121 852.688-13.9684 850.851-15.3193 849.23-16.5352 847.771-17.2782 846.474-17.5483ZM905.359 2.229C904.116 2.229 902.144 1.02669 899.442-1.37793 896.956-0.189128 894.768 0.709228 892.876 1.31714 890.985 1.92505 889.378 2.229 888.054 2.229 881.542 2.229 876.659 0.486328 873.403-2.99902 870.147-6.48437 868.52-11.6989 868.52-18.6426 868.52-25.154 870.924-30.7265 875.733-35.3601 880.543-39.9937 886.297-42.3105 892.998-42.3105 895.565-42.3105 898.537-41.5882 901.914-40.1436 905.994-38.4047 908.034-36.3851 908.034-34.0848 908.034-33.1218 907.723-32.2792 907.102-31.5569 906.831-30.4867 906.622-29.1424 906.473-27.5241 906.325-25.9057 906.25-24.0131 906.25-21.8461 906.25-16.7372 906.615-13.0591 907.345-10.8119 907.426-10.5713 908.047-9.18029 909.209-6.63889 910.263-4.33811 910.79-3.02731 910.79-2.70647 910.79-1.28885 910.242-0.111872 909.148 0.824478 908.054 1.76083 906.791 2.229 905.359 2.229ZM895.308-25.127C895.308-25.9915 895.369-26.9845 895.49-28.1057 895.612-29.227 895.794-30.4766 896.038-31.8545 895.497-32.1247 895.018-32.3205 894.599-32.4421 894.18-32.5637 893.822-32.6245 893.525-32.6245 889.85-32.6245 886.635-31.1858 883.879-28.3083 881.123-25.4309 879.746-22.1009 879.746-18.3184 879.746-14.6979 880.394-11.9758 881.691-10.1521 882.988-8.32837 884.933-7.4165 887.527-7.4165 889.202-7.4165 890.789-7.69344 892.289-8.24731 893.788-8.80119 895.2-9.61849 896.524-10.6992 895.713-17.1296 895.308-21.9388 895.308-25.127Z" fill="#462100" transform="matrix(0.19969 0 0 0.198925 40.5291 41)"/></g></g><path d="M704 433C705.049 401.67 719.215 359.766 745.197 362 823.974 366.562 860.857 356.255 908.642 362 956.426 367.745 1008.05 354.059 1062.05 362 1116.05 369.941 1146.27 360.581 1195.39 362 1244.5 363.419 1273.25 351.448 1318.69 362 1364.12 372.552 1441.8 362.534 1482.13 362 1522.46 361.466 1561 355.091 1615.47 362 1669.93 368.908 1715.79 365.356 1748.8 362 1770.41 361.679 1789.63 388.502 1790 433L1790 433C1788.72 477.318 1771.42 503.031 1748.8 504 1682.3 509.861 1641.46 510.129 1595.39 504 1549.33 497.872 1512.79 499.021 1482.13 504 1451.47 508.979 1386.04 493.402 1348.79 504 1311.55 514.599 1266.25 497.026 1235.53 504 1204.81 510.975 1132 516.242 1072.09 504 1012.17 491.757 981.635 499.92 928.714 504 875.793 508.08 798.707 496.837 745.197 504 725.293 503.38 701.989 481.302 704 433L704 433Z" fill="#FFFFFF" fill-rule="evenodd"/><path d="M704 433C703.061 392.214 723.067 362.644 745.197 362 790.384 355.049 856.209 373.651 898.606 362 941.002 350.349 979.549 370.531 1052.01 362 1124.48 353.469 1181.27 369.101 1215.46 362 1249.64 354.899 1298.72 354.721 1348.79 362 1398.87 369.279 1424.64 357.973 1492.17 362 1559.7 366.027 1634.04 367.038 1748.8 362 1772.63 357.236 1789.15 391.963 1790 433L1790 433C1787.85 471.652 1771.46 499.109 1748.8 504 1702.58 509.571 1656.19 501.852 1605.43 504 1554.67 506.149 1518.62 500.695 1462.06 504 1405.49 507.306 1362.68 502.014 1318.69 504 1274.69 505.986 1228.33 516.007 1155.24 504 1082.15 491.993 1071.22 516.157 991.798 504 912.376 491.843 825.118 509.233 745.197 504 723.261 501.245 704.486 478.043 704 433L704 433Z" stroke="#462100" stroke-width="10.3125" stroke-miterlimit="8" fill="none" fill-rule="evenodd"/><text fill="#462100" font-family="Comic Sans MS,Comic Sans MS_MSFontService,sans-serif" font-weight="700" font-size="83" transform="matrix(1 0 0 1 803.96 457)">  </text><path d="M1336 518C1336 539.539 1318.54 557 1297 557 1275.46 557 1258 539.539 1258 518 1258 496.461 1275.46 479 1297 479 1318.54 479 1336 496.461 1336 518Z" fill="#F2EBEA" fill-rule="evenodd"/><path d="M1319.2 517.353C1319.71 529.612 1310.18 539.962 1297.92 540.472 1285.66 540.981 1275.31 531.457 1274.8 519.198 1274.29 506.94 1283.82 496.589 1296.08 496.079 1308.34 495.57 1318.69 505.095 1319.2 517.353Z" fill="#C9AFAB" fill-rule="evenodd"/><path d="M1363.45 558.113C1358.69 557.842 1354.54 560.595 1352.7 564.609L1352.7 559.703C1352.7 553.538 1347.69 548.555 1341.55 548.555L1341.55 548.555C1337.48 548.555 1333.93 550.745 1331.99 553.984L1331.99 553.324C1331.99 547.159 1326.99 542.176 1320.85 542.176L1320.85 542.176C1315.52 542.176 1311.06 545.918 1309.95 550.94L1309.95 520.616C1309.95 514.896 1305.84 509.739 1300.16 509.08 1293.4 508.285 1287.66 513.539 1287.66 520.151L1287.66 585.645C1287.66 586.401 1286.63 586.653 1286.28 585.974L1275.25 564.318C1272.66 558.734 1266.03 556.31 1260.44 558.928 1254.86 561.526 1252.44 568.157 1255.05 573.74L1274.05 624.364 1288.59 650.984C1289.27 652.225 1290.57 653 1292 653L1359.73 653C1361.56 653 1363.12 651.74 1363.51 649.957L1373.11 606.177C1373.69 603.889 1374 601.543 1374 599.197L1374 569.766C1374 563.949 1369.29 558.482 1363.47 558.152Z" fill="#875E21" fill-rule="evenodd"/></g></svg>