<svg width="972" height="367" xmlns="http://www.w3.org/2000/svg" xmlns:xlink="http://www.w3.org/1999/xlink" overflow="hidden"><defs><filter id="fx0" x="-10%" y="-10%" width="120%" height="120%" filterUnits="userSpaceOnUse" primitiveUnits="userSpaceOnUse"><feComponentTransfer color-interpolation-filters="sRGB"><feFuncR type="discrete" tableValues="0 0"/><feFuncG type="discrete" tableValues="0 0"/><feFuncB type="discrete" tableValues="0 0"/><feFuncA type="linear" slope="0.219608" intercept="0"/></feComponentTransfer><feGaussianBlur stdDeviation="6.42325 6.43406"/></filter><clipPath id="clip1"><rect x="2945" y="2045" width="972" height="367"/></clipPath><clipPath id="clip2"><rect x="-17.4178" y="-17.4471" width="92.8953" height="57.9566"/></clipPath><clipPath id="clip3"><rect x="0" y="0" width="195" height="74"/></clipPath></defs><g clip-path="url(#clip1)" transform="translate(-2945 -2045)"><g clip-path="url(#clip2)" filter="url(#fx0)" transform="matrix(4.99487 0 0 4.98649 2944 2044)"><g clip-path="url(#clip3)"><path d="M20.6212 35.496C20.9805 29.213 25.83 20.8095 34.7252 21.2575 54.6714 20.6741 66.6247 21.5542 79.0154 21.2575 91.4061 20.9608 109.007 19.3586 122.052 21.2575 135.097 23.1565 143.704 21.9136 160.075 21.2575 167.538 21.203 175.721 27.7186 174.179 35.496L174.179 35.496C173.6 45.2123 167.993 48.5591 160.075 49.7346 142.808 49.7655 137.303 48.2645 122.052 49.7346 106.801 51.2046 102.272 47.9785 84.0293 49.7345 65.7863 51.4905 47.2035 47.4536 34.7252 49.7345 25.7489 50.8478 20.7546 43.2233 20.6212 35.496L20.6212 35.496Z" fill="#FFFFFF" fill-rule="evenodd"/><path d="M20.6212 35.496C21.1899 28.7547 26.7281 20.5271 34.7252 21.2575 46.7479 22.2774 66.9872 20.0043 76.5083 21.2575 86.0295 22.5107 106.352 22.258 115.785 21.2575 125.217 20.2571 148.978 23.3347 160.075 21.2575 168.017 20.5565 175.829 27.8982 174.179 35.496L174.179 35.496C174.404 42.926 168.388 50.8327 160.075 49.7346 144.21 49.3825 136.995 49.3959 122.052 49.7346 107.109 50.0731 90.8159 48.0151 79.0153 49.7345 67.2147 51.4538 49.3465 51.2113 34.7252 49.7345 27.2106 51.2285 19.8802 44.3718 20.6212 35.496L20.6212 35.496Z" stroke="#462100" stroke-width="2" stroke-miterlimit="8" fill="none" fill-rule="evenodd"/><path d="M44.418-34.2456C41.473-28.1125 36.8123-18.4805 30.436-5.34961 26.9777 1.70215 24.3434 7.55159 22.5332 12.1987 21.9658 13.8739 21.0742 16.3595 19.8584 19.6558 18.8857 22.1955 17.1566 23.4653 14.6709 23.4653 13.1309 23.4653 11.7799 22.9655 10.6182 21.9658 9.45638 20.9661 8.87549 19.7098 8.87549 18.1968 8.87549 15.6841 11.7394 8.24056 17.4673-4.13379 14.4953-9.99674 9.7806-18.6291 3.32324-30.0308 2.6748-31.0575 2.01286-32.0977 1.3374-33.1514 0.60791-34.3942 0.243164-35.529 0.243164-36.5557 0.243164-38.0146 0.824056-39.298 1.98584-40.4058 3.14762-41.5135 4.48503-42.0674 5.99805-42.0674 7.78125-42.0674 9.17269-41.4054 10.1724-40.0815 14.0089-34.9751 18.4805-27.2884 23.5869-17.0215 26.4779-23.4248 28.234-27.2884 28.8555-28.6123 30.7738-32.638 32.6515-36.1774 34.4888-39.2305 35.6506-41.1758 37.2446-42.1484 39.271-42.1484 40.784-42.1484 42.1349-41.6351 43.3237-40.6084 44.5125-39.5817 45.1069-38.3254 45.1069-36.8394 45.1069-36.0558 44.8773-35.1912 44.418-34.2456ZM89.7244 1.58057C88.1033 1.58057 86.7592 1.08073 85.692 0.0810547 84.6247-0.91862 84.0911-2.17497 84.0911-3.68799 84.0911-4.49853 84.0236-5.60628 83.8885-7.01123 83.7264-8.6053 83.6318-9.69954 83.6048-10.2939 83.5238-12.3473 83.4832-14.9951 83.4832-18.2373 83.4832-19.4261 83.5373-23.9111 83.6453-31.6924 82.3755-31.5843 81.1191-31.5303 79.8763-31.5303 75.9316-31.5303 72.095-31.5978 68.3665-31.7329L68.4476-23.8301C68.4476-15.6436 67.7991-9.82113 66.5023-6.36279 64.557-1.22933 60.7474 1.3374 55.0736 1.3374 52.804 1.3374 50.7777 0.878092 48.9945-0.0405273 46.6169-1.25635 45.4281-3.05306 45.4281-5.43066 45.4281-6.75456 45.8941-7.90283 46.8263-8.87549 47.7584-9.84814 48.981-10.3345 50.494-10.3345 51.0884-10.3345 51.8854-10.1453 52.8851-9.76709 53.8848-9.38883 54.6143-9.19971 55.0736-9.19971 56.9108-9.19971 57.8294-12.6715 57.8294-19.6152 57.8294-21.5876 57.6876-24.5326 57.4039-28.4502 57.1202-32.3678 56.9783-35.3128 56.9784-37.2852 56.9783-38.8792 57.5592-40.1491 58.721-41.0947 59.8828-42.0404 61.2742-42.5132 62.8953-42.5132 63.5978-42.5132 64.5434-42.4862 65.7323-42.4321 67.2183-42.3241 68.1639-42.2565 68.5692-42.2295 71.5142-42.1214 75.2832-42.0674 79.8763-42.0674 80.876-42.0674 82.362-42.243 84.3343-42.5942 86.3066-42.9455 87.8061-43.1211 88.8328-43.1211 92.9126-43.1211 94.9525-41.4054 94.9525-37.9741 94.9525-35.7856 94.9187-32.5097 94.8512-28.1462 94.7836-23.7828 94.7498-20.5203 94.7498-18.3589 94.7498-15.2788 94.7904-12.7256 94.8714-10.6992 94.8984-10.0508 94.993-8.87549 95.1551-7.17334 95.3172-5.71435 95.3983-4.55257 95.3983-3.68799 95.3983-2.17497 94.8579-0.91862 93.7772 0.0810547 92.6964 1.08073 91.3455 1.58057 89.7244 1.58057ZM116.987 4.21484C115.177 4.21484 113.61 3.65421 112.286 2.53296 110.962 1.4117 110.3 0.1486 110.3-1.25635 110.3-2.68831 110.962-3.97843 112.286-5.12671 113.61-6.27498 115.177-6.84912 116.987-6.84912 118.905-6.84912 120.486-6.30876 121.729-5.22803 122.972-4.1473 123.593-2.8234 123.593-1.25635 123.593 0.175618 122.945 1.44548 121.648 2.55322 120.351 3.66097 118.797 4.21484 116.987 4.21484ZM220.815 1.21582C218.681 1.13477 216.533-1.37793 214.372-6.32227 212.94-9.51042 211.71-13.1849 210.684-17.3457 208.684-17.0485 205.415-16.7513 200.876-16.4541 196.607-16.1569 193.338-15.8057 191.068-15.4004 189.826-12.4284 187.664-7.95687 184.584-1.98584 183.395-0.0405273 181.747 0.932129 179.64 0.932129 178.154 0.932129 176.816 0.425537 175.627-0.587646 174.439-1.60083 173.844-2.89095 173.844-4.45801 173.844-5.83594 175.817-10.5101 179.761-18.4805 179.383-19.318 179.221-20.1016 179.275-20.8311 179.383-22.1279 180.693-23.1411 183.206-23.8706 187.043-30.5171 191.311-37.4067 196.013-44.5395 202.767-54.7795 206.928-59.8994 208.495-59.8994 211.467-59.8994 213.453-58.1027 214.453-54.5093 214.993-51.6183 215.844-47.2819 217.006-41.5 218.654-33.7187 220.667-24.8162 223.044-14.7925 223.234-14.036 223.923-12.2528 225.111-9.44287 226.084-7.1193 226.57-5.37663 226.57-4.21484 226.57-2.64779 225.983-1.3374 224.807-0.283691 223.632 0.770019 222.301 1.26986 220.815 1.21582ZM205.699-40.3652C203.591-36.7448 200.687-31.814 196.985-25.5728 198.201-25.8429 200.092-26.0591 202.659-26.2212 205.685-26.4103 207.59-26.5589 208.374-26.667 207.725-30.1794 206.833-34.7454 205.699-40.3652ZM267.841 1.49951C266.22 1.49951 264.869 0.999674 263.788 0 262.707-0.999674 262.167-2.25602 262.167-3.76904 262.167-6.11963 262.113-10.3345 262.005-16.4136 261.491-16.4136 261.046-16.4136 260.667-16.4136 254.859-16.4136 249.225-15.8327 243.768-14.6709 243.741-13.6172 243.592-11.7124 243.322-8.95654 243.106-6.60596 242.998-4.6674 242.998-3.14087 242.998-1.61434 242.464-0.351237 241.397 0.648437 240.329 1.64811 238.985 2.14795 237.364 2.14795 235.743 2.14795 234.399 1.64811 233.332 0.648437 232.265-0.351237 231.731-1.62109 231.731-3.16113 231.731-4.07975 231.859-5.32935 232.116-6.90991 232.373-8.49048 232.501-9.74007 232.501-10.6587 232.501-12.1717 232.46-14.448 232.379-17.4875 232.298-20.5271 232.258-22.8034 232.258-24.3164 232.258-25.9105 232.258-28.2611 232.258-31.3682 232.285-34.4753 232.298-36.8258 232.298-38.4199 232.298-39.9329 232.832-41.1893 233.899-42.189 234.966-43.1886 236.311-43.6885 237.932-43.6885 239.553-43.6885 240.904-43.1886 241.984-42.189 243.065-41.1893 243.605-39.9329 243.605-38.4199 243.605-36.6908 243.632-34.5293 243.687-31.9355 243.768-28.3421 243.808-26.2077 243.808-25.5322 249.509-26.613 255.52-27.0858 261.843-26.9507L261.843-27.8423C261.843-29.2202 261.897-31.1925 262.005-33.7593 262.113-36.326 262.167-38.2713 262.167-39.5952 262.167-41.1082 262.707-42.3646 263.788-43.3643 264.869-44.3639 266.22-44.8638 267.841-44.8638 269.462-44.8638 270.806-44.3639 271.873-43.3643 272.94-42.3646 273.474-41.1082 273.474-39.5952 273.474-38.2443 273.42-36.2855 273.312-33.7187 273.204-31.152 273.15-29.1932 273.15-27.8423 273.15-25.0864 273.204-21.0742 273.312-15.8057 273.42-10.5371 273.474-6.5249 273.474-3.76904 273.474-2.25602 272.94-0.999674 271.873 0 270.806 0.999674 269.462 1.49951 267.841 1.49951ZM309.465-32.0571C308.735-32.0571 307.648-32.0909 306.202-32.1584 304.757-32.226 303.669-32.2598 302.94-32.2598 302.535-32.2598 302.089-32.2327 301.603-32.1787 302.17-20.0475 302.454-11.4827 302.454-6.48437 302.454-0.432292 300.481 2.59375 296.537 2.59375 295.078 2.59375 293.794 2.14795 292.686 1.25635 291.498 0.31071 290.903-0.891601 290.903-2.35059 290.903-3.29622 290.944-4.73494 291.025-6.66675 291.106-8.59855 291.146-10.0373 291.146-10.9829 291.146-14.6844 290.903-21.6956 290.417-32.0166 289.931-32.0166 288.728-32.0166 286.81-32.0166 284.054-32.0166 282.041-32.2733 280.771-32.7866 278.745-33.5972 277.732-35.1507 277.732-37.4473 277.732-38.9062 278.238-40.1693 279.252-41.2366 280.265-42.3038 281.582-42.8374 283.203-42.8374L307.155-42.8374C312.423-42.8374 315.058-41.0272 315.058-37.4067 315.058-35.8937 314.537-34.6239 313.497-33.5972 312.457-32.5705 311.113-32.0571 309.465-32.0571ZM339.426 2.5127C333.32 2.51269 328.105 0.824056 323.783-2.55322 319.162-6.20068 316.852-10.9154 316.852-16.6973 316.852-23.2357 318.987-29.2202 323.256-34.6509 328.146-40.8921 334.374-44.0127 341.939-44.0127 356.421-44.0127 363.661-37.6094 363.661-24.8027 363.661-18.2643 361.703-12.3203 357.785-6.9707 353.138-0.648438 347.018 2.51269 339.426 2.5127ZM341.939-33.354C338.345-33.354 335.211-31.6316 332.536-28.1868 329.862-24.7419 328.524-20.9121 328.524-16.6973 328.524-14.1576 329.544-12.0907 331.584-10.4966 333.624-8.90251 336.238-8.10547 339.426-8.10547 342.911-8.10547 345.897-9.83463 348.383-13.293 350.787-16.6162 351.99-20.4528 351.99-24.8027 351.99-28.18 351.294-30.4495 349.902-31.6113 348.511-32.7731 345.856-33.354 341.939-33.354ZM401.903 1.49951C400.282 1.49951 398.931 0.999674 397.851 0 396.77-0.999674 396.229-2.25602 396.229-3.76904 396.229-6.11963 396.175-10.3345 396.067-16.4136 395.554-16.4136 395.108-16.4136 394.73-16.4136 388.921-16.4136 383.288-15.8327 377.83-14.6709 377.803-13.6172 377.654-11.7124 377.384-8.95654 377.168-6.60596 377.06-4.6674 377.06-3.14087 377.06-1.61434 376.526-0.351237 375.459 0.648437 374.392 1.64811 373.048 2.14795 371.427 2.14795 369.806 2.14795 368.461 1.64811 367.394 0.648437 366.327-0.351237 365.793-1.62109 365.793-3.16113 365.793-4.07975 365.922-5.32935 366.178-6.90991 366.435-8.49048 366.563-9.74007 366.563-10.6587 366.563-12.1717 366.523-14.448 366.442-17.4875 366.361-20.5271 366.32-22.8034 366.32-24.3164 366.32-25.9105 366.32-28.2611 366.32-31.3682 366.347-34.4753 366.361-36.8258 366.361-38.4199 366.361-39.9329 366.894-41.1893 367.962-42.189 369.029-43.1886 370.373-43.6885 371.994-43.6885 373.615-43.6885 374.966-43.1886 376.047-42.189 377.128-41.1893 377.668-39.9329 377.668-38.4199 377.668-36.6908 377.695-34.5293 377.749-31.9355 377.83-28.3421 377.871-26.2077 377.871-25.5322 383.571-26.613 389.583-27.0858 395.905-26.9507L395.905-27.8423C395.905-29.2202 395.959-31.1925 396.067-33.7593 396.175-36.326 396.229-38.2713 396.229-39.5952 396.229-41.1082 396.77-42.3646 397.851-43.3643 398.931-44.3639 400.282-44.8638 401.903-44.8638 403.524-44.8638 404.869-44.3639 405.936-43.3643 407.003-42.3646 407.537-41.1082 407.537-39.5952 407.537-38.2443 407.483-36.2855 407.374-33.7187 407.266-31.152 407.212-29.1932 407.212-27.8423 407.212-25.0864 407.266-21.0742 407.374-15.8057 407.483-10.5371 407.537-6.5249 407.537-3.76904 407.537-2.25602 407.003-0.999674 405.936 0 404.869 0.999674 403.524 1.49951 401.903 1.49951ZM434.53 2.5127C428.424 2.51269 423.21 0.824056 418.887-2.55322 414.267-6.20068 411.957-10.9154 411.957-16.6973 411.957-23.2357 414.091-29.2202 418.36-34.6509 423.25-40.8921 429.478-44.0127 437.043-44.0127 451.525-44.0127 458.766-37.6094 458.766-24.8027 458.766-18.2643 456.807-12.3203 452.889-6.9707 448.242-0.648438 442.122 2.51269 434.53 2.5127ZM437.043-33.354C433.45-33.354 430.315-31.6316 427.641-28.1868 424.966-24.7419 423.628-20.9121 423.628-16.6973 423.628-14.1576 424.648-12.0907 426.688-10.4966 428.728-8.90251 431.342-8.10547 434.53-8.10547 438.016-8.10547 441.001-9.83463 443.487-13.293 445.891-16.6162 447.094-20.4528 447.094-24.8027 447.094-28.18 446.398-30.4495 445.007-31.6113 443.615-32.7731 440.961-33.354 437.043-33.354ZM469.246 1.86426C467.787 1.86426 466.436 1.35091 465.193 0.324219 463.843-0.75651 463.167-2.01286 463.167-3.44482L463.167-10.5776C463.167-13.6037 463.221-17.5618 463.329-22.4521 463.491-28.8555 463.572-32.8001 463.572-34.2861 463.599-36.3125 463.775-37.7715 464.099-38.6631 464.64-40.1761 465.72-41.1352 467.341-41.5405 469.665-42.1619 472.975-42.4726 477.271-42.4727 481.891-42.4726 486.106-41.4189 489.915-39.3115 494.589-36.7718 496.926-33.3 496.926-28.896 496.926-25.6268 495.454-23.033 492.509-21.1147 497.453-17.9806 499.925-14.6844 499.925-11.2261 499.925-6.30876 495.886-2.71533 487.808-0.445801 482.377 1.09424 476.19 1.86426 469.246 1.86426ZM478.649-32.9487 476.987-32.9487C475.96-32.9487 475.096-32.9352 474.393-32.9082 474.393-32.3678 474.393-31.4627 474.393-30.1929 474.393-29.6525 474.434-28.7339 474.515-27.437 474.623-25.924 474.677-25.0054 474.677-24.6812 475.812-24.6001 476.663-24.5596 477.23-24.5596 479.04-24.5596 480.823-24.8568 482.58-25.4512 484.93-26.2617 486.106-27.41 486.106-28.896 486.106-29.7876 485.255-30.6859 483.552-31.5911 481.85-32.4962 480.216-32.9487 478.649-32.9487ZM481.526-17.5483C480.932-17.6564 478.446-17.778 474.069-17.9131 474.015-16.9134 473.988-15.4544 473.988-13.5361L473.988-7.78125C483.768-8.21354 488.659-9.46989 488.659-11.5503 488.659-12.7121 487.74-13.9684 485.903-15.3193 484.282-16.5352 482.823-17.2782 481.526-17.5483ZM540.411 2.229C539.168 2.229 537.196 1.02669 534.494-1.37793 532.008-0.189128 529.82 0.709228 527.928 1.31714 526.037 1.92505 524.43 2.229 523.106 2.229 516.594 2.229 511.711 0.486328 508.455-2.99902 505.199-6.48437 503.572-11.6989 503.572-18.6426 503.572-25.154 505.976-30.7265 510.785-35.3601 515.595-39.9937 521.349-42.3105 528.05-42.3105 530.617-42.3105 533.589-41.5882 536.966-40.1436 541.046-38.4047 543.086-36.3851 543.086-34.0848 543.086-33.1218 542.775-32.2792 542.154-31.5569 541.883-30.4867 541.674-29.1424 541.525-27.5241 541.377-25.9057 541.302-24.0131 541.302-21.8461 541.302-16.7372 541.667-13.0591 542.397-10.8119 542.478-10.5713 543.099-9.18029 544.261-6.63889 545.315-4.33811 545.842-3.02731 545.842-2.70647 545.842-1.28885 545.294-0.111872 544.2 0.824478 543.106 1.76083 541.843 2.229 540.411 2.229ZM530.36-25.127C530.36-25.9915 530.421-26.9845 530.542-28.1057 530.664-29.227 530.846-30.4766 531.09-31.8545 530.549-32.1247 530.07-32.3205 529.651-32.4421 529.232-32.5637 528.874-32.6245 528.577-32.6245 524.902-32.6245 521.687-31.1858 518.931-28.3083 516.176-25.4309 514.798-22.1009 514.798-18.3184 514.798-14.6979 515.446-11.9758 516.743-10.1521 518.04-8.32837 519.985-7.4165 522.579-7.4165 524.254-7.4165 525.841-7.69344 527.341-8.24731 528.84-8.80119 530.252-9.61849 531.576-10.6992 530.765-17.1296 530.36-21.9388 530.36-25.127Z" fill="#462100" transform="matrix(0.200205 0 0 0.200542 43.2757 40)"/><path d="M44.418-34.2456C41.473-28.1125 36.8123-18.4805 30.436-5.34961 26.9777 1.70215 24.3434 7.55159 22.5332 12.1987 21.9658 13.8739 21.0742 16.3595 19.8584 19.6558 18.8857 22.1955 17.1566 23.4653 14.6709 23.4653 13.1309 23.4653 11.7799 22.9655 10.6182 21.9658 9.45638 20.9661 8.87549 19.7098 8.87549 18.1968 8.87549 15.6841 11.7394 8.24056 17.4673-4.13379 14.4953-9.99674 9.7806-18.6291 3.32324-30.0308 2.6748-31.0575 2.01286-32.0977 1.3374-33.1514 0.60791-34.3942 0.243164-35.529 0.243164-36.5557 0.243164-38.0146 0.824056-39.298 1.98584-40.4058 3.14762-41.5135 4.48503-42.0674 5.99805-42.0674 7.78125-42.0674 9.17269-41.4054 10.1724-40.0815 14.0089-34.9751 18.4805-27.2884 23.5869-17.0215 26.4779-23.4248 28.234-27.2884 28.8555-28.6123 30.7738-32.638 32.6515-36.1774 34.4888-39.2305 35.6506-41.1758 37.2446-42.1484 39.271-42.1484 40.784-42.1484 42.1349-41.6351 43.3237-40.6084 44.5125-39.5817 45.1069-38.3254 45.1069-36.8394 45.1069-36.0558 44.8773-35.1912 44.418-34.2456ZM89.7244 1.58057C88.1033 1.58057 86.7592 1.08073 85.692 0.0810547 84.6247-0.91862 84.0911-2.17497 84.0911-3.68799 84.0911-4.49853 84.0236-5.60628 83.8885-7.01123 83.7264-8.6053 83.6318-9.69954 83.6048-10.2939 83.5238-12.3473 83.4832-14.9951 83.4832-18.2373 83.4832-19.4261 83.5373-23.9111 83.6453-31.6924 82.3755-31.5843 81.1191-31.5303 79.8763-31.5303 75.9316-31.5303 72.095-31.5978 68.3665-31.7329L68.4476-23.8301C68.4476-15.6436 67.7991-9.82113 66.5023-6.36279 64.557-1.22933 60.7474 1.3374 55.0736 1.3374 52.804 1.3374 50.7777 0.878092 48.9945-0.0405273 46.6169-1.25635 45.4281-3.05306 45.4281-5.43066 45.4281-6.75456 45.8941-7.90283 46.8263-8.87549 47.7584-9.84814 48.981-10.3345 50.494-10.3345 51.0884-10.3345 51.8854-10.1453 52.8851-9.76709 53.8848-9.38883 54.6143-9.19971 55.0736-9.19971 56.9108-9.19971 57.8294-12.6715 57.8294-19.6152 57.8294-21.5876 57.6876-24.5326 57.4039-28.4502 57.1202-32.3678 56.9783-35.3128 56.9784-37.2852 56.9783-38.8792 57.5592-40.1491 58.721-41.0947 59.8828-42.0404 61.2742-42.5132 62.8953-42.5132 63.5978-42.5132 64.5434-42.4862 65.7323-42.4321 67.2183-42.3241 68.1639-42.2565 68.5692-42.2295 71.5142-42.1214 75.2832-42.0674 79.8763-42.0674 80.876-42.0674 82.362-42.243 84.3343-42.5942 86.3066-42.9455 87.8061-43.1211 88.8328-43.1211 92.9126-43.1211 94.9525-41.4054 94.9525-37.9741 94.9525-35.7856 94.9187-32.5097 94.8512-28.1462 94.7836-23.7828 94.7498-20.5203 94.7498-18.3589 94.7498-15.2788 94.7904-12.7256 94.8714-10.6992 94.8984-10.0508 94.993-8.87549 95.1551-7.17334 95.3172-5.71435 95.3983-4.55257 95.3983-3.68799 95.3983-2.17497 94.8579-0.91862 93.7772 0.0810547 92.6964 1.08073 91.3455 1.58057 89.7244 1.58057ZM116.987 4.21484C115.177 4.21484 113.61 3.65421 112.286 2.53296 110.962 1.4117 110.3 0.1486 110.3-1.25635 110.3-2.68831 110.962-3.97843 112.286-5.12671 113.61-6.27498 115.177-6.84912 116.987-6.84912 118.905-6.84912 120.486-6.30876 121.729-5.22803 122.972-4.1473 123.593-2.8234 123.593-1.25635 123.593 0.175618 122.945 1.44548 121.648 2.55322 120.351 3.66097 118.797 4.21484 116.987 4.21484ZM220.815 1.21582C218.681 1.13477 216.533-1.37793 214.372-6.32227 212.94-9.51042 211.71-13.1849 210.684-17.3457 208.684-17.0485 205.415-16.7513 200.876-16.4541 196.607-16.1569 193.338-15.8057 191.068-15.4004 189.826-12.4284 187.664-7.95687 184.584-1.98584 183.395-0.0405273 181.747 0.932129 179.64 0.932129 178.154 0.932129 176.816 0.425537 175.627-0.587646 174.439-1.60083 173.844-2.89095 173.844-4.45801 173.844-5.83594 175.817-10.5101 179.761-18.4805 179.383-19.318 179.221-20.1016 179.275-20.8311 179.383-22.1279 180.693-23.1411 183.206-23.8706 187.043-30.5171 191.311-37.4067 196.013-44.5395 202.767-54.7795 206.928-59.8994 208.495-59.8994 211.467-59.8994 213.453-58.1027 214.453-54.5093 214.993-51.6183 215.844-47.2819 217.006-41.5 218.654-33.7187 220.667-24.8162 223.044-14.7925 223.234-14.036 223.923-12.2528 225.111-9.44287 226.084-7.1193 226.57-5.37663 226.57-4.21484 226.57-2.64779 225.983-1.3374 224.807-0.283691 223.632 0.770019 222.301 1.26986 220.815 1.21582ZM205.699-40.3652C203.591-36.7448 200.687-31.814 196.985-25.5728 198.201-25.8429 200.092-26.0591 202.659-26.2212 205.685-26.4103 207.59-26.5589 208.374-26.667 207.725-30.1794 206.833-34.7454 205.699-40.3652ZM267.841 1.49951C266.22 1.49951 264.869 0.999674 263.788 0 262.707-0.999674 262.167-2.25602 262.167-3.76904 262.167-6.11963 262.113-10.3345 262.005-16.4136 261.491-16.4136 261.046-16.4136 260.667-16.4136 254.859-16.4136 249.225-15.8327 243.768-14.6709 243.741-13.6172 243.592-11.7124 243.322-8.95654 243.106-6.60596 242.998-4.6674 242.998-3.14087 242.998-1.61434 242.464-0.351237 241.397 0.648437 240.329 1.64811 238.985 2.14795 237.364 2.14795 235.743 2.14795 234.399 1.64811 233.332 0.648437 232.265-0.351237 231.731-1.62109 231.731-3.16113 231.731-4.07975 231.859-5.32935 232.116-6.90991 232.373-8.49048 232.501-9.74007 232.501-10.6587 232.501-12.1717 232.46-14.448 232.379-17.4875 232.298-20.5271 232.258-22.8034 232.258-24.3164 232.258-25.9105 232.258-28.2611 232.258-31.3682 232.285-34.4753 232.298-36.8258 232.298-38.4199 232.298-39.9329 232.832-41.1893 233.899-42.189 234.966-43.1886 236.311-43.6885 237.932-43.6885 239.553-43.6885 240.904-43.1886 241.984-42.189 243.065-41.1893 243.605-39.9329 243.605-38.4199 243.605-36.6908 243.632-34.5293 243.687-31.9355 243.768-28.3421 243.808-26.2077 243.808-25.5322 249.509-26.613 255.52-27.0858 261.843-26.9507L261.843-27.8423C261.843-29.2202 261.897-31.1925 262.005-33.7593 262.113-36.326 262.167-38.2713 262.167-39.5952 262.167-41.1082 262.707-42.3646 263.788-43.3643 264.869-44.3639 266.22-44.8638 267.841-44.8638 269.462-44.8638 270.806-44.3639 271.873-43.3643 272.94-42.3646 273.474-41.1082 273.474-39.5952 273.474-38.2443 273.42-36.2855 273.312-33.7187 273.204-31.152 273.15-29.1932 273.15-27.8423 273.15-25.0864 273.204-21.0742 273.312-15.8057 273.42-10.5371 273.474-6.5249 273.474-3.76904 273.474-2.25602 272.94-0.999674 271.873 0 270.806 0.999674 269.462 1.49951 267.841 1.49951ZM309.465-32.0571C308.735-32.0571 307.648-32.0909 306.202-32.1584 304.757-32.226 303.669-32.2598 302.94-32.2598 302.535-32.2598 302.089-32.2327 301.603-32.1787 302.17-20.0475 302.454-11.4827 302.454-6.48437 302.454-0.432292 300.481 2.59375 296.537 2.59375 295.078 2.59375 293.794 2.14795 292.686 1.25635 291.498 0.31071 290.903-0.891601 290.903-2.35059 290.903-3.29622 290.944-4.73494 291.025-6.66675 291.106-8.59855 291.146-10.0373 291.146-10.9829 291.146-14.6844 290.903-21.6956 290.417-32.0166 289.931-32.0166 288.728-32.0166 286.81-32.0166 284.054-32.0166 282.041-32.2733 280.771-32.7866 278.745-33.5972 277.732-35.1507 277.732-37.4473 277.732-38.9062 278.238-40.1693 279.252-41.2366 280.265-42.3038 281.582-42.8374 283.203-42.8374L307.155-42.8374C312.423-42.8374 315.058-41.0272 315.058-37.4067 315.058-35.8937 314.537-34.6239 313.497-33.5972 312.457-32.5705 311.113-32.0571 309.465-32.0571ZM339.426 2.5127C333.32 2.51269 328.105 0.824056 323.783-2.55322 319.162-6.20068 316.852-10.9154 316.852-16.6973 316.852-23.2357 318.987-29.2202 323.256-34.6509 328.146-40.8921 334.374-44.0127 341.939-44.0127 356.421-44.0127 363.661-37.6094 363.661-24.8027 363.661-18.2643 361.703-12.3203 357.785-6.9707 353.138-0.648438 347.018 2.51269 339.426 2.5127ZM341.939-33.354C338.345-33.354 335.211-31.6316 332.536-28.1868 329.862-24.7419 328.524-20.9121 328.524-16.6973 328.524-14.1576 329.544-12.0907 331.584-10.4966 333.624-8.90251 336.238-8.10547 339.426-8.10547 342.911-8.10547 345.897-9.83463 348.383-13.293 350.787-16.6162 351.99-20.4528 351.99-24.8027 351.99-28.18 351.294-30.4495 349.902-31.6113 348.511-32.7731 345.856-33.354 341.939-33.354ZM401.903 1.49951C400.282 1.49951 398.931 0.999674 397.851 0 396.77-0.999674 396.229-2.25602 396.229-3.76904 396.229-6.11963 396.175-10.3345 396.067-16.4136 395.554-16.4136 395.108-16.4136 394.73-16.4136 388.921-16.4136 383.288-15.8327 377.83-14.6709 377.803-13.6172 377.654-11.7124 377.384-8.95654 377.168-6.60596 377.06-4.6674 377.06-3.14087 377.06-1.61434 376.526-0.351237 375.459 0.648437 374.392 1.64811 373.048 2.14795 371.427 2.14795 369.806 2.14795 368.461 1.64811 367.394 0.648437 366.327-0.351237 365.793-1.62109 365.793-3.16113 365.793-4.07975 365.922-5.32935 366.178-6.90991 366.435-8.49048 366.563-9.74007 366.563-10.6587 366.563-12.1717 366.523-14.448 366.442-17.4875 366.361-20.5271 366.32-22.8034 366.32-24.3164 366.32-25.9105 366.32-28.2611 366.32-31.3682 366.347-34.4753 366.361-36.8258 366.361-38.4199 366.361-39.9329 366.894-41.1893 367.962-42.189 369.029-43.1886 370.373-43.6885 371.994-43.6885 373.615-43.6885 374.966-43.1886 376.047-42.189 377.128-41.1893 377.668-39.9329 377.668-38.4199 377.668-36.6908 377.695-34.5293 377.749-31.9355 377.83-28.3421 377.871-26.2077 377.871-25.5322 383.571-26.613 389.583-27.0858 395.905-26.9507L395.905-27.8423C395.905-29.2202 395.959-31.1925 396.067-33.7593 396.175-36.326 396.229-38.2713 396.229-39.5952 396.229-41.1082 396.77-42.3646 397.851-43.3643 398.931-44.3639 400.282-44.8638 401.903-44.8638 403.524-44.8638 404.869-44.3639 405.936-43.3643 407.003-42.3646 407.537-41.1082 407.537-39.5952 407.537-38.2443 407.483-36.2855 407.374-33.7187 407.266-31.152 407.212-29.1932 407.212-27.8423 407.212-25.0864 407.266-21.0742 407.374-15.8057 407.483-10.5371 407.537-6.5249 407.537-3.76904 407.537-2.25602 407.003-0.999674 405.936 0 404.869 0.999674 403.524 1.49951 401.903 1.49951ZM434.53 2.5127C428.424 2.51269 423.21 0.824056 418.887-2.55322 414.267-6.20068 411.957-10.9154 411.957-16.6973 411.957-23.2357 414.091-29.2202 418.36-34.6509 423.25-40.8921 429.478-44.0127 437.043-44.0127 451.525-44.0127 458.766-37.6094 458.766-24.8027 458.766-18.2643 456.807-12.3203 452.889-6.9707 448.242-0.648438 442.122 2.51269 434.53 2.5127ZM437.043-33.354C433.45-33.354 430.315-31.6316 427.641-28.1868 424.966-24.7419 423.628-20.9121 423.628-16.6973 423.628-14.1576 424.648-12.0907 426.688-10.4966 428.728-8.90251 431.342-8.10547 434.53-8.10547 438.016-8.10547 441.001-9.83463 443.487-13.293 445.891-16.6162 447.094-20.4528 447.094-24.8027 447.094-28.18 446.398-30.4495 445.007-31.6113 443.615-32.7731 440.961-33.354 437.043-33.354ZM469.246 1.86426C467.787 1.86426 466.436 1.35091 465.193 0.324219 463.843-0.75651 463.167-2.01286 463.167-3.44482L463.167-10.5776C463.167-13.6037 463.221-17.5618 463.329-22.4521 463.491-28.8555 463.572-32.8001 463.572-34.2861 463.599-36.3125 463.775-37.7715 464.099-38.6631 464.64-40.1761 465.72-41.1352 467.341-41.5405 469.665-42.1619 472.975-42.4726 477.271-42.4727 481.891-42.4726 486.106-41.4189 489.915-39.3115 494.589-36.7718 496.926-33.3 496.926-28.896 496.926-25.6268 495.454-23.033 492.509-21.1147 497.453-17.9806 499.925-14.6844 499.925-11.2261 499.925-6.30876 495.886-2.71533 487.808-0.445801 482.377 1.09424 476.19 1.86426 469.246 1.86426ZM478.649-32.9487 476.987-32.9487C475.96-32.9487 475.096-32.9352 474.393-32.9082 474.393-32.3678 474.393-31.4627 474.393-30.1929 474.393-29.6525 474.434-28.7339 474.515-27.437 474.623-25.924 474.677-25.0054 474.677-24.6812 475.812-24.6001 476.663-24.5596 477.23-24.5596 479.04-24.5596 480.823-24.8568 482.58-25.4512 484.93-26.2617 486.106-27.41 486.106-28.896 486.106-29.7876 485.255-30.6859 483.552-31.5911 481.85-32.4962 480.216-32.9487 478.649-32.9487ZM481.526-17.5483C480.932-17.6564 478.446-17.778 474.069-17.9131 474.015-16.9134 473.988-15.4544 473.988-13.5361L473.988-7.78125C483.768-8.21354 488.659-9.46989 488.659-11.5503 488.659-12.7121 487.74-13.9684 485.903-15.3193 484.282-16.5352 482.823-17.2782 481.526-17.5483ZM540.411 2.229C539.168 2.229 537.196 1.02669 534.494-1.37793 532.008-0.189128 529.82 0.709228 527.928 1.31714 526.037 1.92505 524.43 2.229 523.106 2.229 516.594 2.229 511.711 0.486328 508.455-2.99902 505.199-6.48437 503.572-11.6989 503.572-18.6426 503.572-25.154 505.976-30.7265 510.785-35.3601 515.595-39.9937 521.349-42.3105 528.05-42.3105 530.617-42.3105 533.589-41.5882 536.966-40.1436 541.046-38.4047 543.086-36.3851 543.086-34.0848 543.086-33.1218 542.775-32.2792 542.154-31.5569 541.883-30.4867 541.674-29.1424 541.525-27.5241 541.377-25.9057 541.302-24.0131 541.302-21.8461 541.302-16.7372 541.667-13.0591 542.397-10.8119 542.478-10.5713 543.099-9.18029 544.261-6.63889 545.315-4.33811 545.842-3.02731 545.842-2.70647 545.842-1.28885 545.294-0.111872 544.2 0.824478 543.106 1.76083 541.843 2.229 540.411 2.229ZM530.36-25.127C530.36-25.9915 530.421-26.9845 530.542-28.1057 530.664-29.227 530.846-30.4766 531.09-31.8545 530.549-32.1247 530.07-32.3205 529.651-32.4421 529.232-32.5637 528.874-32.6245 528.577-32.6245 524.902-32.6245 521.687-31.1858 518.931-28.3083 516.176-25.4309 514.798-22.1009 514.798-18.3184 514.798-14.6979 515.446-11.9758 516.743-10.1521 518.04-8.32837 519.985-7.4165 522.579-7.4165 524.254-7.4165 525.841-7.69344 527.341-8.24731 528.84-8.80119 530.252-9.61849 531.576-10.6992 530.765-17.1296 530.36-21.9388 530.36-25.127Z" fill="#462100" transform="matrix(0.200205 0 0 0.200542 43.2757 40)"/></g></g><path d="M3047 2166C3048.79 2134.67 3073.02 2092.77 3117.45 2095 3217.08 2092.09 3276.78 2096.48 3338.67 2095 3400.56 2093.52 3488.48 2085.53 3553.63 2095 3618.79 2104.47 3661.78 2098.27 3743.55 2095 3780.83 2094.73 3821.71 2127.22 3814 2166L3814 2166C3811.11 2214.45 3783.1 2231.14 3743.55 2237 3657.31 2237.16 3629.81 2229.67 3553.63 2237 3477.45 2244.33 3454.84 2228.24 3363.72 2237 3272.59 2245.76 3179.78 2225.63 3117.45 2237 3072.61 2242.55 3047.67 2204.53 3047 2166L3047 2166Z" fill="#FFFFFF" fill-rule="evenodd"/><path d="M3047 2166C3049.84 2132.39 3077.5 2091.36 3117.45 2095 3177.5 2100.09 3278.59 2088.75 3326.15 2095 3373.71 2101.25 3475.22 2099.99 3522.33 2095 3569.44 2090.01 3688.12 2105.36 3743.55 2095 3783.22 2091.5 3822.25 2128.11 3814 2166L3814 2166C3815.13 2203.05 3785.08 2242.48 3743.55 2237 3664.31 2235.25 3628.27 2235.31 3553.63 2237 3478.99 2238.69 3397.61 2228.43 3338.67 2237 3279.73 2245.57 3190.48 2244.36 3117.45 2237 3079.91 2244.45 3043.3 2210.26 3047 2166L3047 2166Z" stroke="#462100" stroke-width="10.3125" stroke-miterlimit="8" fill="none" fill-rule="evenodd"/><text fill="#462100" font-family="Comic Sans MS,Comic Sans MS_MSFontService,sans-serif" font-weight="700" font-size="83" transform="matrix(1 0 0 1 3160.16 2189)">ул. Антонова</text><path d="M3510 2251C3510 2272.54 3492.32 2290 3470.5 2290 3448.69 2290 3431 2272.54 3431 2251 3431 2229.46 3448.69 2212 3470.5 2212 3492.32 2212 3510 2229.46 3510 2251Z" fill="#F2EBEA" fill-rule="evenodd"/><path d="M3492.79 2250.17C3493.3 2262.43 3483.78 2272.78 3471.52 2273.29 3459.26 2273.8 3448.91 2264.27 3448.4 2252.02 3447.89 2239.76 3457.42 2229.41 3469.67 2228.9 3481.93 2228.39 3492.28 2237.91 3492.79 2250.17Z" fill="#C9AFAB" fill-rule="evenodd"/><path d="M3537.45 2291.11C3532.69 2290.84 3528.54 2293.59 3526.7 2297.61L3526.7 2292.7C3526.7 2286.54 3521.69 2281.55 3515.55 2281.55L3515.55 2281.55C3511.48 2281.55 3507.93 2283.75 3505.99 2286.98L3505.99 2286.32C3505.99 2280.16 3500.99 2275.18 3494.85 2275.18L3494.85 2275.18C3489.52 2275.18 3485.06 2278.92 3483.95 2283.94L3483.95 2253.62C3483.95 2247.9 3479.84 2242.74 3474.16 2242.08 3467.4 2241.28 3461.66 2246.54 3461.66 2253.15L3461.66 2318.64C3461.66 2319.4 3460.63 2319.65 3460.28 2318.97L3449.25 2297.32C3446.66 2291.73 3440.03 2289.31 3434.44 2291.93 3428.86 2294.53 3426.44 2301.16 3429.05 2306.74L3448.05 2357.36 3462.59 2383.98C3463.27 2385.23 3464.57 2386 3466 2386L3533.73 2386C3535.55 2386 3537.12 2384.74 3537.51 2382.96L3547.11 2339.18C3547.69 2336.89 3548 2334.54 3548 2332.2L3548 2302.77C3548 2296.95 3543.29 2291.48 3537.47 2291.15Z" fill="#875E21" fill-rule="evenodd"/></g></svg>