<svg width="1566" height="377" xmlns="http://www.w3.org/2000/svg" xmlns:xlink="http://www.w3.org/1999/xlink" overflow="hidden"><defs><filter id="fx0" x="-10%" y="-10%" width="120%" height="120%" filterUnits="userSpaceOnUse" primitiveUnits="userSpaceOnUse"><feComponentTransfer color-interpolation-filters="sRGB"><feFuncR type="discrete" tableValues="0 0"/><feFuncG type="discrete" tableValues="0 0"/><feFuncB type="discrete" tableValues="0 0"/><feFuncA type="linear" slope="0.219608" intercept="0"/></feComponentTransfer><feGaussianBlur stdDeviation="6.42485 6.41667"/></filter><clipPath id="clip1"><rect x="590" y="1076" width="1566" height="377"/></clipPath><clipPath id="clip2"><rect x="-17.4222" y="-17.4" width="121.955" height="57.8"/></clipPath><clipPath id="clip3"><rect x="0" y="0" width="314" height="76"/></clipPath></defs><g clip-path="url(#clip1)" transform="translate(-590 -1076)"><g clip-path="url(#clip2)" filter="url(#fx0)" transform="matrix(4.99363 0 0 5 589 1075)"><g clip-path="url(#clip3)" transform="translate(1.42109e-14 0)"><path d="M20.6263 36.7C20.7214 30.0185 26.0753 23.9539 36.0554 22.6 53.063 20.3518 81.5372 20.4293 95.1476 22.6 108.758 24.7707 135.805 24.3502 147.674 22.6 159.543 20.8497 185.476 25.2174 206.766 22.6 228.057 19.9825 243.35 21.3227 254.915 22.6 263.741 21.44 271.623 29.3994 270.344 36.7L270.344 36.7C269.965 45.3116 263.478 51.3416 254.915 50.8 236.513 52.585 212.95 52.7885 198.012 50.8 183.073 48.8116 167.934 49.2436 149.863 50.8 131.792 52.3564 113.247 51.4824 101.713 50.8 90.1794 50.1176 65.8279 52.5785 36.0554 50.8 26.8677 50.8925 18.6127 44.5063 20.6263 36.6999L20.6263 36.7Z" fill="#FFFFFF" fill-rule="evenodd"/><path d="M20.6263 36.7C22.5851 29.3308 25.7909 22.204 36.0554 22.6 48.6748 21.1131 62.2228 23.4517 86.3932 22.6 110.564 21.7483 117.506 23.4218 134.542 22.6 151.579 21.7781 174.984 21.6443 187.069 22.6 199.154 23.5557 228.705 19.7523 254.915 22.6 263.982 23.6626 270.21 28.7827 270.344 36.7L270.344 36.7C269.905 44.4267 262.861 50.6875 254.915 50.8 243.266 51.8023 216.304 48.919 202.389 50.8 188.474 52.681 161.305 50.0523 149.863 50.8 138.42 51.5478 117.749 51.5756 92.9589 50.8 68.1693 50.0244 62.9009 48.6731 36.0554 50.8 28.0065 51.1483 19.9392 44.666 20.6263 36.6999L20.6263 36.7Z" stroke="#462100" stroke-width="2" stroke-miterlimit="8" fill="none" fill-rule="evenodd"/><path d="M46.5586-35.896C43.4717-29.4673 38.5864-19.3711 31.9028-5.60742 28.2778 1.78418 25.5166 7.91553 23.6191 12.7866 23.0244 14.5425 22.0898 17.1479 20.8154 20.603 19.7959 23.2651 17.9834 24.5962 15.3779 24.5962 13.7637 24.5962 12.3477 24.0723 11.1299 23.0244 9.91211 21.9766 9.30322 20.6597 9.30322 19.0737 9.30322 16.4399 12.3052 8.63769 18.3091-4.33301 15.1938-10.4785 10.252-19.5269 3.4834-31.478 2.80371-32.5542 2.10986-33.6445 1.40186-34.749 0.637207-36.0518 0.254883-37.2412 0.254883-38.3174 0.254883-39.8467 0.863769-41.1919 2.08154-42.353 3.29932-43.5142 4.70117-44.0947 6.28711-44.0947 8.15625-44.0947 9.61475-43.4009 10.6626-42.0132 14.6841-36.6606 19.3711-28.6035 24.7236-17.8418 27.7539-24.5537 29.5947-28.6035 30.2461-29.9912 32.2568-34.2109 34.2251-37.9209 36.1509-41.1211 37.3686-43.1602 39.0395-44.1797 41.1636-44.1797 42.7495-44.1797 44.1655-43.6416 45.4116-42.5654 46.6577-41.4893 47.2808-40.1724 47.2808-38.6147 47.2808-37.7935 47.04-36.8872 46.5586-35.896ZM94.1313 1.65674C92.4321 1.65674 91.0232 1.13281 89.9045 0.0849609 88.7859-0.962891 88.2265-2.27979 88.2266-3.86572 88.2265-4.71533 88.1557-5.87646 88.0142-7.34912 87.8442-9.02002 87.7451-10.167 87.7168-10.79 87.6318-12.9424 87.5893-15.7178 87.5893-19.1162 87.5893-20.3623 87.646-25.0635 87.7593-33.2197 86.4282-33.1064 85.1113-33.0498 83.8086-33.0498 79.6738-33.0498 75.6523-33.1206 71.7441-33.2622L71.8291-24.9785C71.8291-16.3975 71.1494-10.2944 69.79-6.66943 67.751-1.28857 63.7578 1.40186 57.8105 1.40186 55.4316 1.40186 53.3076 0.92041 51.4385-0.0424805 48.9463-1.31689 47.7002-3.2002 47.7002-5.69238 47.7002-7.08008 48.1887-8.28369 49.1658-9.30322 50.1428-10.3228 51.4243-10.8325 53.0103-10.8325 53.6333-10.8325 54.4687-10.6343 55.5166-10.2378 56.5644-9.84131 57.3291-9.64307 57.8105-9.64307 59.7363-9.64307 60.6992-13.2822 60.6992-20.5605 60.6992-22.6279 60.5505-25.7148 60.2532-29.8213 59.9558-33.9277 59.8071-37.0146 59.8071-39.082 59.8071-40.7529 60.416-42.084 61.6338-43.0752 62.8516-44.0664 64.3101-44.562 66.0093-44.562 66.7456-44.562 67.7368-44.5337 68.9829-44.477 70.5405-44.3638 71.5317-44.293 71.9565-44.2646 75.0434-44.1514 78.9941-44.0947 83.8086-44.0947 84.8564-44.0947 86.414-44.2788 88.4814-44.647 90.5488-45.0151 92.1206-45.1992 93.1968-45.1992 97.4731-45.1992 99.6113-43.4009 99.6113-39.8042 99.6113-37.5103 99.5759-34.0764 99.5051-29.5027 99.4343-24.929 99.3989-21.5093 99.3989-19.2437 99.3989-16.0151 99.4414-13.3389 99.5264-11.2148 99.5547-10.5352 99.6538-9.30322 99.8237-7.51904 99.9936-5.98975 100.079-4.77197 100.079-3.86572 100.079-2.27979 99.5122-0.962891 98.3794 0.0849609 97.2466 1.13281 95.8306 1.65674 94.1313 1.65674ZM123.005 4.41797C121.107 4.41797 119.465 3.83032 118.077 2.65503 116.689 1.47974 115.995 0.155762 115.995-1.31689 115.995-2.81787 116.689-4.17017 118.077-5.37378 119.465-6.57739 121.107-7.1792 123.005-7.1792 125.015-7.1792 126.672-6.61279 127.975-5.47998 129.278-4.34717 129.929-2.95947 129.929-1.31689 129.929 0.184082 129.249 1.51514 127.89 2.67627 126.531 3.8374 124.902 4.41797 123.005 4.41797ZM202.368-33.5596C201.094-28.9717 199.309-22.0474 197.015-12.7866 196.477-9.58643 195.953-6.40039 195.444-3.22852 194.283 0.792969 192.144 2.80371 189.029 2.80371 187.075 2.80371 185.532 2.13818 184.399 0.807129 183.436-0.325684 182.954-1.6709 182.954-3.22852 182.954-7.81641 183.931-13.4097 185.886-20.0083 188.803-29.8921 190.374-35.3721 190.601-36.4482 191.422-40.8096 192.258-45.1709 193.107-49.5322 194.382-55.5361 195.762-59.5364 197.249-61.533 198.736-63.5295 200.612-64.5278 202.878-64.5278 205.455-64.5278 207.352-63.2251 208.57-60.6196 209.703-58.1558 210.921-53.1147 212.223-45.4966 213.47-38.105 215.325-30.147 217.788-21.6226 221.017-30.0337 224.019-39.2661 226.794-49.3198L229.173-59.0903C230.702-63.1401 233.067-65.165 236.267-65.165 239.354-65.165 241.648-62.8144 243.149-58.1133 243.772-56.2158 244.438-52.6758 245.146-47.4932 246.788-35.4287 248.856-25.0918 251.348-16.4824 253.868-7.73144 255.129-2.97363 255.129-2.20898 255.129-0.538086 254.463 0.86377 253.132 1.99658 251.886 3.01611 250.484 3.52588 248.927 3.52588 245.84 3.52588 243.546 1.31689 242.045-3.10107L239.666-13.3813C238.306-18.479 236.834-25.7998 235.248-35.3437 233.973-31.5488 231.864-25.5874 228.918-17.4595L226.369-9.64307C225.322-6.55615 224.231-4.02148 223.098-2.03906 221.597 0.594727 219.502 1.91162 216.811 1.91162 214.149 1.91162 212.11 0.339844 210.694-2.80371L208.315-10.7051C206.106-17.9551 204.124-25.5732 202.368-33.5596ZM281.56 2.63379C275.16 2.63379 269.694 0.863769 265.163-2.67627 260.32-6.49951 257.899-11.4414 257.899-17.502 257.899-24.3555 260.136-30.6284 264.611-36.3208 269.736-42.8628 276.264-46.1338 284.194-46.1338 299.374-46.1338 306.964-39.4219 306.964-25.998 306.964-19.1445 304.91-12.9141 300.804-7.30664 295.933-0.679688 289.518 2.63379 281.56 2.63379ZM284.194-34.9614C280.427-34.9614 277.142-33.156 274.339-29.5452 271.535-25.9343 270.133-21.9199 270.133-17.502 270.133-14.8398 271.202-12.6733 273.34-11.0024 275.478-9.33154 278.218-8.49609 281.56-8.49609 285.214-8.49609 288.343-10.3086 290.948-13.9336 293.469-17.417 294.729-21.4385 294.729-25.998 294.729-29.5381 294-31.917 292.541-33.1348 291.083-34.3525 288.3-34.9614 284.194-34.9614ZM354.236 1.65674C352.536 1.65674 351.127 1.13281 350.009 0.0849609 348.89-0.962891 348.331-2.27979 348.331-3.86572 348.331-4.71533 348.26-5.87646 348.118-7.34912 347.948-9.02002 347.849-10.167 347.821-10.79 347.736-12.9424 347.693-15.7178 347.694-19.1162 347.693-20.3623 347.75-25.0635 347.863-33.2197 346.532-33.1064 345.215-33.0498 343.913-33.0498 339.778-33.0498 335.756-33.1206 331.848-33.2622L331.933-24.9785C331.933-16.3975 331.254-10.2944 329.894-6.66943 327.855-1.28857 323.862 1.40186 317.915 1.40186 315.536 1.40186 313.412 0.92041 311.543-0.0424805 309.05-1.31689 307.804-3.2002 307.804-5.69238 307.804-7.08008 308.293-8.28369 309.27-9.30322 310.247-10.3228 311.528-10.8325 313.114-10.8325 313.737-10.8325 314.573-10.6343 315.621-10.2378 316.669-9.84131 317.433-9.64307 317.915-9.64307 319.84-9.64307 320.803-13.2822 320.803-20.5605 320.803-22.6279 320.655-25.7148 320.357-29.8213 320.06-33.9277 319.911-37.0146 319.911-39.082 319.911-40.7529 320.52-42.084 321.738-43.0752 322.956-44.0664 324.414-44.562 326.113-44.562 326.85-44.562 327.841-44.5337 329.087-44.477 330.645-44.3638 331.636-44.293 332.061-44.2646 335.148-44.1514 339.098-44.0947 343.913-44.0947 344.961-44.0947 346.518-44.2788 348.586-44.647 350.653-45.0151 352.225-45.1992 353.301-45.1992 357.577-45.1992 359.715-43.4009 359.715-39.8042 359.715-37.5103 359.68-34.0764 359.609-29.5027 359.538-24.929 359.503-21.5093 359.503-19.2437 359.503-16.0151 359.546-13.3389 359.631-11.2148 359.659-10.5352 359.758-9.30322 359.928-7.51904 360.098-5.98975 360.183-4.77197 360.183-3.86572 360.183-2.27979 359.616-0.962891 358.484 0.0849609 357.351 1.13281 355.935 1.65674 354.236 1.65674ZM389.269 2.63379C382.868 2.63379 377.402 0.863769 372.871-2.67627 368.028-6.49951 365.607-11.4414 365.607-17.502 365.607-24.3555 367.844-30.6284 372.319-36.3208 377.445-42.8628 383.973-46.1338 391.902-46.1338 407.082-46.1338 414.672-39.4219 414.672-25.998 414.672-19.1445 412.619-12.9141 408.512-7.30664 403.641-0.679688 397.227 2.63379 389.269 2.63379ZM391.902-34.9614C388.136-34.9614 384.851-33.156 382.047-29.5452 379.243-25.9343 377.841-21.9199 377.841-17.502 377.841-14.8398 378.91-12.6733 381.049-11.0024 383.187-9.33154 385.927-8.49609 389.269-8.49609 392.922-8.49609 396.051-10.3086 398.657-13.9336 401.177-17.417 402.438-21.4385 402.438-25.998 402.438-29.5381 401.708-31.917 400.25-33.1348 398.791-34.3525 396.009-34.9614 391.902-34.9614ZM461.307 10.875C458.616 10.875 456.832 9.72803 455.954 7.43408 455.388 5.98975 455.161 3.72412 455.274 0.637207L433.397 0.637207C433.17 0.637207 431.23 0.778808 427.577 1.06201 427.577 1.51514 427.591 2.24438 427.62 3.24976 427.648 4.25513 427.662 5.02685 427.662 5.56494 427.662 7.1792 427.103 8.51025 425.984 9.5581 424.865 10.606 423.457 11.1299 421.757 11.1299 417.679 11.1299 415.64 8.62353 415.64 3.61084 415.64 2.59131 415.668 1.21777 415.725-0.509766 415.782-2.2373 415.81-3.59668 415.81-4.58789 415.81-6.23047 416.376-7.57568 417.509-8.62353 418.557-9.58642 419.902-10.0962 421.545-10.1528 424.065-13.7212 425.793-17.9551 426.728-22.8545 427.379-26.3379 427.705-30.9116 427.705-36.5757 427.705-42.1548 430.735-44.9443 436.795-44.9443 437.503-44.9443 438.827-44.8948 440.767-44.7957 442.707-44.6965 444.244-44.647 445.376-44.647 446.453-44.647 448.053-44.7319 450.177-44.9019 452.301-45.0718 453.83-45.1567 454.765-45.1567 457.597-45.1567 459.48-44.0947 460.415-41.9707 460.981-40.6963 461.264-38.5723 461.264-35.5986 461.264-34.3809 461.186-32.5684 461.031-30.1611 460.875-27.7539 460.797-25.9414 460.797-24.7236 460.797-23.6475 460.868-18.479 461.009-9.21826 465.031-8.82178 467.042-6.98096 467.042-3.6958 467.042-2.59131 467.07-1.09033 467.126 0.807129 467.183 2.70459 467.211 4.19141 467.211 5.26758 467.211 6.88184 466.652 8.21997 465.533 9.28198 464.415 10.344 463.006 10.875 461.307 10.875ZM433.737-9.68555 449.157-9.68555C449.016-19.0029 448.945-24.0156 448.945-24.7236 448.945-25.8564 449.016-27.5415 449.157-29.7788 449.327-32.5542 449.412-34.2534 449.412-34.8765 444.399-34.7349 441.072-34.7065 439.429-34.7915 439.174-24.9927 437.277-16.624 433.737-9.68555ZM492.394 2.63379C485.993 2.63379 480.527 0.863769 475.996-2.67627 471.153-6.49951 468.732-11.4414 468.732-17.502 468.732-24.3555 470.969-30.6284 475.444-36.3208 480.57-42.8628 487.098-46.1338 495.027-46.1338 510.207-46.1338 517.797-39.4219 517.797-25.998 517.797-19.1445 515.744-12.9141 511.637-7.30664 506.766-0.679688 500.352 2.63379 492.394 2.63379ZM495.027-34.9614C491.261-34.9614 487.976-33.156 485.172-29.5452 482.368-25.9343 480.966-21.9199 480.966-17.502 480.966-14.8398 482.035-12.6733 484.174-11.0024 486.312-9.33154 489.052-8.49609 492.394-8.49609 496.047-8.49609 499.176-10.3086 501.782-13.9336 504.302-17.417 505.562-21.4385 505.562-25.998 505.562-29.5381 504.833-31.917 503.375-33.1348 501.916-34.3525 499.134-34.9614 495.027-34.9614ZM535.163-34.0269C535.361-32.5825 535.587-30.4302 535.842-27.5698 536.267-16.1284 536.479-8.12793 536.479-3.56836 536.479-1.98242 535.913-0.665527 534.78 0.382324 533.647 1.43018 532.231 1.9541 530.532 1.9541 528.833 1.9541 527.424 1.43018 526.305 0.382324 525.187-0.665527 524.627-1.98242 524.627-3.56836 524.627-7.95801 524.429-15.8452 524.033-27.23 524.004-28.2778 523.82-30.0054 523.48-32.4126 523.197-34.6216 523.056-36.335 523.056-37.5527 523.056-42.5088 526.893-44.9868 534.568-44.9868 536.154-44.9868 538.554-44.916 541.768-44.7744 544.983-44.6328 547.383-44.562 548.969-44.562 549.62-44.562 550.59-44.6116 551.879-44.7107 553.167-44.8098 554.137-44.8594 554.789-44.8594 556.459-44.8594 557.861-44.3071 558.994-43.2026 560.042-42.1265 560.566-40.8237 560.566-39.2944 560.566-36.689 559.221-34.9756 556.53-34.1543 555.143-33.7295 552.721-33.5171 549.266-33.5171 547.765-33.5171 545.415-33.602 542.214-33.772 539.127-33.9419 536.777-34.0269 535.163-34.0269ZM569.977 1.9541C568.448 1.9541 567.032 1.41602 565.729 0.339844 564.313-0.792969 563.605-2.10986 563.605-3.61084L563.605-11.0874C563.605-14.2593 563.662-18.4082 563.775-23.5342 563.945-30.2461 564.03-34.3809 564.03-35.9385 564.058-38.0625 564.242-39.5918 564.582-40.5264 565.149-42.1123 566.282-43.1177 567.981-43.5425 570.416-44.1938 573.886-44.5195 578.388-44.5195 583.231-44.5195 587.649-43.415 591.642-41.2061 596.542-38.5439 598.992-34.9048 598.992-30.2886 598.992-26.8618 597.448-24.1431 594.361-22.1323 599.544-18.8472 602.135-15.3921 602.135-11.7671 602.135-6.61279 597.901-2.84619 589.433-0.467285 583.741 1.14697 577.256 1.9541 569.977 1.9541ZM579.833-34.5366 578.091-34.5366C577.015-34.5366 576.109-34.5225 575.372-34.4941 575.372-33.9277 575.372-32.979 575.372-31.6479 575.372-31.0815 575.415-30.1187 575.5-28.7593 575.613-27.1733 575.67-26.2104 575.67-25.8706 576.859-25.7856 577.751-25.7432 578.346-25.7432 580.243-25.7432 582.113-26.0547 583.953-26.6777 586.417-27.5273 587.649-28.731 587.649-30.2886 587.649-31.2231 586.757-32.1648 584.973-33.1135 583.189-34.0623 581.475-34.5366 579.833-34.5366ZM582.849-18.394C582.226-18.5073 579.62-18.6348 575.033-18.7764 574.976-17.7285 574.948-16.1992 574.948-14.1885L574.948-8.15625C585.2-8.60937 590.326-9.92627 590.326-12.1069 590.326-13.3247 589.363-14.6416 587.437-16.0576 585.738-17.332 584.208-18.1108 582.849-18.394ZM644.848 2.33643C643.545 2.33643 641.478 1.07617 638.646-1.44434 636.04-0.198242 633.746 0.743408 631.764 1.38062 629.781 2.01782 628.096 2.33643 626.709 2.33643 619.883 2.33643 614.765 0.509765 611.352-3.14355 607.939-6.79687 606.233-12.2627 606.233-19.541 606.233-26.3662 608.754-32.2073 613.795-37.0642 618.836-41.9211 624.868-44.3496 631.891-44.3496 634.582-44.3496 637.697-43.5925 641.237-42.0782 645.513-40.2556 647.651-38.1386 647.651-35.7274 647.651-34.718 647.326-33.8348 646.674-33.0777 646.391-31.9559 646.172-30.5469 646.016-28.8505 645.86-27.1542 645.782-25.1703 645.782-22.899 645.782-17.5438 646.165-13.6884 646.929-11.333 647.014-11.0808 647.666-9.62271 648.883-6.95883 649.988-4.54718 650.54-3.1732 650.54-2.8369 650.54-1.35097 649.967-0.117264 648.82 0.864212 647.673 1.84569 646.349 2.33643 644.848 2.33643ZM634.313-26.3379C634.313-27.2441 634.376-28.2849 634.504-29.4602 634.631-30.6355 634.822-31.9453 635.077-33.3896 634.511-33.6728 634.008-33.8782 633.569-34.0056 633.13-34.1331 632.755-34.1968 632.443-34.1968 628.592-34.1968 625.222-32.6887 622.333-29.6726 619.444-26.6565 618-23.166 618-19.2012 618-15.4062 618.68-12.553 620.039-10.6414 621.399-8.72974 623.438-7.77393 626.156-7.77393 627.912-7.77393 629.576-8.06421 631.148-8.64477 632.72-9.22534 634.199-10.082 635.587-11.2148 634.737-17.9551 634.313-22.9961 634.313-26.3379ZM675.938 2.50635C673.503 2.50635 670.94 2.22314 668.249 1.65674L668.207 18.9888C668.207 20.6313 667.654 21.9907 666.55 23.0669 665.445 24.1431 664.044 24.6812 662.344 24.6812 660.645 24.6812 659.243 24.1431 658.139 23.0669 657.034 21.9907 656.482 20.6313 656.482 18.9888 656.482 17.6577 656.51 12.376 656.567 3.14355 656.624-3.70996 656.624-9.30322 656.567-13.6362 656.482-19.7534 656.284-25.021 655.972-29.439 655.547-35.5278 655.335-38.3174 655.335-37.8076 655.335-40.1582 655.859-42.1689 656.907-43.8398 658.125-45.7373 659.767-46.686 661.835-46.686 663.421-46.686 664.752-46.1479 665.828-45.0718 666.904-43.9956 667.442-42.707 667.442-41.2061L667.4-40.7812C669.297-41.8574 671.202-42.6575 673.113-43.1814 675.025-43.7053 676.943-43.9673 678.869-43.9673 685.383-43.9673 690.141-41.2061 693.143-35.6836 695.38-31.5205 696.499-26.1255 696.499-19.4985 696.499-13.2964 694.729-8.15625 691.189-4.07812 687.394 0.311523 682.31 2.50635 675.938 2.50635ZM678.869-32.625C677.085-32.625 675.273-32.2073 673.432-31.3718 671.591-30.5364 669.736-29.2832 667.867-27.6123 668.207-21.7783 668.377-15.9302 668.377-10.0679 670.897-9.24658 673.418-8.83594 675.938-8.83594 678.855-8.83594 681.092-9.86963 682.65-11.937 684.066-13.8062 684.774-16.3267 684.774-19.4985 684.774-23.3218 684.604-25.9697 684.264-27.4424 683.443-30.8975 681.645-32.625 678.869-32.625ZM743.755 10.875C741.064 10.875 739.28 9.72803 738.402 7.43408 737.836 5.98975 737.609 3.72412 737.722 0.637207L715.845 0.637207C715.618 0.637207 713.678 0.778808 710.025 1.06201 710.025 1.51514 710.039 2.24438 710.068 3.24976 710.096 4.25513 710.11 5.02685 710.11 5.56494 710.11 7.1792 709.551 8.51025 708.432 9.5581 707.313 10.606 705.904 11.1299 704.205 11.1299 700.127 11.1299 698.088 8.62353 698.088 3.61084 698.088 2.59131 698.116 1.21777 698.173-0.509766 698.23-2.2373 698.258-3.59668 698.258-4.58789 698.258-6.23047 698.824-7.57568 699.957-8.62353 701.005-9.58642 702.35-10.0962 703.993-10.1528 706.513-13.7212 708.241-17.9551 709.175-22.8545 709.827-26.3379 710.152-30.9116 710.152-36.5757 710.152-42.1548 713.183-44.9443 719.243-44.9443 719.951-44.9443 721.275-44.8948 723.215-44.7957 725.155-44.6965 726.692-44.647 727.824-44.647 728.901-44.647 730.501-44.7319 732.625-44.9019 734.749-45.0718 736.278-45.1567 737.213-45.1567 740.045-45.1567 741.928-44.0947 742.862-41.9707 743.429-40.6963 743.712-38.5723 743.712-35.5986 743.712-34.3809 743.634-32.5684 743.478-30.1611 743.323-27.7539 743.245-25.9414 743.245-24.7236 743.245-23.6475 743.316-18.479 743.457-9.21826 747.479-8.82178 749.489-6.98096 749.489-3.6958 749.489-2.59131 749.518-1.09033 749.574 0.807129 749.631 2.70459 749.659 4.19141 749.659 5.26758 749.659 6.88184 749.1 8.21997 747.981 9.28198 746.863 10.344 745.454 10.875 743.755 10.875ZM716.185-9.68555 731.605-9.68555C731.464-19.0029 731.393-24.0156 731.393-24.7236 731.393-25.8564 731.464-27.5415 731.605-29.7788 731.775-32.5542 731.86-34.2534 731.86-34.8765 726.847-34.7349 723.52-34.7065 721.877-34.7915 721.622-24.9927 719.725-16.624 716.185-9.68555ZM775.691 1.9541C768.922 1.9541 763.386 0.339844 759.081-2.88867 754.323-6.45703 751.944-11.4839 751.944-17.9692 751.944-25.1343 753.828-31.1948 757.594-36.1509 761.786-41.645 767.436-44.3921 774.544-44.3921 779.472-44.3921 783.564-43.5991 786.821-42.0132 791.097-39.9175 793.235-36.6606 793.235-32.2427 793.235-29.1274 791.494-26.3662 788.01-23.959 786.424-22.8545 783.238-21.2402 778.452-19.1162L764.136-12.7866C765.496-11.314 767.138-10.2095 769.064-9.47314 770.99-8.73682 773.199-8.36865 775.691-8.36865 779.486-8.36865 782.7-9.14746 785.334-10.7051 787.685-12.0928 789.568-12.7866 790.984-12.7866 793.929-12.7866 795.402-11.3564 795.402-8.49609 795.402-5.26758 793.037-2.63379 788.308-0.594727 784.343 1.10449 780.137 1.9541 775.691 1.9541ZM774.544-34.1118C771.91-34.1118 769.659-33.2339 767.79-31.478 765.921-29.7222 764.42-27.0884 763.287-23.5767 766.487-24.9644 769.673-26.3379 772.845-27.6973 776.668-29.4248 779.713-31.0249 781.978-32.4976 780.081-33.5737 777.603-34.1118 774.544-34.1118ZM849.113-3.05859C849.113-1.50098 848.546-0.191162 847.413 0.87085 846.281 1.93286 844.879 2.46387 843.208 2.46387 841.509 2.46387 840.093 1.93286 838.96 0.87085 837.827-0.191162 837.26-1.50098 837.261-3.05859 837.26-4.75781 837.345-7.31372 837.515-10.7263 837.685-14.1389 837.77-16.6948 837.77-18.394 837.77-19.9517 837.699-21.5942 837.558-23.3218 832.29-16.2134 827.561-10.9883 823.369-7.64648 819.574-4.64453 816.757-2.25854 814.916-0.488525 813.075 1.28149 811.093 2.1665 808.969 2.1665 807.383 2.1665 805.967 1.77002 804.721 0.977051 803.276 0.0141602 802.554-1.33105 802.554-3.05859 802.554-10.5635 802.412-18.394 802.129-26.5503 801.818-35.0181 801.662-39.167 801.662-38.9971 801.662-40.6113 802.214-41.9495 803.319-43.0115 804.423-44.0735 805.853-44.6045 807.609-44.6045 810.781-44.6045 812.721-42.9619 813.429-39.6768 813.542-39.2236 813.67-36.4766 813.811-31.4355L814.236-15.2505C817.889-18.5356 821.783-22.5996 825.918-27.4424 826.881-28.5752 830.407-32.9224 836.496-40.4839 838.507-43.0044 840.744-44.2646 843.208-44.2646 844.879-44.2646 846.281-43.7336 847.413-42.6716 848.546-41.6096 849.113-40.2998 849.113-38.7422 849.113-35.7969 849.169-31.3789 849.283-25.4883 849.396-19.5977 849.452-15.1797 849.452-12.2344 849.452-11.2148 849.396-9.68555 849.283-7.64648 849.169-5.60742 849.113-4.07812 849.113-3.05859ZM845.969-61.5542C845.573-57.3628 842.74-54.2759 837.473-52.2935 833.621-50.8208 829.048-50.0845 823.752-50.0845 819.305-50.0845 815.411-51.3447 812.07-53.8652 808.558-56.4707 806.802-59.6567 806.802-63.4233 806.802-64.5845 807.262-65.5544 808.183-66.3332 809.103-67.1121 810.257-67.5015 811.645-67.5015 813.032-67.5015 814.194-67.1121 815.128-66.3332 816.063-65.5544 816.53-64.5845 816.53-63.4233 816.53-62.0356 817.266-60.832 818.739-59.8125 820.212-58.7646 821.883-58.2407 823.752-58.2407 831.172-58.2407 835.377-59.7842 836.368-62.8711 837.076-65.0801 838.648-66.1846 841.084-66.1846 842.67-66.1846 843.916-65.7456 844.822-64.8677 845.728-63.9897 846.111-62.8853 845.969-61.5542ZM890.2-8.96338C890.398-10.6909 890.497-12.7725 890.497-15.208 890.497-17.1904 890.426-20.1711 890.285-24.1501 890.143-28.1291 890.072-31.1099 890.072-33.0923 890.072-36.1226 890.483-38.7139 891.304-40.8662 892.465-43.8682 894.292-45.3691 896.784-45.3691 898.37-45.3691 899.779-44.8523 901.011-43.8186 902.243-42.7849 902.859-41.4751 902.859-39.8892 902.859-39.3794 902.76-38.7705 902.562-38.0625 902.108-36.6465 901.882-34.834 901.882-32.625 901.882-30.7842 901.96-28.0017 902.115-24.2776 902.271-20.5535 902.349-17.771 902.349-15.9302 902.349-13.2681 902.264-11.0024 902.094-9.1333 905.549-8.53857 907.277-6.72607 907.277-3.6958 907.277-2.73291 907.185-1.27441 907.001 0.679687 906.817 2.63379 906.725 4.09228 906.725 5.05518 906.725 6.66943 906.165 8.00757 905.047 9.06958 903.928 10.1316 902.519 10.6626 900.82 10.6626 899.121 10.6626 897.712 10.1316 896.593 9.06958 895.474 8.00757 894.915 6.66943 894.915 5.05518 894.915 4.17725 894.958 3.08691 895.042 1.78418 893.542 1.8125 891.446 1.91162 888.755 2.08154 886.235 2.22314 884.054 2.29395 882.213 2.29395 880.401 2.29395 877.689 2.22314 874.078 2.08154 870.468 1.93994 867.756 1.86914 865.943 1.86914 864.357 1.86914 862.977 1.31689 861.802 0.212402 860.626-0.89209 860.039-2.19482 860.039-3.6958 860.039-3.66748 860.308-6.64111 860.846-12.6167 861.412-18.9321 861.695-28.2212 861.695-40.4839 861.695-42.0981 862.255-43.4292 863.373-44.477 864.492-45.5249 865.901-46.0488 867.6-46.0488 869.299-46.0488 870.708-45.5249 871.827-44.477 872.946-43.4292 873.505-42.0981 873.505-40.4839 873.505-27.1733 873.094-16.6382 872.273-8.87842 873.859-8.79346 875.601-8.75098 877.498-8.75098 879.027-8.75098 881.194-8.80762 883.998-8.9209 886.405-8.97754 888.472-8.9917 890.2-8.96338ZM933.816 1.9541C927.047 1.9541 921.511 0.339844 917.206-2.88867 912.448-6.45703 910.069-11.4839 910.07-17.9692 910.069-25.1343 911.953-31.1948 915.719-36.1509 919.911-41.645 925.561-44.3921 932.669-44.3921 937.597-44.3921 941.689-43.5991 944.946-42.0132 949.222-39.9175 951.36-36.6606 951.361-32.2427 951.36-29.1274 949.619-26.3662 946.135-23.959 944.549-22.8545 941.363-21.2402 936.577-19.1162L922.261-12.7866C923.621-11.314 925.263-10.2095 927.189-9.47314 929.115-8.73682 931.324-8.36865 933.816-8.36865 937.611-8.36865 940.825-9.14746 943.459-10.7051 945.81-12.0928 947.693-12.7866 949.109-12.7866 952.054-12.7866 953.527-11.3564 953.527-8.49609 953.527-5.26758 951.162-2.63379 946.433-0.594727 942.468 1.10449 938.262 1.9541 933.816 1.9541ZM932.669-34.1118C930.035-34.1118 927.784-33.2339 925.915-31.478 924.046-29.7222 922.545-27.0884 921.412-23.5767 924.612-24.9644 927.798-26.3379 930.97-27.6973 934.793-29.4248 937.838-31.0249 940.103-32.4976 938.206-33.5737 935.728-34.1118 932.669-34.1118ZM967.009 1.9541C965.479 1.9541 964.063 1.41602 962.761 0.339844 961.345-0.792969 960.637-2.10986 960.637-3.61084L960.637-11.0874C960.637-14.2593 960.693-18.4082 960.807-23.5342 960.976-30.2461 961.061-34.3809 961.061-35.9385 961.09-38.0625 961.274-39.5918 961.614-40.5264 962.18-42.1123 963.313-43.1177 965.012-43.5425 967.448-44.1938 970.917-44.5195 975.42-44.5195 980.263-44.5195 984.681-43.415 988.674-41.2061 993.573-38.5439 996.023-34.9048 996.023-30.2886 996.023-26.8618 994.479-24.1431 991.392-22.1323 996.575-18.8472 999.166-15.3921 999.166-11.7671 999.166-6.61279 994.932-2.84619 986.465-0.467285 980.772 1.14697 974.287 1.9541 967.009 1.9541ZM976.864-34.5366 975.122-34.5366C974.046-34.5366 973.14-34.5225 972.404-34.4941 972.404-33.9277 972.404-32.979 972.404-31.6479 972.404-31.0815 972.446-30.1187 972.531-28.7593 972.644-27.1733 972.701-26.2104 972.701-25.8706 973.891-25.7856 974.783-25.7432 975.377-25.7432 977.275-25.7432 979.144-26.0547 980.985-26.6777 983.449-27.5273 984.681-28.731 984.681-30.2886 984.681-31.2231 983.788-32.1648 982.004-33.1135 980.22-34.0623 978.507-34.5366 976.864-34.5366ZM979.88-18.394C979.257-18.5073 976.652-18.6348 972.064-18.7764 972.007-17.7285 971.979-16.1992 971.979-14.1885L971.979-8.15625C982.231-8.60937 987.357-9.92627 987.357-12.1069 987.357-13.3247 986.394-14.6416 984.468-16.0576 982.769-17.332 981.24-18.1108 979.88-18.394Z" fill="#462100" transform="matrix(0.200255 0 0 0.2 40.4798 41)"/><path d="M46.5586-35.896C43.4717-29.4673 38.5864-19.3711 31.9028-5.60742 28.2778 1.78418 25.5166 7.91553 23.6191 12.7866 23.0244 14.5425 22.0898 17.1479 20.8154 20.603 19.7959 23.2651 17.9834 24.5962 15.3779 24.5962 13.7637 24.5962 12.3477 24.0723 11.1299 23.0244 9.91211 21.9766 9.30322 20.6597 9.30322 19.0737 9.30322 16.4399 12.3052 8.63769 18.3091-4.33301 15.1938-10.4785 10.252-19.5269 3.4834-31.478 2.80371-32.5542 2.10986-33.6445 1.40186-34.749 0.637207-36.0518 0.254883-37.2412 0.254883-38.3174 0.254883-39.8467 0.863769-41.1919 2.08154-42.353 3.29932-43.5142 4.70117-44.0947 6.28711-44.0947 8.15625-44.0947 9.61475-43.4009 10.6626-42.0132 14.6841-36.6606 19.3711-28.6035 24.7236-17.8418 27.7539-24.5537 29.5947-28.6035 30.2461-29.9912 32.2568-34.2109 34.2251-37.9209 36.1509-41.1211 37.3686-43.1602 39.0395-44.1797 41.1636-44.1797 42.7495-44.1797 44.1655-43.6416 45.4116-42.5654 46.6577-41.4893 47.2808-40.1724 47.2808-38.6147 47.2808-37.7935 47.04-36.8872 46.5586-35.896ZM94.1313 1.65674C92.4321 1.65674 91.0232 1.13281 89.9045 0.0849609 88.7859-0.962891 88.2265-2.27979 88.2266-3.86572 88.2265-4.71533 88.1557-5.87646 88.0142-7.34912 87.8442-9.02002 87.7451-10.167 87.7168-10.79 87.6318-12.9424 87.5893-15.7178 87.5893-19.1162 87.5893-20.3623 87.646-25.0635 87.7593-33.2197 86.4282-33.1064 85.1113-33.0498 83.8086-33.0498 79.6738-33.0498 75.6523-33.1206 71.7441-33.2622L71.8291-24.9785C71.8291-16.3975 71.1494-10.2944 69.79-6.66943 67.751-1.28857 63.7578 1.40186 57.8105 1.40186 55.4316 1.40186 53.3076 0.92041 51.4385-0.0424805 48.9463-1.31689 47.7002-3.2002 47.7002-5.69238 47.7002-7.08008 48.1887-8.28369 49.1658-9.30322 50.1428-10.3228 51.4243-10.8325 53.0103-10.8325 53.6333-10.8325 54.4687-10.6343 55.5166-10.2378 56.5644-9.84131 57.3291-9.64307 57.8105-9.64307 59.7363-9.64307 60.6992-13.2822 60.6992-20.5605 60.6992-22.6279 60.5505-25.7148 60.2532-29.8213 59.9558-33.9277 59.8071-37.0146 59.8071-39.082 59.8071-40.7529 60.416-42.084 61.6338-43.0752 62.8516-44.0664 64.3101-44.562 66.0093-44.562 66.7456-44.562 67.7368-44.5337 68.9829-44.477 70.5405-44.3638 71.5317-44.293 71.9565-44.2646 75.0434-44.1514 78.9941-44.0947 83.8086-44.0947 84.8564-44.0947 86.414-44.2788 88.4814-44.647 90.5488-45.0151 92.1206-45.1992 93.1968-45.1992 97.4731-45.1992 99.6113-43.4009 99.6113-39.8042 99.6113-37.5103 99.5759-34.0764 99.5051-29.5027 99.4343-24.929 99.3989-21.5093 99.3989-19.2437 99.3989-16.0151 99.4414-13.3389 99.5264-11.2148 99.5547-10.5352 99.6538-9.30322 99.8237-7.51904 99.9936-5.98975 100.079-4.77197 100.079-3.86572 100.079-2.27979 99.5122-0.962891 98.3794 0.0849609 97.2466 1.13281 95.8306 1.65674 94.1313 1.65674ZM123.005 4.41797C121.107 4.41797 119.465 3.83032 118.077 2.65503 116.689 1.47974 115.995 0.155762 115.995-1.31689 115.995-2.81787 116.689-4.17017 118.077-5.37378 119.465-6.57739 121.107-7.1792 123.005-7.1792 125.015-7.1792 126.672-6.61279 127.975-5.47998 129.278-4.34717 129.929-2.95947 129.929-1.31689 129.929 0.184082 129.249 1.51514 127.89 2.67627 126.531 3.8374 124.902 4.41797 123.005 4.41797ZM202.368-33.5596C201.094-28.9717 199.309-22.0474 197.015-12.7866 196.477-9.58643 195.953-6.40039 195.444-3.22852 194.283 0.792969 192.144 2.80371 189.029 2.80371 187.075 2.80371 185.532 2.13818 184.399 0.807129 183.436-0.325684 182.954-1.6709 182.954-3.22852 182.954-7.81641 183.931-13.4097 185.886-20.0083 188.803-29.8921 190.374-35.3721 190.601-36.4482 191.422-40.8096 192.258-45.1709 193.107-49.5322 194.382-55.5361 195.762-59.5364 197.249-61.533 198.736-63.5295 200.612-64.5278 202.878-64.5278 205.455-64.5278 207.352-63.2251 208.57-60.6196 209.703-58.1558 210.921-53.1147 212.223-45.4966 213.47-38.105 215.325-30.147 217.788-21.6226 221.017-30.0337 224.019-39.2661 226.794-49.3198L229.173-59.0903C230.702-63.1401 233.067-65.165 236.267-65.165 239.354-65.165 241.648-62.8144 243.149-58.1133 243.772-56.2158 244.438-52.6758 245.146-47.4932 246.788-35.4287 248.856-25.0918 251.348-16.4824 253.868-7.73144 255.129-2.97363 255.129-2.20898 255.129-0.538086 254.463 0.86377 253.132 1.99658 251.886 3.01611 250.484 3.52588 248.927 3.52588 245.84 3.52588 243.546 1.31689 242.045-3.10107L239.666-13.3813C238.306-18.479 236.834-25.7998 235.248-35.3437 233.973-31.5488 231.864-25.5874 228.918-17.4595L226.369-9.64307C225.322-6.55615 224.231-4.02148 223.098-2.03906 221.597 0.594727 219.502 1.91162 216.811 1.91162 214.149 1.91162 212.11 0.339844 210.694-2.80371L208.315-10.7051C206.106-17.9551 204.124-25.5732 202.368-33.5596ZM281.56 2.63379C275.16 2.63379 269.694 0.863769 265.163-2.67627 260.32-6.49951 257.899-11.4414 257.899-17.502 257.899-24.3555 260.136-30.6284 264.611-36.3208 269.736-42.8628 276.264-46.1338 284.194-46.1338 299.374-46.1338 306.964-39.4219 306.964-25.998 306.964-19.1445 304.91-12.9141 300.804-7.30664 295.933-0.679688 289.518 2.63379 281.56 2.63379ZM284.194-34.9614C280.427-34.9614 277.142-33.156 274.339-29.5452 271.535-25.9343 270.133-21.9199 270.133-17.502 270.133-14.8398 271.202-12.6733 273.34-11.0024 275.478-9.33154 278.218-8.49609 281.56-8.49609 285.214-8.49609 288.343-10.3086 290.948-13.9336 293.469-17.417 294.729-21.4385 294.729-25.998 294.729-29.5381 294-31.917 292.541-33.1348 291.083-34.3525 288.3-34.9614 284.194-34.9614ZM354.236 1.65674C352.536 1.65674 351.127 1.13281 350.009 0.0849609 348.89-0.962891 348.331-2.27979 348.331-3.86572 348.331-4.71533 348.26-5.87646 348.118-7.34912 347.948-9.02002 347.849-10.167 347.821-10.79 347.736-12.9424 347.693-15.7178 347.694-19.1162 347.693-20.3623 347.75-25.0635 347.863-33.2197 346.532-33.1064 345.215-33.0498 343.913-33.0498 339.778-33.0498 335.756-33.1206 331.848-33.2622L331.933-24.9785C331.933-16.3975 331.254-10.2944 329.894-6.66943 327.855-1.28857 323.862 1.40186 317.915 1.40186 315.536 1.40186 313.412 0.92041 311.543-0.0424805 309.05-1.31689 307.804-3.2002 307.804-5.69238 307.804-7.08008 308.293-8.28369 309.27-9.30322 310.247-10.3228 311.528-10.8325 313.114-10.8325 313.737-10.8325 314.573-10.6343 315.621-10.2378 316.669-9.84131 317.433-9.64307 317.915-9.64307 319.84-9.64307 320.803-13.2822 320.803-20.5605 320.803-22.6279 320.655-25.7148 320.357-29.8213 320.06-33.9277 319.911-37.0146 319.911-39.082 319.911-40.7529 320.52-42.084 321.738-43.0752 322.956-44.0664 324.414-44.562 326.113-44.562 326.85-44.562 327.841-44.5337 329.087-44.477 330.645-44.3638 331.636-44.293 332.061-44.2646 335.148-44.1514 339.098-44.0947 343.913-44.0947 344.961-44.0947 346.518-44.2788 348.586-44.647 350.653-45.0151 352.225-45.1992 353.301-45.1992 357.577-45.1992 359.715-43.4009 359.715-39.8042 359.715-37.5103 359.68-34.0764 359.609-29.5027 359.538-24.929 359.503-21.5093 359.503-19.2437 359.503-16.0151 359.546-13.3389 359.631-11.2148 359.659-10.5352 359.758-9.30322 359.928-7.51904 360.098-5.98975 360.183-4.77197 360.183-3.86572 360.183-2.27979 359.616-0.962891 358.484 0.0849609 357.351 1.13281 355.935 1.65674 354.236 1.65674ZM389.269 2.63379C382.868 2.63379 377.402 0.863769 372.871-2.67627 368.028-6.49951 365.607-11.4414 365.607-17.502 365.607-24.3555 367.844-30.6284 372.319-36.3208 377.445-42.8628 383.973-46.1338 391.902-46.1338 407.082-46.1338 414.672-39.4219 414.672-25.998 414.672-19.1445 412.619-12.9141 408.512-7.30664 403.641-0.679688 397.227 2.63379 389.269 2.63379ZM391.902-34.9614C388.136-34.9614 384.851-33.156 382.047-29.5452 379.243-25.9343 377.841-21.9199 377.841-17.502 377.841-14.8398 378.91-12.6733 381.049-11.0024 383.187-9.33154 385.927-8.49609 389.269-8.49609 392.922-8.49609 396.051-10.3086 398.657-13.9336 401.177-17.417 402.438-21.4385 402.438-25.998 402.438-29.5381 401.708-31.917 400.25-33.1348 398.791-34.3525 396.009-34.9614 391.902-34.9614ZM461.307 10.875C458.616 10.875 456.832 9.72803 455.954 7.43408 455.388 5.98975 455.161 3.72412 455.274 0.637207L433.397 0.637207C433.17 0.637207 431.23 0.778808 427.577 1.06201 427.577 1.51514 427.591 2.24438 427.62 3.24976 427.648 4.25513 427.662 5.02685 427.662 5.56494 427.662 7.1792 427.103 8.51025 425.984 9.5581 424.865 10.606 423.457 11.1299 421.757 11.1299 417.679 11.1299 415.64 8.62353 415.64 3.61084 415.64 2.59131 415.668 1.21777 415.725-0.509766 415.782-2.2373 415.81-3.59668 415.81-4.58789 415.81-6.23047 416.376-7.57568 417.509-8.62353 418.557-9.58642 419.902-10.0962 421.545-10.1528 424.065-13.7212 425.793-17.9551 426.728-22.8545 427.379-26.3379 427.705-30.9116 427.705-36.5757 427.705-42.1548 430.735-44.9443 436.795-44.9443 437.503-44.9443 438.827-44.8948 440.767-44.7957 442.707-44.6965 444.244-44.647 445.376-44.647 446.453-44.647 448.053-44.7319 450.177-44.9019 452.301-45.0718 453.83-45.1567 454.765-45.1567 457.597-45.1567 459.48-44.0947 460.415-41.9707 460.981-40.6963 461.264-38.5723 461.264-35.5986 461.264-34.3809 461.186-32.5684 461.031-30.1611 460.875-27.7539 460.797-25.9414 460.797-24.7236 460.797-23.6475 460.868-18.479 461.009-9.21826 465.031-8.82178 467.042-6.98096 467.042-3.6958 467.042-2.59131 467.07-1.09033 467.126 0.807129 467.183 2.70459 467.211 4.19141 467.211 5.26758 467.211 6.88184 466.652 8.21997 465.533 9.28198 464.415 10.344 463.006 10.875 461.307 10.875ZM433.737-9.68555 449.157-9.68555C449.016-19.0029 448.945-24.0156 448.945-24.7236 448.945-25.8564 449.016-27.5415 449.157-29.7788 449.327-32.5542 449.412-34.2534 449.412-34.8765 444.399-34.7349 441.072-34.7065 439.429-34.7915 439.174-24.9927 437.277-16.624 433.737-9.68555ZM492.394 2.63379C485.993 2.63379 480.527 0.863769 475.996-2.67627 471.153-6.49951 468.732-11.4414 468.732-17.502 468.732-24.3555 470.969-30.6284 475.444-36.3208 480.57-42.8628 487.098-46.1338 495.027-46.1338 510.207-46.1338 517.797-39.4219 517.797-25.998 517.797-19.1445 515.744-12.9141 511.637-7.30664 506.766-0.679688 500.352 2.63379 492.394 2.63379ZM495.027-34.9614C491.261-34.9614 487.976-33.156 485.172-29.5452 482.368-25.9343 480.966-21.9199 480.966-17.502 480.966-14.8398 482.035-12.6733 484.174-11.0024 486.312-9.33154 489.052-8.49609 492.394-8.49609 496.047-8.49609 499.176-10.3086 501.782-13.9336 504.302-17.417 505.562-21.4385 505.562-25.998 505.562-29.5381 504.833-31.917 503.375-33.1348 501.916-34.3525 499.134-34.9614 495.027-34.9614ZM535.163-34.0269C535.361-32.5825 535.587-30.4302 535.842-27.5698 536.267-16.1284 536.479-8.12793 536.479-3.56836 536.479-1.98242 535.913-0.665527 534.78 0.382324 533.647 1.43018 532.231 1.9541 530.532 1.9541 528.833 1.9541 527.424 1.43018 526.305 0.382324 525.187-0.665527 524.627-1.98242 524.627-3.56836 524.627-7.95801 524.429-15.8452 524.033-27.23 524.004-28.2778 523.82-30.0054 523.48-32.4126 523.197-34.6216 523.056-36.335 523.056-37.5527 523.056-42.5088 526.893-44.9868 534.568-44.9868 536.154-44.9868 538.554-44.916 541.768-44.7744 544.983-44.6328 547.383-44.562 548.969-44.562 549.62-44.562 550.59-44.6116 551.879-44.7107 553.167-44.8098 554.137-44.8594 554.789-44.8594 556.459-44.8594 557.861-44.3071 558.994-43.2026 560.042-42.1265 560.566-40.8237 560.566-39.2944 560.566-36.689 559.221-34.9756 556.53-34.1543 555.143-33.7295 552.721-33.5171 549.266-33.5171 547.765-33.5171 545.415-33.602 542.214-33.772 539.127-33.9419 536.777-34.0269 535.163-34.0269ZM569.977 1.9541C568.448 1.9541 567.032 1.41602 565.729 0.339844 564.313-0.792969 563.605-2.10986 563.605-3.61084L563.605-11.0874C563.605-14.2593 563.662-18.4082 563.775-23.5342 563.945-30.2461 564.03-34.3809 564.03-35.9385 564.058-38.0625 564.242-39.5918 564.582-40.5264 565.149-42.1123 566.282-43.1177 567.981-43.5425 570.416-44.1938 573.886-44.5195 578.388-44.5195 583.231-44.5195 587.649-43.415 591.642-41.2061 596.542-38.5439 598.992-34.9048 598.992-30.2886 598.992-26.8618 597.448-24.1431 594.361-22.1323 599.544-18.8472 602.135-15.3921 602.135-11.7671 602.135-6.61279 597.901-2.84619 589.433-0.467285 583.741 1.14697 577.256 1.9541 569.977 1.9541ZM579.833-34.5366 578.091-34.5366C577.015-34.5366 576.109-34.5225 575.372-34.4941 575.372-33.9277 575.372-32.979 575.372-31.6479 575.372-31.0815 575.415-30.1187 575.5-28.7593 575.613-27.1733 575.67-26.2104 575.67-25.8706 576.859-25.7856 577.751-25.7432 578.346-25.7432 580.243-25.7432 582.113-26.0547 583.953-26.6777 586.417-27.5273 587.649-28.731 587.649-30.2886 587.649-31.2231 586.757-32.1648 584.973-33.1135 583.189-34.0623 581.475-34.5366 579.833-34.5366ZM582.849-18.394C582.226-18.5073 579.62-18.6348 575.033-18.7764 574.976-17.7285 574.948-16.1992 574.948-14.1885L574.948-8.15625C585.2-8.60937 590.326-9.92627 590.326-12.1069 590.326-13.3247 589.363-14.6416 587.437-16.0576 585.738-17.332 584.208-18.1108 582.849-18.394ZM644.848 2.33643C643.545 2.33643 641.478 1.07617 638.646-1.44434 636.04-0.198242 633.746 0.743408 631.764 1.38062 629.781 2.01782 628.096 2.33643 626.709 2.33643 619.883 2.33643 614.765 0.509765 611.352-3.14355 607.939-6.79687 606.233-12.2627 606.233-19.541 606.233-26.3662 608.754-32.2073 613.795-37.0642 618.836-41.9211 624.868-44.3496 631.891-44.3496 634.582-44.3496 637.697-43.5925 641.237-42.0782 645.513-40.2556 647.651-38.1386 647.651-35.7274 647.651-34.718 647.326-33.8348 646.674-33.0777 646.391-31.9559 646.172-30.5469 646.016-28.8505 645.86-27.1542 645.782-25.1703 645.782-22.899 645.782-17.5438 646.165-13.6884 646.929-11.333 647.014-11.0808 647.666-9.62271 648.883-6.95883 649.988-4.54718 650.54-3.1732 650.54-2.8369 650.54-1.35097 649.967-0.117264 648.82 0.864212 647.673 1.84569 646.349 2.33643 644.848 2.33643ZM634.313-26.3379C634.313-27.2441 634.376-28.2849 634.504-29.4602 634.631-30.6355 634.822-31.9453 635.077-33.3896 634.511-33.6728 634.008-33.8782 633.569-34.0056 633.13-34.1331 632.755-34.1968 632.443-34.1968 628.592-34.1968 625.222-32.6887 622.333-29.6726 619.444-26.6565 618-23.166 618-19.2012 618-15.4062 618.68-12.553 620.039-10.6414 621.399-8.72974 623.438-7.77393 626.156-7.77393 627.912-7.77393 629.576-8.06421 631.148-8.64477 632.72-9.22534 634.199-10.082 635.587-11.2148 634.737-17.9551 634.313-22.9961 634.313-26.3379ZM675.938 2.50635C673.503 2.50635 670.94 2.22314 668.249 1.65674L668.207 18.9888C668.207 20.6313 667.654 21.9907 666.55 23.0669 665.445 24.1431 664.044 24.6812 662.344 24.6812 660.645 24.6812 659.243 24.1431 658.139 23.0669 657.034 21.9907 656.482 20.6313 656.482 18.9888 656.482 17.6577 656.51 12.376 656.567 3.14355 656.624-3.70996 656.624-9.30322 656.567-13.6362 656.482-19.7534 656.284-25.021 655.972-29.439 655.547-35.5278 655.335-38.3174 655.335-37.8076 655.335-40.1582 655.859-42.1689 656.907-43.8398 658.125-45.7373 659.767-46.686 661.835-46.686 663.421-46.686 664.752-46.1479 665.828-45.0718 666.904-43.9956 667.442-42.707 667.442-41.2061L667.4-40.7812C669.297-41.8574 671.202-42.6575 673.113-43.1814 675.025-43.7053 676.943-43.9673 678.869-43.9673 685.383-43.9673 690.141-41.2061 693.143-35.6836 695.38-31.5205 696.499-26.1255 696.499-19.4985 696.499-13.2964 694.729-8.15625 691.189-4.07812 687.394 0.311523 682.31 2.50635 675.938 2.50635ZM678.869-32.625C677.085-32.625 675.273-32.2073 673.432-31.3718 671.591-30.5364 669.736-29.2832 667.867-27.6123 668.207-21.7783 668.377-15.9302 668.377-10.0679 670.897-9.24658 673.418-8.83594 675.938-8.83594 678.855-8.83594 681.092-9.86963 682.65-11.937 684.066-13.8062 684.774-16.3267 684.774-19.4985 684.774-23.3218 684.604-25.9697 684.264-27.4424 683.443-30.8975 681.645-32.625 678.869-32.625ZM743.755 10.875C741.064 10.875 739.28 9.72803 738.402 7.43408 737.836 5.98975 737.609 3.72412 737.722 0.637207L715.845 0.637207C715.618 0.637207 713.678 0.778808 710.025 1.06201 710.025 1.51514 710.039 2.24438 710.068 3.24976 710.096 4.25513 710.11 5.02685 710.11 5.56494 710.11 7.1792 709.551 8.51025 708.432 9.5581 707.313 10.606 705.904 11.1299 704.205 11.1299 700.127 11.1299 698.088 8.62353 698.088 3.61084 698.088 2.59131 698.116 1.21777 698.173-0.509766 698.23-2.2373 698.258-3.59668 698.258-4.58789 698.258-6.23047 698.824-7.57568 699.957-8.62353 701.005-9.58642 702.35-10.0962 703.993-10.1528 706.513-13.7212 708.241-17.9551 709.175-22.8545 709.827-26.3379 710.152-30.9116 710.152-36.5757 710.152-42.1548 713.183-44.9443 719.243-44.9443 719.951-44.9443 721.275-44.8948 723.215-44.7957 725.155-44.6965 726.692-44.647 727.824-44.647 728.901-44.647 730.501-44.7319 732.625-44.9019 734.749-45.0718 736.278-45.1567 737.213-45.1567 740.045-45.1567 741.928-44.0947 742.862-41.9707 743.429-40.6963 743.712-38.5723 743.712-35.5986 743.712-34.3809 743.634-32.5684 743.478-30.1611 743.323-27.7539 743.245-25.9414 743.245-24.7236 743.245-23.6475 743.316-18.479 743.457-9.21826 747.479-8.82178 749.489-6.98096 749.489-3.6958 749.489-2.59131 749.518-1.09033 749.574 0.807129 749.631 2.70459 749.659 4.19141 749.659 5.26758 749.659 6.88184 749.1 8.21997 747.981 9.28198 746.863 10.344 745.454 10.875 743.755 10.875ZM716.185-9.68555 731.605-9.68555C731.464-19.0029 731.393-24.0156 731.393-24.7236 731.393-25.8564 731.464-27.5415 731.605-29.7788 731.775-32.5542 731.86-34.2534 731.86-34.8765 726.847-34.7349 723.52-34.7065 721.877-34.7915 721.622-24.9927 719.725-16.624 716.185-9.68555ZM775.691 1.9541C768.922 1.9541 763.386 0.339844 759.081-2.88867 754.323-6.45703 751.944-11.4839 751.944-17.9692 751.944-25.1343 753.828-31.1948 757.594-36.1509 761.786-41.645 767.436-44.3921 774.544-44.3921 779.472-44.3921 783.564-43.5991 786.821-42.0132 791.097-39.9175 793.235-36.6606 793.235-32.2427 793.235-29.1274 791.494-26.3662 788.01-23.959 786.424-22.8545 783.238-21.2402 778.452-19.1162L764.136-12.7866C765.496-11.314 767.138-10.2095 769.064-9.47314 770.99-8.73682 773.199-8.36865 775.691-8.36865 779.486-8.36865 782.7-9.14746 785.334-10.7051 787.685-12.0928 789.568-12.7866 790.984-12.7866 793.929-12.7866 795.402-11.3564 795.402-8.49609 795.402-5.26758 793.037-2.63379 788.308-0.594727 784.343 1.10449 780.137 1.9541 775.691 1.9541ZM774.544-34.1118C771.91-34.1118 769.659-33.2339 767.79-31.478 765.921-29.7222 764.42-27.0884 763.287-23.5767 766.487-24.9644 769.673-26.3379 772.845-27.6973 776.668-29.4248 779.713-31.0249 781.978-32.4976 780.081-33.5737 777.603-34.1118 774.544-34.1118ZM849.113-3.05859C849.113-1.50098 848.546-0.191162 847.413 0.87085 846.281 1.93286 844.879 2.46387 843.208 2.46387 841.509 2.46387 840.093 1.93286 838.96 0.87085 837.827-0.191162 837.26-1.50098 837.261-3.05859 837.26-4.75781 837.345-7.31372 837.515-10.7263 837.685-14.1389 837.77-16.6948 837.77-18.394 837.77-19.9517 837.699-21.5942 837.558-23.3218 832.29-16.2134 827.561-10.9883 823.369-7.64648 819.574-4.64453 816.757-2.25854 814.916-0.488525 813.075 1.28149 811.093 2.1665 808.969 2.1665 807.383 2.1665 805.967 1.77002 804.721 0.977051 803.276 0.0141602 802.554-1.33105 802.554-3.05859 802.554-10.5635 802.412-18.394 802.129-26.5503 801.818-35.0181 801.662-39.167 801.662-38.9971 801.662-40.6113 802.214-41.9495 803.319-43.0115 804.423-44.0735 805.853-44.6045 807.609-44.6045 810.781-44.6045 812.721-42.9619 813.429-39.6768 813.542-39.2236 813.67-36.4766 813.811-31.4355L814.236-15.2505C817.889-18.5356 821.783-22.5996 825.918-27.4424 826.881-28.5752 830.407-32.9224 836.496-40.4839 838.507-43.0044 840.744-44.2646 843.208-44.2646 844.879-44.2646 846.281-43.7336 847.413-42.6716 848.546-41.6096 849.113-40.2998 849.113-38.7422 849.113-35.7969 849.169-31.3789 849.283-25.4883 849.396-19.5977 849.452-15.1797 849.452-12.2344 849.452-11.2148 849.396-9.68555 849.283-7.64648 849.169-5.60742 849.113-4.07812 849.113-3.05859ZM845.969-61.5542C845.573-57.3628 842.74-54.2759 837.473-52.2935 833.621-50.8208 829.048-50.0845 823.752-50.0845 819.305-50.0845 815.411-51.3447 812.07-53.8652 808.558-56.4707 806.802-59.6567 806.802-63.4233 806.802-64.5845 807.262-65.5544 808.183-66.3332 809.103-67.1121 810.257-67.5015 811.645-67.5015 813.032-67.5015 814.194-67.1121 815.128-66.3332 816.063-65.5544 816.53-64.5845 816.53-63.4233 816.53-62.0356 817.266-60.832 818.739-59.8125 820.212-58.7646 821.883-58.2407 823.752-58.2407 831.172-58.2407 835.377-59.7842 836.368-62.8711 837.076-65.0801 838.648-66.1846 841.084-66.1846 842.67-66.1846 843.916-65.7456 844.822-64.8677 845.728-63.9897 846.111-62.8853 845.969-61.5542ZM890.2-8.96338C890.398-10.6909 890.497-12.7725 890.497-15.208 890.497-17.1904 890.426-20.1711 890.285-24.1501 890.143-28.1291 890.072-31.1099 890.072-33.0923 890.072-36.1226 890.483-38.7139 891.304-40.8662 892.465-43.8682 894.292-45.3691 896.784-45.3691 898.37-45.3691 899.779-44.8523 901.011-43.8186 902.243-42.7849 902.859-41.4751 902.859-39.8892 902.859-39.3794 902.76-38.7705 902.562-38.0625 902.108-36.6465 901.882-34.834 901.882-32.625 901.882-30.7842 901.96-28.0017 902.115-24.2776 902.271-20.5535 902.349-17.771 902.349-15.9302 902.349-13.2681 902.264-11.0024 902.094-9.1333 905.549-8.53857 907.277-6.72607 907.277-3.6958 907.277-2.73291 907.185-1.27441 907.001 0.679687 906.817 2.63379 906.725 4.09228 906.725 5.05518 906.725 6.66943 906.165 8.00757 905.047 9.06958 903.928 10.1316 902.519 10.6626 900.82 10.6626 899.121 10.6626 897.712 10.1316 896.593 9.06958 895.474 8.00757 894.915 6.66943 894.915 5.05518 894.915 4.17725 894.958 3.08691 895.042 1.78418 893.542 1.8125 891.446 1.91162 888.755 2.08154 886.235 2.22314 884.054 2.29395 882.213 2.29395 880.401 2.29395 877.689 2.22314 874.078 2.08154 870.468 1.93994 867.756 1.86914 865.943 1.86914 864.357 1.86914 862.977 1.31689 861.802 0.212402 860.626-0.89209 860.039-2.19482 860.039-3.6958 860.039-3.66748 860.308-6.64111 860.846-12.6167 861.412-18.9321 861.695-28.2212 861.695-40.4839 861.695-42.0981 862.255-43.4292 863.373-44.477 864.492-45.5249 865.901-46.0488 867.6-46.0488 869.299-46.0488 870.708-45.5249 871.827-44.477 872.946-43.4292 873.505-42.0981 873.505-40.4839 873.505-27.1733 873.094-16.6382 872.273-8.87842 873.859-8.79346 875.601-8.75098 877.498-8.75098 879.027-8.75098 881.194-8.80762 883.998-8.9209 886.405-8.97754 888.472-8.9917 890.2-8.96338ZM933.816 1.9541C927.047 1.9541 921.511 0.339844 917.206-2.88867 912.448-6.45703 910.069-11.4839 910.07-17.9692 910.069-25.1343 911.953-31.1948 915.719-36.1509 919.911-41.645 925.561-44.3921 932.669-44.3921 937.597-44.3921 941.689-43.5991 944.946-42.0132 949.222-39.9175 951.36-36.6606 951.361-32.2427 951.36-29.1274 949.619-26.3662 946.135-23.959 944.549-22.8545 941.363-21.2402 936.577-19.1162L922.261-12.7866C923.621-11.314 925.263-10.2095 927.189-9.47314 929.115-8.73682 931.324-8.36865 933.816-8.36865 937.611-8.36865 940.825-9.14746 943.459-10.7051 945.81-12.0928 947.693-12.7866 949.109-12.7866 952.054-12.7866 953.527-11.3564 953.527-8.49609 953.527-5.26758 951.162-2.63379 946.433-0.594727 942.468 1.10449 938.262 1.9541 933.816 1.9541ZM932.669-34.1118C930.035-34.1118 927.784-33.2339 925.915-31.478 924.046-29.7222 922.545-27.0884 921.412-23.5767 924.612-24.9644 927.798-26.3379 930.97-27.6973 934.793-29.4248 937.838-31.0249 940.103-32.4976 938.206-33.5737 935.728-34.1118 932.669-34.1118ZM967.009 1.9541C965.479 1.9541 964.063 1.41602 962.761 0.339844 961.345-0.792969 960.637-2.10986 960.637-3.61084L960.637-11.0874C960.637-14.2593 960.693-18.4082 960.807-23.5342 960.976-30.2461 961.061-34.3809 961.061-35.9385 961.09-38.0625 961.274-39.5918 961.614-40.5264 962.18-42.1123 963.313-43.1177 965.012-43.5425 967.448-44.1938 970.917-44.5195 975.42-44.5195 980.263-44.5195 984.681-43.415 988.674-41.2061 993.573-38.5439 996.023-34.9048 996.023-30.2886 996.023-26.8618 994.479-24.1431 991.392-22.1323 996.575-18.8472 999.166-15.3921 999.166-11.7671 999.166-6.61279 994.932-2.84619 986.465-0.467285 980.772 1.14697 974.287 1.9541 967.009 1.9541ZM976.864-34.5366 975.122-34.5366C974.046-34.5366 973.14-34.5225 972.404-34.4941 972.404-33.9277 972.404-32.979 972.404-31.6479 972.404-31.0815 972.446-30.1187 972.531-28.7593 972.644-27.1733 972.701-26.2104 972.701-25.8706 973.891-25.7856 974.783-25.7432 975.377-25.7432 977.275-25.7432 979.144-26.0547 980.985-26.6777 983.449-27.5273 984.681-28.731 984.681-30.2886 984.681-31.2231 983.788-32.1648 982.004-33.1135 980.22-34.0623 978.507-34.5366 976.864-34.5366ZM979.88-18.394C979.257-18.5073 976.652-18.6348 972.064-18.7764 972.007-17.7285 971.979-16.1992 971.979-14.1885L971.979-8.15625C982.231-8.60937 987.357-9.92627 987.357-12.1069 987.357-13.3247 986.394-14.6416 984.468-16.0576 982.769-17.332 981.24-18.1108 979.88-18.394Z" fill="#462100" transform="matrix(0.200255 0 0 0.2 40.4798 41)"/></g></g><path d="M692 1203.5C692.475 1170.09 719.211 1139.77 769.047 1133 853.977 1121.76 996.167 1122.15 1064.13 1133 1132.1 1143.85 1267.16 1141.75 1326.43 1133 1385.7 1124.25 1515.2 1146.09 1621.51 1133 1727.83 1119.91 1804.2 1126.61 1861.95 1133 1906.03 1127.2 1945.38 1167 1939 1203.5L1939 1203.5C1937.1 1246.56 1904.71 1276.71 1861.95 1274 1770.06 1282.92 1652.39 1283.94 1577.8 1274 1503.2 1264.06 1427.6 1266.22 1337.36 1274 1247.12 1281.78 1154.51 1277.41 1096.92 1274 1039.32 1270.59 917.72 1282.89 769.047 1274 723.167 1274.46 681.945 1242.53 692 1203.5L692 1203.5Z" fill="#FFFFFF" fill-rule="evenodd"/><path d="M692 1203.5C701.782 1166.65 717.79 1131.02 769.047 1133 832.064 1125.57 899.718 1137.26 1020.42 1133 1141.11 1128.74 1175.78 1137.11 1260.85 1133 1345.93 1128.89 1462.8 1128.22 1523.15 1133 1583.5 1137.78 1731.07 1118.76 1861.95 1133 1907.23 1138.31 1938.33 1163.91 1939 1203.5L1939 1203.5C1936.8 1242.13 1901.63 1273.44 1861.95 1274 1803.78 1279.01 1669.14 1264.6 1599.66 1274 1530.17 1283.41 1394.5 1270.26 1337.36 1274 1280.22 1277.74 1176.99 1277.88 1053.2 1274 929.412 1270.12 903.104 1263.37 769.047 1274 728.854 1275.74 688.569 1243.33 692 1203.5L692 1203.5Z" stroke="#462100" stroke-width="10.3125" stroke-miterlimit="8" fill="none" fill-rule="evenodd"/><text fill="#462100" font-family="Comic Sans MS,Comic Sans MS_MSFontService,sans-serif" font-weight="700" font-size="87" transform="matrix(1 0 0 1 791.141 1227)">. </text><path d="M1424 1281C1424 1302.54 1406.54 1320 1385 1320 1363.46 1320 1346 1302.54 1346 1281 1346 1259.46 1363.46 1242 1385 1242 1406.54 1242 1424 1259.46 1424 1281Z" fill="#F2EBEA" fill-rule="evenodd"/><path d="M1407.3 1279.96C1407.81 1292.21 1398.29 1302.57 1386.03 1303.08 1373.77 1303.58 1363.42 1294.06 1362.91 1281.8 1362.4 1269.54 1371.93 1259.19 1384.18 1258.68 1396.44 1258.17 1406.79 1267.7 1407.3 1279.96Z" fill="#C9AFAB" fill-rule="evenodd"/><path d="M1451.45 1321.11C1446.69 1320.84 1442.54 1323.59 1440.7 1327.61L1440.7 1322.7C1440.7 1316.54 1435.69 1311.55 1429.55 1311.55L1429.55 1311.55C1425.48 1311.55 1421.93 1313.75 1419.99 1316.98L1419.99 1316.32C1419.99 1310.16 1414.99 1305.18 1408.85 1305.18L1408.85 1305.18C1403.52 1305.18 1399.06 1308.92 1397.95 1313.94L1397.95 1283.62C1397.95 1277.9 1393.84 1272.74 1388.16 1272.08 1381.4 1271.28 1375.66 1276.54 1375.66 1283.15L1375.66 1348.64C1375.66 1349.4 1374.63 1349.65 1374.28 1348.97L1363.25 1327.32C1360.66 1321.73 1354.03 1319.31 1348.44 1321.93 1342.86 1324.53 1340.44 1331.16 1343.05 1336.74L1362.05 1387.36 1376.59 1413.98C1377.27 1415.22 1378.57 1416 1380 1416L1447.73 1416C1449.56 1416 1451.12 1414.74 1451.51 1412.96L1461.11 1369.18C1461.69 1366.89 1462 1364.54 1462 1362.2L1462 1332.77C1462 1326.95 1457.29 1321.48 1451.47 1321.15Z" fill="#875E21" fill-rule="evenodd"/></g></svg>