<svg width="1420" height="366" xmlns="http://www.w3.org/2000/svg" xmlns:xlink="http://www.w3.org/1999/xlink" overflow="hidden"><defs><filter id="fx0" x="-10%" y="-10%" width="120%" height="120%" filterUnits="userSpaceOnUse" primitiveUnits="userSpaceOnUse"><feComponentTransfer color-interpolation-filters="sRGB"><feFuncR type="discrete" tableValues="0 0"/><feFuncG type="discrete" tableValues="0 0"/><feFuncB type="discrete" tableValues="0 0"/><feFuncA type="linear" slope="0.219608" intercept="0"/></feComponentTransfer><feGaussianBlur stdDeviation="6.40764 6.41667"/></filter><clipPath id="clip1"><rect x="1722" y="1685" width="1420" height="366"/></clipPath><clipPath id="clip2"><rect x="-17.5753" y="-17.4" width="118.034" height="57.8"/></clipPath><clipPath id="clip3"><rect x="0" y="0" width="284" height="74"/></clipPath></defs><g clip-path="url(#clip1)" transform="translate(-1722 -1685)"><g clip-path="url(#clip2)" filter="url(#fx0)" transform="matrix(5.00704 0 0 5 1721 1683)"><g clip-path="url(#clip3)" transform="translate(-5.68434e-14 0)"><path d="M20.571 35.5C20.9296 29.2781 25.7699 20.9563 34.6481 21.4 54.4582 22.1031 60.4181 23.0235 81.8391 21.4 103.26 19.7765 117.588 20.8349 126.885 21.4 136.182 21.965 153.301 20.0357 167.641 21.4 181.98 22.7642 195.077 22.0747 206.251 21.4 217.426 20.7253 236.431 20.2699 249.152 21.4 257.056 20.2359 261.376 27.5722 263.229 35.5L263.229 35.5C263.075 44.6537 256.534 49.5364 249.152 49.6 239.724 49.8421 222.178 47.9207 210.541 49.6 198.905 51.2794 175.991 51.089 165.496 49.6 155 48.1111 142.086 48.2371 129.03 49.6 115.973 50.9629 102.301 49.3599 92.5642 49.6 82.8279 49.84 56.2769 49.565 34.6481 49.6 27.912 49.2548 20.6711 42.7904 20.571 35.4999L20.571 35.5Z" fill="#FFFFFF" fill-rule="evenodd"/><path d="M20.571 35.5C20.3232 27.761 28.4839 21.0399 34.6481 21.4 48.6942 23.3936 61.7338 22.4638 77.5489 21.4 93.3641 20.3361 98.9945 21.4216 118.305 21.4 137.615 21.3784 139.11 21.6383 156.916 21.4 174.721 21.1617 192.442 22.292 201.961 21.4 211.48 20.508 236.649 23.7267 249.152 21.4 257.066 22.9182 263.647 27.4977 263.229 35.5L263.229 35.5C264.619 43.7995 258.336 48.8335 249.152 49.6 232.622 50.672 225.109 50.5446 201.961 49.6 178.814 48.6555 181.652 49.4946 163.351 49.6 145.049 49.7054 141.444 50.1335 122.595 49.6 103.746 49.0665 98.1742 47.5879 77.5489 49.6 56.9237 51.612 50.6023 50.5744 34.6481 49.6 26.0333 49.7845 21.0558 43.3173 20.571 35.4999L20.571 35.5Z" stroke="#462100" stroke-width="2" stroke-miterlimit="8" fill="none" fill-rule="evenodd"/><path d="M21.439-32.0166C20.2231-27.6396 18.521-21.0337 16.3325-12.1987 15.8192-9.14567 15.3193-6.10612 14.833-3.08008 13.7253 0.75651 11.6854 2.6748 8.71338 2.6748 6.84912 2.6748 5.37663 2.03988 4.2959 0.770019 3.37728-0.31071 2.91797-1.59408 2.91797-3.08008 2.91797-7.45703 3.8501-12.7931 5.71435-19.0884 8.49723-28.5177 9.99674-33.7458 10.2129-34.7725 10.9964-38.9333 11.7935-43.0941 12.604-47.2549 13.8198-52.9827 15.137-56.7991 16.5554-58.7039 17.9739-60.6086 19.7638-61.561 21.9253-61.561 24.3839-61.561 26.1942-60.3182 27.356-57.8325 28.4367-55.4819 29.5985-50.6727 30.8413-43.4048 32.0301-36.353 33.7998-28.7609 36.1504-20.6284 39.2305-28.6528 42.0944-37.4608 44.7422-47.0522L47.0117-56.3735C48.4707-60.2371 50.7267-62.1689 53.7798-62.1689 56.7248-62.1689 58.9132-59.9264 60.3452-55.4414 60.9396-53.6312 61.5745-50.2539 62.25-45.3096 63.817-33.7998 65.7894-23.9381 68.167-15.7246 70.5716-7.37598 71.7739-2.83691 71.7739-2.10742 71.7739-0.513346 71.139 0.824056 69.8691 1.90479 68.6803 2.87744 67.3429 3.36377 65.8569 3.36377 62.9119 3.36377 60.7235 1.25635 59.2915-2.9585L57.022-12.7661C55.7251-17.6294 54.3201-24.6136 52.8071-33.7187 51.5913-30.0983 49.5784-24.411 46.7686-16.6567L44.3369-9.19971C43.3372-6.25472 42.297-3.83659 41.2163-1.94531 39.7843 0.567383 37.785 1.82373 35.2183 1.82373 32.6785 1.82373 30.7332 0.324219 29.3823-2.6748L27.1128-10.2129C25.0054-17.1296 23.1141-24.3975 21.439-32.0166ZM117.178-34.2456C114.233-28.1125 109.573-18.4805 103.196-5.34961 99.7381 1.70215 97.1038 7.55159 95.2936 12.1987 94.7262 13.8739 93.8346 16.3595 92.6188 19.6558 91.6462 22.1955 89.917 23.4653 87.4313 23.4653 85.8913 23.4653 84.5404 22.9655 83.3786 21.9658 82.2168 20.9661 81.6359 19.7098 81.6359 18.1968 81.6359 15.6841 84.4998 8.24056 90.2277-4.13379 87.2557-9.99674 82.541-18.6291 76.0837-30.0308 75.4352-31.0575 74.7733-32.0977 74.0978-33.1514 73.3683-34.3942 73.0036-35.529 73.0036-36.5557 73.0036-38.0146 73.5845-39.298 74.7463-40.4058 75.908-41.5135 77.2454-42.0674 78.7585-42.0674 80.5417-42.0674 81.9331-41.4054 82.9328-40.0815 86.7694-34.9751 91.2409-27.2884 96.3473-17.0215 99.2383-23.4248 100.994-27.2884 101.616-28.6123 103.534-32.638 105.412-36.1774 107.249-39.2305 108.411-41.1758 110.005-42.1484 112.031-42.1484 113.544-42.1484 114.895-41.6351 116.084-40.6084 117.273-39.5817 117.867-38.3254 117.867-36.8394 117.867-36.0558 117.638-35.1912 117.178-34.2456ZM136.953 1.90479C133.332 1.90478 130.063 1.36442 127.145 0.283691 123.227-1.17529 121.269-3.32324 121.269-6.16016 121.269-7.24088 121.816-8.32837 122.91-9.42261 124.004-10.5168 125.159-11.064 126.375-11.064 127.645-11.064 129.394-10.6047 131.623-9.68603 133.852-8.76741 135.629-8.3081 136.953-8.3081 137.979-8.3081 138.993-8.77417 139.992-9.7063 140.992-10.6384 141.492-11.5908 141.492-12.5635 141.492-14.0765 140.424-15.1978 138.29-15.9272 136.264-16.4946 134.251-17.0485 132.251-17.5889 130.09-18.3454 129.009-19.4937 129.009-21.0337 129.009-23.006 129.806-24.3704 131.4-25.127 132.292-25.5863 133.927-25.951 136.304-26.2212 138.033-26.4103 139.209-26.7075 139.83-27.1128 140.668-27.6802 141.086-28.7069 141.086-30.1929 141.086-32.1922 139.02-33.1919 134.886-33.1919 134.048-33.1919 132.886-32.6785 131.4-31.6519 129.914-30.6252 128.523-30.1118 127.226-30.1118 125.794-30.1118 124.524-30.5441 123.417-31.4087 122.228-32.3273 121.633-33.5026 121.633-34.9346 121.633-37.3122 123.403-39.3926 126.942-41.1758 129.914-42.6618 132.562-43.4048 134.886-43.4048 139.02-43.4048 142.735-42.5132 146.031-40.73 150.138-38.5145 152.191-35.4344 152.191-31.4897 152.191-27.437 150.881-24.0868 148.26-21.439 151.016-18.3048 152.394-15.3464 152.394-12.5635 152.394-8.18652 150.989-4.68091 148.179-2.04663 145.369 0.587646 141.627 1.90478 136.953 1.90479ZM179.247 1.86426C172.79 1.86426 167.508 0.324219 163.401-2.75586 158.862-6.16016 156.592-10.9559 156.592-17.1431 156.592-23.9787 158.389-29.7606 161.982-34.4888 165.981-39.7303 171.371-42.3511 178.153-42.3511 182.854-42.3511 186.758-41.5946 189.865-40.0815 193.945-38.0822 195.985-34.9751 195.985-30.7603 195.985-27.7882 194.323-25.154 191-22.8574 189.487-21.8037 186.447-20.2637 181.881-18.2373L168.224-12.1987C169.521-10.7938 171.088-9.74007 172.925-9.0376 174.762-8.33512 176.869-7.98389 179.247-7.98389 182.868-7.98389 185.934-8.72689 188.447-10.2129 190.689-11.5368 192.486-12.1987 193.837-12.1987 196.647-12.1987 198.052-10.8343 198.052-8.10547 198.052-5.02539 195.796-2.5127 191.284-0.567383 187.501 1.05371 183.489 1.86426 179.247 1.86426ZM178.153-32.5435C175.64-32.5435 173.492-31.7059 171.709-30.0308 169.926-28.3556 168.494-25.8429 167.413-22.4927 170.466-23.8166 173.506-25.1269 176.532-26.4238 180.179-28.0719 183.084-29.5985 185.245-31.0034 183.435-32.0301 181.071-32.5435 178.153-32.5435ZM249.24-2.91797C249.24-1.43197 248.7-0.182373 247.619 0.83081 246.538 1.84399 245.201 2.35059 243.607 2.35059 241.986 2.35059 240.635 1.84399 239.554 0.83081 238.473-0.182373 237.933-1.43197 237.933-2.91797 237.933-4.53906 238.014-6.97746 238.176-10.2332 238.338-13.4888 238.419-15.9272 238.419-17.5483 238.419-19.0343 238.352-20.6014 238.217-22.2495 233.191-15.4679 228.679-10.4831 224.681-7.29492 221.06-4.43099 218.372-2.1547 216.616-0.466064 214.86 1.22257 212.968 2.06689 210.942 2.06689 209.429 2.06689 208.078 1.68864 206.889 0.932129 205.511 0.0135092 204.822-1.26986 204.822-2.91797 204.822-10.0778 204.687-17.5483 204.417-25.3296 204.12-33.408 203.971-37.3662 203.971-37.2041 203.971-38.7441 204.498-40.0207 205.552-41.0339 206.605-42.0471 207.97-42.5537 209.645-42.5537 212.671-42.5537 214.522-40.9866 215.197-37.8525 215.305-37.4202 215.427-34.7995 215.562-29.9902L215.967-14.5493C219.453-17.6834 223.168-21.5605 227.112-26.1807 228.031-27.2614 231.395-31.4087 237.204-38.6226 239.122-41.0272 241.256-42.2295 243.607-42.2295 245.201-42.2295 246.538-41.7229 247.619-40.7097 248.7-39.6965 249.24-38.4469 249.24-36.9609 249.24-34.151 249.294-29.9362 249.402-24.3164 249.51-18.6966 249.564-14.4818 249.564-11.6719 249.564-10.6992 249.51-9.24023 249.402-7.29492 249.294-5.34961 249.24-3.89062 249.24-2.91797ZM246.241-58.7241C245.863-54.7254 243.161-51.7804 238.136-49.8892 234.461-48.4842 230.098-47.7817 225.045-47.7817 220.804-47.7817 217.089-48.984 213.9-51.3887 210.55-53.8743 208.875-56.9139 208.875-60.5073 208.875-61.6151 209.314-62.5404 210.192-63.2834 211.07-64.0264 212.171-64.3979 213.495-64.3979 214.819-64.3979 215.927-64.0264 216.818-63.2834 217.71-62.5404 218.156-61.6151 218.156-60.5073 218.156-59.1834 218.858-58.0351 220.263-57.0625 221.668-56.0628 223.262-55.563 225.045-55.563 232.124-55.563 236.136-57.0355 237.082-59.9805 237.757-62.0879 239.257-63.1416 241.581-63.1416 243.094-63.1416 244.282-62.7228 245.147-61.8853 246.012-61.0477 246.376-59.994 246.241-58.7241ZM340.266-34.2253C337.969-32.1112 334.416-29.0176 329.607-24.9446 331.66-22.8768 334.822-19.8884 339.09-15.9792 340.414-14.8744 341.076-13.5995 341.076-12.1544 341.076-10.795 340.556-9.59126 339.516-8.54304 338.476-7.49481 337.24-6.9707 335.808-6.9707 334.295-6.9707 332.403-7.99824 330.134-10.0533 328.567-11.7031 327-13.3383 325.433-14.959 322.866-17.5929 320.461-19.3294 318.219-20.1687 315.49-21.1819 314.126-22.7738 314.126-24.9446 314.126-26.7134 315.341-28.097 317.773-29.0951 320.205-30.0933 322.907-31.9317 325.879-34.6103 329.958-38.3 332.403-40.4353 333.214-41.0162 334.349-41.8251 335.511-42.2295 336.699-42.2295 338.131-42.2295 339.374-41.759 340.428-40.818 341.482-39.877 342.008-38.7878 342.008-37.5505 342.008-36.3389 341.428-35.2305 340.266-34.2253ZM315.828-34.6604C313.531-32.4474 309.965-29.2088 305.129-24.9446 307.182-22.9697 310.343-20.1159 314.612-16.3832 315.936-15.3282 316.598-14.1109 316.598-12.7313 316.598-11.4331 316.084-10.2836 315.058-9.28266 314.031-8.28172 312.802-7.78125 311.37-7.78125 309.857-7.78125 307.965-8.76235 305.696-10.7245L300.995-15.3681C298.455-17.8555 296.037-19.5137 293.74-20.3428 291.012-21.31 289.647-22.8439 289.647-24.9446 289.647-26.77 290.863-28.2051 293.295-29.25 295.726-30.2948 298.428-32.2325 301.4-35.0631 305.507-38.9255 307.965-41.1608 308.776-41.7691 309.857-42.5894 311.005-42.9995 312.221-42.9995 313.653-42.9995 314.896-42.507 315.949-41.5218 317.003-40.5367 317.53-39.3966 317.53-38.1014 317.53-36.8328 316.963-35.6858 315.828-34.6604ZM414.818-57.5083C414.818-53.6177 411.941-51.821 406.186-52.1182 405.889-48.2005 405.74-42.8374 405.74-36.0288 405.74-34.6239 405.882-31.1047 406.166-25.4714 406.449-19.8381 406.591-14.887 406.591-10.6182 406.591-9.75358 406.713-8.47021 406.956-6.76807 407.199-5.06592 407.321-3.78255 407.321-2.91797 407.321-1.37793 406.774-0.101318 405.679 0.911865 404.585 1.92505 403.241 2.43164 401.647 2.43164 398.351 2.43164 396.486 0.770019 396.054-2.55322 395.541-6.44385 395.284-9.13216 395.284-10.6182 395.284-14.806 395.149-19.6287 394.879-25.0864 394.609-30.5441 394.474-34.1916 394.474-36.0288 394.474-43.1076 394.609-48.5518 394.879-52.3613 393.609-52.1722 390.461-52.0776 385.436-52.0776 378.763-52.0776 372.265-52.1857 365.942-52.4019 366.05-51.3481 366.186-49.7541 366.348-47.6196 366.78-34.3807 366.996-27.2209 366.996-26.1401 366.996-24.8703 366.915-23.1006 366.753-20.8311 366.564-18.3454 366.456-16.5757 366.429-15.522 366.402-14.4683 366.402-13.1038 366.429-11.4287 366.456-9.1862 366.469-7.80827 366.469-7.29492 366.469-4.18783 366.267-2.06689 365.861-0.932129 365.078 1.3374 363.362 2.47217 360.714 2.47217 359.12 2.47217 357.776 1.97233 356.682 0.972656 355.588-0.0270182 355.041-1.29687 355.041-2.83691 355.041-9.26725 355.068-13.5767 355.122-15.7651 355.149-16.7918 355.257-18.521 355.446-20.9526 355.608-23.1681 355.689-24.8973 355.689-26.1401 355.689-27.1128 355.473-34.1781 355.041-47.3359 355.041-47.417 354.892-49.1732 354.595-52.6045 352.974-52.5775 351.542-52.564 350.299-52.564 348.678-52.564 347.334-53.0773 346.266-54.104 345.199-55.1307 344.666-56.4141 344.666-57.9541 344.666-61.6556 347.502-63.5063 353.176-63.5063 353.555-63.5063 354.095-63.5063 354.797-63.5063 355.5-63.4793 356-63.4658 356.297-63.4658 358.431-63.4658 361.613-63.3848 365.841-63.2226 370.069-63.0605 373.251-62.9795 375.385-62.9795L409.145-62.8984C410.766-62.8984 412.117-62.3851 413.197-61.3584 414.278-60.3317 414.818-59.0483 414.818-57.5083ZM456.192 2.229C454.949 2.229 452.977 1.02669 450.275-1.37793 447.79-0.189128 445.601 0.709228 443.71 1.31714 441.818 1.92505 440.211 2.229 438.887 2.229 432.376 2.229 427.492 0.486328 424.236-2.99902 420.981-6.48437 419.353-11.6989 419.353-18.6426 419.353-25.154 421.757-30.7265 426.567-35.3601 431.376-39.9937 437.131-42.3105 443.831-42.3105 446.398-42.3105 449.37-41.5882 452.747-40.1436 456.827-38.4047 458.867-36.3851 458.867-34.0848 458.867-33.1218 458.556-32.2792 457.935-31.5569 457.665-30.4867 457.455-29.1424 457.307-27.5241 457.158-25.9057 457.084-24.0131 457.084-21.8461 457.084-16.7372 457.449-13.0591 458.178-10.8119 458.259-10.5713 458.88-9.18029 460.042-6.63889 461.096-4.33811 461.623-3.02731 461.623-2.70647 461.623-1.28885 461.076-0.111872 459.982 0.824478 458.887 1.76083 457.624 2.229 456.192 2.229ZM446.141-25.127C446.141-25.9915 446.202-26.9845 446.324-28.1057 446.445-29.227 446.628-30.4766 446.871-31.8545 446.331-32.1247 445.851-32.3205 445.432-32.4421 445.013-32.5637 444.655-32.6245 444.358-32.6245 440.684-32.6245 437.469-31.1858 434.713-28.3083 431.957-25.4309 430.579-22.1009 430.579-18.3184 430.579-14.6979 431.227-11.9758 432.524-10.1521 433.821-8.32837 435.766-7.4165 438.36-7.4165 440.035-7.4165 441.623-7.69344 443.122-8.24731 444.622-8.80119 446.033-9.61849 447.357-10.6992 446.547-17.1296 446.141-21.9388 446.141-25.127ZM479.411-20.5474C478.466-17.8996 477.142-13.9144 475.44-8.5918 474.926-6.34928 474.426-4.10677 473.94-1.86426 472.967 0.621419 471.157 1.86426 468.509 1.86426 466.861 1.86426 465.544 1.41846 464.558 0.526855 463.572-0.364746 463.079-1.43197 463.079-2.6748 463.079-5.70085 463.889-9.34831 465.51-13.6172 467.915-20.0475 469.198-23.5869 469.361-24.2353 470.063-27.0993 470.765-29.9632 471.468-32.8271 472.522-36.6637 473.704-39.271 475.014-40.6489 476.324-42.0268 477.939-42.7158 479.857-42.7158 483.126-42.7158 485.45-40.1221 486.828-34.9346 486.909-34.6103 487.274-32.9622 487.922-29.9902 488.868-25.5322 490.259-20.7635 492.096-15.6841 495.852-23.4653 498.432-30.0173 499.837-35.3398 501.215-40.5273 503.66-43.1211 507.173-43.1211 509.793-43.1211 511.752-41.6486 513.049-38.7036 513.643-37.3257 514.251-34.84 514.873-31.2466 516.224-23.4923 517.912-16.8864 519.939-11.4287 522.019-5.75488 523.059-2.60726 523.059-1.98584 523.059-0.60791 522.411 0.486328 521.114 1.29687 520.033 1.99935 518.844 2.35059 517.547 2.35059 515.008 2.35059 513.103 0.959147 511.833-1.82373 511.077-4.20133 510.32-6.56543 509.564-8.91601 508.483-12.0771 507.362-16.373 506.2-21.8037 505.227-19.5882 503.674-16.1434 501.539-11.4692 500.81-9.74007 500.08-8.02441 499.351-6.32227 498.486-4.32292 497.595-2.68831 496.676-1.41846 495.352 0.391764 493.542 1.29687 491.245 1.29687 489.03 1.29687 487.328 0.324219 486.139-1.62109 485.95-1.94531 485.207-3.79606 483.91-7.17334 482.262-11.3882 480.762-15.8462 479.411-20.5474ZM556.392 1.45898C554.798 1.45898 553.433 0.972656 552.299 0 551.083-0.999674 550.475-2.26953 550.475-3.80957 550.475-4.56608 550.421-6.91667 550.313-10.8613 546.071-9.29427 540.451-5.67383 533.453 0 532.211 0.999674 530.846 1.49951 529.36 1.49951 527.793 1.49951 526.408 0.99292 525.206-0.0202637 524.004-1.03345 523.403-2.28304 523.403-3.76904 523.403-6.30876 527.266-9.84814 534.993-14.3872 529.293-17.1971 526.442-20.6554 526.442-24.7622 526.442-31.0304 530.873-36.1234 539.735-40.041 543.383-41.6621 548.449-42.4726 554.933-42.4727 556.824-42.4726 558.398-41.8445 559.654-40.5881 560.911-39.3318 561.539-37.8255 561.539-36.0693 561.539-32.5029 561.667-27.1331 561.924-19.9597 562.181-12.7864 562.309-7.40299 562.309-3.80957 562.309-2.29655 561.714-1.0402 560.526-0.0405273 559.337 0.959147 557.959 1.45898 556.392 1.45898ZM549.664-32.3003C547.557-32.1652 545.287-31.4222 542.856-30.0713 540.046-28.5042 538.533-26.8021 538.317-24.9648 539.397-23.1276 541.113-21.9118 543.464-21.3174 544.95-20.9121 547.152-20.723 550.07-20.75 549.935-23.2627 549.799-27.1128 549.664-32.3003ZM598.215-32.0571C597.485-32.0571 596.398-32.0909 594.952-32.1584 593.507-32.226 592.419-32.2598 591.69-32.2598 591.285-32.2598 590.839-32.2327 590.353-32.1787 590.92-20.0475 591.204-11.4827 591.204-6.48437 591.204-0.432292 589.231 2.59375 585.287 2.59375 583.828 2.59375 582.544 2.14795 581.437 1.25635 580.248 0.31071 579.653-0.891601 579.653-2.35059 579.653-3.29622 579.694-4.73494 579.775-6.66675 579.856-8.59855 579.896-10.0373 579.896-10.9829 579.896-14.6844 579.653-21.6956 579.167-32.0166 578.681-32.0166 577.478-32.0166 575.56-32.0166 572.804-32.0166 570.791-32.2733 569.521-32.7866 567.495-33.5972 566.482-35.1507 566.482-37.4473 566.482-38.9062 566.989-40.1693 568.002-41.2366 569.015-42.3038 570.332-42.8374 571.953-42.8374L595.905-42.8374C601.173-42.8374 603.808-41.0272 603.808-37.4067 603.808-35.8937 603.287-34.6239 602.247-33.5972 601.207-32.5705 599.863-32.0571 598.215-32.0571ZM623.191 0.567383C622.219 0.567383 620.895 0.540365 619.22 0.486328 617.247 0.405273 615.923 0.351237 615.248 0.324219 614.762 0.432292 614.262 0.486328 613.748 0.486328 609.912 0.486328 607.993-1.75618 607.993-6.24121 607.993-6.75456 608.142-8.3081 608.439-10.9019 608.818-14.2251 609.007-17.3322 609.007-20.2231 609.007-22.2225 608.878-25.0594 608.622-28.7339 608.365-32.4084 608.237-35.2588 608.237-37.2852 608.237-40.9596 610.087-42.7969 613.789-42.7969 615.545-42.7969 616.95-42.3241 618.004-41.3784 619.057-40.4328 619.584-39.244 619.584-37.812 619.584-35.6235 619.719-32.5029 619.99-28.4502 620.584-28.4772 621.124-28.4907 621.611-28.4907 628.392-28.4907 633.445-27.5991 636.768-25.8159 641.118-23.4923 643.293-19.4261 643.293-13.6172 643.293-8.61881 641.185-4.8903 636.971-2.43164 633.485-0.432292 628.892 0.567383 623.191 0.567383ZM622.948-19.0478C622.165-19.0478 621.259-19.0208 620.233-18.9668 620.233-16.8053 620.03-13.4686 619.625-8.95654 621.003-8.95654 622.192-8.95654 623.191-8.95654 629.216-8.95654 632.229-10.5101 632.229-13.6172 632.229-15.8327 631.567-17.2917 630.243-17.9941 629.027-18.6966 626.595-19.0478 622.948-19.0478ZM728.771-2.91797C728.771-1.43197 728.231-0.182373 727.15 0.83081 726.07 1.84399 724.732 2.35059 723.138 2.35059 721.517 2.35059 720.166 1.84399 719.085 0.83081 718.005-0.182373 717.464-1.43197 717.464-2.91797 717.464-4.53906 717.545-6.97746 717.707-10.2332 717.87-13.4888 717.951-15.9272 717.951-17.5483 717.951-19.0343 717.883-20.6014 717.748-22.2495 712.723-15.4679 708.211-10.4831 704.212-7.29492 700.591-4.43099 697.903-2.1547 696.147-0.466064 694.391 1.22257 692.499 2.06689 690.473 2.06689 688.96 2.06689 687.609 1.68864 686.42 0.932129 685.042 0.0135092 684.353-1.26986 684.353-2.91797 684.353-10.0778 684.218-17.5483 683.948-25.3296 683.651-33.408 683.502-37.3662 683.502-37.2041 683.502-38.7441 684.029-40.0207 685.083-41.0339 686.137-42.0471 687.501-42.5537 689.176-42.5537 692.202-42.5537 694.053-40.9866 694.728-37.8525 694.836-37.4202 694.958-34.7995 695.093-29.9902L695.498-14.5493C698.984-17.6834 702.699-21.5605 706.643-26.1807 707.562-27.2614 710.926-31.4087 716.735-38.6226 718.653-41.0272 720.787-42.2295 723.138-42.2295 724.732-42.2295 726.07-41.7229 727.15-40.7097 728.231-39.6965 728.771-38.4469 728.771-36.9609 728.771-34.151 728.825-29.9362 728.934-24.3164 729.042-18.6966 729.096-14.4818 729.096-11.6719 729.096-10.6992 729.042-9.24023 728.934-7.29492 728.825-5.34961 728.771-3.89062 728.771-2.91797ZM804.68-1.58057C798.385 0.770019 790.428 1.94531 780.81 1.94531 779.189 1.94531 777.736 1.26986 776.453-0.0810547 775.17-1.43197 774.528-2.87744 774.528-4.41748L774.528-47.3765C774.447-49.2137 774.379-51.0509 774.325-52.8882 774.244-54.9686 774.312-56.7248 774.528-58.1567 774.906-60.6964 777.27-62.2365 781.62-62.7768 783.674-63.3712 787.078-63.6684 791.833-63.6684 796.939-63.6684 801.83-62.0203 806.504-58.7241 811.989-54.8875 814.731-50.0918 814.731-44.3369 814.731-41.2298 814.164-38.609 813.029-36.4746 812.137-34.7454 810.584-32.8947 808.368-30.9224 810.989-29.6525 813.313-27.7342 815.339-25.1675 817.635-22.3035 818.784-19.4531 818.784-16.6162 818.784-13.0228 816.825-9.61849 812.907-6.40332 810.286-4.26888 807.544-2.6613 804.68-1.58057ZM791.833-52.6855C788.348-52.6855 786.254-52.6585 785.551-52.6045L785.592-44.0127 785.551-35.5019C788.01-35.2047 789.861-35.1102 791.104-35.2183 799.371-35.8667 803.505-38.9062 803.505-44.3369 803.505-46.2552 802.289-48.1059 799.857-49.8892 797.345-51.7534 794.67-52.6855 791.833-52.6855ZM796.575-24.0327C794.116-24.0327 790.442-24.1273 785.551-24.3164L785.551-9.15918C790.198-9.40234 795.237-10.2939 800.668-11.834 805.423-13.1849 807.774-14.6439 807.72-16.2109 807.639-18.2913 806.112-20.1421 803.14-21.7632 800.817-23.0601 798.628-23.8166 796.575-24.0327ZM843.847 2.39111C841.523 2.39111 839.078 2.12093 836.511 1.58057L836.471 18.1157C836.471 19.6828 835.944 20.9797 834.89 22.0063 833.837 23.033 832.499 23.5464 830.878 23.5464 829.257 23.5464 827.92 23.033 826.866 22.0063 825.812 20.9797 825.285 19.6828 825.285 18.1157 825.285 16.8459 825.312 11.807 825.366 2.99902 825.42-3.53939 825.42-8.87549 825.366-13.0093 825.285-18.8452 825.096-23.8706 824.799-28.0854 824.394-33.8944 824.191-36.5557 824.191-36.0693 824.191-38.3118 824.691-40.2301 825.691-41.8242 826.852-43.6344 828.419-44.5395 830.392-44.5395 831.905-44.5395 833.175-44.0262 834.201-42.9995 835.228-41.9728 835.741-40.7435 835.741-39.3115L835.701-38.9062C837.511-39.9329 839.328-40.6962 841.152-41.196 842.976-41.6959 844.806-41.9458 846.643-41.9458 852.857-41.9458 857.396-39.3115 860.26-34.043 862.395-30.0713 863.462-24.9243 863.462-18.602 863.462-12.6851 861.773-7.78125 858.396-3.89062 854.776 0.2972 849.926 2.39111 843.847 2.39111ZM846.643-31.125C844.941-31.125 843.212-30.7265 841.456-29.9294 839.7-29.1324 837.93-27.9368 836.147-26.3428 836.471-20.777 836.633-15.1978 836.633-9.60498 839.038-8.82145 841.442-8.42969 843.847-8.42969 846.63-8.42969 848.764-9.41585 850.25-11.3882 851.601-13.1714 852.277-15.576 852.277-18.602 852.277-22.2495 852.115-24.7757 851.79-26.1807 851.007-29.4769 849.291-31.125 846.643-31.125ZM889.664 1.86426C883.206 1.86426 877.924 0.324219 873.817-2.75586 869.278-6.16016 867.009-10.9559 867.009-17.1431 867.009-23.9787 868.806-29.7606 872.399-34.4888 876.398-39.7303 881.788-42.3511 888.569-42.3511 893.271-42.3511 897.175-41.5946 900.282-40.0815 904.362-38.0822 906.401-34.9751 906.401-30.7603 906.401-27.7882 904.74-25.154 901.417-22.8574 899.904-21.8037 896.864-20.2637 892.298-18.2373L878.64-12.1987C879.937-10.7938 881.504-9.74007 883.341-9.0376 885.179-8.33512 887.286-7.98389 889.664-7.98389 893.284-7.98389 896.351-8.72689 898.863-10.2129 901.106-11.5368 902.903-12.1987 904.253-12.1987 907.063-12.1987 908.468-10.8343 908.468-8.10547 908.468-5.02539 906.212-2.5127 901.7-0.567383 897.918 1.05371 893.905 1.86426 889.664 1.86426ZM888.569-32.5435C886.057-32.5435 883.909-31.7059 882.126-30.0308 880.342-28.3556 878.91-25.8429 877.83-22.4927 880.883-23.8166 883.922-25.1269 886.948-26.4238 890.596-28.0719 893.5-29.5985 895.662-31.0034 893.851-32.0301 891.487-32.5435 888.569-32.5435ZM928.005-20.5474C927.059-17.8996 925.735-13.9144 924.033-8.5918 923.52-6.34928 923.02-4.10677 922.534-1.86426 921.561 0.621419 919.751 1.86426 917.103 1.86426 915.455 1.86426 914.138 1.41846 913.152 0.526855 912.165-0.364746 911.672-1.43197 911.672-2.6748 911.672-5.70085 912.483-9.34831 914.104-13.6172 916.509-20.0475 917.792-23.5869 917.954-24.2353 918.657-27.0993 919.359-29.9632 920.062-32.8271 921.115-36.6637 922.297-39.271 923.608-40.6489 924.918-42.0268 926.532-42.7158 928.451-42.7158 931.72-42.7158 934.043-40.1221 935.421-34.9346 935.502-34.6103 935.867-32.9622 936.516-29.9902 937.461-25.5322 938.853-20.7635 940.69-15.6841 944.445-23.4653 947.026-30.0173 948.431-35.3398 949.809-40.5273 952.254-43.1211 955.766-43.1211 958.387-43.1211 960.346-41.6486 961.643-38.7036 962.237-37.3257 962.845-34.84 963.466-31.2466 964.817-23.4923 966.506-16.8864 968.532-11.4287 970.613-5.75488 971.653-2.60726 971.653-1.98584 971.653-0.60791 971.004 0.486328 969.708 1.29687 968.627 1.99935 967.438 2.35059 966.141 2.35059 963.601 2.35059 961.697 0.959147 960.427-1.82373 959.67-4.20133 958.914-6.56543 958.157-8.91601 957.077-12.0771 955.955-16.373 954.794-21.8037 953.821-19.5882 952.267-16.1434 950.133-11.4692 949.403-9.74007 948.674-8.02441 947.944-6.32227 947.08-4.32292 946.188-2.68831 945.27-1.41846 943.946 0.391764 942.135 1.29687 939.839 1.29687 937.623 1.29687 935.921 0.324219 934.732-1.62109 934.543-1.94531 933.8-3.79606 932.503-7.17334 930.855-11.3882 929.356-15.8462 928.005-20.5474ZM1004.99 1.45898C1003.39 1.45898 1002.03 0.972656 1000.89 0 999.677-0.999674 999.069-2.26953 999.069-3.80957 999.069-4.56608 999.015-6.91667 998.906-10.8613 994.665-9.29427 989.045-5.67383 982.047 0 980.804 0.999674 979.44 1.49951 977.954 1.49951 976.387 1.49951 975.002 0.99292 973.8-0.0202637 972.597-1.03345 971.996-2.28304 971.996-3.76904 971.996-6.30876 975.86-9.84814 983.587-14.3872 977.886-17.1971 975.036-20.6554 975.036-24.7622 975.036-31.0304 979.467-36.1234 988.329-40.041 991.976-41.6621 997.042-42.4726 1003.53-42.4727 1005.42-42.4726 1006.99-41.8445 1008.25-40.5881 1009.5-39.3318 1010.13-37.8255 1010.13-36.0693 1010.13-32.5029 1010.26-27.1331 1010.52-19.9597 1010.77-12.7864 1010.9-7.40299 1010.9-3.80957 1010.9-2.29655 1010.31-1.0402 1009.12-0.0405273 1007.93 0.959147 1006.55 1.45898 1004.99 1.45898ZM998.258-32.3003C996.151-32.1652 993.881-31.4222 991.449-30.0713 988.64-28.5042 987.127-26.8021 986.91-24.9648 987.991-23.1276 989.707-21.9118 992.057-21.3174 993.543-20.9121 995.745-20.723 998.663-20.75 998.528-23.2627 998.393-27.1128 998.258-32.3003ZM1016.13-34.2253C1018.43-32.1112 1021.98-29.0176 1026.79-24.9446 1024.73-22.8768 1021.57-19.8884 1017.3-15.9792 1015.98-14.8744 1015.32-13.5995 1015.32-12.1544 1015.32-10.795 1015.84-9.59126 1016.88-8.54304 1017.92-7.49481 1019.16-6.9707 1020.59-6.9707 1022.1-6.9707 1023.99-7.99824 1026.26-10.0533 1027.83-11.7031 1029.4-13.3383 1030.96-14.959 1033.53-17.5929 1035.93-19.3294 1038.18-20.1687 1040.91-21.1819 1042.27-22.7738 1042.27-24.9446 1042.27-26.7134 1041.05-28.097 1038.62-29.0951 1036.19-30.0933 1033.49-31.9317 1030.52-34.6103 1026.44-38.3 1023.99-40.4353 1023.18-41.0162 1022.05-41.8251 1020.88-42.2295 1019.7-42.2295 1018.26-42.2295 1017.02-41.759 1015.97-40.818 1014.91-39.877 1014.39-38.7878 1014.39-37.5505 1014.39-36.3389 1014.97-35.2305 1016.13-34.2253ZM1040.57-34.6604C1042.86-32.4474 1046.43-29.2088 1051.27-24.9446 1049.21-22.9697 1046.05-20.1159 1041.78-16.3832 1040.46-15.3282 1039.8-14.1109 1039.8-12.7313 1039.8-11.4331 1040.31-10.2836 1041.34-9.28266 1042.36-8.28172 1043.59-7.78125 1045.03-7.78125 1046.54-7.78125 1048.43-8.76235 1050.7-10.7245L1055.4-15.3681C1057.94-17.8555 1060.36-19.5137 1062.65-20.3428 1065.38-21.31 1066.75-22.8439 1066.75-24.9446 1066.75-26.77 1065.53-28.2051 1063.1-29.25 1060.67-30.2948 1057.97-32.2325 1054.99-35.0631 1050.89-38.9255 1048.43-41.1608 1047.62-41.7691 1046.54-42.5894 1045.39-42.9995 1044.17-42.9995 1042.74-42.9995 1041.5-42.507 1040.45-41.5218 1039.39-40.5367 1038.87-39.3966 1038.87-38.1014 1038.87-36.8328 1039.43-35.6858 1040.57-34.6604Z" fill="#462100" transform="matrix(0.199719 0 0 0.2 35.6998 40)"/><path d="M21.439-32.0166C20.2231-27.6396 18.521-21.0337 16.3325-12.1987 15.8192-9.14567 15.3193-6.10612 14.833-3.08008 13.7253 0.75651 11.6854 2.6748 8.71338 2.6748 6.84912 2.6748 5.37663 2.03988 4.2959 0.770019 3.37728-0.31071 2.91797-1.59408 2.91797-3.08008 2.91797-7.45703 3.8501-12.7931 5.71435-19.0884 8.49723-28.5177 9.99674-33.7458 10.2129-34.7725 10.9964-38.9333 11.7935-43.0941 12.604-47.2549 13.8198-52.9827 15.137-56.7991 16.5554-58.7039 17.9739-60.6086 19.7638-61.561 21.9253-61.561 24.3839-61.561 26.1942-60.3182 27.356-57.8325 28.4367-55.4819 29.5985-50.6727 30.8413-43.4048 32.0301-36.353 33.7998-28.7609 36.1504-20.6284 39.2305-28.6528 42.0944-37.4608 44.7422-47.0522L47.0117-56.3735C48.4707-60.2371 50.7267-62.1689 53.7798-62.1689 56.7248-62.1689 58.9132-59.9264 60.3452-55.4414 60.9396-53.6312 61.5745-50.2539 62.25-45.3096 63.817-33.7998 65.7894-23.9381 68.167-15.7246 70.5716-7.37598 71.7739-2.83691 71.7739-2.10742 71.7739-0.513346 71.139 0.824056 69.8691 1.90479 68.6803 2.87744 67.3429 3.36377 65.8569 3.36377 62.9119 3.36377 60.7235 1.25635 59.2915-2.9585L57.022-12.7661C55.7251-17.6294 54.3201-24.6136 52.8071-33.7187 51.5913-30.0983 49.5784-24.411 46.7686-16.6567L44.3369-9.19971C43.3372-6.25472 42.297-3.83659 41.2163-1.94531 39.7843 0.567383 37.785 1.82373 35.2183 1.82373 32.6785 1.82373 30.7332 0.324219 29.3823-2.6748L27.1128-10.2129C25.0054-17.1296 23.1141-24.3975 21.439-32.0166ZM117.178-34.2456C114.233-28.1125 109.573-18.4805 103.196-5.34961 99.7381 1.70215 97.1038 7.55159 95.2936 12.1987 94.7262 13.8739 93.8346 16.3595 92.6188 19.6558 91.6462 22.1955 89.917 23.4653 87.4313 23.4653 85.8913 23.4653 84.5404 22.9655 83.3786 21.9658 82.2168 20.9661 81.6359 19.7098 81.6359 18.1968 81.6359 15.6841 84.4998 8.24056 90.2277-4.13379 87.2557-9.99674 82.541-18.6291 76.0837-30.0308 75.4352-31.0575 74.7733-32.0977 74.0978-33.1514 73.3683-34.3942 73.0036-35.529 73.0036-36.5557 73.0036-38.0146 73.5845-39.298 74.7463-40.4058 75.908-41.5135 77.2454-42.0674 78.7585-42.0674 80.5417-42.0674 81.9331-41.4054 82.9328-40.0815 86.7694-34.9751 91.2409-27.2884 96.3473-17.0215 99.2383-23.4248 100.994-27.2884 101.616-28.6123 103.534-32.638 105.412-36.1774 107.249-39.2305 108.411-41.1758 110.005-42.1484 112.031-42.1484 113.544-42.1484 114.895-41.6351 116.084-40.6084 117.273-39.5817 117.867-38.3254 117.867-36.8394 117.867-36.0558 117.638-35.1912 117.178-34.2456ZM136.953 1.90479C133.332 1.90478 130.063 1.36442 127.145 0.283691 123.227-1.17529 121.269-3.32324 121.269-6.16016 121.269-7.24088 121.816-8.32837 122.91-9.42261 124.004-10.5168 125.159-11.064 126.375-11.064 127.645-11.064 129.394-10.6047 131.623-9.68603 133.852-8.76741 135.629-8.3081 136.953-8.3081 137.979-8.3081 138.993-8.77417 139.992-9.7063 140.992-10.6384 141.492-11.5908 141.492-12.5635 141.492-14.0765 140.424-15.1978 138.29-15.9272 136.264-16.4946 134.251-17.0485 132.251-17.5889 130.09-18.3454 129.009-19.4937 129.009-21.0337 129.009-23.006 129.806-24.3704 131.4-25.127 132.292-25.5863 133.927-25.951 136.304-26.2212 138.033-26.4103 139.209-26.7075 139.83-27.1128 140.668-27.6802 141.086-28.7069 141.086-30.1929 141.086-32.1922 139.02-33.1919 134.886-33.1919 134.048-33.1919 132.886-32.6785 131.4-31.6519 129.914-30.6252 128.523-30.1118 127.226-30.1118 125.794-30.1118 124.524-30.5441 123.417-31.4087 122.228-32.3273 121.633-33.5026 121.633-34.9346 121.633-37.3122 123.403-39.3926 126.942-41.1758 129.914-42.6618 132.562-43.4048 134.886-43.4048 139.02-43.4048 142.735-42.5132 146.031-40.73 150.138-38.5145 152.191-35.4344 152.191-31.4897 152.191-27.437 150.881-24.0868 148.26-21.439 151.016-18.3048 152.394-15.3464 152.394-12.5635 152.394-8.18652 150.989-4.68091 148.179-2.04663 145.369 0.587646 141.627 1.90478 136.953 1.90479ZM179.247 1.86426C172.79 1.86426 167.508 0.324219 163.401-2.75586 158.862-6.16016 156.592-10.9559 156.592-17.1431 156.592-23.9787 158.389-29.7606 161.982-34.4888 165.981-39.7303 171.371-42.3511 178.153-42.3511 182.854-42.3511 186.758-41.5946 189.865-40.0815 193.945-38.0822 195.985-34.9751 195.985-30.7603 195.985-27.7882 194.323-25.154 191-22.8574 189.487-21.8037 186.447-20.2637 181.881-18.2373L168.224-12.1987C169.521-10.7938 171.088-9.74007 172.925-9.0376 174.762-8.33512 176.869-7.98389 179.247-7.98389 182.868-7.98389 185.934-8.72689 188.447-10.2129 190.689-11.5368 192.486-12.1987 193.837-12.1987 196.647-12.1987 198.052-10.8343 198.052-8.10547 198.052-5.02539 195.796-2.5127 191.284-0.567383 187.501 1.05371 183.489 1.86426 179.247 1.86426ZM178.153-32.5435C175.64-32.5435 173.492-31.7059 171.709-30.0308 169.926-28.3556 168.494-25.8429 167.413-22.4927 170.466-23.8166 173.506-25.1269 176.532-26.4238 180.179-28.0719 183.084-29.5985 185.245-31.0034 183.435-32.0301 181.071-32.5435 178.153-32.5435ZM249.24-2.91797C249.24-1.43197 248.7-0.182373 247.619 0.83081 246.538 1.84399 245.201 2.35059 243.607 2.35059 241.986 2.35059 240.635 1.84399 239.554 0.83081 238.473-0.182373 237.933-1.43197 237.933-2.91797 237.933-4.53906 238.014-6.97746 238.176-10.2332 238.338-13.4888 238.419-15.9272 238.419-17.5483 238.419-19.0343 238.352-20.6014 238.217-22.2495 233.191-15.4679 228.679-10.4831 224.681-7.29492 221.06-4.43099 218.372-2.1547 216.616-0.466064 214.86 1.22257 212.968 2.06689 210.942 2.06689 209.429 2.06689 208.078 1.68864 206.889 0.932129 205.511 0.0135092 204.822-1.26986 204.822-2.91797 204.822-10.0778 204.687-17.5483 204.417-25.3296 204.12-33.408 203.971-37.3662 203.971-37.2041 203.971-38.7441 204.498-40.0207 205.552-41.0339 206.605-42.0471 207.97-42.5537 209.645-42.5537 212.671-42.5537 214.522-40.9866 215.197-37.8525 215.305-37.4202 215.427-34.7995 215.562-29.9902L215.967-14.5493C219.453-17.6834 223.168-21.5605 227.112-26.1807 228.031-27.2614 231.395-31.4087 237.204-38.6226 239.122-41.0272 241.256-42.2295 243.607-42.2295 245.201-42.2295 246.538-41.7229 247.619-40.7097 248.7-39.6965 249.24-38.4469 249.24-36.9609 249.24-34.151 249.294-29.9362 249.402-24.3164 249.51-18.6966 249.564-14.4818 249.564-11.6719 249.564-10.6992 249.51-9.24023 249.402-7.29492 249.294-5.34961 249.24-3.89062 249.24-2.91797ZM246.241-58.7241C245.863-54.7254 243.161-51.7804 238.136-49.8892 234.461-48.4842 230.098-47.7817 225.045-47.7817 220.804-47.7817 217.089-48.984 213.9-51.3887 210.55-53.8743 208.875-56.9139 208.875-60.5073 208.875-61.6151 209.314-62.5404 210.192-63.2834 211.07-64.0264 212.171-64.3979 213.495-64.3979 214.819-64.3979 215.927-64.0264 216.818-63.2834 217.71-62.5404 218.156-61.6151 218.156-60.5073 218.156-59.1834 218.858-58.0351 220.263-57.0625 221.668-56.0628 223.262-55.563 225.045-55.563 232.124-55.563 236.136-57.0355 237.082-59.9805 237.757-62.0879 239.257-63.1416 241.581-63.1416 243.094-63.1416 244.282-62.7228 245.147-61.8853 246.012-61.0477 246.376-59.994 246.241-58.7241ZM340.266-34.2253C337.969-32.1112 334.416-29.0176 329.607-24.9446 331.66-22.8768 334.822-19.8884 339.09-15.9792 340.414-14.8744 341.076-13.5995 341.076-12.1544 341.076-10.795 340.556-9.59126 339.516-8.54304 338.476-7.49481 337.24-6.9707 335.808-6.9707 334.295-6.9707 332.403-7.99824 330.134-10.0533 328.567-11.7031 327-13.3383 325.433-14.959 322.866-17.5929 320.461-19.3294 318.219-20.1687 315.49-21.1819 314.126-22.7738 314.126-24.9446 314.126-26.7134 315.341-28.097 317.773-29.0951 320.205-30.0933 322.907-31.9317 325.879-34.6103 329.958-38.3 332.403-40.4353 333.214-41.0162 334.349-41.8251 335.511-42.2295 336.699-42.2295 338.131-42.2295 339.374-41.759 340.428-40.818 341.482-39.877 342.008-38.7878 342.008-37.5505 342.008-36.3389 341.428-35.2305 340.266-34.2253ZM315.828-34.6604C313.531-32.4474 309.965-29.2088 305.129-24.9446 307.182-22.9697 310.343-20.1159 314.612-16.3832 315.936-15.3282 316.598-14.1109 316.598-12.7313 316.598-11.4331 316.084-10.2836 315.058-9.28266 314.031-8.28172 312.802-7.78125 311.37-7.78125 309.857-7.78125 307.965-8.76235 305.696-10.7245L300.995-15.3681C298.455-17.8555 296.037-19.5137 293.74-20.3428 291.012-21.31 289.647-22.8439 289.647-24.9446 289.647-26.77 290.863-28.2051 293.295-29.25 295.726-30.2948 298.428-32.2325 301.4-35.0631 305.507-38.9255 307.965-41.1608 308.776-41.7691 309.857-42.5894 311.005-42.9995 312.221-42.9995 313.653-42.9995 314.896-42.507 315.949-41.5218 317.003-40.5367 317.53-39.3966 317.53-38.1014 317.53-36.8328 316.963-35.6858 315.828-34.6604ZM414.818-57.5083C414.818-53.6177 411.941-51.821 406.186-52.1182 405.889-48.2005 405.74-42.8374 405.74-36.0288 405.74-34.6239 405.882-31.1047 406.166-25.4714 406.449-19.8381 406.591-14.887 406.591-10.6182 406.591-9.75358 406.713-8.47021 406.956-6.76807 407.199-5.06592 407.321-3.78255 407.321-2.91797 407.321-1.37793 406.774-0.101318 405.679 0.911865 404.585 1.92505 403.241 2.43164 401.647 2.43164 398.351 2.43164 396.486 0.770019 396.054-2.55322 395.541-6.44385 395.284-9.13216 395.284-10.6182 395.284-14.806 395.149-19.6287 394.879-25.0864 394.609-30.5441 394.474-34.1916 394.474-36.0288 394.474-43.1076 394.609-48.5518 394.879-52.3613 393.609-52.1722 390.461-52.0776 385.436-52.0776 378.763-52.0776 372.265-52.1857 365.942-52.4019 366.05-51.3481 366.186-49.7541 366.348-47.6196 366.78-34.3807 366.996-27.2209 366.996-26.1401 366.996-24.8703 366.915-23.1006 366.753-20.8311 366.564-18.3454 366.456-16.5757 366.429-15.522 366.402-14.4683 366.402-13.1038 366.429-11.4287 366.456-9.1862 366.469-7.80827 366.469-7.29492 366.469-4.18783 366.267-2.06689 365.861-0.932129 365.078 1.3374 363.362 2.47217 360.714 2.47217 359.12 2.47217 357.776 1.97233 356.682 0.972656 355.588-0.0270182 355.041-1.29687 355.041-2.83691 355.041-9.26725 355.068-13.5767 355.122-15.7651 355.149-16.7918 355.257-18.521 355.446-20.9526 355.608-23.1681 355.689-24.8973 355.689-26.1401 355.689-27.1128 355.473-34.1781 355.041-47.3359 355.041-47.417 354.892-49.1732 354.595-52.6045 352.974-52.5775 351.542-52.564 350.299-52.564 348.678-52.564 347.334-53.0773 346.266-54.104 345.199-55.1307 344.666-56.4141 344.666-57.9541 344.666-61.6556 347.502-63.5063 353.176-63.5063 353.555-63.5063 354.095-63.5063 354.797-63.5063 355.5-63.4793 356-63.4658 356.297-63.4658 358.431-63.4658 361.613-63.3848 365.841-63.2226 370.069-63.0605 373.251-62.9795 375.385-62.9795L409.145-62.8984C410.766-62.8984 412.117-62.3851 413.197-61.3584 414.278-60.3317 414.818-59.0483 414.818-57.5083ZM456.192 2.229C454.949 2.229 452.977 1.02669 450.275-1.37793 447.79-0.189128 445.601 0.709228 443.71 1.31714 441.818 1.92505 440.211 2.229 438.887 2.229 432.376 2.229 427.492 0.486328 424.236-2.99902 420.981-6.48437 419.353-11.6989 419.353-18.6426 419.353-25.154 421.757-30.7265 426.567-35.3601 431.376-39.9937 437.131-42.3105 443.831-42.3105 446.398-42.3105 449.37-41.5882 452.747-40.1436 456.827-38.4047 458.867-36.3851 458.867-34.0848 458.867-33.1218 458.556-32.2792 457.935-31.5569 457.665-30.4867 457.455-29.1424 457.307-27.5241 457.158-25.9057 457.084-24.0131 457.084-21.8461 457.084-16.7372 457.449-13.0591 458.178-10.8119 458.259-10.5713 458.88-9.18029 460.042-6.63889 461.096-4.33811 461.623-3.02731 461.623-2.70647 461.623-1.28885 461.076-0.111872 459.982 0.824478 458.887 1.76083 457.624 2.229 456.192 2.229ZM446.141-25.127C446.141-25.9915 446.202-26.9845 446.324-28.1057 446.445-29.227 446.628-30.4766 446.871-31.8545 446.331-32.1247 445.851-32.3205 445.432-32.4421 445.013-32.5637 444.655-32.6245 444.358-32.6245 440.684-32.6245 437.469-31.1858 434.713-28.3083 431.957-25.4309 430.579-22.1009 430.579-18.3184 430.579-14.6979 431.227-11.9758 432.524-10.1521 433.821-8.32837 435.766-7.4165 438.36-7.4165 440.035-7.4165 441.623-7.69344 443.122-8.24731 444.622-8.80119 446.033-9.61849 447.357-10.6992 446.547-17.1296 446.141-21.9388 446.141-25.127ZM479.411-20.5474C478.466-17.8996 477.142-13.9144 475.44-8.5918 474.926-6.34928 474.426-4.10677 473.94-1.86426 472.967 0.621419 471.157 1.86426 468.509 1.86426 466.861 1.86426 465.544 1.41846 464.558 0.526855 463.572-0.364746 463.079-1.43197 463.079-2.6748 463.079-5.70085 463.889-9.34831 465.51-13.6172 467.915-20.0475 469.198-23.5869 469.361-24.2353 470.063-27.0993 470.765-29.9632 471.468-32.8271 472.522-36.6637 473.704-39.271 475.014-40.6489 476.324-42.0268 477.939-42.7158 479.857-42.7158 483.126-42.7158 485.45-40.1221 486.828-34.9346 486.909-34.6103 487.274-32.9622 487.922-29.9902 488.868-25.5322 490.259-20.7635 492.096-15.6841 495.852-23.4653 498.432-30.0173 499.837-35.3398 501.215-40.5273 503.66-43.1211 507.173-43.1211 509.793-43.1211 511.752-41.6486 513.049-38.7036 513.643-37.3257 514.251-34.84 514.873-31.2466 516.224-23.4923 517.912-16.8864 519.939-11.4287 522.019-5.75488 523.059-2.60726 523.059-1.98584 523.059-0.60791 522.411 0.486328 521.114 1.29687 520.033 1.99935 518.844 2.35059 517.547 2.35059 515.008 2.35059 513.103 0.959147 511.833-1.82373 511.077-4.20133 510.32-6.56543 509.564-8.91601 508.483-12.0771 507.362-16.373 506.2-21.8037 505.227-19.5882 503.674-16.1434 501.539-11.4692 500.81-9.74007 500.08-8.02441 499.351-6.32227 498.486-4.32292 497.595-2.68831 496.676-1.41846 495.352 0.391764 493.542 1.29687 491.245 1.29687 489.03 1.29687 487.328 0.324219 486.139-1.62109 485.95-1.94531 485.207-3.79606 483.91-7.17334 482.262-11.3882 480.762-15.8462 479.411-20.5474ZM556.392 1.45898C554.798 1.45898 553.433 0.972656 552.299 0 551.083-0.999674 550.475-2.26953 550.475-3.80957 550.475-4.56608 550.421-6.91667 550.313-10.8613 546.071-9.29427 540.451-5.67383 533.453 0 532.211 0.999674 530.846 1.49951 529.36 1.49951 527.793 1.49951 526.408 0.99292 525.206-0.0202637 524.004-1.03345 523.403-2.28304 523.403-3.76904 523.403-6.30876 527.266-9.84814 534.993-14.3872 529.293-17.1971 526.442-20.6554 526.442-24.7622 526.442-31.0304 530.873-36.1234 539.735-40.041 543.383-41.6621 548.449-42.4726 554.933-42.4727 556.824-42.4726 558.398-41.8445 559.654-40.5881 560.911-39.3318 561.539-37.8255 561.539-36.0693 561.539-32.5029 561.667-27.1331 561.924-19.9597 562.181-12.7864 562.309-7.40299 562.309-3.80957 562.309-2.29655 561.714-1.0402 560.526-0.0405273 559.337 0.959147 557.959 1.45898 556.392 1.45898ZM549.664-32.3003C547.557-32.1652 545.287-31.4222 542.856-30.0713 540.046-28.5042 538.533-26.8021 538.317-24.9648 539.397-23.1276 541.113-21.9118 543.464-21.3174 544.95-20.9121 547.152-20.723 550.07-20.75 549.935-23.2627 549.799-27.1128 549.664-32.3003ZM598.215-32.0571C597.485-32.0571 596.398-32.0909 594.952-32.1584 593.507-32.226 592.419-32.2598 591.69-32.2598 591.285-32.2598 590.839-32.2327 590.353-32.1787 590.92-20.0475 591.204-11.4827 591.204-6.48437 591.204-0.432292 589.231 2.59375 585.287 2.59375 583.828 2.59375 582.544 2.14795 581.437 1.25635 580.248 0.31071 579.653-0.891601 579.653-2.35059 579.653-3.29622 579.694-4.73494 579.775-6.66675 579.856-8.59855 579.896-10.0373 579.896-10.9829 579.896-14.6844 579.653-21.6956 579.167-32.0166 578.681-32.0166 577.478-32.0166 575.56-32.0166 572.804-32.0166 570.791-32.2733 569.521-32.7866 567.495-33.5972 566.482-35.1507 566.482-37.4473 566.482-38.9062 566.989-40.1693 568.002-41.2366 569.015-42.3038 570.332-42.8374 571.953-42.8374L595.905-42.8374C601.173-42.8374 603.808-41.0272 603.808-37.4067 603.808-35.8937 603.287-34.6239 602.247-33.5972 601.207-32.5705 599.863-32.0571 598.215-32.0571ZM623.191 0.567383C622.219 0.567383 620.895 0.540365 619.22 0.486328 617.247 0.405273 615.923 0.351237 615.248 0.324219 614.762 0.432292 614.262 0.486328 613.748 0.486328 609.912 0.486328 607.993-1.75618 607.993-6.24121 607.993-6.75456 608.142-8.3081 608.439-10.9019 608.818-14.2251 609.007-17.3322 609.007-20.2231 609.007-22.2225 608.878-25.0594 608.622-28.7339 608.365-32.4084 608.237-35.2588 608.237-37.2852 608.237-40.9596 610.087-42.7969 613.789-42.7969 615.545-42.7969 616.95-42.3241 618.004-41.3784 619.057-40.4328 619.584-39.244 619.584-37.812 619.584-35.6235 619.719-32.5029 619.99-28.4502 620.584-28.4772 621.124-28.4907 621.611-28.4907 628.392-28.4907 633.445-27.5991 636.768-25.8159 641.118-23.4923 643.293-19.4261 643.293-13.6172 643.293-8.61881 641.185-4.8903 636.971-2.43164 633.485-0.432292 628.892 0.567383 623.191 0.567383ZM622.948-19.0478C622.165-19.0478 621.259-19.0208 620.233-18.9668 620.233-16.8053 620.03-13.4686 619.625-8.95654 621.003-8.95654 622.192-8.95654 623.191-8.95654 629.216-8.95654 632.229-10.5101 632.229-13.6172 632.229-15.8327 631.567-17.2917 630.243-17.9941 629.027-18.6966 626.595-19.0478 622.948-19.0478ZM728.771-2.91797C728.771-1.43197 728.231-0.182373 727.15 0.83081 726.07 1.84399 724.732 2.35059 723.138 2.35059 721.517 2.35059 720.166 1.84399 719.085 0.83081 718.005-0.182373 717.464-1.43197 717.464-2.91797 717.464-4.53906 717.545-6.97746 717.707-10.2332 717.87-13.4888 717.951-15.9272 717.951-17.5483 717.951-19.0343 717.883-20.6014 717.748-22.2495 712.723-15.4679 708.211-10.4831 704.212-7.29492 700.591-4.43099 697.903-2.1547 696.147-0.466064 694.391 1.22257 692.499 2.06689 690.473 2.06689 688.96 2.06689 687.609 1.68864 686.42 0.932129 685.042 0.0135092 684.353-1.26986 684.353-2.91797 684.353-10.0778 684.218-17.5483 683.948-25.3296 683.651-33.408 683.502-37.3662 683.502-37.2041 683.502-38.7441 684.029-40.0207 685.083-41.0339 686.137-42.0471 687.501-42.5537 689.176-42.5537 692.202-42.5537 694.053-40.9866 694.728-37.8525 694.836-37.4202 694.958-34.7995 695.093-29.9902L695.498-14.5493C698.984-17.6834 702.699-21.5605 706.643-26.1807 707.562-27.2614 710.926-31.4087 716.735-38.6226 718.653-41.0272 720.787-42.2295 723.138-42.2295 724.732-42.2295 726.07-41.7229 727.15-40.7097 728.231-39.6965 728.771-38.4469 728.771-36.9609 728.771-34.151 728.825-29.9362 728.934-24.3164 729.042-18.6966 729.096-14.4818 729.096-11.6719 729.096-10.6992 729.042-9.24023 728.934-7.29492 728.825-5.34961 728.771-3.89062 728.771-2.91797ZM804.68-1.58057C798.385 0.770019 790.428 1.94531 780.81 1.94531 779.189 1.94531 777.736 1.26986 776.453-0.0810547 775.17-1.43197 774.528-2.87744 774.528-4.41748L774.528-47.3765C774.447-49.2137 774.379-51.0509 774.325-52.8882 774.244-54.9686 774.312-56.7248 774.528-58.1567 774.906-60.6964 777.27-62.2365 781.62-62.7768 783.674-63.3712 787.078-63.6684 791.833-63.6684 796.939-63.6684 801.83-62.0203 806.504-58.7241 811.989-54.8875 814.731-50.0918 814.731-44.3369 814.731-41.2298 814.164-38.609 813.029-36.4746 812.137-34.7454 810.584-32.8947 808.368-30.9224 810.989-29.6525 813.313-27.7342 815.339-25.1675 817.635-22.3035 818.784-19.4531 818.784-16.6162 818.784-13.0228 816.825-9.61849 812.907-6.40332 810.286-4.26888 807.544-2.6613 804.68-1.58057ZM791.833-52.6855C788.348-52.6855 786.254-52.6585 785.551-52.6045L785.592-44.0127 785.551-35.5019C788.01-35.2047 789.861-35.1102 791.104-35.2183 799.371-35.8667 803.505-38.9062 803.505-44.3369 803.505-46.2552 802.289-48.1059 799.857-49.8892 797.345-51.7534 794.67-52.6855 791.833-52.6855ZM796.575-24.0327C794.116-24.0327 790.442-24.1273 785.551-24.3164L785.551-9.15918C790.198-9.40234 795.237-10.2939 800.668-11.834 805.423-13.1849 807.774-14.6439 807.72-16.2109 807.639-18.2913 806.112-20.1421 803.14-21.7632 800.817-23.0601 798.628-23.8166 796.575-24.0327ZM843.847 2.39111C841.523 2.39111 839.078 2.12093 836.511 1.58057L836.471 18.1157C836.471 19.6828 835.944 20.9797 834.89 22.0063 833.837 23.033 832.499 23.5464 830.878 23.5464 829.257 23.5464 827.92 23.033 826.866 22.0063 825.812 20.9797 825.285 19.6828 825.285 18.1157 825.285 16.8459 825.312 11.807 825.366 2.99902 825.42-3.53939 825.42-8.87549 825.366-13.0093 825.285-18.8452 825.096-23.8706 824.799-28.0854 824.394-33.8944 824.191-36.5557 824.191-36.0693 824.191-38.3118 824.691-40.2301 825.691-41.8242 826.852-43.6344 828.419-44.5395 830.392-44.5395 831.905-44.5395 833.175-44.0262 834.201-42.9995 835.228-41.9728 835.741-40.7435 835.741-39.3115L835.701-38.9062C837.511-39.9329 839.328-40.6962 841.152-41.196 842.976-41.6959 844.806-41.9458 846.643-41.9458 852.857-41.9458 857.396-39.3115 860.26-34.043 862.395-30.0713 863.462-24.9243 863.462-18.602 863.462-12.6851 861.773-7.78125 858.396-3.89062 854.776 0.2972 849.926 2.39111 843.847 2.39111ZM846.643-31.125C844.941-31.125 843.212-30.7265 841.456-29.9294 839.7-29.1324 837.93-27.9368 836.147-26.3428 836.471-20.777 836.633-15.1978 836.633-9.60498 839.038-8.82145 841.442-8.42969 843.847-8.42969 846.63-8.42969 848.764-9.41585 850.25-11.3882 851.601-13.1714 852.277-15.576 852.277-18.602 852.277-22.2495 852.115-24.7757 851.79-26.1807 851.007-29.4769 849.291-31.125 846.643-31.125ZM889.664 1.86426C883.206 1.86426 877.924 0.324219 873.817-2.75586 869.278-6.16016 867.009-10.9559 867.009-17.1431 867.009-23.9787 868.806-29.7606 872.399-34.4888 876.398-39.7303 881.788-42.3511 888.569-42.3511 893.271-42.3511 897.175-41.5946 900.282-40.0815 904.362-38.0822 906.401-34.9751 906.401-30.7603 906.401-27.7882 904.74-25.154 901.417-22.8574 899.904-21.8037 896.864-20.2637 892.298-18.2373L878.64-12.1987C879.937-10.7938 881.504-9.74007 883.341-9.0376 885.179-8.33512 887.286-7.98389 889.664-7.98389 893.284-7.98389 896.351-8.72689 898.863-10.2129 901.106-11.5368 902.903-12.1987 904.253-12.1987 907.063-12.1987 908.468-10.8343 908.468-8.10547 908.468-5.02539 906.212-2.5127 901.7-0.567383 897.918 1.05371 893.905 1.86426 889.664 1.86426ZM888.569-32.5435C886.057-32.5435 883.909-31.7059 882.126-30.0308 880.342-28.3556 878.91-25.8429 877.83-22.4927 880.883-23.8166 883.922-25.1269 886.948-26.4238 890.596-28.0719 893.5-29.5985 895.662-31.0034 893.851-32.0301 891.487-32.5435 888.569-32.5435ZM928.005-20.5474C927.059-17.8996 925.735-13.9144 924.033-8.5918 923.52-6.34928 923.02-4.10677 922.534-1.86426 921.561 0.621419 919.751 1.86426 917.103 1.86426 915.455 1.86426 914.138 1.41846 913.152 0.526855 912.165-0.364746 911.672-1.43197 911.672-2.6748 911.672-5.70085 912.483-9.34831 914.104-13.6172 916.509-20.0475 917.792-23.5869 917.954-24.2353 918.657-27.0993 919.359-29.9632 920.062-32.8271 921.115-36.6637 922.297-39.271 923.608-40.6489 924.918-42.0268 926.532-42.7158 928.451-42.7158 931.72-42.7158 934.043-40.1221 935.421-34.9346 935.502-34.6103 935.867-32.9622 936.516-29.9902 937.461-25.5322 938.853-20.7635 940.69-15.6841 944.445-23.4653 947.026-30.0173 948.431-35.3398 949.809-40.5273 952.254-43.1211 955.766-43.1211 958.387-43.1211 960.346-41.6486 961.643-38.7036 962.237-37.3257 962.845-34.84 963.466-31.2466 964.817-23.4923 966.506-16.8864 968.532-11.4287 970.613-5.75488 971.653-2.60726 971.653-1.98584 971.653-0.60791 971.004 0.486328 969.708 1.29687 968.627 1.99935 967.438 2.35059 966.141 2.35059 963.601 2.35059 961.697 0.959147 960.427-1.82373 959.67-4.20133 958.914-6.56543 958.157-8.91601 957.077-12.0771 955.955-16.373 954.794-21.8037 953.821-19.5882 952.267-16.1434 950.133-11.4692 949.403-9.74007 948.674-8.02441 947.944-6.32227 947.08-4.32292 946.188-2.68831 945.27-1.41846 943.946 0.391764 942.135 1.29687 939.839 1.29687 937.623 1.29687 935.921 0.324219 934.732-1.62109 934.543-1.94531 933.8-3.79606 932.503-7.17334 930.855-11.3882 929.356-15.8462 928.005-20.5474ZM1004.99 1.45898C1003.39 1.45898 1002.03 0.972656 1000.89 0 999.677-0.999674 999.069-2.26953 999.069-3.80957 999.069-4.56608 999.015-6.91667 998.906-10.8613 994.665-9.29427 989.045-5.67383 982.047 0 980.804 0.999674 979.44 1.49951 977.954 1.49951 976.387 1.49951 975.002 0.99292 973.8-0.0202637 972.597-1.03345 971.996-2.28304 971.996-3.76904 971.996-6.30876 975.86-9.84814 983.587-14.3872 977.886-17.1971 975.036-20.6554 975.036-24.7622 975.036-31.0304 979.467-36.1234 988.329-40.041 991.976-41.6621 997.042-42.4726 1003.53-42.4727 1005.42-42.4726 1006.99-41.8445 1008.25-40.5881 1009.5-39.3318 1010.13-37.8255 1010.13-36.0693 1010.13-32.5029 1010.26-27.1331 1010.52-19.9597 1010.77-12.7864 1010.9-7.40299 1010.9-3.80957 1010.9-2.29655 1010.31-1.0402 1009.12-0.0405273 1007.93 0.959147 1006.55 1.45898 1004.99 1.45898ZM998.258-32.3003C996.151-32.1652 993.881-31.4222 991.449-30.0713 988.64-28.5042 987.127-26.8021 986.91-24.9648 987.991-23.1276 989.707-21.9118 992.057-21.3174 993.543-20.9121 995.745-20.723 998.663-20.75 998.528-23.2627 998.393-27.1128 998.258-32.3003ZM1016.13-34.2253C1018.43-32.1112 1021.98-29.0176 1026.79-24.9446 1024.73-22.8768 1021.57-19.8884 1017.3-15.9792 1015.98-14.8744 1015.32-13.5995 1015.32-12.1544 1015.32-10.795 1015.84-9.59126 1016.88-8.54304 1017.92-7.49481 1019.16-6.9707 1020.59-6.9707 1022.1-6.9707 1023.99-7.99824 1026.26-10.0533 1027.83-11.7031 1029.4-13.3383 1030.96-14.959 1033.53-17.5929 1035.93-19.3294 1038.18-20.1687 1040.91-21.1819 1042.27-22.7738 1042.27-24.9446 1042.27-26.7134 1041.05-28.097 1038.62-29.0951 1036.19-30.0933 1033.49-31.9317 1030.52-34.6103 1026.44-38.3 1023.99-40.4353 1023.18-41.0162 1022.05-41.8251 1020.88-42.2295 1019.7-42.2295 1018.26-42.2295 1017.02-41.759 1015.97-40.818 1014.91-39.877 1014.39-38.7878 1014.39-37.5505 1014.39-36.3389 1014.97-35.2305 1016.13-34.2253ZM1040.57-34.6604C1042.86-32.4474 1046.43-29.2088 1051.27-24.9446 1049.21-22.9697 1046.05-20.1159 1041.78-16.3832 1040.46-15.3282 1039.8-14.1109 1039.8-12.7313 1039.8-11.4331 1040.31-10.2836 1041.34-9.28266 1042.36-8.28172 1043.59-7.78125 1045.03-7.78125 1046.54-7.78125 1048.43-8.76235 1050.7-10.7245L1055.4-15.3681C1057.94-17.8555 1060.36-19.5137 1062.65-20.3428 1065.38-21.31 1066.75-22.8439 1066.75-24.9446 1066.75-26.77 1065.53-28.2051 1063.1-29.25 1060.67-30.2948 1057.97-32.2325 1054.99-35.0631 1050.89-38.9255 1048.43-41.1608 1047.62-41.7691 1046.54-42.5894 1045.39-42.9995 1044.17-42.9995 1042.74-42.9995 1041.5-42.507 1040.45-41.5218 1039.39-40.5367 1038.87-39.3966 1038.87-38.1014 1038.87-36.8328 1039.43-35.6858 1040.57-34.6604Z" fill="#462100" transform="matrix(0.199719 0 0 0.2 35.6998 40)"/></g></g><path d="M1824 1805.5C1825.8 1774.39 1850.03 1732.78 1894.48 1735 1993.67 1738.52 2023.52 1743.12 2130.77 1735 2238.03 1726.88 2309.77 1732.17 2356.32 1735 2402.87 1737.83 2488.59 1728.18 2560.38 1735 2632.18 1741.82 2697.76 1738.37 2753.71 1735 2809.66 1731.63 2904.82 1729.35 2968.52 1735 3008.09 1729.18 3029.72 1765.86 3039 1805.5L3039 1805.5C3038.23 1851.27 3005.48 1875.68 2968.52 1876 2921.31 1877.21 2833.46 1867.6 2775.19 1876 2716.92 1884.4 2602.19 1883.44 2549.64 1876 2497.09 1868.56 2432.43 1869.19 2367.06 1876 2301.68 1882.81 2233.22 1874.8 2184.47 1876 2135.72 1877.2 2002.78 1875.83 1894.48 1876 1860.76 1874.27 1824.5 1841.95 1824 1805.5L1824 1805.5Z" fill="#FFFFFF" fill-rule="evenodd"/><path d="M1824 1805.5C1822.76 1766.81 1863.62 1733.2 1894.48 1735 1964.81 1744.97 2030.1 1740.32 2109.29 1735 2188.48 1729.68 2216.67 1735.11 2313.36 1735 2410.04 1734.89 2417.53 1736.19 2506.68 1735 2595.84 1733.81 2684.57 1739.46 2732.23 1735 2779.89 1730.54 2905.91 1746.63 2968.52 1735 3008.14 1742.59 3041.09 1765.49 3039 1805.5L3039 1805.5C3045.96 1847 3014.5 1872.17 2968.52 1876 2885.75 1881.36 2848.13 1880.72 2732.23 1876 2616.33 1871.28 2630.54 1875.47 2538.9 1876 2447.27 1876.53 2429.22 1878.67 2334.84 1876 2240.46 1873.33 2212.56 1865.94 2109.29 1876 2006.02 1886.06 1974.37 1880.87 1894.48 1876 1851.35 1876.92 1826.43 1844.59 1824 1805.5L1824 1805.5Z" stroke="#462100" stroke-width="10.3125" stroke-miterlimit="8" fill="none" fill-rule="evenodd"/><text fill="#462100" font-family="Comic Sans MS,Comic Sans MS_MSFontService,sans-serif" font-weight="700" font-size="83" transform="matrix(1 0 0 1 1899.75 1829)">   </text><path d="M2466 1891C2466 1912.54 2448.54 1930 2427 1930 2405.46 1930 2388 1912.54 2388 1891 2388 1869.46 2405.46 1852 2427 1852 2448.54 1852 2466 1869.46 2466 1891Z" fill="#F2EBEA" fill-rule="evenodd"/><path d="M2449.22 1889.94C2449.73 1902.2 2440.2 1912.55 2427.94 1913.06 2415.69 1913.57 2405.34 1904.04 2404.83 1891.78 2404.32 1879.52 2413.84 1869.17 2426.1 1868.66 2438.36 1868.15 2448.71 1877.68 2449.22 1889.94Z" fill="#C9AFAB" fill-rule="evenodd"/><path d="M2493.45 1931.11C2488.69 1930.84 2484.54 1933.59 2482.7 1937.61L2482.7 1932.7C2482.7 1926.54 2477.7 1921.55 2471.55 1921.55L2471.55 1921.55C2467.48 1921.55 2463.93 1923.75 2461.99 1926.98L2461.99 1926.32C2461.99 1920.16 2456.99 1915.18 2450.85 1915.18L2450.85 1915.18C2445.52 1915.18 2441.06 1918.92 2439.95 1923.94L2439.95 1893.62C2439.95 1887.9 2435.84 1882.74 2430.16 1882.08 2423.4 1881.28 2417.66 1886.54 2417.66 1893.15L2417.66 1958.64C2417.66 1959.4 2416.63 1959.65 2416.28 1958.97L2405.25 1937.32C2402.66 1931.73 2396.03 1929.31 2390.44 1931.93 2384.86 1934.53 2382.44 1941.16 2385.05 1946.74L2404.05 1997.36 2418.59 2023.98C2419.27 2025.22 2420.57 2026 2422 2026L2489.73 2026C2491.56 2026 2493.12 2024.74 2493.51 2022.96L2503.11 1979.18C2503.69 1976.89 2504 1974.54 2504 1972.2L2504 1942.77C2504 1936.95 2499.29 1931.48 2493.47 1931.15Z" fill="#875E21" fill-rule="evenodd"/></g></svg>