<svg width="1822" height="377" xmlns="http://www.w3.org/2000/svg" xmlns:xlink="http://www.w3.org/1999/xlink" overflow="hidden"><defs><filter id="fx0" x="-10%" y="-10%" width="120%" height="120%" filterUnits="userSpaceOnUse" primitiveUnits="userSpaceOnUse"><feComponentTransfer color-interpolation-filters="sRGB"><feFuncR type="discrete" tableValues="0 0"/><feFuncG type="discrete" tableValues="0 0"/><feFuncB type="discrete" tableValues="0 0"/><feFuncA type="linear" slope="0.219608" intercept="0"/></feComponentTransfer><feGaussianBlur stdDeviation="6.42018 6.41667"/></filter><clipPath id="clip1"><rect x="451" y="1765" width="1822" height="377"/></clipPath><clipPath id="clip2"><rect x="-17.4095" y="-17.4" width="142.878" height="57.8"/></clipPath><clipPath id="clip3"><rect x="0" y="0" width="365" height="76"/></clipPath></defs><g clip-path="url(#clip1)" transform="translate(-451 -1765)"><g clip-path="url(#clip2)" filter="url(#fx0)" transform="matrix(4.99726 0 0 5 450 1763)"><g clip-path="url(#clip3)"><path d="M20.8114 36.7C20.8824 30.0185 24.878 23.9539 32.3261 22.5999 46.8959 20.0218 66.4567 24.552 75.9055 22.5999 85.3544 20.6479 96.8778 21.2518 110.469 22.5999 124.059 23.9481 137.935 23.7417 154.048 22.5999 170.161 21.4582 181.558 24.6511 191.617 22.5999 201.675 20.5488 220.801 25.1979 235.196 22.5999 249.591 20.002 254.266 24.1357 269.759 22.5999 285.252 21.0642 313.984 23.9742 332.874 22.5999 339.838 21.8632 343.883 27.5257 344.389 36.7L344.389 36.7C344.403 44.8779 338.971 49.5189 332.874 50.8001 319.325 51.4544 309.974 50.0612 289.295 50.8001 268.615 51.5389 268.302 51.7982 254.732 50.8001 241.161 49.802 237.187 50.5362 226.18 50.8001 215.172 51.0639 203.967 50.6272 194.622 50.8001 185.277 50.973 174.943 49.0957 163.064 50.8 151.186 52.5044 140.887 52.4252 131.507 50.8 122.127 49.1748 108.9 52.1825 102.955 50.8 97.0094 49.4175 63.1435 48.9044 32.3261 50.8 26.4321 51.6137 21.6918 43.3597 20.8114 36.6999L20.8114 36.7Z" fill="#FFFFFF" fill-rule="evenodd"/><path d="M20.8114 36.7C21.628 30.4365 25.9144 23.0601 32.3261 22.5999 43.0949 21.7997 51.1081 23.0983 66.8891 22.5999 82.67 22.1016 88.8173 23.8626 104.458 22.5999 120.098 21.3373 127.643 24.5227 136.015 22.5999 144.387 20.6772 157.332 23.3931 170.578 22.5999 183.824 21.8068 191.83 24.48 205.141 22.5999 218.453 20.7199 231.706 20.5309 248.721 22.5999 265.735 24.669 270.188 20.622 286.289 22.5999 302.391 24.5779 311.806 23.5142 332.874 22.5999 338.659 21.7025 344.069 29.7056 344.389 36.7L344.389 36.7C344.24 45.0564 339.89 51.317 332.874 50.8001 321.491 52.2107 309.191 52.2068 301.317 50.8001 293.442 49.3934 279.056 50.5772 260.743 50.8001 242.429 51.0229 228.43 52.5506 217.163 50.8001 205.896 49.0495 195.088 52.3671 179.595 50.8 164.102 49.233 160.511 51.6005 142.026 50.8 123.542 49.9996 119.836 49.2545 113.474 50.8 107.112 52.3455 91.5341 49.2759 69.8946 50.8 48.2551 52.3242 40.8196 50.4833 32.3261 50.8 24.5143 50.3512 19.3374 44.7102 20.8114 36.6999L20.8114 36.7Z" stroke="#462100" stroke-width="2" stroke-miterlimit="8" fill="none" fill-rule="evenodd"/><path d="M76.2949-60.2798C76.2949-56.2017 73.2788-54.3184 67.2466-54.6299 66.9351-50.5234 66.7793-44.9019 66.7793-37.7651 66.7793-36.2925 66.928-32.6038 67.2253-26.699 67.5227-20.7942 67.6714-15.6045 67.6714-11.1299 67.6714-10.2236 67.7988-8.87842 68.0537-7.09424 68.3086-5.31006 68.436-3.96484 68.436-3.05859 68.436-1.44434 67.8625-0.106201 66.7156 0.95581 65.5686 2.01782 64.1597 2.54883 62.4888 2.54883 59.0337 2.54883 57.0796 0.807129 56.6265-2.67627 56.0884-6.75439 55.8193-9.57226 55.8193-11.1299 55.8193-15.5195 55.6777-20.5747 55.3945-26.2954 55.1113-32.0161 54.9697-35.8394 54.9697-37.7651 54.9697-45.1851 55.1113-50.8916 55.3945-54.8848 54.0635-54.6865 50.7642-54.5874 45.4966-54.5874 38.5015-54.5874 31.6904-54.7007 25.0635-54.9272 25.1768-53.8228 25.3184-52.1519 25.4883-49.9145 25.9414-36.0376 26.168-28.5327 26.168-27.3999 26.168-26.0688 26.083-24.2139 25.9131-21.835 25.7148-19.2295 25.6016-17.3745 25.5732-16.27 25.5449-15.1655 25.5449-13.7354 25.5732-11.9795 25.6016-9.62891 25.6157-8.18457 25.6157-7.64648 25.6157-4.38965 25.4033-2.1665 24.9785-0.977051 24.1572 1.40186 22.3589 2.59131 19.5835 2.59131 17.9126 2.59131 16.5037 2.06738 15.3567 1.01953 14.2097-0.0283203 13.6362-1.35937 13.6362-2.97363 13.6362-9.71387 13.6645-14.231 13.7212-16.5249 13.7495-17.6011 13.8628-19.4136 14.061-21.9624 14.231-24.2847 14.3159-26.0972 14.3159-27.3999 14.3159-28.4194 14.0894-35.8252 13.6362-49.6172 13.6362-49.7021 13.4805-51.543 13.1689-55.1396 11.4697-55.1113 9.96875-55.0972 8.66601-55.0972 6.9668-55.0972 5.55786-55.6353 4.43921-56.7114 3.32056-57.7876 2.76123-59.1328 2.76123-60.7471 2.76123-64.6269 5.73486-66.5669 11.6821-66.5669 12.0786-66.5669 12.645-66.5669 13.3813-66.5669 14.1177-66.5386 14.6416-66.5244 14.9531-66.5244 17.1904-66.5244 20.5251-66.4394 24.9573-66.2695 29.3894-66.0996 32.7241-66.0146 34.9614-66.0146L70.3476-65.9297C72.0469-65.9297 73.4629-65.3916 74.5957-64.3154 75.7285-63.2393 76.2949-61.894 76.2949-60.2798ZM120.056 2.33643C118.753 2.33643 116.686 1.07617 113.854-1.44434 111.249-0.198242 108.955 0.743408 106.972 1.38062 104.99 2.01782 103.305 2.33643 101.917 2.33643 95.0918 2.33643 89.9729 0.509765 86.5603-3.14355 83.1477-6.79687 81.4414-12.2627 81.4414-19.541 81.4414-26.3662 83.9619-32.2073 89.0029-37.0642 94.0439-41.9211 100.076-44.3496 107.1-44.3496 109.79-44.3496 112.905-43.5925 116.445-42.0782 120.722-40.2556 122.86-38.1386 122.86-35.7274 122.86-34.718 122.534-33.8348 121.883-33.0777 121.6-31.9559 121.38-30.5469 121.224-28.8505 121.069-27.1542 120.991-25.1703 120.991-22.899 120.991-17.5438 121.373-13.6884 122.138-11.333 122.223-11.0808 122.874-9.62271 124.092-6.95883 125.196-4.54718 125.749-3.1732 125.749-2.8369 125.749-1.35097 125.175-0.117264 124.028 0.864212 122.881 1.84569 121.557 2.33643 120.056 2.33643ZM109.521-26.3379C109.521-27.2441 109.585-28.2849 109.712-29.4602 109.84-30.6355 110.031-31.9453 110.286-33.3896 109.719-33.6728 109.217-33.8782 108.778-34.0056 108.339-34.1331 107.963-34.1968 107.652-34.1968 103.8-34.1968 100.43-32.6887 97.5415-29.6726 94.6528-26.6565 93.2085-23.166 93.2085-19.2012 93.2085-15.4062 93.8882-12.553 95.2476-10.6414 96.6069-8.72974 98.646-7.77393 101.365-7.77393 103.121-7.77393 104.784-8.06421 106.356-8.64477 107.928-9.22534 109.408-10.082 110.795-11.2148 109.946-17.9551 109.521-22.9961 109.521-26.3379ZM144.477-21.5376C143.486-18.7622 142.098-14.585 140.314-9.00586 139.776-6.65527 139.252-4.30469 138.742-1.9541 137.723 0.651367 135.825 1.9541 133.05 1.9541 131.322 1.9541 129.942 1.48682 128.908 0.552246 127.874-0.382324 127.357-1.50098 127.357-2.80371 127.357-5.97559 128.207-9.79883 129.906-14.2734 132.427-21.0137 133.772-24.7236 133.942-25.4033 134.678-28.4053 135.415-31.4072 136.151-34.4092 137.255-38.4307 138.494-41.1636 139.868-42.6079 141.241-44.0522 142.934-44.7744 144.944-44.7744 148.371-44.7744 150.807-42.0557 152.251-36.6182 152.336-36.2783 152.718-34.5508 153.398-31.4355 154.389-26.7627 155.848-21.7642 157.773-16.4399 161.71-24.5962 164.415-31.4639 165.887-37.043 167.332-42.4805 169.895-45.1992 173.576-45.1992 176.323-45.1992 178.376-43.6558 179.736-40.5688 180.359-39.1245 180.996-36.519 181.647-32.7524 183.063-24.6245 184.833-17.7002 186.958-11.9795 189.138-6.03223 190.228-2.73291 190.229-2.08154 190.228-0.637207 189.549 0.509766 188.189 1.35937 187.057 2.0957 185.811 2.46387 184.451 2.46387 181.789 2.46387 179.792 1.00537 178.461-1.91162 177.668-4.40381 176.875-6.88183 176.083-9.3457 174.95-12.6592 173.774-17.1621 172.557-22.8545 171.537-20.5322 169.909-16.9214 167.671-12.022 166.907-10.2095 166.142-8.41113 165.377-6.62695 164.471-4.53125 163.537-2.81787 162.574-1.48682 161.186 0.410644 159.289 1.35937 156.881 1.35937 154.559 1.35937 152.775 0.339844 151.529-1.69922 151.331-2.03906 150.552-3.979 149.192-7.51904 147.465-11.937 145.893-16.6099 144.477-21.5376ZM225.678 1.5293C224.007 1.5293 222.577 1.01953 221.388 0 220.113-1.04785 219.476-2.37891 219.476-3.99316 219.476-4.78613 219.42-7.25 219.306-11.3848 214.86-9.74219 208.969-5.94726 201.634 0 200.332 1.04785 198.902 1.57178 197.344 1.57178 195.701 1.57178 194.25 1.04077 192.99-0.0212402 191.729-1.08325 191.099-2.39307 191.099-3.95068 191.099-6.61279 195.149-10.3228 203.249-15.0806 197.273-18.0259 194.285-21.6509 194.285-25.9556 194.285-32.5259 198.93-37.8643 208.219-41.9707 212.042-43.6699 217.352-44.5195 224.149-44.5195 226.132-44.5195 227.781-43.8611 229.098-42.5442 230.415-41.2273 231.073-39.6484 231.073-37.8076 231.073-34.0693 231.208-28.4407 231.477-20.9216 231.746-13.4026 231.881-7.75976 231.881-3.99316 231.881-2.40723 231.257-1.09033 230.011-0.0424805 228.765 1.00537 227.321 1.5293 225.678 1.5293ZM218.627-33.8569C216.418-33.7153 214.039-32.9365 211.49-31.5205 208.545-29.8779 206.959-28.0937 206.732-26.168 207.865-24.2422 209.663-22.9678 212.127-22.3447 213.685-21.9199 215.993-21.7217 219.051-21.75 218.91-24.3838 218.768-28.4194 218.627-33.8569ZM269.793-33.602C269.028-33.602 267.888-33.6374 266.373-33.7082 264.858-33.779 263.718-33.8144 262.954-33.8144 262.529-33.8144 262.061-33.7861 261.552-33.7295 262.146-21.0137 262.444-12.0361 262.444-6.79687 262.444-0.453125 260.376 2.71875 256.242 2.71875 254.712 2.71875 253.367 2.25146 252.206 1.31689 250.96 0.325684 250.337-0.93457 250.337-2.46387 250.337-3.45508 250.379-4.96313 250.464-6.98804 250.549-9.01294 250.592-10.521 250.592-11.5122 250.592-15.3921 250.337-22.7412 249.827-33.5596 249.317-33.5596 248.057-33.5596 246.046-33.5596 243.158-33.5596 241.048-33.8286 239.717-34.3667 237.593-35.2163 236.531-36.8447 236.531-39.2519 236.531-40.7812 237.062-42.1052 238.124-43.2239 239.186-44.3425 240.566-44.9019 242.266-44.9019L267.372-44.9019C272.894-44.9019 275.655-43.0044 275.655-39.2095 275.655-37.6235 275.11-36.2925 274.02-35.2163 272.929-34.1401 271.52-33.602 269.793-33.602ZM316.056 1.57178C314.356 1.57178 312.94 1.04785 311.808 0 310.675-1.04785 310.108-2.36475 310.108-3.95068 310.108-6.41455 310.052-10.8325 309.938-17.2046 309.4-17.2046 308.933-17.2046 308.537-17.2046 302.448-17.2046 296.543-16.5957 290.822-15.3779 290.794-14.2734 290.638-12.2769 290.355-9.38818 290.128-6.92432 290.015-4.89233 290.015-3.29224 290.015-1.69214 289.456-0.368164 288.337 0.679687 287.218 1.72754 285.81 2.25146 284.11 2.25146 282.411 2.25146 281.002 1.72754 279.884 0.679687 278.765-0.368164 278.206-1.69922 278.206-3.31348 278.206-4.27637 278.34-5.58618 278.609-7.24292 278.878-8.89966 279.013-10.2095 279.013-11.1724 279.013-12.7583 278.97-15.1443 278.885-18.3303 278.8-21.5164 278.758-23.9023 278.758-25.4883 278.758-27.1592 278.758-29.623 278.758-32.8799 278.786-36.1367 278.8-38.6006 278.8-40.2715 278.8-41.8574 279.36-43.1743 280.478-44.2222 281.597-45.27 283.006-45.7939 284.705-45.7939 286.404-45.7939 287.82-45.27 288.953-44.2222 290.086-43.1743 290.652-41.8574 290.652-40.2715 290.652-38.459 290.681-36.1934 290.737-33.4746 290.822-29.708 290.865-27.4707 290.865-26.7627 296.84-27.8955 303.142-28.3911 309.769-28.2495L309.769-29.1841C309.769-30.6284 309.825-32.6958 309.938-35.3862 310.052-38.0767 310.108-40.1157 310.108-41.5034 310.108-43.0894 310.675-44.4062 311.808-45.4541 312.94-46.5019 314.356-47.0259 316.056-47.0259 317.755-47.0259 319.164-46.5019 320.282-45.4541 321.401-44.4062 321.96-43.0894 321.96-41.5034 321.96-40.0874 321.904-38.0342 321.79-35.3437 321.677-32.6533 321.621-30.6001 321.621-29.1841 321.621-26.2954 321.677-22.0898 321.79-16.5674 321.904-11.0449 321.96-6.83935 321.96-3.95068 321.96-2.36475 321.401-1.04785 320.282 0 319.164 1.04785 317.755 1.57178 316.056 1.57178ZM375.883-3.05859C375.883-1.50098 375.317-0.191162 374.184 0.87085 373.051 1.93286 371.65 2.46387 369.979 2.46387 368.279 2.46387 366.863 1.93286 365.731 0.87085 364.598-0.191162 364.031-1.50098 364.031-3.05859 364.031-4.75781 364.116-7.31372 364.286-10.7263 364.456-14.1389 364.541-16.6948 364.541-18.394 364.541-19.9517 364.47-21.5942 364.329-23.3218 359.061-16.2134 354.332-10.9883 350.14-7.64648 346.345-4.64453 343.527-2.25854 341.687-0.488525 339.846 1.28149 337.863 2.1665 335.739 2.1665 334.153 2.1665 332.737 1.77002 331.491 0.977051 330.047 0.0141602 329.325-1.33105 329.325-3.05859 329.325-10.5635 329.183-18.394 328.9-26.5503 328.589-35.0181 328.433-39.167 328.433-38.9971 328.433-40.6113 328.985-41.9495 330.089-43.0115 331.194-44.0735 332.624-44.6045 334.38-44.6045 337.552-44.6045 339.492-42.9619 340.2-39.6768 340.313-39.2236 340.441-36.4766 340.582-31.4355L341.007-15.2505C344.66-18.5356 348.554-22.5996 352.689-27.4424 353.652-28.5752 357.178-32.9224 363.267-40.4839 365.277-43.0044 367.515-44.2646 369.979-44.2646 371.65-44.2646 373.051-43.7336 374.184-42.6716 375.317-41.6096 375.883-40.2998 375.883-38.7422 375.883-35.7969 375.94-31.3789 376.053-25.4883 376.167-19.5977 376.223-15.1797 376.223-12.2344 376.223-11.2148 376.167-9.68555 376.053-7.64648 375.94-5.60742 375.883-4.07812 375.883-3.05859ZM417.82 0.594727C415.045 0.594727 413.147-0.679688 412.128-3.22852 411.42-5.04102 409.607-8.00049 406.69-12.1069 403.547-16.5532 401.493-18.7764 400.531-18.7764 400.304-18.8047 399.171-18.8188 397.132-18.8188L397.09-11.0874C397.09-10.7192 397.104-10.0962 397.132-9.21826 397.16-8.34033 397.175-7.66064 397.175-7.1792 397.175-1.65674 395.121 1.10449 391.015 1.10449 389.429 1.10449 388.055 0.665527 386.894-0.212402 385.648-1.20361 385.025-2.49219 385.025-4.07812 385.025-5.32422 385.082-7.27124 385.195-9.91919 385.308-12.5671 385.365-14.5283 385.365-15.8027 385.365-18.3232 385.266-22.0898 385.068-27.1025 384.869-32.1152 384.77-35.8677 384.77-38.3599 384.77-42.8345 386.795-45.0718 390.845-45.0718 392.459-45.0718 393.833-44.6045 394.966-43.6699 396.183-42.6504 396.792-41.376 396.792-39.8467 396.792-37.7793 396.863-34.4092 397.005-29.7363 400.035-29.708 402.131-30.3311 403.292-31.6055 403.49-31.8037 404.467-33.5879 406.223-36.958 408.715-41.8008 411.929-44.2222 415.866-44.2222 417.169-44.2222 418.585-43.8257 420.114-43.0327 421.955-42.0981 422.875-40.9653 422.875-39.6343 422.875-38.3315 422.443-37.227 421.58-36.3208 420.716-35.4145 419.618-34.9614 418.287-34.9614 417.551-34.9614 416.489-33.6587 415.101-31.0532 414.365-29.5239 413.615-27.9946 412.85-26.4653 412.255-25.4458 411.632-24.582 410.981-23.874 413.954-21.4385 416.786-18.2524 419.477-14.3159 422.394-10.1245 423.852-6.86767 423.852-4.54541 423.852-2.95947 423.173-1.6709 421.813-0.679687 420.652 0.169922 419.321 0.594727 417.82 0.594727ZM496.69 0.0424805 479.825 0C474.472 0 471.796-1.68506 471.796-5.05518 471.796-8.8501 474.784-10.7476 480.76-10.7476 481.326-10.7476 481.949-10.7334 482.629-10.7051L482.629-48.3853C480.165-46.686 478.565-45.8364 477.828-45.8364 476.242-45.8364 474.862-46.4028 473.687-47.5356 472.511-48.6685 471.924-49.9853 471.924-51.4863 471.924-53.0439 472.872-54.644 474.77-56.2866L479.57-59.77 484.753-63.9331C486.877-65.4624 488.93-66.227 490.912-66.227 493.461-66.227 494.736-64.6977 494.736-61.6392 494.736-58.269 494.594-53.5254 494.311-47.4082 494.028-41.291 493.886-32.5542 493.886-21.1978L493.886-10.9175 496.69-10.9175C498.332-10.9175 499.713-10.3936 500.832-9.3457 501.95-8.29785 502.51-6.99512 502.51-5.4375 502.51-3.87988 501.95-2.57715 500.832-1.5293 499.713-0.481445 498.332 0.0424805 496.69 0.0424805ZM545.978-17.5444 529.028-17.5444C519.937-17.5444 515.392-19.3994 515.392-23.1094 515.392-24.667 516.185-26.4087 517.771-28.3345 519.073-29.8071 520.39-31.2939 521.721-32.7949 526.281-39.3086 533.234-48.9941 542.579-61.8516 544.788-64.7969 547.663-66.2695 551.203-66.2695 552.874-66.2695 554.318-65.8447 555.536-64.9951 556.98-63.9756 557.702-62.5454 557.702-60.7046L557.745-28.7593C561.455-28.646 563.933-28.2637 565.179-27.6123 566.567-26.8477 567.26-25.3467 567.26-23.1094 567.289-20.7588 566.213-19.1445 564.032-18.2666 562.503-17.6719 560.407-17.4312 557.745-17.5444 557.83-13.4663 557.816-9.04834 557.702-4.29053 557.674-2.73291 557.164-1.44434 556.173-0.424805 555.182 0.594726 553.837 1.10449 552.137 1.10449 547.833 1.10449 545.78-1.72754 545.978-7.3916ZM545.978-47.833C543.231-43.5 538.997-37.1421 533.276-28.7593L545.978-28.7593ZM625.389 1.99658C621.594 1.99658 618.168 1.43018 615.109 0.297363 611.003-1.23193 608.949-3.4834 608.949-6.45703 608.949-7.58984 609.523-8.72974 610.67-9.87671 611.817-11.0237 613.028-11.5972 614.302-11.5972 615.633-11.5972 617.467-11.1157 619.803-10.1528 622.14-9.18994 624.002-8.7085 625.389-8.7085 626.466-8.7085 627.528-9.19702 628.575-10.1741 629.623-11.1511 630.147-12.1494 630.147-13.1689 630.147-14.7549 629.029-15.9302 626.791-16.6948 624.667-17.2895 622.557-17.8701 620.462-18.4365 618.196-19.2295 617.063-20.4331 617.063-22.0474 617.063-24.1147 617.899-25.5449 619.57-26.3379 620.504-26.8193 622.218-27.2017 624.71-27.4849 626.522-27.6831 627.754-27.9946 628.406-28.4194 629.283-29.0142 629.722-30.0903 629.722-31.6479 629.722-33.7436 627.556-34.7915 623.223-34.7915 622.345-34.7915 621.127-34.2534 619.57-33.1772 618.012-32.1011 616.553-31.563 615.194-31.563 613.693-31.563 612.362-32.0161 611.201-32.9224 609.955-33.8853 609.332-35.1172 609.332-36.6182 609.332-39.1103 611.187-41.291 614.897-43.1602 618.012-44.7178 620.787-45.4966 623.223-45.4966 627.556-45.4966 631.45-44.562 634.905-42.6929 639.21-40.3706 641.362-37.1421 641.362-33.0073 641.362-28.7593 639.989-25.2476 637.241-22.4722 640.13-19.187 641.574-16.0859 641.574-13.1689 641.574-8.58105 640.102-4.90649 637.156-2.14526 634.211 0.615967 630.289 1.99658 625.389 1.99658ZM685.525 2.33643C684.222 2.33643 682.155 1.07617 679.323-1.44434 676.717-0.198242 674.423 0.743408 672.441 1.38062 670.458 2.01782 668.773 2.33643 667.386 2.33643 660.56 2.33643 655.442 0.509765 652.029-3.14355 648.616-6.79687 646.91-12.2627 646.91-19.541 646.91-26.3662 649.431-32.2073 654.472-37.0642 659.513-41.9211 665.545-44.3496 672.568-44.3496 675.259-44.3496 678.374-43.5925 681.914-42.0782 686.19-40.2556 688.329-38.1386 688.329-35.7274 688.329-34.718 688.003-33.8348 687.352-33.0777 687.068-31.9559 686.849-30.5469 686.693-28.8505 686.537-27.1542 686.459-25.1703 686.459-22.899 686.459-17.5438 686.842-13.6884 687.606-11.333 687.691-11.0808 688.343-9.62271 689.56-6.95883 690.665-4.54718 691.217-3.1732 691.217-2.8369 691.217-1.35097 690.644-0.117264 689.497 0.864212 688.35 1.84569 687.026 2.33643 685.525 2.33643ZM674.99-26.3379C674.99-27.2441 675.053-28.2849 675.181-29.4602 675.308-30.6355 675.499-31.9453 675.754-33.3896 675.188-33.6728 674.685-33.8782 674.246-34.0056 673.807-34.1331 673.432-34.1968 673.121-34.1968 669.269-34.1968 665.899-32.6887 663.01-29.6726 660.122-26.6565 658.677-23.166 658.677-19.2012 658.677-15.4062 659.357-12.553 660.716-10.6414 662.076-8.72974 664.115-7.77393 666.833-7.77393 668.589-7.77393 670.253-8.06421 671.825-8.64477 673.397-9.22534 674.876-10.082 676.264-11.2148 675.414-17.9551 674.99-22.9961 674.99-26.3379ZM756.122-8.9209 756.589-8.9209C758.175-8.9209 759.563-8.36157 760.752-7.24292 761.942-6.12427 762.536-4.81445 762.537-3.31348 762.536-1.9541 762.473-0.00708002 762.345 2.52759 762.218 5.06226 762.154 7.06592 762.154 8.53857 762.154 10.2944 761.545 11.6963 760.328 12.7441 759.223 13.6787 757.864 14.146 756.249 14.146 754.635 14.146 753.276 13.6787 752.171 12.7441 750.953 11.6963 750.345 10.2944 750.345 8.53857 750.345 7.0376 750.401 4.98437 750.515 2.37891 748.221 2.66211 746.918 2.80371 746.606 2.80371 741.565 2.80371 734.032 2.67627 724.007 2.42139 713.981 2.1665 706.448 2.03906 701.407 2.03906 699.821 2.03906 698.441 1.47974 697.265 0.361084 696.09-0.757568 695.502-2.06738 695.502-3.56836 695.502-3.82324 695.771-6.81104 696.31-12.5317 696.876-18.564 697.159-27.8813 697.159-40.4839 697.159-42.0415 697.725-43.3584 698.858-44.4346 699.991-45.5107 701.393-46.0488 703.064-46.0488 704.735-46.0488 706.137-45.5107 707.269-44.4346 708.402-43.3584 708.969-42.0415 708.969-40.4839 708.969-27.145 708.558-16.5815 707.737-8.79346 709.323-8.68017 711.064-8.62353 712.962-8.62353 713.783-8.62353 714.987-8.65893 716.573-8.72974 718.159-8.80054 719.348-8.83594 720.141-8.83594 720.339-10.5918 720.438-12.6875 720.438-15.123 720.438-17.1055 720.368-20.0862 720.226-24.0652 720.084-28.0442 720.014-31.0391 720.014-33.0498 720.014-36.0801 720.424-38.6714 721.246-40.8237 722.407-43.854 724.233-45.3691 726.726-45.3691 728.283-45.3691 729.685-44.8452 730.931-43.7974 732.177-42.7495 732.8-41.4468 732.8-39.8892 732.8-39.3794 732.637-38.282 732.312-36.5969 731.986-34.9119 731.823-33.5737 731.823-32.5825 731.823-30.7134 731.901-27.9167 732.057-24.1926 732.213-20.4685 732.29-17.686 732.29-15.8452 732.29-14.939 732.234-13.7637 732.121-12.3193 732.007-10.5352 731.936-9.35986 731.908-8.79346 733.494-8.68017 735.25-8.62353 737.176-8.62353 740.008-8.62353 742.401-8.73682 744.355-8.96338 744.553-10.6909 744.652-12.7441 744.652-15.123 744.652-17.1055 744.581-20.0862 744.44-24.0652 744.298-28.0442 744.227-31.0391 744.227-33.0498 744.227-36.0801 744.638-38.6714 745.459-40.8237 746.62-43.854 748.447-45.3691 750.939-45.3691 752.497-45.3691 753.899-44.8452 755.145-43.7974 756.391-42.7495 757.014-41.4468 757.014-39.8892 757.014-39.3794 756.851-38.282 756.526-36.5969 756.2-34.9119 756.037-33.5737 756.037-32.5825 756.037-30.7134 756.115-27.9167 756.271-24.1926 756.426-20.4685 756.504-17.686 756.504-15.8452 756.504-14.9673 756.448-13.8062 756.334-12.3618 756.221-10.5776 756.15-9.43066 756.122-8.9209ZM812.446-3.05859C812.446-1.50098 811.879-0.191162 810.747 0.87085 809.614 1.93286 808.212 2.46387 806.541 2.46387 804.842 2.46387 803.426 1.93286 802.293 0.87085 801.16-0.191162 800.594-1.50098 800.594-3.05859 800.594-4.75781 800.679-7.31372 800.849-10.7263 801.019-14.1389 801.104-16.6948 801.104-18.394 801.104-19.9517 801.033-21.5942 800.891-23.3218 795.624-16.2134 790.894-10.9883 786.703-7.64648 782.908-4.64453 780.09-2.25854 778.249-0.488525 776.408 1.28149 774.426 2.1665 772.302 2.1665 770.716 2.1665 769.3 1.77002 768.054 0.977051 766.609 0.0141602 765.887-1.33105 765.887-3.05859 765.887-10.5635 765.746-18.394 765.463-26.5503 765.151-35.0181 764.995-39.167 764.995-38.9971 764.995-40.6113 765.547-41.9495 766.652-43.0115 767.756-44.0735 769.187-44.6045 770.943-44.6045 774.114-44.6045 776.054-42.9619 776.762-39.6768 776.876-39.2236 777.003-36.4766 777.145-31.4355L777.569-15.2505C781.223-18.5356 785.117-22.5996 789.252-27.4424 790.214-28.5752 793.74-32.9224 799.829-40.4839 801.84-43.0044 804.077-44.2646 806.541-44.2646 808.212-44.2646 809.614-43.7336 810.747-42.6716 811.879-41.6096 812.446-40.2998 812.446-38.7422 812.446-35.7969 812.503-31.3789 812.616-25.4883 812.729-19.5977 812.786-15.1797 812.786-12.2344 812.786-11.2148 812.729-9.68555 812.616-7.64648 812.503-5.60742 812.446-4.07812 812.446-3.05859ZM851.876-33.602C851.112-33.602 849.972-33.6374 848.457-33.7082 846.941-33.779 845.802-33.8144 845.037-33.8144 844.612-33.8144 844.145-33.7861 843.635-33.7295 844.23-21.0137 844.527-12.0361 844.527-6.79687 844.527-0.453125 842.46 2.71875 838.325 2.71875 836.796 2.71875 835.45 2.25146 834.289 1.31689 833.043 0.325684 832.42-0.93457 832.42-2.46387 832.42-3.45508 832.463-4.96313 832.548-6.98804 832.633-9.01294 832.675-10.521 832.675-11.5122 832.675-15.3921 832.42-22.7412 831.91-33.5596 831.401-33.5596 830.14-33.5596 828.13-33.5596 825.241-33.5596 823.131-33.8286 821.8-34.3667 819.676-35.2163 818.614-36.8447 818.614-39.2519 818.614-40.7812 819.145-42.1052 820.207-43.2239 821.269-44.3425 822.65-44.9019 824.349-44.9019L849.455-44.9019C854.977-44.9019 857.739-43.0044 857.739-39.2095 857.739-37.6235 857.193-36.2925 856.103-35.2163 855.013-34.1401 853.604-33.602 851.876-33.602ZM898.139 1.57178C896.44 1.57178 895.024 1.04785 893.891 0 892.758-1.04785 892.192-2.36475 892.192-3.95068 892.192-6.41455 892.135-10.8325 892.022-17.2046 891.484-17.2046 891.016-17.2046 890.62-17.2046 884.531-17.2046 878.626-16.5957 872.906-15.3779 872.877-14.2734 872.721-12.2769 872.438-9.38818 872.212-6.92432 872.098-4.89233 872.098-3.29224 872.098-1.69214 871.539-0.368164 870.42 0.679687 869.302 1.72754 867.893 2.25146 866.194 2.25146 864.494 2.25146 863.085 1.72754 861.967 0.679687 860.848-0.368164 860.289-1.69922 860.289-3.31348 860.289-4.27637 860.423-5.58618 860.692-7.24292 860.961-8.89966 861.096-10.2095 861.096-11.1724 861.096-12.7583 861.053-15.1443 860.969-18.3303 860.884-21.5164 860.841-23.9023 860.841-25.4883 860.841-27.1592 860.841-29.623 860.841-32.8799 860.869-36.1367 860.884-38.6006 860.884-40.2715 860.884-41.8574 861.443-43.1743 862.562-44.2222 863.68-45.27 865.089-45.7939 866.788-45.7939 868.488-45.7939 869.904-45.27 871.036-44.2222 872.169-43.1743 872.736-41.8574 872.736-40.2715 872.736-38.459 872.764-36.1934 872.821-33.4746 872.906-29.708 872.948-27.4707 872.948-26.7627 878.924-27.8955 885.225-28.3911 891.852-28.2495L891.852-29.1841C891.852-30.6284 891.908-32.6958 892.022-35.3862 892.135-38.0767 892.192-40.1157 892.192-41.5034 892.192-43.0894 892.758-44.4062 893.891-45.4541 895.024-46.5019 896.44-47.0259 898.139-47.0259 899.838-47.0259 901.247-46.5019 902.366-45.4541 903.484-44.4062 904.044-43.0894 904.044-41.5034 904.044-40.0874 903.987-38.0342 903.874-35.3437 903.76-32.6533 903.704-30.6001 903.704-29.1841 903.704-26.2954 903.76-22.0898 903.874-16.5674 903.987-11.0449 904.044-6.83935 904.044-3.95068 904.044-2.36475 903.484-1.04785 902.366 0 901.247 1.04785 899.838 1.57178 898.139 1.57178ZM957.967-3.05859C957.967-1.50098 957.4-0.191162 956.268 0.87085 955.135 1.93286 953.733 2.46387 952.062 2.46387 950.363 2.46387 948.947 1.93286 947.814 0.87085 946.681-0.191162 946.115-1.50098 946.115-3.05859 946.115-4.75781 946.2-7.31372 946.37-10.7263 946.539-14.1389 946.624-16.6948 946.625-18.394 946.624-19.9517 946.554-21.5942 946.412-23.3218 941.144-16.2134 936.415-10.9883 932.224-7.64648 928.429-4.64453 925.611-2.25854 923.77-0.488525 921.929 1.28149 919.947 2.1665 917.823 2.1665 916.237 2.1665 914.821 1.77002 913.575 0.977051 912.13 0.0141602 911.408-1.33105 911.408-3.05859 911.408-10.5635 911.267-18.394 910.983-26.5503 910.672-35.0181 910.516-39.167 910.516-38.9971 910.516-40.6113 911.068-41.9495 912.173-43.0115 913.277-44.0735 914.707-44.6045 916.463-44.6045 919.635-44.6045 921.575-42.9619 922.283-39.6768 922.396-39.2236 922.524-36.4766 922.666-31.4355L923.09-15.2505C926.744-18.5356 930.638-22.5996 934.772-27.4424 935.735-28.5752 939.261-32.9224 945.35-40.4839 947.361-43.0044 949.598-44.2646 952.062-44.2646 953.733-44.2646 955.135-43.7336 956.268-42.6716 957.4-41.6096 957.967-40.2998 957.967-38.7422 957.967-35.7969 958.023-31.3789 958.137-25.4883 958.25-19.5977 958.307-15.1797 958.307-12.2344 958.307-11.2148 958.25-9.68555 958.137-7.64648 958.023-5.60742 957.967-4.07812 957.967-3.05859ZM999.904 0.594727C997.128 0.594727 995.231-0.679688 994.211-3.22852 993.503-5.04102 991.691-8.00049 988.774-12.1069 985.63-16.5532 983.577-18.7764 982.614-18.7764 982.387-18.8047 981.255-18.8188 979.216-18.8188L979.173-11.0874C979.173-10.7192 979.187-10.0962 979.216-9.21826 979.244-8.34033 979.258-7.66064 979.258-7.1792 979.258-1.65674 977.205 1.10449 973.098 1.10449 971.512 1.10449 970.139 0.665527 968.978-0.212402 967.732-1.20361 967.109-2.49219 967.109-4.07812 967.109-5.32422 967.165-7.27124 967.279-9.91919 967.392-12.5671 967.448-14.5283 967.448-15.8027 967.448-18.3232 967.349-22.0898 967.151-27.1025 966.953-32.1152 966.854-35.8677 966.854-38.3599 966.854-42.8345 968.879-45.0718 972.928-45.0718 974.543-45.0718 975.916-44.6045 977.049-43.6699 978.267-42.6504 978.876-41.376 978.876-39.8467 978.876-37.7793 978.946-34.4092 979.088-29.7363 982.118-29.708 984.214-30.3311 985.375-31.6055 985.573-31.8037 986.55-33.5879 988.306-36.958 990.798-41.8008 994.013-44.2222 997.949-44.2222 999.252-44.2222 1000.67-43.8257 1002.2-43.0327 1004.04-42.0981 1004.96-40.9653 1004.96-39.6343 1004.96-38.3315 1004.53-37.227 1003.66-36.3208 1002.8-35.4145 1001.7-34.9614 1000.37-34.9614 999.634-34.9614 998.572-33.6587 997.185-31.0532 996.448-29.5239 995.698-27.9946 994.933-26.4653 994.339-25.4458 993.715-24.582 993.064-23.874 996.038-21.4385 998.87-18.2524 1001.56-14.3159 1004.48-10.1245 1005.94-6.86767 1005.94-4.54541 1005.94-2.95947 1005.26-1.6709 1003.9-0.679687 1002.74 0.169922 1001.4 0.594727 999.904 0.594727ZM1047.04 2.33643C1045.73 2.33643 1043.67 1.07617 1040.83-1.44434 1038.23-0.198242 1035.93 0.743408 1033.95 1.38062 1031.97 2.01782 1030.28 2.33643 1028.9 2.33643 1022.07 2.33643 1016.95 0.509765 1013.54-3.14355 1010.13-6.79687 1008.42-12.2627 1008.42-19.541 1008.42-26.3662 1010.94-32.2073 1015.98-37.0642 1021.02-41.9211 1027.06-44.3496 1034.08-44.3496 1036.77-44.3496 1039.88-43.5925 1043.42-42.0782 1047.7-40.2556 1049.84-38.1386 1049.84-35.7274 1049.84-34.718 1049.51-33.8348 1048.86-33.0777 1048.58-31.9559 1048.36-30.5469 1048.2-28.8505 1048.05-27.1542 1047.97-25.1703 1047.97-22.899 1047.97-17.5438 1048.35-13.6884 1049.12-11.333 1049.2-11.0808 1049.85-9.62271 1051.07-6.95883 1052.18-4.54718 1052.73-3.1732 1052.73-2.8369 1052.73-1.35097 1052.15-0.117264 1051.01 0.864212 1049.86 1.84569 1048.54 2.33643 1047.04 2.33643ZM1036.5-26.3379C1036.5-27.2441 1036.56-28.2849 1036.69-29.4602 1036.82-30.6355 1037.01-31.9453 1037.26-33.3896 1036.7-33.6728 1036.2-33.8782 1035.76-34.0056 1035.32-34.1331 1034.94-34.1968 1034.63-34.1968 1030.78-34.1968 1027.41-32.6887 1024.52-29.6726 1021.63-26.6565 1020.19-23.166 1020.19-19.2012 1020.19-15.4062 1020.87-12.553 1022.23-10.6414 1023.59-8.72974 1025.63-7.77393 1028.34-7.77393 1030.1-7.77393 1031.76-8.06421 1033.34-8.64477 1034.91-9.22534 1036.39-10.082 1037.77-11.2148 1036.92-17.9551 1036.5-22.9961 1036.5-26.3379ZM1071.46-21.5376C1070.46-18.7622 1069.08-14.585 1067.29-9.00586 1066.76-6.65527 1066.23-4.30469 1065.72-1.9541 1064.7 0.651367 1062.8 1.9541 1060.03 1.9541 1058.3 1.9541 1056.92 1.48682 1055.89 0.552246 1054.85-0.382324 1054.34-1.50098 1054.34-2.80371 1054.34-5.97559 1055.19-9.79883 1056.89-14.2734 1059.41-21.0137 1060.75-24.7236 1060.92-25.4033 1061.66-28.4053 1062.39-31.4072 1063.13-34.4092 1064.23-38.4307 1065.47-41.1636 1066.85-42.6079 1068.22-44.0522 1069.91-44.7744 1071.92-44.7744 1075.35-44.7744 1077.79-42.0557 1079.23-36.6182 1079.32-36.2783 1079.7-34.5508 1080.38-31.4355 1081.37-26.7627 1082.83-21.7642 1084.75-16.4399 1088.69-24.5962 1091.39-31.4639 1092.87-37.043 1094.31-42.4805 1096.87-45.1992 1100.56-45.1992 1103.3-45.1992 1105.36-43.6558 1106.71-40.5688 1107.34-39.1245 1107.98-36.519 1108.63-32.7524 1110.04-24.6245 1111.81-17.7002 1113.94-11.9795 1116.12-6.03223 1117.21-2.73291 1117.21-2.08154 1117.21-0.637207 1116.53 0.509766 1115.17 1.35937 1114.04 2.0957 1112.79 2.46387 1111.43 2.46387 1108.77 2.46387 1106.77 1.00537 1105.44-1.91162 1104.65-4.40381 1103.85-6.88183 1103.06-9.3457 1101.93-12.6592 1100.75-17.1621 1099.54-22.8545 1098.52-20.5322 1096.89-16.9214 1094.65-12.022 1093.89-10.2095 1093.12-8.41113 1092.36-6.62695 1091.45-4.53125 1090.52-2.81787 1089.55-1.48682 1088.17 0.410644 1086.27 1.35937 1083.86 1.35937 1081.54 1.35937 1079.75 0.339844 1078.51-1.69922 1078.31-2.03906 1077.53-3.979 1076.17-7.51904 1074.44-11.937 1072.87-16.6099 1071.46-21.5376ZM1172.25-34.0269C1172.44-32.5825 1172.67-30.4302 1172.93-27.5698 1173.35-16.1284 1173.56-8.12793 1173.56-3.56836 1173.56-1.98242 1173-0.665527 1171.86 0.382324 1170.73 1.43018 1169.31 1.9541 1167.62 1.9541 1165.92 1.9541 1164.51 1.43018 1163.39 0.382324 1162.27-0.665527 1161.71-1.98242 1161.71-3.56836 1161.71-7.95801 1161.51-15.8452 1161.12-27.23 1161.09-28.2778 1160.9-30.0054 1160.56-32.4126 1160.28-34.6216 1160.14-36.335 1160.14-37.5527 1160.14-42.5088 1163.98-44.9868 1171.65-44.9868 1173.24-44.9868 1175.64-44.916 1178.85-44.7744 1182.07-44.6328 1184.47-44.562 1186.05-44.562 1186.7-44.562 1187.67-44.6116 1188.96-44.7107 1190.25-44.8098 1191.22-44.8594 1191.87-44.8594 1193.54-44.8594 1194.94-44.3071 1196.08-43.2026 1197.13-42.1265 1197.65-40.8237 1197.65-39.2944 1197.65-36.689 1196.3-34.9756 1193.61-34.1543 1192.23-33.7295 1189.8-33.5171 1186.35-33.5171 1184.85-33.5171 1182.5-33.602 1179.3-33.772 1176.21-33.9419 1173.86-34.0269 1172.25-34.0269ZM1221.72 2.63379C1215.32 2.63379 1209.85 0.863769 1205.32-2.67627 1200.48-6.49951 1198.05-11.4414 1198.05-17.502 1198.05-24.3555 1200.29-30.6284 1204.77-36.3208 1209.89-42.8628 1216.42-46.1338 1224.35-46.1338 1239.53-46.1338 1247.12-39.4219 1247.12-25.998 1247.12-19.1445 1245.07-12.9141 1240.96-7.30664 1236.09-0.679688 1229.67 2.63379 1221.72 2.63379ZM1224.35-34.9614C1220.58-34.9614 1217.3-33.156 1214.49-29.5452 1211.69-25.9343 1210.29-21.9199 1210.29-17.502 1210.29-14.8398 1211.36-12.6733 1213.5-11.0024 1215.63-9.33154 1218.37-8.49609 1221.72-8.49609 1225.37-8.49609 1228.5-10.3086 1231.1-13.9336 1233.63-17.417 1234.89-21.4385 1234.89-25.998 1234.89-29.5381 1234.16-31.917 1232.7-33.1348 1231.24-34.3525 1228.46-34.9614 1224.35-34.9614ZM1272.34 2.50635C1269.91 2.50635 1267.35 2.22314 1264.66 1.65674L1264.61 18.9888C1264.61 20.6313 1264.06 21.9907 1262.96 23.0669 1261.85 24.1431 1260.45 24.6812 1258.75 24.6812 1257.05 24.6812 1255.65 24.1431 1254.55 23.0669 1253.44 21.9907 1252.89 20.6313 1252.89 18.9888 1252.89 17.6577 1252.92 12.376 1252.97 3.14355 1253.03-3.70996 1253.03-9.30322 1252.97-13.6362 1252.89-19.7534 1252.69-25.021 1252.38-29.439 1251.95-35.5278 1251.74-38.3174 1251.74-37.8076 1251.74-40.1582 1252.27-42.1689 1253.31-43.8398 1254.53-45.7373 1256.17-46.686 1258.24-46.686 1259.83-46.686 1261.16-46.1479 1262.23-45.0718 1263.31-43.9956 1263.85-42.707 1263.85-41.2061L1263.81-40.7812C1265.7-41.8574 1267.61-42.6575 1269.52-43.1814 1271.43-43.7053 1273.35-43.9673 1275.28-43.9673 1281.79-43.9673 1286.55-41.2061 1289.55-35.6836 1291.79-31.5205 1292.9-26.1255 1292.9-19.4985 1292.9-13.2964 1291.13-8.15625 1287.59-4.07812 1283.8 0.311523 1278.72 2.50635 1272.34 2.50635ZM1275.28-32.625C1273.49-32.625 1271.68-32.2073 1269.84-31.3718 1268-30.5364 1266.14-29.2832 1264.27-27.6123 1264.61-21.7783 1264.78-15.9302 1264.78-10.0679 1267.3-9.24658 1269.82-8.83594 1272.34-8.83594 1275.26-8.83594 1277.5-9.86963 1279.06-11.937 1280.47-13.8062 1281.18-16.3267 1281.18-19.4985 1281.18-23.3218 1281.01-25.9697 1280.67-27.4424 1279.85-30.8975 1278.05-32.625 1275.28-32.625ZM1319.69 2.63379C1313.28 2.63379 1307.82 0.863769 1303.29-2.67627 1298.44-6.49951 1296.02-11.4414 1296.02-17.502 1296.02-24.3555 1298.26-30.6284 1302.74-36.3208 1307.86-42.8628 1314.39-46.1338 1322.32-46.1338 1337.5-46.1338 1345.09-39.4219 1345.09-25.998 1345.09-19.1445 1343.04-12.9141 1338.93-7.30664 1334.06-0.679688 1327.64 2.63379 1319.69 2.63379ZM1322.32-34.9614C1318.55-34.9614 1315.27-33.156 1312.46-29.5452 1309.66-25.9343 1308.26-21.9199 1308.26-17.502 1308.26-14.8398 1309.33-12.6733 1311.47-11.0024 1313.6-9.33154 1316.34-8.49609 1319.69-8.49609 1323.34-8.49609 1326.47-10.3086 1329.07-13.9336 1331.59-17.417 1332.85-21.4385 1332.85-25.998 1332.85-29.5381 1332.12-31.917 1330.67-33.1348 1329.21-34.3525 1326.43-34.9614 1322.32-34.9614ZM1391.72 10.875C1389.03 10.875 1387.25 9.72803 1386.37 7.43408 1385.8 5.98975 1385.58 3.72412 1385.69 0.637207L1363.81 0.637207C1363.59 0.637207 1361.65 0.778808 1357.99 1.06201 1357.99 1.51514 1358.01 2.24438 1358.04 3.24976 1358.06 4.25513 1358.08 5.02685 1358.08 5.56494 1358.08 7.1792 1357.52 8.51025 1356.4 9.5581 1355.28 10.606 1353.87 11.1299 1352.17 11.1299 1348.1 11.1299 1346.06 8.62353 1346.06 3.61084 1346.06 2.59131 1346.08 1.21777 1346.14-0.509766 1346.2-2.2373 1346.23-3.59668 1346.23-4.58789 1346.23-6.23047 1346.79-7.57568 1347.93-8.62353 1348.97-9.58642 1350.32-10.0962 1351.96-10.1528 1354.48-13.7212 1356.21-17.9551 1357.14-22.8545 1357.8-26.3379 1358.12-30.9116 1358.12-36.5757 1358.12-42.1548 1361.15-44.9443 1367.21-44.9443 1367.92-44.9443 1369.24-44.8948 1371.18-44.7957 1373.12-44.6965 1374.66-44.647 1375.79-44.647 1376.87-44.647 1378.47-44.7319 1380.59-44.9019 1382.72-45.0718 1384.25-45.1567 1385.18-45.1567 1388.01-45.1567 1389.9-44.0947 1390.83-41.9707 1391.4-40.6963 1391.68-38.5723 1391.68-35.5986 1391.68-34.3809 1391.6-32.5684 1391.45-30.1611 1391.29-27.7539 1391.21-25.9414 1391.21-24.7236 1391.21-23.6475 1391.28-18.479 1391.43-9.21826 1395.45-8.82178 1397.46-6.98096 1397.46-3.6958 1397.46-2.59131 1397.49-1.09033 1397.54 0.807129 1397.6 2.70459 1397.63 4.19141 1397.63 5.26758 1397.63 6.88184 1397.07 8.21997 1395.95 9.28198 1394.83 10.344 1393.42 10.875 1391.72 10.875ZM1364.15-9.68555 1379.57-9.68555C1379.43-19.0029 1379.36-24.0156 1379.36-24.7236 1379.36-25.8564 1379.43-27.5415 1379.57-29.7788 1379.74-32.5542 1379.83-34.2534 1379.83-34.8765 1374.82-34.7349 1371.49-34.7065 1369.85-34.7915 1369.59-24.9927 1367.69-16.624 1364.15-9.68555ZM1438.91 2.33643C1437.61 2.33643 1435.54 1.07617 1432.71-1.44434 1430.1-0.198242 1427.81 0.743408 1425.83 1.38062 1423.84 2.01782 1422.16 2.33643 1420.77 2.33643 1413.95 2.33643 1408.83 0.509765 1405.41-3.14355 1402-6.79687 1400.3-12.2627 1400.3-19.541 1400.3-26.3662 1402.82-32.2073 1407.86-37.0642 1412.9-41.9211 1418.93-44.3496 1425.95-44.3496 1428.64-44.3496 1431.76-43.5925 1435.3-42.0782 1439.58-40.2556 1441.71-38.1386 1441.71-35.7274 1441.71-34.718 1441.39-33.8348 1440.74-33.0777 1440.45-31.9559 1440.23-30.5469 1440.08-28.8505 1439.92-27.1542 1439.84-25.1703 1439.84-22.899 1439.84-17.5438 1440.23-13.6884 1440.99-11.333 1441.08-11.0808 1441.73-9.62271 1442.95-6.95883 1444.05-4.54718 1444.6-3.1732 1444.6-2.8369 1444.6-1.35097 1444.03-0.117264 1442.88 0.864212 1441.74 1.84569 1440.41 2.33643 1438.91 2.33643ZM1428.38-26.3379C1428.38-27.2441 1428.44-28.2849 1428.57-29.4602 1428.69-30.6355 1428.88-31.9453 1429.14-33.3896 1428.57-33.6728 1428.07-33.8782 1427.63-34.0056 1427.19-34.1331 1426.82-34.1968 1426.51-34.1968 1422.65-34.1968 1419.28-32.6887 1416.4-29.6726 1413.51-26.6565 1412.06-23.166 1412.06-19.2012 1412.06-15.4062 1412.74-12.553 1414.1-10.6414 1415.46-8.72974 1417.5-7.77393 1420.22-7.77393 1421.97-7.77393 1423.64-8.06421 1425.21-8.64477 1426.78-9.22534 1428.26-10.082 1429.65-11.2148 1428.8-17.9551 1428.38-22.9961 1428.38-26.3379Z" fill="#462100" transform="matrix(0.20011 0 0 0.2 40.3396 42)"/><path d="M76.2949-60.2798C76.2949-56.2017 73.2788-54.3184 67.2466-54.6299 66.9351-50.5234 66.7793-44.9019 66.7793-37.7651 66.7793-36.2925 66.928-32.6038 67.2253-26.699 67.5227-20.7942 67.6714-15.6045 67.6714-11.1299 67.6714-10.2236 67.7988-8.87842 68.0537-7.09424 68.3086-5.31006 68.436-3.96484 68.436-3.05859 68.436-1.44434 67.8625-0.106201 66.7156 0.95581 65.5686 2.01782 64.1597 2.54883 62.4888 2.54883 59.0337 2.54883 57.0796 0.807129 56.6265-2.67627 56.0884-6.75439 55.8193-9.57226 55.8193-11.1299 55.8193-15.5195 55.6777-20.5747 55.3945-26.2954 55.1113-32.0161 54.9697-35.8394 54.9697-37.7651 54.9697-45.1851 55.1113-50.8916 55.3945-54.8848 54.0635-54.6865 50.7642-54.5874 45.4966-54.5874 38.5015-54.5874 31.6904-54.7007 25.0635-54.9272 25.1768-53.8228 25.3184-52.1519 25.4883-49.9145 25.9414-36.0376 26.168-28.5327 26.168-27.3999 26.168-26.0688 26.083-24.2139 25.9131-21.835 25.7148-19.2295 25.6016-17.3745 25.5732-16.27 25.5449-15.1655 25.5449-13.7354 25.5732-11.9795 25.6016-9.62891 25.6157-8.18457 25.6157-7.64648 25.6157-4.38965 25.4033-2.1665 24.9785-0.977051 24.1572 1.40186 22.3589 2.59131 19.5835 2.59131 17.9126 2.59131 16.5037 2.06738 15.3567 1.01953 14.2097-0.0283203 13.6362-1.35937 13.6362-2.97363 13.6362-9.71387 13.6645-14.231 13.7212-16.5249 13.7495-17.6011 13.8628-19.4136 14.061-21.9624 14.231-24.2847 14.3159-26.0972 14.3159-27.3999 14.3159-28.4194 14.0894-35.8252 13.6362-49.6172 13.6362-49.7021 13.4805-51.543 13.1689-55.1396 11.4697-55.1113 9.96875-55.0972 8.66601-55.0972 6.9668-55.0972 5.55786-55.6353 4.43921-56.7114 3.32056-57.7876 2.76123-59.1328 2.76123-60.7471 2.76123-64.6269 5.73486-66.5669 11.6821-66.5669 12.0786-66.5669 12.645-66.5669 13.3813-66.5669 14.1177-66.5386 14.6416-66.5244 14.9531-66.5244 17.1904-66.5244 20.5251-66.4394 24.9573-66.2695 29.3894-66.0996 32.7241-66.0146 34.9614-66.0146L70.3476-65.9297C72.0469-65.9297 73.4629-65.3916 74.5957-64.3154 75.7285-63.2393 76.2949-61.894 76.2949-60.2798ZM120.056 2.33643C118.753 2.33643 116.686 1.07617 113.854-1.44434 111.249-0.198242 108.955 0.743408 106.972 1.38062 104.99 2.01782 103.305 2.33643 101.917 2.33643 95.0918 2.33643 89.9729 0.509765 86.5603-3.14355 83.1477-6.79687 81.4414-12.2627 81.4414-19.541 81.4414-26.3662 83.9619-32.2073 89.0029-37.0642 94.0439-41.9211 100.076-44.3496 107.1-44.3496 109.79-44.3496 112.905-43.5925 116.445-42.0782 120.722-40.2556 122.86-38.1386 122.86-35.7274 122.86-34.718 122.534-33.8348 121.883-33.0777 121.6-31.9559 121.38-30.5469 121.224-28.8505 121.069-27.1542 120.991-25.1703 120.991-22.899 120.991-17.5438 121.373-13.6884 122.138-11.333 122.223-11.0808 122.874-9.62271 124.092-6.95883 125.196-4.54718 125.749-3.1732 125.749-2.8369 125.749-1.35097 125.175-0.117264 124.028 0.864212 122.881 1.84569 121.557 2.33643 120.056 2.33643ZM109.521-26.3379C109.521-27.2441 109.585-28.2849 109.712-29.4602 109.84-30.6355 110.031-31.9453 110.286-33.3896 109.719-33.6728 109.217-33.8782 108.778-34.0056 108.339-34.1331 107.963-34.1968 107.652-34.1968 103.8-34.1968 100.43-32.6887 97.5415-29.6726 94.6528-26.6565 93.2085-23.166 93.2085-19.2012 93.2085-15.4062 93.8882-12.553 95.2476-10.6414 96.6069-8.72974 98.646-7.77393 101.365-7.77393 103.121-7.77393 104.784-8.06421 106.356-8.64477 107.928-9.22534 109.408-10.082 110.795-11.2148 109.946-17.9551 109.521-22.9961 109.521-26.3379ZM144.477-21.5376C143.486-18.7622 142.098-14.585 140.314-9.00586 139.776-6.65527 139.252-4.30469 138.742-1.9541 137.723 0.651367 135.825 1.9541 133.05 1.9541 131.322 1.9541 129.942 1.48682 128.908 0.552246 127.874-0.382324 127.357-1.50098 127.357-2.80371 127.357-5.97559 128.207-9.79883 129.906-14.2734 132.427-21.0137 133.772-24.7236 133.942-25.4033 134.678-28.4053 135.415-31.4072 136.151-34.4092 137.255-38.4307 138.494-41.1636 139.868-42.6079 141.241-44.0522 142.934-44.7744 144.944-44.7744 148.371-44.7744 150.807-42.0557 152.251-36.6182 152.336-36.2783 152.718-34.5508 153.398-31.4355 154.389-26.7627 155.848-21.7642 157.773-16.4399 161.71-24.5962 164.415-31.4639 165.887-37.043 167.332-42.4805 169.895-45.1992 173.576-45.1992 176.323-45.1992 178.376-43.6558 179.736-40.5688 180.359-39.1245 180.996-36.519 181.647-32.7524 183.063-24.6245 184.833-17.7002 186.958-11.9795 189.138-6.03223 190.228-2.73291 190.229-2.08154 190.228-0.637207 189.549 0.509766 188.189 1.35937 187.057 2.0957 185.811 2.46387 184.451 2.46387 181.789 2.46387 179.792 1.00537 178.461-1.91162 177.668-4.40381 176.875-6.88183 176.083-9.3457 174.95-12.6592 173.774-17.1621 172.557-22.8545 171.537-20.5322 169.909-16.9214 167.671-12.022 166.907-10.2095 166.142-8.41113 165.377-6.62695 164.471-4.53125 163.537-2.81787 162.574-1.48682 161.186 0.410644 159.289 1.35937 156.881 1.35937 154.559 1.35937 152.775 0.339844 151.529-1.69922 151.331-2.03906 150.552-3.979 149.192-7.51904 147.465-11.937 145.893-16.6099 144.477-21.5376ZM225.678 1.5293C224.007 1.5293 222.577 1.01953 221.388 0 220.113-1.04785 219.476-2.37891 219.476-3.99316 219.476-4.78613 219.42-7.25 219.306-11.3848 214.86-9.74219 208.969-5.94726 201.634 0 200.332 1.04785 198.902 1.57178 197.344 1.57178 195.701 1.57178 194.25 1.04077 192.99-0.0212402 191.729-1.08325 191.099-2.39307 191.099-3.95068 191.099-6.61279 195.149-10.3228 203.249-15.0806 197.273-18.0259 194.285-21.6509 194.285-25.9556 194.285-32.5259 198.93-37.8643 208.219-41.9707 212.042-43.6699 217.352-44.5195 224.149-44.5195 226.132-44.5195 227.781-43.8611 229.098-42.5442 230.415-41.2273 231.073-39.6484 231.073-37.8076 231.073-34.0693 231.208-28.4407 231.477-20.9216 231.746-13.4026 231.881-7.75976 231.881-3.99316 231.881-2.40723 231.257-1.09033 230.011-0.0424805 228.765 1.00537 227.321 1.5293 225.678 1.5293ZM218.627-33.8569C216.418-33.7153 214.039-32.9365 211.49-31.5205 208.545-29.8779 206.959-28.0937 206.732-26.168 207.865-24.2422 209.663-22.9678 212.127-22.3447 213.685-21.9199 215.993-21.7217 219.051-21.75 218.91-24.3838 218.768-28.4194 218.627-33.8569ZM269.793-33.602C269.028-33.602 267.888-33.6374 266.373-33.7082 264.858-33.779 263.718-33.8144 262.954-33.8144 262.529-33.8144 262.061-33.7861 261.552-33.7295 262.146-21.0137 262.444-12.0361 262.444-6.79687 262.444-0.453125 260.376 2.71875 256.242 2.71875 254.712 2.71875 253.367 2.25146 252.206 1.31689 250.96 0.325684 250.337-0.93457 250.337-2.46387 250.337-3.45508 250.379-4.96313 250.464-6.98804 250.549-9.01294 250.592-10.521 250.592-11.5122 250.592-15.3921 250.337-22.7412 249.827-33.5596 249.317-33.5596 248.057-33.5596 246.046-33.5596 243.158-33.5596 241.048-33.8286 239.717-34.3667 237.593-35.2163 236.531-36.8447 236.531-39.2519 236.531-40.7812 237.062-42.1052 238.124-43.2239 239.186-44.3425 240.566-44.9019 242.266-44.9019L267.372-44.9019C272.894-44.9019 275.655-43.0044 275.655-39.2095 275.655-37.6235 275.11-36.2925 274.02-35.2163 272.929-34.1401 271.52-33.602 269.793-33.602ZM316.056 1.57178C314.356 1.57178 312.94 1.04785 311.808 0 310.675-1.04785 310.108-2.36475 310.108-3.95068 310.108-6.41455 310.052-10.8325 309.938-17.2046 309.4-17.2046 308.933-17.2046 308.537-17.2046 302.448-17.2046 296.543-16.5957 290.822-15.3779 290.794-14.2734 290.638-12.2769 290.355-9.38818 290.128-6.92432 290.015-4.89233 290.015-3.29224 290.015-1.69214 289.456-0.368164 288.337 0.679687 287.218 1.72754 285.81 2.25146 284.11 2.25146 282.411 2.25146 281.002 1.72754 279.884 0.679687 278.765-0.368164 278.206-1.69922 278.206-3.31348 278.206-4.27637 278.34-5.58618 278.609-7.24292 278.878-8.89966 279.013-10.2095 279.013-11.1724 279.013-12.7583 278.97-15.1443 278.885-18.3303 278.8-21.5164 278.758-23.9023 278.758-25.4883 278.758-27.1592 278.758-29.623 278.758-32.8799 278.786-36.1367 278.8-38.6006 278.8-40.2715 278.8-41.8574 279.36-43.1743 280.478-44.2222 281.597-45.27 283.006-45.7939 284.705-45.7939 286.404-45.7939 287.82-45.27 288.953-44.2222 290.086-43.1743 290.652-41.8574 290.652-40.2715 290.652-38.459 290.681-36.1934 290.737-33.4746 290.822-29.708 290.865-27.4707 290.865-26.7627 296.84-27.8955 303.142-28.3911 309.769-28.2495L309.769-29.1841C309.769-30.6284 309.825-32.6958 309.938-35.3862 310.052-38.0767 310.108-40.1157 310.108-41.5034 310.108-43.0894 310.675-44.4062 311.808-45.4541 312.94-46.5019 314.356-47.0259 316.056-47.0259 317.755-47.0259 319.164-46.5019 320.282-45.4541 321.401-44.4062 321.96-43.0894 321.96-41.5034 321.96-40.0874 321.904-38.0342 321.79-35.3437 321.677-32.6533 321.621-30.6001 321.621-29.1841 321.621-26.2954 321.677-22.0898 321.79-16.5674 321.904-11.0449 321.96-6.83935 321.96-3.95068 321.96-2.36475 321.401-1.04785 320.282 0 319.164 1.04785 317.755 1.57178 316.056 1.57178ZM375.883-3.05859C375.883-1.50098 375.317-0.191162 374.184 0.87085 373.051 1.93286 371.65 2.46387 369.979 2.46387 368.279 2.46387 366.863 1.93286 365.731 0.87085 364.598-0.191162 364.031-1.50098 364.031-3.05859 364.031-4.75781 364.116-7.31372 364.286-10.7263 364.456-14.1389 364.541-16.6948 364.541-18.394 364.541-19.9517 364.47-21.5942 364.329-23.3218 359.061-16.2134 354.332-10.9883 350.14-7.64648 346.345-4.64453 343.527-2.25854 341.687-0.488525 339.846 1.28149 337.863 2.1665 335.739 2.1665 334.153 2.1665 332.737 1.77002 331.491 0.977051 330.047 0.0141602 329.325-1.33105 329.325-3.05859 329.325-10.5635 329.183-18.394 328.9-26.5503 328.589-35.0181 328.433-39.167 328.433-38.9971 328.433-40.6113 328.985-41.9495 330.089-43.0115 331.194-44.0735 332.624-44.6045 334.38-44.6045 337.552-44.6045 339.492-42.9619 340.2-39.6768 340.313-39.2236 340.441-36.4766 340.582-31.4355L341.007-15.2505C344.66-18.5356 348.554-22.5996 352.689-27.4424 353.652-28.5752 357.178-32.9224 363.267-40.4839 365.277-43.0044 367.515-44.2646 369.979-44.2646 371.65-44.2646 373.051-43.7336 374.184-42.6716 375.317-41.6096 375.883-40.2998 375.883-38.7422 375.883-35.7969 375.94-31.3789 376.053-25.4883 376.167-19.5977 376.223-15.1797 376.223-12.2344 376.223-11.2148 376.167-9.68555 376.053-7.64648 375.94-5.60742 375.883-4.07812 375.883-3.05859ZM417.82 0.594727C415.045 0.594727 413.147-0.679688 412.128-3.22852 411.42-5.04102 409.607-8.00049 406.69-12.1069 403.547-16.5532 401.493-18.7764 400.531-18.7764 400.304-18.8047 399.171-18.8188 397.132-18.8188L397.09-11.0874C397.09-10.7192 397.104-10.0962 397.132-9.21826 397.16-8.34033 397.175-7.66064 397.175-7.1792 397.175-1.65674 395.121 1.10449 391.015 1.10449 389.429 1.10449 388.055 0.665527 386.894-0.212402 385.648-1.20361 385.025-2.49219 385.025-4.07812 385.025-5.32422 385.082-7.27124 385.195-9.91919 385.308-12.5671 385.365-14.5283 385.365-15.8027 385.365-18.3232 385.266-22.0898 385.068-27.1025 384.869-32.1152 384.77-35.8677 384.77-38.3599 384.77-42.8345 386.795-45.0718 390.845-45.0718 392.459-45.0718 393.833-44.6045 394.966-43.6699 396.183-42.6504 396.792-41.376 396.792-39.8467 396.792-37.7793 396.863-34.4092 397.005-29.7363 400.035-29.708 402.131-30.3311 403.292-31.6055 403.49-31.8037 404.467-33.5879 406.223-36.958 408.715-41.8008 411.929-44.2222 415.866-44.2222 417.169-44.2222 418.585-43.8257 420.114-43.0327 421.955-42.0981 422.875-40.9653 422.875-39.6343 422.875-38.3315 422.443-37.227 421.58-36.3208 420.716-35.4145 419.618-34.9614 418.287-34.9614 417.551-34.9614 416.489-33.6587 415.101-31.0532 414.365-29.5239 413.615-27.9946 412.85-26.4653 412.255-25.4458 411.632-24.582 410.981-23.874 413.954-21.4385 416.786-18.2524 419.477-14.3159 422.394-10.1245 423.852-6.86767 423.852-4.54541 423.852-2.95947 423.173-1.6709 421.813-0.679687 420.652 0.169922 419.321 0.594727 417.82 0.594727ZM496.69 0.0424805 479.825 0C474.472 0 471.796-1.68506 471.796-5.05518 471.796-8.8501 474.784-10.7476 480.76-10.7476 481.326-10.7476 481.949-10.7334 482.629-10.7051L482.629-48.3853C480.165-46.686 478.565-45.8364 477.828-45.8364 476.242-45.8364 474.862-46.4028 473.687-47.5356 472.511-48.6685 471.924-49.9853 471.924-51.4863 471.924-53.0439 472.872-54.644 474.77-56.2866L479.57-59.77 484.753-63.9331C486.877-65.4624 488.93-66.227 490.912-66.227 493.461-66.227 494.736-64.6977 494.736-61.6392 494.736-58.269 494.594-53.5254 494.311-47.4082 494.028-41.291 493.886-32.5542 493.886-21.1978L493.886-10.9175 496.69-10.9175C498.332-10.9175 499.713-10.3936 500.832-9.3457 501.95-8.29785 502.51-6.99512 502.51-5.4375 502.51-3.87988 501.95-2.57715 500.832-1.5293 499.713-0.481445 498.332 0.0424805 496.69 0.0424805ZM545.978-17.5444 529.028-17.5444C519.937-17.5444 515.392-19.3994 515.392-23.1094 515.392-24.667 516.185-26.4087 517.771-28.3345 519.073-29.8071 520.39-31.2939 521.721-32.7949 526.281-39.3086 533.234-48.9941 542.579-61.8516 544.788-64.7969 547.663-66.2695 551.203-66.2695 552.874-66.2695 554.318-65.8447 555.536-64.9951 556.98-63.9756 557.702-62.5454 557.702-60.7046L557.745-28.7593C561.455-28.646 563.933-28.2637 565.179-27.6123 566.567-26.8477 567.26-25.3467 567.26-23.1094 567.289-20.7588 566.213-19.1445 564.032-18.2666 562.503-17.6719 560.407-17.4312 557.745-17.5444 557.83-13.4663 557.816-9.04834 557.702-4.29053 557.674-2.73291 557.164-1.44434 556.173-0.424805 555.182 0.594726 553.837 1.10449 552.137 1.10449 547.833 1.10449 545.78-1.72754 545.978-7.3916ZM545.978-47.833C543.231-43.5 538.997-37.1421 533.276-28.7593L545.978-28.7593ZM625.389 1.99658C621.594 1.99658 618.168 1.43018 615.109 0.297363 611.003-1.23193 608.949-3.4834 608.949-6.45703 608.949-7.58984 609.523-8.72974 610.67-9.87671 611.817-11.0237 613.028-11.5972 614.302-11.5972 615.633-11.5972 617.467-11.1157 619.803-10.1528 622.14-9.18994 624.002-8.7085 625.389-8.7085 626.466-8.7085 627.528-9.19702 628.575-10.1741 629.623-11.1511 630.147-12.1494 630.147-13.1689 630.147-14.7549 629.029-15.9302 626.791-16.6948 624.667-17.2895 622.557-17.8701 620.462-18.4365 618.196-19.2295 617.063-20.4331 617.063-22.0474 617.063-24.1147 617.899-25.5449 619.57-26.3379 620.504-26.8193 622.218-27.2017 624.71-27.4849 626.522-27.6831 627.754-27.9946 628.406-28.4194 629.283-29.0142 629.722-30.0903 629.722-31.6479 629.722-33.7436 627.556-34.7915 623.223-34.7915 622.345-34.7915 621.127-34.2534 619.57-33.1772 618.012-32.1011 616.553-31.563 615.194-31.563 613.693-31.563 612.362-32.0161 611.201-32.9224 609.955-33.8853 609.332-35.1172 609.332-36.6182 609.332-39.1103 611.187-41.291 614.897-43.1602 618.012-44.7178 620.787-45.4966 623.223-45.4966 627.556-45.4966 631.45-44.562 634.905-42.6929 639.21-40.3706 641.362-37.1421 641.362-33.0073 641.362-28.7593 639.989-25.2476 637.241-22.4722 640.13-19.187 641.574-16.0859 641.574-13.1689 641.574-8.58105 640.102-4.90649 637.156-2.14526 634.211 0.615967 630.289 1.99658 625.389 1.99658ZM685.525 2.33643C684.222 2.33643 682.155 1.07617 679.323-1.44434 676.717-0.198242 674.423 0.743408 672.441 1.38062 670.458 2.01782 668.773 2.33643 667.386 2.33643 660.56 2.33643 655.442 0.509765 652.029-3.14355 648.616-6.79687 646.91-12.2627 646.91-19.541 646.91-26.3662 649.431-32.2073 654.472-37.0642 659.513-41.9211 665.545-44.3496 672.568-44.3496 675.259-44.3496 678.374-43.5925 681.914-42.0782 686.19-40.2556 688.329-38.1386 688.329-35.7274 688.329-34.718 688.003-33.8348 687.352-33.0777 687.068-31.9559 686.849-30.5469 686.693-28.8505 686.537-27.1542 686.459-25.1703 686.459-22.899 686.459-17.5438 686.842-13.6884 687.606-11.333 687.691-11.0808 688.343-9.62271 689.56-6.95883 690.665-4.54718 691.217-3.1732 691.217-2.8369 691.217-1.35097 690.644-0.117264 689.497 0.864212 688.35 1.84569 687.026 2.33643 685.525 2.33643ZM674.99-26.3379C674.99-27.2441 675.053-28.2849 675.181-29.4602 675.308-30.6355 675.499-31.9453 675.754-33.3896 675.188-33.6728 674.685-33.8782 674.246-34.0056 673.807-34.1331 673.432-34.1968 673.121-34.1968 669.269-34.1968 665.899-32.6887 663.01-29.6726 660.122-26.6565 658.677-23.166 658.677-19.2012 658.677-15.4062 659.357-12.553 660.716-10.6414 662.076-8.72974 664.115-7.77393 666.833-7.77393 668.589-7.77393 670.253-8.06421 671.825-8.64477 673.397-9.22534 674.876-10.082 676.264-11.2148 675.414-17.9551 674.99-22.9961 674.99-26.3379ZM756.122-8.9209 756.589-8.9209C758.175-8.9209 759.563-8.36157 760.752-7.24292 761.942-6.12427 762.536-4.81445 762.537-3.31348 762.536-1.9541 762.473-0.00708002 762.345 2.52759 762.218 5.06226 762.154 7.06592 762.154 8.53857 762.154 10.2944 761.545 11.6963 760.328 12.7441 759.223 13.6787 757.864 14.146 756.249 14.146 754.635 14.146 753.276 13.6787 752.171 12.7441 750.953 11.6963 750.345 10.2944 750.345 8.53857 750.345 7.0376 750.401 4.98437 750.515 2.37891 748.221 2.66211 746.918 2.80371 746.606 2.80371 741.565 2.80371 734.032 2.67627 724.007 2.42139 713.981 2.1665 706.448 2.03906 701.407 2.03906 699.821 2.03906 698.441 1.47974 697.265 0.361084 696.09-0.757568 695.502-2.06738 695.502-3.56836 695.502-3.82324 695.771-6.81104 696.31-12.5317 696.876-18.564 697.159-27.8813 697.159-40.4839 697.159-42.0415 697.725-43.3584 698.858-44.4346 699.991-45.5107 701.393-46.0488 703.064-46.0488 704.735-46.0488 706.137-45.5107 707.269-44.4346 708.402-43.3584 708.969-42.0415 708.969-40.4839 708.969-27.145 708.558-16.5815 707.737-8.79346 709.323-8.68017 711.064-8.62353 712.962-8.62353 713.783-8.62353 714.987-8.65893 716.573-8.72974 718.159-8.80054 719.348-8.83594 720.141-8.83594 720.339-10.5918 720.438-12.6875 720.438-15.123 720.438-17.1055 720.368-20.0862 720.226-24.0652 720.084-28.0442 720.014-31.0391 720.014-33.0498 720.014-36.0801 720.424-38.6714 721.246-40.8237 722.407-43.854 724.233-45.3691 726.726-45.3691 728.283-45.3691 729.685-44.8452 730.931-43.7974 732.177-42.7495 732.8-41.4468 732.8-39.8892 732.8-39.3794 732.637-38.282 732.312-36.5969 731.986-34.9119 731.823-33.5737 731.823-32.5825 731.823-30.7134 731.901-27.9167 732.057-24.1926 732.213-20.4685 732.29-17.686 732.29-15.8452 732.29-14.939 732.234-13.7637 732.121-12.3193 732.007-10.5352 731.936-9.35986 731.908-8.79346 733.494-8.68017 735.25-8.62353 737.176-8.62353 740.008-8.62353 742.401-8.73682 744.355-8.96338 744.553-10.6909 744.652-12.7441 744.652-15.123 744.652-17.1055 744.581-20.0862 744.44-24.0652 744.298-28.0442 744.227-31.0391 744.227-33.0498 744.227-36.0801 744.638-38.6714 745.459-40.8237 746.62-43.854 748.447-45.3691 750.939-45.3691 752.497-45.3691 753.899-44.8452 755.145-43.7974 756.391-42.7495 757.014-41.4468 757.014-39.8892 757.014-39.3794 756.851-38.282 756.526-36.5969 756.2-34.9119 756.037-33.5737 756.037-32.5825 756.037-30.7134 756.115-27.9167 756.271-24.1926 756.426-20.4685 756.504-17.686 756.504-15.8452 756.504-14.9673 756.448-13.8062 756.334-12.3618 756.221-10.5776 756.15-9.43066 756.122-8.9209ZM812.446-3.05859C812.446-1.50098 811.879-0.191162 810.747 0.87085 809.614 1.93286 808.212 2.46387 806.541 2.46387 804.842 2.46387 803.426 1.93286 802.293 0.87085 801.16-0.191162 800.594-1.50098 800.594-3.05859 800.594-4.75781 800.679-7.31372 800.849-10.7263 801.019-14.1389 801.104-16.6948 801.104-18.394 801.104-19.9517 801.033-21.5942 800.891-23.3218 795.624-16.2134 790.894-10.9883 786.703-7.64648 782.908-4.64453 780.09-2.25854 778.249-0.488525 776.408 1.28149 774.426 2.1665 772.302 2.1665 770.716 2.1665 769.3 1.77002 768.054 0.977051 766.609 0.0141602 765.887-1.33105 765.887-3.05859 765.887-10.5635 765.746-18.394 765.463-26.5503 765.151-35.0181 764.995-39.167 764.995-38.9971 764.995-40.6113 765.547-41.9495 766.652-43.0115 767.756-44.0735 769.187-44.6045 770.943-44.6045 774.114-44.6045 776.054-42.9619 776.762-39.6768 776.876-39.2236 777.003-36.4766 777.145-31.4355L777.569-15.2505C781.223-18.5356 785.117-22.5996 789.252-27.4424 790.214-28.5752 793.74-32.9224 799.829-40.4839 801.84-43.0044 804.077-44.2646 806.541-44.2646 808.212-44.2646 809.614-43.7336 810.747-42.6716 811.879-41.6096 812.446-40.2998 812.446-38.7422 812.446-35.7969 812.503-31.3789 812.616-25.4883 812.729-19.5977 812.786-15.1797 812.786-12.2344 812.786-11.2148 812.729-9.68555 812.616-7.64648 812.503-5.60742 812.446-4.07812 812.446-3.05859ZM851.876-33.602C851.112-33.602 849.972-33.6374 848.457-33.7082 846.941-33.779 845.802-33.8144 845.037-33.8144 844.612-33.8144 844.145-33.7861 843.635-33.7295 844.23-21.0137 844.527-12.0361 844.527-6.79687 844.527-0.453125 842.46 2.71875 838.325 2.71875 836.796 2.71875 835.45 2.25146 834.289 1.31689 833.043 0.325684 832.42-0.93457 832.42-2.46387 832.42-3.45508 832.463-4.96313 832.548-6.98804 832.633-9.01294 832.675-10.521 832.675-11.5122 832.675-15.3921 832.42-22.7412 831.91-33.5596 831.401-33.5596 830.14-33.5596 828.13-33.5596 825.241-33.5596 823.131-33.8286 821.8-34.3667 819.676-35.2163 818.614-36.8447 818.614-39.2519 818.614-40.7812 819.145-42.1052 820.207-43.2239 821.269-44.3425 822.65-44.9019 824.349-44.9019L849.455-44.9019C854.977-44.9019 857.739-43.0044 857.739-39.2095 857.739-37.6235 857.193-36.2925 856.103-35.2163 855.013-34.1401 853.604-33.602 851.876-33.602ZM898.139 1.57178C896.44 1.57178 895.024 1.04785 893.891 0 892.758-1.04785 892.192-2.36475 892.192-3.95068 892.192-6.41455 892.135-10.8325 892.022-17.2046 891.484-17.2046 891.016-17.2046 890.62-17.2046 884.531-17.2046 878.626-16.5957 872.906-15.3779 872.877-14.2734 872.721-12.2769 872.438-9.38818 872.212-6.92432 872.098-4.89233 872.098-3.29224 872.098-1.69214 871.539-0.368164 870.42 0.679687 869.302 1.72754 867.893 2.25146 866.194 2.25146 864.494 2.25146 863.085 1.72754 861.967 0.679687 860.848-0.368164 860.289-1.69922 860.289-3.31348 860.289-4.27637 860.423-5.58618 860.692-7.24292 860.961-8.89966 861.096-10.2095 861.096-11.1724 861.096-12.7583 861.053-15.1443 860.969-18.3303 860.884-21.5164 860.841-23.9023 860.841-25.4883 860.841-27.1592 860.841-29.623 860.841-32.8799 860.869-36.1367 860.884-38.6006 860.884-40.2715 860.884-41.8574 861.443-43.1743 862.562-44.2222 863.68-45.27 865.089-45.7939 866.788-45.7939 868.488-45.7939 869.904-45.27 871.036-44.2222 872.169-43.1743 872.736-41.8574 872.736-40.2715 872.736-38.459 872.764-36.1934 872.821-33.4746 872.906-29.708 872.948-27.4707 872.948-26.7627 878.924-27.8955 885.225-28.3911 891.852-28.2495L891.852-29.1841C891.852-30.6284 891.908-32.6958 892.022-35.3862 892.135-38.0767 892.192-40.1157 892.192-41.5034 892.192-43.0894 892.758-44.4062 893.891-45.4541 895.024-46.5019 896.44-47.0259 898.139-47.0259 899.838-47.0259 901.247-46.5019 902.366-45.4541 903.484-44.4062 904.044-43.0894 904.044-41.5034 904.044-40.0874 903.987-38.0342 903.874-35.3437 903.76-32.6533 903.704-30.6001 903.704-29.1841 903.704-26.2954 903.76-22.0898 903.874-16.5674 903.987-11.0449 904.044-6.83935 904.044-3.95068 904.044-2.36475 903.484-1.04785 902.366 0 901.247 1.04785 899.838 1.57178 898.139 1.57178ZM957.967-3.05859C957.967-1.50098 957.4-0.191162 956.268 0.87085 955.135 1.93286 953.733 2.46387 952.062 2.46387 950.363 2.46387 948.947 1.93286 947.814 0.87085 946.681-0.191162 946.115-1.50098 946.115-3.05859 946.115-4.75781 946.2-7.31372 946.37-10.7263 946.539-14.1389 946.624-16.6948 946.625-18.394 946.624-19.9517 946.554-21.5942 946.412-23.3218 941.144-16.2134 936.415-10.9883 932.224-7.64648 928.429-4.64453 925.611-2.25854 923.77-0.488525 921.929 1.28149 919.947 2.1665 917.823 2.1665 916.237 2.1665 914.821 1.77002 913.575 0.977051 912.13 0.0141602 911.408-1.33105 911.408-3.05859 911.408-10.5635 911.267-18.394 910.983-26.5503 910.672-35.0181 910.516-39.167 910.516-38.9971 910.516-40.6113 911.068-41.9495 912.173-43.0115 913.277-44.0735 914.707-44.6045 916.463-44.6045 919.635-44.6045 921.575-42.9619 922.283-39.6768 922.396-39.2236 922.524-36.4766 922.666-31.4355L923.09-15.2505C926.744-18.5356 930.638-22.5996 934.772-27.4424 935.735-28.5752 939.261-32.9224 945.35-40.4839 947.361-43.0044 949.598-44.2646 952.062-44.2646 953.733-44.2646 955.135-43.7336 956.268-42.6716 957.4-41.6096 957.967-40.2998 957.967-38.7422 957.967-35.7969 958.023-31.3789 958.137-25.4883 958.25-19.5977 958.307-15.1797 958.307-12.2344 958.307-11.2148 958.25-9.68555 958.137-7.64648 958.023-5.60742 957.967-4.07812 957.967-3.05859ZM999.904 0.594727C997.128 0.594727 995.231-0.679688 994.211-3.22852 993.503-5.04102 991.691-8.00049 988.774-12.1069 985.63-16.5532 983.577-18.7764 982.614-18.7764 982.387-18.8047 981.255-18.8188 979.216-18.8188L979.173-11.0874C979.173-10.7192 979.187-10.0962 979.216-9.21826 979.244-8.34033 979.258-7.66064 979.258-7.1792 979.258-1.65674 977.205 1.10449 973.098 1.10449 971.512 1.10449 970.139 0.665527 968.978-0.212402 967.732-1.20361 967.109-2.49219 967.109-4.07812 967.109-5.32422 967.165-7.27124 967.279-9.91919 967.392-12.5671 967.448-14.5283 967.448-15.8027 967.448-18.3232 967.349-22.0898 967.151-27.1025 966.953-32.1152 966.854-35.8677 966.854-38.3599 966.854-42.8345 968.879-45.0718 972.928-45.0718 974.543-45.0718 975.916-44.6045 977.049-43.6699 978.267-42.6504 978.876-41.376 978.876-39.8467 978.876-37.7793 978.946-34.4092 979.088-29.7363 982.118-29.708 984.214-30.3311 985.375-31.6055 985.573-31.8037 986.55-33.5879 988.306-36.958 990.798-41.8008 994.013-44.2222 997.949-44.2222 999.252-44.2222 1000.67-43.8257 1002.2-43.0327 1004.04-42.0981 1004.96-40.9653 1004.96-39.6343 1004.96-38.3315 1004.53-37.227 1003.66-36.3208 1002.8-35.4145 1001.7-34.9614 1000.37-34.9614 999.634-34.9614 998.572-33.6587 997.185-31.0532 996.448-29.5239 995.698-27.9946 994.933-26.4653 994.339-25.4458 993.715-24.582 993.064-23.874 996.038-21.4385 998.87-18.2524 1001.56-14.3159 1004.48-10.1245 1005.94-6.86767 1005.94-4.54541 1005.94-2.95947 1005.26-1.6709 1003.9-0.679687 1002.74 0.169922 1001.4 0.594727 999.904 0.594727ZM1047.04 2.33643C1045.73 2.33643 1043.67 1.07617 1040.83-1.44434 1038.23-0.198242 1035.93 0.743408 1033.95 1.38062 1031.97 2.01782 1030.28 2.33643 1028.9 2.33643 1022.07 2.33643 1016.95 0.509765 1013.54-3.14355 1010.13-6.79687 1008.42-12.2627 1008.42-19.541 1008.42-26.3662 1010.94-32.2073 1015.98-37.0642 1021.02-41.9211 1027.06-44.3496 1034.08-44.3496 1036.77-44.3496 1039.88-43.5925 1043.42-42.0782 1047.7-40.2556 1049.84-38.1386 1049.84-35.7274 1049.84-34.718 1049.51-33.8348 1048.86-33.0777 1048.58-31.9559 1048.36-30.5469 1048.2-28.8505 1048.05-27.1542 1047.97-25.1703 1047.97-22.899 1047.97-17.5438 1048.35-13.6884 1049.12-11.333 1049.2-11.0808 1049.85-9.62271 1051.07-6.95883 1052.18-4.54718 1052.73-3.1732 1052.73-2.8369 1052.73-1.35097 1052.15-0.117264 1051.01 0.864212 1049.86 1.84569 1048.54 2.33643 1047.04 2.33643ZM1036.5-26.3379C1036.5-27.2441 1036.56-28.2849 1036.69-29.4602 1036.82-30.6355 1037.01-31.9453 1037.26-33.3896 1036.7-33.6728 1036.2-33.8782 1035.76-34.0056 1035.32-34.1331 1034.94-34.1968 1034.63-34.1968 1030.78-34.1968 1027.41-32.6887 1024.52-29.6726 1021.63-26.6565 1020.19-23.166 1020.19-19.2012 1020.19-15.4062 1020.87-12.553 1022.23-10.6414 1023.59-8.72974 1025.63-7.77393 1028.34-7.77393 1030.1-7.77393 1031.76-8.06421 1033.34-8.64477 1034.91-9.22534 1036.39-10.082 1037.77-11.2148 1036.92-17.9551 1036.5-22.9961 1036.5-26.3379ZM1071.46-21.5376C1070.46-18.7622 1069.08-14.585 1067.29-9.00586 1066.76-6.65527 1066.23-4.30469 1065.72-1.9541 1064.7 0.651367 1062.8 1.9541 1060.03 1.9541 1058.3 1.9541 1056.92 1.48682 1055.89 0.552246 1054.85-0.382324 1054.34-1.50098 1054.34-2.80371 1054.34-5.97559 1055.19-9.79883 1056.89-14.2734 1059.41-21.0137 1060.75-24.7236 1060.92-25.4033 1061.66-28.4053 1062.39-31.4072 1063.13-34.4092 1064.23-38.4307 1065.47-41.1636 1066.85-42.6079 1068.22-44.0522 1069.91-44.7744 1071.92-44.7744 1075.35-44.7744 1077.79-42.0557 1079.23-36.6182 1079.32-36.2783 1079.7-34.5508 1080.38-31.4355 1081.37-26.7627 1082.83-21.7642 1084.75-16.4399 1088.69-24.5962 1091.39-31.4639 1092.87-37.043 1094.31-42.4805 1096.87-45.1992 1100.56-45.1992 1103.3-45.1992 1105.36-43.6558 1106.71-40.5688 1107.34-39.1245 1107.98-36.519 1108.63-32.7524 1110.04-24.6245 1111.81-17.7002 1113.94-11.9795 1116.12-6.03223 1117.21-2.73291 1117.21-2.08154 1117.21-0.637207 1116.53 0.509766 1115.17 1.35937 1114.04 2.0957 1112.79 2.46387 1111.43 2.46387 1108.77 2.46387 1106.77 1.00537 1105.44-1.91162 1104.65-4.40381 1103.85-6.88183 1103.06-9.3457 1101.93-12.6592 1100.75-17.1621 1099.54-22.8545 1098.52-20.5322 1096.89-16.9214 1094.65-12.022 1093.89-10.2095 1093.12-8.41113 1092.36-6.62695 1091.45-4.53125 1090.52-2.81787 1089.55-1.48682 1088.17 0.410644 1086.27 1.35937 1083.86 1.35937 1081.54 1.35937 1079.75 0.339844 1078.51-1.69922 1078.31-2.03906 1077.53-3.979 1076.17-7.51904 1074.44-11.937 1072.87-16.6099 1071.46-21.5376ZM1172.25-34.0269C1172.44-32.5825 1172.67-30.4302 1172.93-27.5698 1173.35-16.1284 1173.56-8.12793 1173.56-3.56836 1173.56-1.98242 1173-0.665527 1171.86 0.382324 1170.73 1.43018 1169.31 1.9541 1167.62 1.9541 1165.92 1.9541 1164.51 1.43018 1163.39 0.382324 1162.27-0.665527 1161.71-1.98242 1161.71-3.56836 1161.71-7.95801 1161.51-15.8452 1161.12-27.23 1161.09-28.2778 1160.9-30.0054 1160.56-32.4126 1160.28-34.6216 1160.14-36.335 1160.14-37.5527 1160.14-42.5088 1163.98-44.9868 1171.65-44.9868 1173.24-44.9868 1175.64-44.916 1178.85-44.7744 1182.07-44.6328 1184.47-44.562 1186.05-44.562 1186.7-44.562 1187.67-44.6116 1188.96-44.7107 1190.25-44.8098 1191.22-44.8594 1191.87-44.8594 1193.54-44.8594 1194.94-44.3071 1196.08-43.2026 1197.13-42.1265 1197.65-40.8237 1197.65-39.2944 1197.65-36.689 1196.3-34.9756 1193.61-34.1543 1192.23-33.7295 1189.8-33.5171 1186.35-33.5171 1184.85-33.5171 1182.5-33.602 1179.3-33.772 1176.21-33.9419 1173.86-34.0269 1172.25-34.0269ZM1221.72 2.63379C1215.32 2.63379 1209.85 0.863769 1205.32-2.67627 1200.48-6.49951 1198.05-11.4414 1198.05-17.502 1198.05-24.3555 1200.29-30.6284 1204.77-36.3208 1209.89-42.8628 1216.42-46.1338 1224.35-46.1338 1239.53-46.1338 1247.12-39.4219 1247.12-25.998 1247.12-19.1445 1245.07-12.9141 1240.96-7.30664 1236.09-0.679688 1229.67 2.63379 1221.72 2.63379ZM1224.35-34.9614C1220.58-34.9614 1217.3-33.156 1214.49-29.5452 1211.69-25.9343 1210.29-21.9199 1210.29-17.502 1210.29-14.8398 1211.36-12.6733 1213.5-11.0024 1215.63-9.33154 1218.37-8.49609 1221.72-8.49609 1225.37-8.49609 1228.5-10.3086 1231.1-13.9336 1233.63-17.417 1234.89-21.4385 1234.89-25.998 1234.89-29.5381 1234.16-31.917 1232.7-33.1348 1231.24-34.3525 1228.46-34.9614 1224.35-34.9614ZM1272.34 2.50635C1269.91 2.50635 1267.35 2.22314 1264.66 1.65674L1264.61 18.9888C1264.61 20.6313 1264.06 21.9907 1262.96 23.0669 1261.85 24.1431 1260.45 24.6812 1258.75 24.6812 1257.05 24.6812 1255.65 24.1431 1254.55 23.0669 1253.44 21.9907 1252.89 20.6313 1252.89 18.9888 1252.89 17.6577 1252.92 12.376 1252.97 3.14355 1253.03-3.70996 1253.03-9.30322 1252.97-13.6362 1252.89-19.7534 1252.69-25.021 1252.38-29.439 1251.95-35.5278 1251.74-38.3174 1251.74-37.8076 1251.74-40.1582 1252.27-42.1689 1253.31-43.8398 1254.53-45.7373 1256.17-46.686 1258.24-46.686 1259.83-46.686 1261.16-46.1479 1262.23-45.0718 1263.31-43.9956 1263.85-42.707 1263.85-41.2061L1263.81-40.7812C1265.7-41.8574 1267.61-42.6575 1269.52-43.1814 1271.43-43.7053 1273.35-43.9673 1275.28-43.9673 1281.79-43.9673 1286.55-41.2061 1289.55-35.6836 1291.79-31.5205 1292.9-26.1255 1292.9-19.4985 1292.9-13.2964 1291.13-8.15625 1287.59-4.07812 1283.8 0.311523 1278.72 2.50635 1272.34 2.50635ZM1275.28-32.625C1273.49-32.625 1271.68-32.2073 1269.84-31.3718 1268-30.5364 1266.14-29.2832 1264.27-27.6123 1264.61-21.7783 1264.78-15.9302 1264.78-10.0679 1267.3-9.24658 1269.82-8.83594 1272.34-8.83594 1275.26-8.83594 1277.5-9.86963 1279.06-11.937 1280.47-13.8062 1281.18-16.3267 1281.18-19.4985 1281.18-23.3218 1281.01-25.9697 1280.67-27.4424 1279.85-30.8975 1278.05-32.625 1275.28-32.625ZM1319.69 2.63379C1313.28 2.63379 1307.82 0.863769 1303.29-2.67627 1298.44-6.49951 1296.02-11.4414 1296.02-17.502 1296.02-24.3555 1298.26-30.6284 1302.74-36.3208 1307.86-42.8628 1314.39-46.1338 1322.32-46.1338 1337.5-46.1338 1345.09-39.4219 1345.09-25.998 1345.09-19.1445 1343.04-12.9141 1338.93-7.30664 1334.06-0.679688 1327.64 2.63379 1319.69 2.63379ZM1322.32-34.9614C1318.55-34.9614 1315.27-33.156 1312.46-29.5452 1309.66-25.9343 1308.26-21.9199 1308.26-17.502 1308.26-14.8398 1309.33-12.6733 1311.47-11.0024 1313.6-9.33154 1316.34-8.49609 1319.69-8.49609 1323.34-8.49609 1326.47-10.3086 1329.07-13.9336 1331.59-17.417 1332.85-21.4385 1332.85-25.998 1332.85-29.5381 1332.12-31.917 1330.67-33.1348 1329.21-34.3525 1326.43-34.9614 1322.32-34.9614ZM1391.72 10.875C1389.03 10.875 1387.25 9.72803 1386.37 7.43408 1385.8 5.98975 1385.58 3.72412 1385.69 0.637207L1363.81 0.637207C1363.59 0.637207 1361.65 0.778808 1357.99 1.06201 1357.99 1.51514 1358.01 2.24438 1358.04 3.24976 1358.06 4.25513 1358.08 5.02685 1358.08 5.56494 1358.08 7.1792 1357.52 8.51025 1356.4 9.5581 1355.28 10.606 1353.87 11.1299 1352.17 11.1299 1348.1 11.1299 1346.06 8.62353 1346.06 3.61084 1346.06 2.59131 1346.08 1.21777 1346.14-0.509766 1346.2-2.2373 1346.23-3.59668 1346.23-4.58789 1346.23-6.23047 1346.79-7.57568 1347.93-8.62353 1348.97-9.58642 1350.32-10.0962 1351.96-10.1528 1354.48-13.7212 1356.21-17.9551 1357.14-22.8545 1357.8-26.3379 1358.12-30.9116 1358.12-36.5757 1358.12-42.1548 1361.15-44.9443 1367.21-44.9443 1367.92-44.9443 1369.24-44.8948 1371.18-44.7957 1373.12-44.6965 1374.66-44.647 1375.79-44.647 1376.87-44.647 1378.47-44.7319 1380.59-44.9019 1382.72-45.0718 1384.25-45.1567 1385.18-45.1567 1388.01-45.1567 1389.9-44.0947 1390.83-41.9707 1391.4-40.6963 1391.68-38.5723 1391.68-35.5986 1391.68-34.3809 1391.6-32.5684 1391.45-30.1611 1391.29-27.7539 1391.21-25.9414 1391.21-24.7236 1391.21-23.6475 1391.28-18.479 1391.43-9.21826 1395.45-8.82178 1397.46-6.98096 1397.46-3.6958 1397.46-2.59131 1397.49-1.09033 1397.54 0.807129 1397.6 2.70459 1397.63 4.19141 1397.63 5.26758 1397.63 6.88184 1397.07 8.21997 1395.95 9.28198 1394.83 10.344 1393.42 10.875 1391.72 10.875ZM1364.15-9.68555 1379.57-9.68555C1379.43-19.0029 1379.36-24.0156 1379.36-24.7236 1379.36-25.8564 1379.43-27.5415 1379.57-29.7788 1379.74-32.5542 1379.83-34.2534 1379.83-34.8765 1374.82-34.7349 1371.49-34.7065 1369.85-34.7915 1369.59-24.9927 1367.69-16.624 1364.15-9.68555ZM1438.91 2.33643C1437.61 2.33643 1435.54 1.07617 1432.71-1.44434 1430.1-0.198242 1427.81 0.743408 1425.83 1.38062 1423.84 2.01782 1422.16 2.33643 1420.77 2.33643 1413.95 2.33643 1408.83 0.509765 1405.41-3.14355 1402-6.79687 1400.3-12.2627 1400.3-19.541 1400.3-26.3662 1402.82-32.2073 1407.86-37.0642 1412.9-41.9211 1418.93-44.3496 1425.95-44.3496 1428.64-44.3496 1431.76-43.5925 1435.3-42.0782 1439.58-40.2556 1441.71-38.1386 1441.71-35.7274 1441.71-34.718 1441.39-33.8348 1440.74-33.0777 1440.45-31.9559 1440.23-30.5469 1440.08-28.8505 1439.92-27.1542 1439.84-25.1703 1439.84-22.899 1439.84-17.5438 1440.23-13.6884 1440.99-11.333 1441.08-11.0808 1441.73-9.62271 1442.95-6.95883 1444.05-4.54718 1444.6-3.1732 1444.6-2.8369 1444.6-1.35097 1444.03-0.117264 1442.88 0.864212 1441.74 1.84569 1440.41 2.33643 1438.91 2.33643ZM1428.38-26.3379C1428.38-27.2441 1428.44-28.2849 1428.57-29.4602 1428.69-30.6355 1428.88-31.9453 1429.14-33.3896 1428.57-33.6728 1428.07-33.8782 1427.63-34.0056 1427.19-34.1331 1426.82-34.1968 1426.51-34.1968 1422.65-34.1968 1419.28-32.6887 1416.4-29.6726 1413.51-26.6565 1412.06-23.166 1412.06-19.2012 1412.06-15.4062 1412.74-12.553 1414.1-10.6414 1415.46-8.72974 1417.5-7.77393 1420.22-7.77393 1421.97-7.77393 1423.64-8.06421 1425.21-8.64477 1426.78-9.22534 1428.26-10.082 1429.65-11.2148 1428.8-17.9551 1428.38-22.9961 1428.38-26.3379Z" fill="#462100" transform="matrix(0.20011 0 0 0.2 40.3396 42)"/></g></g><path d="M554 1891.5C554.355 1858.09 574.322 1827.77 611.542 1821 684.351 1808.11 782.102 1830.76 829.32 1821 876.538 1811.24 934.124 1814.26 1002.04 1821 1069.96 1827.74 1139.3 1826.71 1219.82 1821 1300.34 1815.29 1357.29 1831.26 1407.56 1821 1457.82 1810.74 1553.4 1833.99 1625.34 1821 1697.27 1808.01 1720.63 1828.68 1798.06 1821 1875.48 1813.32 2019.06 1827.87 2113.46 1821 2148.26 1817.32 2168.47 1845.63 2171 1891.5L2171 1891.5C2171.07 1932.39 2143.92 1955.59 2113.46 1962 2045.75 1965.27 1999.02 1958.31 1895.68 1962 1792.34 1965.69 1790.78 1966.99 1722.96 1962 1655.14 1957.01 1635.28 1960.68 1580.28 1962 1525.27 1963.32 1469.28 1961.14 1422.58 1962 1375.88 1962.86 1324.24 1953.48 1264.88 1962 1205.52 1970.52 1154.05 1970.13 1107.17 1962 1060.3 1953.87 994.203 1968.91 964.492 1962 934.781 1955.09 765.544 1952.52 611.542 1962 582.088 1966.07 558.4 1924.8 554 1891.5L554 1891.5Z" fill="#FFFFFF" fill-rule="evenodd"/><path d="M554 1891.5C558.081 1860.18 579.501 1823.3 611.542 1821 665.356 1817 705.4 1823.49 784.262 1821 863.124 1818.51 893.843 1827.31 972.002 1821 1050.16 1814.69 1087.87 1830.61 1129.7 1821 1171.54 1811.39 1236.23 1824.97 1302.42 1821 1368.62 1817.03 1408.62 1830.4 1475.14 1821 1541.66 1811.6 1607.89 1810.65 1692.92 1821 1777.95 1831.35 1800.2 1811.11 1880.66 1821 1961.13 1830.89 2008.18 1825.57 2113.46 1821 2142.37 1816.51 2169.4 1856.53 2171 1891.5L2171 1891.5C2170.26 1933.28 2148.52 1964.59 2113.46 1962 2056.58 1969.05 1995.11 1969.03 1955.76 1962 1916.41 1954.97 1844.52 1960.89 1753 1962 1661.48 1963.11 1591.53 1970.75 1535.22 1962 1478.91 1953.25 1424.9 1969.84 1347.48 1962 1270.06 1954.17 1252.11 1966 1159.74 1962 1067.37 1958 1048.85 1954.27 1017.06 1962 985.266 1969.73 907.42 1954.38 799.281 1962 691.143 1969.62 653.986 1960.42 611.542 1962 572.504 1959.76 546.634 1931.55 554 1891.5L554 1891.5Z" stroke="#462100" stroke-width="10.3125" stroke-miterlimit="8" fill="none" fill-rule="evenodd"/><text fill="#462100" font-family="Comic Sans MS,Comic Sans MS_MSFontService,sans-serif" font-weight="700" font-size="87" transform="matrix(1 0 0 1 651.588 1916)"> 14  </text><path d="M1404 1970C1404 1991.54 1386.54 2009 1365 2009 1343.46 2009 1326 1991.54 1326 1970 1326 1948.46 1343.46 1931 1365 1931 1386.54 1931 1404 1948.46 1404 1970Z" fill="#F2EBEA" fill-rule="evenodd"/><path d="M1387.14 1969.26C1387.65 1981.52 1378.12 1991.87 1365.86 1992.38 1353.6 1992.89 1343.25 1983.37 1342.74 1971.11 1342.23 1958.85 1351.76 1948.5 1364.02 1947.99 1376.28 1947.48 1386.63 1957 1387.14 1969.26Z" fill="#C9AFAB" fill-rule="evenodd"/><path d="M1431.45 2010.11C1426.69 2009.84 1422.54 2012.59 1420.7 2016.61L1420.7 2011.7C1420.7 2005.54 1415.7 2000.55 1409.55 2000.55L1409.55 2000.55C1405.48 2000.55 1401.93 2002.75 1399.99 2005.98L1399.99 2005.32C1399.99 1999.16 1394.99 1994.18 1388.85 1994.18L1388.85 1994.18C1383.52 1994.18 1379.06 1997.92 1377.95 2002.94L1377.95 1972.62C1377.95 1966.9 1373.84 1961.74 1368.16 1961.08 1361.4 1960.28 1355.66 1965.54 1355.66 1972.15L1355.66 2037.64C1355.66 2038.4 1354.63 2038.65 1354.28 2037.97L1343.25 2016.32C1340.66 2010.73 1334.03 2008.31 1328.44 2010.93 1322.86 2013.53 1320.44 2020.16 1323.05 2025.74L1342.05 2076.36 1356.59 2102.98C1357.27 2104.23 1358.57 2105 1360 2105L1427.73 2105C1429.56 2105 1431.13 2103.74 1431.51 2101.96L1441.11 2058.18C1441.69 2055.89 1442 2053.54 1442 2051.2L1442 2021.77C1442 2015.95 1437.29 2010.48 1431.47 2010.15Z" fill="#875E21" fill-rule="evenodd"/></g></svg>