<svg width="937" height="377" xmlns="http://www.w3.org/2000/svg" xmlns:xlink="http://www.w3.org/1999/xlink" overflow="hidden"><defs><filter id="fx0" x="-10%" y="-10%" width="120%" height="120%" filterUnits="userSpaceOnUse" primitiveUnits="userSpaceOnUse"><feComponentTransfer color-interpolation-filters="sRGB"><feFuncR type="discrete" tableValues="0 0"/><feFuncG type="discrete" tableValues="0 0"/><feFuncB type="discrete" tableValues="0 0"/><feFuncA type="linear" slope="0.219608" intercept="0"/></feComponentTransfer><feGaussianBlur stdDeviation="6.4235 6.41667"/></filter><clipPath id="clip1"><rect x="2417" y="2100" width="937" height="377"/></clipPath><clipPath id="clip2"><rect x="-17.4185" y="-17.4" width="89.8956" height="57.8"/></clipPath><clipPath id="clip3"><rect x="0" y="0" width="188" height="76"/></clipPath></defs><g clip-path="url(#clip1)" transform="translate(-2417 -2100)"><g clip-path="url(#clip2)" filter="url(#fx0)" transform="matrix(4.99468 0 0 5 2416 2098)"><g clip-path="url(#clip3)"><path d="M20.6219 36.9C19.5993 29.916 26.9432 21.7053 34.7259 22.8 48.7157 22.9274 59.366 23.608 71.8711 22.8 84.3762 21.992 93.0942 22.681 109.016 22.8 124.938 22.919 144.243 20.9329 153.274 22.8 161.637 23.0952 167.615 30.0226 167.378 36.9L167.378 36.9C168.423 44.5808 159.709 51.6759 153.274 51.0001 139.476 50.9157 121.107 50.3214 112.573 51.0001 104.038 51.6787 85.4698 50.8033 75.4274 51 65.3851 51.1967 53.5769 50.8529 34.7259 51 26.8931 50.7656 20.9593 45.5134 20.6219 36.9L20.6219 36.9Z" fill="#FFFFFF" fill-rule="evenodd"/><path d="M20.6219 36.9C20.2663 28.8977 28.546 21.846 34.7259 22.8 53.011 24.0074 62.7838 23.3931 75.4275 22.8 88.0713 22.2069 108.455 21.4868 117.315 22.8 126.174 24.1132 136.09 21.5428 153.274 22.8 160.881 24.6771 167.545 27.5679 167.378 36.9L167.378 36.9C166.997 43.1819 160.939 50.7555 153.274 51.0001 138.955 52.402 126.111 49.2009 112.573 51.0001 99.0342 52.7992 84.8881 51.5949 75.4274 51 65.9668 50.4051 46.0535 49.3765 34.7259 51 28.3682 49.8516 21.1516 43.7518 20.6219 36.9L20.6219 36.9Z" stroke="#462100" stroke-width="2" stroke-miterlimit="8" fill="none" fill-rule="evenodd"/><path d="M46.5586-35.896C43.4717-29.4673 38.5864-19.3711 31.9028-5.60742 28.2778 1.78418 25.5166 7.91553 23.6191 12.7866 23.0244 14.5425 22.0898 17.1479 20.8154 20.603 19.7959 23.2651 17.9834 24.5962 15.3779 24.5962 13.7637 24.5962 12.3477 24.0723 11.1299 23.0244 9.91211 21.9766 9.30322 20.6597 9.30322 19.0737 9.30322 16.4399 12.3052 8.63769 18.3091-4.33301 15.1938-10.4785 10.252-19.5269 3.4834-31.478 2.80371-32.5542 2.10986-33.6445 1.40186-34.749 0.637207-36.0518 0.254883-37.2412 0.254883-38.3174 0.254883-39.8467 0.863769-41.1919 2.08154-42.353 3.29932-43.5142 4.70117-44.0947 6.28711-44.0947 8.15625-44.0947 9.61475-43.4009 10.6626-42.0132 14.6841-36.6606 19.3711-28.6035 24.7236-17.8418 27.7539-24.5537 29.5947-28.6035 30.2461-29.9912 32.2568-34.2109 34.2251-37.9209 36.1509-41.1211 37.3686-43.1602 39.0395-44.1797 41.1636-44.1797 42.7495-44.1797 44.1655-43.6416 45.4116-42.5654 46.6577-41.4893 47.2808-40.1724 47.2808-38.6147 47.2808-37.7935 47.04-36.8872 46.5586-35.896ZM94.1313 1.65674C92.4321 1.65674 91.0232 1.13281 89.9045 0.0849609 88.7859-0.962891 88.2265-2.27979 88.2266-3.86572 88.2265-4.71533 88.1557-5.87646 88.0142-7.34912 87.8442-9.02002 87.7451-10.167 87.7168-10.79 87.6318-12.9424 87.5893-15.7178 87.5893-19.1162 87.5893-20.3623 87.646-25.0635 87.7593-33.2197 86.4282-33.1064 85.1113-33.0498 83.8086-33.0498 79.6738-33.0498 75.6523-33.1206 71.7441-33.2622L71.8291-24.9785C71.8291-16.3975 71.1494-10.2944 69.79-6.66943 67.751-1.28857 63.7578 1.40186 57.8105 1.40186 55.4316 1.40186 53.3076 0.92041 51.4385-0.0424805 48.9463-1.31689 47.7002-3.2002 47.7002-5.69238 47.7002-7.08008 48.1887-8.28369 49.1658-9.30322 50.1428-10.3228 51.4243-10.8325 53.0103-10.8325 53.6333-10.8325 54.4687-10.6343 55.5166-10.2378 56.5644-9.84131 57.3291-9.64307 57.8105-9.64307 59.7363-9.64307 60.6992-13.2822 60.6992-20.5605 60.6992-22.6279 60.5505-25.7148 60.2532-29.8213 59.9558-33.9277 59.8071-37.0146 59.8071-39.082 59.8071-40.7529 60.416-42.084 61.6338-43.0752 62.8516-44.0664 64.3101-44.562 66.0093-44.562 66.7456-44.562 67.7368-44.5337 68.9829-44.477 70.5405-44.3638 71.5317-44.293 71.9565-44.2646 75.0434-44.1514 78.9941-44.0947 83.8086-44.0947 84.8564-44.0947 86.414-44.2788 88.4814-44.647 90.5488-45.0151 92.1206-45.1992 93.1968-45.1992 97.4731-45.1992 99.6113-43.4009 99.6113-39.8042 99.6113-37.5103 99.5759-34.0764 99.5051-29.5027 99.4343-24.929 99.3989-21.5093 99.3989-19.2437 99.3989-16.0151 99.4414-13.3389 99.5264-11.2148 99.5547-10.5352 99.6538-9.30322 99.8237-7.51904 99.9936-5.98975 100.079-4.77197 100.079-3.86572 100.079-2.27979 99.5122-0.962891 98.3794 0.0849609 97.2466 1.13281 95.8306 1.65674 94.1313 1.65674ZM123.005 4.41797C121.107 4.41797 119.465 3.83032 118.077 2.65503 116.689 1.47974 115.995 0.155762 115.995-1.31689 115.995-2.81787 116.689-4.17017 118.077-5.37378 119.465-6.57739 121.107-7.1792 123.005-7.1792 125.015-7.1792 126.672-6.61279 127.975-5.47998 129.278-4.34717 129.929-2.95947 129.929-1.31689 129.929 0.184082 129.249 1.51514 127.89 2.67627 126.531 3.8374 124.902 4.41797 123.005 4.41797ZM256.191-60.2798C256.191-56.2017 253.175-54.3184 247.142-54.6299 246.831-50.5234 246.675-44.9019 246.675-37.7651 246.675-36.2925 246.824-32.6038 247.121-26.699 247.419-20.7942 247.567-15.6045 247.567-11.1299 247.567-10.2236 247.695-8.87842 247.95-7.09424 248.204-5.31006 248.332-3.96484 248.332-3.05859 248.332-1.44434 247.758-0.106201 246.611 0.95581 245.464 2.01782 244.055 2.54883 242.385 2.54883 238.93 2.54883 236.975 0.807129 236.522-2.67627 235.984-6.75439 235.715-9.57226 235.715-11.1299 235.715-15.5195 235.574-20.5747 235.29-26.2954 235.007-32.0161 234.866-35.8394 234.866-37.7651 234.866-45.1851 235.007-50.8916 235.29-54.8848 233.959-54.6865 230.66-54.5874 225.392-54.5874 218.397-54.5874 211.586-54.7007 204.959-54.9272 205.073-53.8228 205.214-52.1519 205.384-49.9145 205.837-36.0376 206.064-28.5327 206.064-27.3999 206.064-26.0688 205.979-24.2139 205.809-21.835 205.611-19.2295 205.497-17.3745 205.469-16.27 205.441-15.1655 205.441-13.7354 205.469-11.9795 205.497-9.62891 205.512-8.18457 205.512-7.64648 205.512-4.38965 205.299-2.1665 204.874-0.977051 204.053 1.40186 202.255 2.59131 199.479 2.59131 197.808 2.59131 196.399 2.06738 195.253 1.01953 194.106-0.0283203 193.532-1.35937 193.532-2.97363 193.532-9.71387 193.56-14.231 193.617-16.5249 193.645-17.6011 193.759-19.4136 193.957-21.9624 194.127-24.2847 194.212-26.0972 194.212-27.3999 194.212-28.4194 193.985-35.8252 193.532-49.6172 193.532-49.7021 193.376-51.543 193.065-55.1396 191.366-55.1113 189.865-55.0972 188.562-55.0972 186.863-55.0972 185.454-55.6353 184.335-56.7114 183.216-57.7876 182.657-59.1328 182.657-60.7471 182.657-64.6269 185.631-66.5669 191.578-66.5669 191.974-66.5669 192.541-66.5669 193.277-66.5669 194.013-66.5386 194.537-66.5244 194.849-66.5244 197.086-66.5244 200.421-66.4394 204.853-66.2695 209.285-66.0996 212.62-66.0146 214.857-66.0146L250.243-65.9297C251.943-65.9297 253.359-65.3916 254.492-64.3154 255.624-63.2393 256.191-61.894 256.191-60.2798ZM284.701 1.9541C277.933 1.9541 272.396 0.339844 268.092-2.88867 263.334-6.45703 260.955-11.4839 260.955-17.9692 260.955-25.1343 262.838-31.1948 266.605-36.1509 270.796-41.645 276.446-44.3921 283.555-44.3921 288.482-44.3921 292.575-43.5991 295.831-42.0132 300.108-39.9175 302.246-36.6606 302.246-32.2427 302.246-29.1274 300.504-26.3662 297.021-23.959 295.435-22.8545 292.249-21.2402 287.463-19.1162L273.147-12.7866C274.506-11.314 276.149-10.2095 278.075-9.47314 280-8.73682 282.209-8.36865 284.701-8.36865 288.496-8.36865 291.711-9.14746 294.345-10.7051 296.695-12.0928 298.578-12.7866 299.994-12.7866 302.94-12.7866 304.412-11.3564 304.412-8.49609 304.412-5.26758 302.048-2.63379 297.318-0.594727 293.353 1.10449 289.148 1.9541 284.701 1.9541ZM283.555-34.1118C280.921-34.1118 278.669-33.2339 276.8-31.478 274.931-29.7222 273.43-27.0884 272.297-23.5767 275.497-24.9644 278.683-26.3379 281.855-27.6973 285.679-29.4248 288.723-31.0249 290.989-32.4976 289.091-33.5737 286.613-34.1118 283.555-34.1118ZM341.98-33.602C341.216-33.602 340.076-33.6374 338.561-33.7082 337.046-33.779 335.906-33.8144 335.141-33.8144 334.716-33.8144 334.249-33.7861 333.739-33.7295 334.334-21.0137 334.631-12.0361 334.631-6.79687 334.631-0.453125 332.564 2.71875 328.429 2.71875 326.9 2.71875 325.555 2.25146 324.394 1.31689 323.147 0.325684 322.524-0.93457 322.524-2.46387 322.524-3.45508 322.567-4.96313 322.652-6.98804 322.737-9.01294 322.779-10.521 322.779-11.5122 322.779-15.3921 322.524-22.7412 322.015-33.5596 321.505-33.5596 320.245-33.5596 318.234-33.5596 315.345-33.5596 313.235-33.8286 311.904-34.3667 309.78-35.2163 308.718-36.8447 308.718-39.2519 308.718-40.7812 309.249-42.1052 310.311-43.2239 311.373-44.3425 312.754-44.9019 314.453-44.9019L339.559-44.9019C345.081-44.9019 347.843-43.0044 347.843-39.2095 347.843-37.6235 347.298-36.2925 346.207-35.2163 345.117-34.1401 343.708-33.602 341.98-33.602ZM372.865 2.50635C370.43 2.50635 367.867 2.22314 365.176 1.65674L365.134 18.9888C365.134 20.6313 364.581 21.9907 363.477 23.0669 362.372 24.1431 360.971 24.6812 359.271 24.6812 357.572 24.6812 356.17 24.1431 355.066 23.0669 353.961 21.9907 353.409 20.6313 353.409 18.9888 353.409 17.6577 353.437 12.376 353.494 3.14355 353.551-3.70996 353.551-9.30322 353.494-13.6362 353.409-19.7534 353.211-25.021 352.899-29.439 352.475-35.5278 352.262-38.3174 352.262-37.8076 352.262-40.1582 352.786-42.1689 353.834-43.8398 355.052-45.7373 356.694-46.686 358.762-46.686 360.348-46.686 361.679-46.1479 362.755-45.0718 363.831-43.9956 364.369-42.707 364.369-41.2061L364.327-40.7812C366.224-41.8574 368.129-42.6575 370.04-43.1814 371.952-43.7053 373.871-43.9673 375.796-43.9673 382.31-43.9673 387.068-41.2061 390.07-35.6836 392.307-31.5205 393.426-26.1255 393.426-19.4985 393.426-13.2964 391.656-8.15625 388.116-4.07812 384.321 0.311523 379.237 2.50635 372.865 2.50635ZM375.796-32.625C374.012-32.625 372.2-32.2073 370.359-31.3718 368.518-30.5364 366.663-29.2832 364.794-27.6123 365.134-21.7783 365.304-15.9302 365.304-10.0679 367.824-9.24658 370.345-8.83594 372.865-8.83594 375.782-8.83594 378.019-9.86963 379.577-11.937 380.993-13.8062 381.701-16.3267 381.701-19.4985 381.701-23.3218 381.531-25.9697 381.191-27.4424 380.37-30.8975 378.572-32.625 375.796-32.625ZM420.206 2.63379C413.806 2.63379 408.34 0.863769 403.809-2.67627 398.966-6.49951 396.544-11.4414 396.544-17.502 396.544-24.3555 398.782-30.6284 403.256-36.3208 408.382-42.8628 414.91-46.1338 422.84-46.1338 438.019-46.1338 445.609-39.4219 445.609-25.998 445.609-19.1445 443.556-12.9141 439.45-7.30664 434.579-0.679688 428.164 2.63379 420.206 2.63379ZM422.84-34.9614C419.073-34.9614 415.788-33.156 412.984-29.5452 410.181-25.9343 408.779-21.9199 408.779-17.502 408.779-14.8398 409.848-12.6733 411.986-11.0024 414.124-9.33154 416.864-8.49609 420.206-8.49609 423.859-8.49609 426.989-10.3086 429.594-13.9336 432.115-17.417 433.375-21.4385 433.375-25.998 433.375-29.5381 432.646-31.917 431.187-33.1348 429.729-34.3525 426.946-34.9614 422.84-34.9614ZM457.113 1.9541C455.583 1.9541 454.167 1.41602 452.865 0.339844 451.449-0.792969 450.741-2.10986 450.741-3.61084L450.741-11.0874C450.741-14.2593 450.797-18.4082 450.911-23.5342 451.081-30.2461 451.165-34.3809 451.165-35.9385 451.194-38.0625 451.378-39.5918 451.718-40.5264 452.284-42.1123 453.417-43.1177 455.116-43.5425 457.552-44.1938 461.021-44.5195 465.524-44.5195 470.367-44.5195 474.785-43.415 478.778-41.2061 483.677-38.5439 486.127-34.9048 486.127-30.2886 486.127-26.8618 484.583-24.1431 481.497-22.1323 486.679-18.8472 489.27-15.3921 489.27-11.7671 489.27-6.61279 485.037-2.84619 476.569-0.467285 470.876 1.14697 464.391 1.9541 457.113 1.9541ZM466.968-34.5366 465.227-34.5366C464.15-34.5366 463.244-34.5225 462.508-34.4941 462.508-33.9277 462.508-32.979 462.508-31.6479 462.508-31.0815 462.55-30.1187 462.635-28.7593 462.748-27.1733 462.805-26.2104 462.805-25.8706 463.995-25.7856 464.887-25.7432 465.481-25.7432 467.379-25.7432 469.248-26.0547 471.089-26.6777 473.553-27.5273 474.785-28.731 474.785-30.2886 474.785-31.2231 473.893-32.1648 472.108-33.1135 470.324-34.0623 468.611-34.5366 466.968-34.5366ZM469.984-18.394C469.361-18.5073 466.756-18.6348 462.168-18.7764 462.111-17.7285 462.083-16.1992 462.083-14.1885L462.083-8.15625C472.335-8.60937 477.461-9.92627 477.461-12.1069 477.461-13.3247 476.498-14.6416 474.572-16.0576 472.873-17.332 471.344-18.1108 469.984-18.394ZM531.983 2.33643C530.68 2.33643 528.613 1.07617 525.781-1.44434 523.176-0.198242 520.882 0.743408 518.899 1.38062 516.917 2.01782 515.232 2.33643 513.844 2.33643 507.019 2.33643 501.9 0.509765 498.487-3.14355 495.075-6.79687 493.368-12.2627 493.368-19.541 493.368-26.3662 495.889-32.2073 500.93-37.0642 505.971-41.9211 512.003-44.3496 519.027-44.3496 521.717-44.3496 524.832-43.5925 528.372-42.0782 532.649-40.2556 534.787-38.1386 534.787-35.7274 534.787-34.718 534.461-33.8348 533.81-33.0777 533.527-31.9559 533.307-30.5469 533.151-28.8505 532.996-27.1542 532.918-25.1703 532.918-22.899 532.918-17.5438 533.3-13.6884 534.065-11.333 534.15-11.0808 534.801-9.62271 536.019-6.95883 537.123-4.54718 537.676-3.1732 537.676-2.8369 537.676-1.35097 537.102-0.117264 535.955 0.864212 534.808 1.84569 533.484 2.33643 531.983 2.33643ZM521.448-26.3379C521.448-27.2441 521.512-28.2849 521.639-29.4602 521.767-30.6355 521.958-31.9453 522.213-33.3896 521.646-33.6728 521.144-33.8782 520.705-34.0056 520.266-34.1331 519.89-34.1968 519.579-34.1968 515.727-34.1968 512.357-32.6887 509.469-29.6726 506.58-26.6565 505.136-23.166 505.136-19.2012 505.136-15.4062 505.815-12.553 507.175-10.6414 508.534-8.72974 510.573-7.77393 513.292-7.77393 515.048-7.77393 516.711-8.06421 518.283-8.64477 519.855-9.22534 521.335-10.082 522.722-11.2148 521.873-17.9551 521.448-22.9961 521.448-26.3379Z" fill="#462100" transform="matrix(0.200213 0 0 0.2 39.7813 42)"/><path d="M46.5586-35.896C43.4717-29.4673 38.5864-19.3711 31.9028-5.60742 28.2778 1.78418 25.5166 7.91553 23.6191 12.7866 23.0244 14.5425 22.0898 17.1479 20.8154 20.603 19.7959 23.2651 17.9834 24.5962 15.3779 24.5962 13.7637 24.5962 12.3477 24.0723 11.1299 23.0244 9.91211 21.9766 9.30322 20.6597 9.30322 19.0737 9.30322 16.4399 12.3052 8.63769 18.3091-4.33301 15.1938-10.4785 10.252-19.5269 3.4834-31.478 2.80371-32.5542 2.10986-33.6445 1.40186-34.749 0.637207-36.0518 0.254883-37.2412 0.254883-38.3174 0.254883-39.8467 0.863769-41.1919 2.08154-42.353 3.29932-43.5142 4.70117-44.0947 6.28711-44.0947 8.15625-44.0947 9.61475-43.4009 10.6626-42.0132 14.6841-36.6606 19.3711-28.6035 24.7236-17.8418 27.7539-24.5537 29.5947-28.6035 30.2461-29.9912 32.2568-34.2109 34.2251-37.9209 36.1509-41.1211 37.3686-43.1602 39.0395-44.1797 41.1636-44.1797 42.7495-44.1797 44.1655-43.6416 45.4116-42.5654 46.6577-41.4893 47.2808-40.1724 47.2808-38.6147 47.2808-37.7935 47.04-36.8872 46.5586-35.896ZM94.1313 1.65674C92.4321 1.65674 91.0232 1.13281 89.9045 0.0849609 88.7859-0.962891 88.2265-2.27979 88.2266-3.86572 88.2265-4.71533 88.1557-5.87646 88.0142-7.34912 87.8442-9.02002 87.7451-10.167 87.7168-10.79 87.6318-12.9424 87.5893-15.7178 87.5893-19.1162 87.5893-20.3623 87.646-25.0635 87.7593-33.2197 86.4282-33.1064 85.1113-33.0498 83.8086-33.0498 79.6738-33.0498 75.6523-33.1206 71.7441-33.2622L71.8291-24.9785C71.8291-16.3975 71.1494-10.2944 69.79-6.66943 67.751-1.28857 63.7578 1.40186 57.8105 1.40186 55.4316 1.40186 53.3076 0.92041 51.4385-0.0424805 48.9463-1.31689 47.7002-3.2002 47.7002-5.69238 47.7002-7.08008 48.1887-8.28369 49.1658-9.30322 50.1428-10.3228 51.4243-10.8325 53.0103-10.8325 53.6333-10.8325 54.4687-10.6343 55.5166-10.2378 56.5644-9.84131 57.3291-9.64307 57.8105-9.64307 59.7363-9.64307 60.6992-13.2822 60.6992-20.5605 60.6992-22.6279 60.5505-25.7148 60.2532-29.8213 59.9558-33.9277 59.8071-37.0146 59.8071-39.082 59.8071-40.7529 60.416-42.084 61.6338-43.0752 62.8516-44.0664 64.3101-44.562 66.0093-44.562 66.7456-44.562 67.7368-44.5337 68.9829-44.477 70.5405-44.3638 71.5317-44.293 71.9565-44.2646 75.0434-44.1514 78.9941-44.0947 83.8086-44.0947 84.8564-44.0947 86.414-44.2788 88.4814-44.647 90.5488-45.0151 92.1206-45.1992 93.1968-45.1992 97.4731-45.1992 99.6113-43.4009 99.6113-39.8042 99.6113-37.5103 99.5759-34.0764 99.5051-29.5027 99.4343-24.929 99.3989-21.5093 99.3989-19.2437 99.3989-16.0151 99.4414-13.3389 99.5264-11.2148 99.5547-10.5352 99.6538-9.30322 99.8237-7.51904 99.9936-5.98975 100.079-4.77197 100.079-3.86572 100.079-2.27979 99.5122-0.962891 98.3794 0.0849609 97.2466 1.13281 95.8306 1.65674 94.1313 1.65674ZM123.005 4.41797C121.107 4.41797 119.465 3.83032 118.077 2.65503 116.689 1.47974 115.995 0.155762 115.995-1.31689 115.995-2.81787 116.689-4.17017 118.077-5.37378 119.465-6.57739 121.107-7.1792 123.005-7.1792 125.015-7.1792 126.672-6.61279 127.975-5.47998 129.278-4.34717 129.929-2.95947 129.929-1.31689 129.929 0.184082 129.249 1.51514 127.89 2.67627 126.531 3.8374 124.902 4.41797 123.005 4.41797ZM256.191-60.2798C256.191-56.2017 253.175-54.3184 247.142-54.6299 246.831-50.5234 246.675-44.9019 246.675-37.7651 246.675-36.2925 246.824-32.6038 247.121-26.699 247.419-20.7942 247.567-15.6045 247.567-11.1299 247.567-10.2236 247.695-8.87842 247.95-7.09424 248.204-5.31006 248.332-3.96484 248.332-3.05859 248.332-1.44434 247.758-0.106201 246.611 0.95581 245.464 2.01782 244.055 2.54883 242.385 2.54883 238.93 2.54883 236.975 0.807129 236.522-2.67627 235.984-6.75439 235.715-9.57226 235.715-11.1299 235.715-15.5195 235.574-20.5747 235.29-26.2954 235.007-32.0161 234.866-35.8394 234.866-37.7651 234.866-45.1851 235.007-50.8916 235.29-54.8848 233.959-54.6865 230.66-54.5874 225.392-54.5874 218.397-54.5874 211.586-54.7007 204.959-54.9272 205.073-53.8228 205.214-52.1519 205.384-49.9145 205.837-36.0376 206.064-28.5327 206.064-27.3999 206.064-26.0688 205.979-24.2139 205.809-21.835 205.611-19.2295 205.497-17.3745 205.469-16.27 205.441-15.1655 205.441-13.7354 205.469-11.9795 205.497-9.62891 205.512-8.18457 205.512-7.64648 205.512-4.38965 205.299-2.1665 204.874-0.977051 204.053 1.40186 202.255 2.59131 199.479 2.59131 197.808 2.59131 196.399 2.06738 195.253 1.01953 194.106-0.0283203 193.532-1.35937 193.532-2.97363 193.532-9.71387 193.56-14.231 193.617-16.5249 193.645-17.6011 193.759-19.4136 193.957-21.9624 194.127-24.2847 194.212-26.0972 194.212-27.3999 194.212-28.4194 193.985-35.8252 193.532-49.6172 193.532-49.7021 193.376-51.543 193.065-55.1396 191.366-55.1113 189.865-55.0972 188.562-55.0972 186.863-55.0972 185.454-55.6353 184.335-56.7114 183.216-57.7876 182.657-59.1328 182.657-60.7471 182.657-64.6269 185.631-66.5669 191.578-66.5669 191.974-66.5669 192.541-66.5669 193.277-66.5669 194.013-66.5386 194.537-66.5244 194.849-66.5244 197.086-66.5244 200.421-66.4394 204.853-66.2695 209.285-66.0996 212.62-66.0146 214.857-66.0146L250.243-65.9297C251.943-65.9297 253.359-65.3916 254.492-64.3154 255.624-63.2393 256.191-61.894 256.191-60.2798ZM284.701 1.9541C277.933 1.9541 272.396 0.339844 268.092-2.88867 263.334-6.45703 260.955-11.4839 260.955-17.9692 260.955-25.1343 262.838-31.1948 266.605-36.1509 270.796-41.645 276.446-44.3921 283.555-44.3921 288.482-44.3921 292.575-43.5991 295.831-42.0132 300.108-39.9175 302.246-36.6606 302.246-32.2427 302.246-29.1274 300.504-26.3662 297.021-23.959 295.435-22.8545 292.249-21.2402 287.463-19.1162L273.147-12.7866C274.506-11.314 276.149-10.2095 278.075-9.47314 280-8.73682 282.209-8.36865 284.701-8.36865 288.496-8.36865 291.711-9.14746 294.345-10.7051 296.695-12.0928 298.578-12.7866 299.994-12.7866 302.94-12.7866 304.412-11.3564 304.412-8.49609 304.412-5.26758 302.048-2.63379 297.318-0.594727 293.353 1.10449 289.148 1.9541 284.701 1.9541ZM283.555-34.1118C280.921-34.1118 278.669-33.2339 276.8-31.478 274.931-29.7222 273.43-27.0884 272.297-23.5767 275.497-24.9644 278.683-26.3379 281.855-27.6973 285.679-29.4248 288.723-31.0249 290.989-32.4976 289.091-33.5737 286.613-34.1118 283.555-34.1118ZM341.98-33.602C341.216-33.602 340.076-33.6374 338.561-33.7082 337.046-33.779 335.906-33.8144 335.141-33.8144 334.716-33.8144 334.249-33.7861 333.739-33.7295 334.334-21.0137 334.631-12.0361 334.631-6.79687 334.631-0.453125 332.564 2.71875 328.429 2.71875 326.9 2.71875 325.555 2.25146 324.394 1.31689 323.147 0.325684 322.524-0.93457 322.524-2.46387 322.524-3.45508 322.567-4.96313 322.652-6.98804 322.737-9.01294 322.779-10.521 322.779-11.5122 322.779-15.3921 322.524-22.7412 322.015-33.5596 321.505-33.5596 320.245-33.5596 318.234-33.5596 315.345-33.5596 313.235-33.8286 311.904-34.3667 309.78-35.2163 308.718-36.8447 308.718-39.2519 308.718-40.7812 309.249-42.1052 310.311-43.2239 311.373-44.3425 312.754-44.9019 314.453-44.9019L339.559-44.9019C345.081-44.9019 347.843-43.0044 347.843-39.2095 347.843-37.6235 347.298-36.2925 346.207-35.2163 345.117-34.1401 343.708-33.602 341.98-33.602ZM372.865 2.50635C370.43 2.50635 367.867 2.22314 365.176 1.65674L365.134 18.9888C365.134 20.6313 364.581 21.9907 363.477 23.0669 362.372 24.1431 360.971 24.6812 359.271 24.6812 357.572 24.6812 356.17 24.1431 355.066 23.0669 353.961 21.9907 353.409 20.6313 353.409 18.9888 353.409 17.6577 353.437 12.376 353.494 3.14355 353.551-3.70996 353.551-9.30322 353.494-13.6362 353.409-19.7534 353.211-25.021 352.899-29.439 352.475-35.5278 352.262-38.3174 352.262-37.8076 352.262-40.1582 352.786-42.1689 353.834-43.8398 355.052-45.7373 356.694-46.686 358.762-46.686 360.348-46.686 361.679-46.1479 362.755-45.0718 363.831-43.9956 364.369-42.707 364.369-41.2061L364.327-40.7812C366.224-41.8574 368.129-42.6575 370.04-43.1814 371.952-43.7053 373.871-43.9673 375.796-43.9673 382.31-43.9673 387.068-41.2061 390.07-35.6836 392.307-31.5205 393.426-26.1255 393.426-19.4985 393.426-13.2964 391.656-8.15625 388.116-4.07812 384.321 0.311523 379.237 2.50635 372.865 2.50635ZM375.796-32.625C374.012-32.625 372.2-32.2073 370.359-31.3718 368.518-30.5364 366.663-29.2832 364.794-27.6123 365.134-21.7783 365.304-15.9302 365.304-10.0679 367.824-9.24658 370.345-8.83594 372.865-8.83594 375.782-8.83594 378.019-9.86963 379.577-11.937 380.993-13.8062 381.701-16.3267 381.701-19.4985 381.701-23.3218 381.531-25.9697 381.191-27.4424 380.37-30.8975 378.572-32.625 375.796-32.625ZM420.206 2.63379C413.806 2.63379 408.34 0.863769 403.809-2.67627 398.966-6.49951 396.544-11.4414 396.544-17.502 396.544-24.3555 398.782-30.6284 403.256-36.3208 408.382-42.8628 414.91-46.1338 422.84-46.1338 438.019-46.1338 445.609-39.4219 445.609-25.998 445.609-19.1445 443.556-12.9141 439.45-7.30664 434.579-0.679688 428.164 2.63379 420.206 2.63379ZM422.84-34.9614C419.073-34.9614 415.788-33.156 412.984-29.5452 410.181-25.9343 408.779-21.9199 408.779-17.502 408.779-14.8398 409.848-12.6733 411.986-11.0024 414.124-9.33154 416.864-8.49609 420.206-8.49609 423.859-8.49609 426.989-10.3086 429.594-13.9336 432.115-17.417 433.375-21.4385 433.375-25.998 433.375-29.5381 432.646-31.917 431.187-33.1348 429.729-34.3525 426.946-34.9614 422.84-34.9614ZM457.113 1.9541C455.583 1.9541 454.167 1.41602 452.865 0.339844 451.449-0.792969 450.741-2.10986 450.741-3.61084L450.741-11.0874C450.741-14.2593 450.797-18.4082 450.911-23.5342 451.081-30.2461 451.165-34.3809 451.165-35.9385 451.194-38.0625 451.378-39.5918 451.718-40.5264 452.284-42.1123 453.417-43.1177 455.116-43.5425 457.552-44.1938 461.021-44.5195 465.524-44.5195 470.367-44.5195 474.785-43.415 478.778-41.2061 483.677-38.5439 486.127-34.9048 486.127-30.2886 486.127-26.8618 484.583-24.1431 481.497-22.1323 486.679-18.8472 489.27-15.3921 489.27-11.7671 489.27-6.61279 485.037-2.84619 476.569-0.467285 470.876 1.14697 464.391 1.9541 457.113 1.9541ZM466.968-34.5366 465.227-34.5366C464.15-34.5366 463.244-34.5225 462.508-34.4941 462.508-33.9277 462.508-32.979 462.508-31.6479 462.508-31.0815 462.55-30.1187 462.635-28.7593 462.748-27.1733 462.805-26.2104 462.805-25.8706 463.995-25.7856 464.887-25.7432 465.481-25.7432 467.379-25.7432 469.248-26.0547 471.089-26.6777 473.553-27.5273 474.785-28.731 474.785-30.2886 474.785-31.2231 473.893-32.1648 472.108-33.1135 470.324-34.0623 468.611-34.5366 466.968-34.5366ZM469.984-18.394C469.361-18.5073 466.756-18.6348 462.168-18.7764 462.111-17.7285 462.083-16.1992 462.083-14.1885L462.083-8.15625C472.335-8.60937 477.461-9.92627 477.461-12.1069 477.461-13.3247 476.498-14.6416 474.572-16.0576 472.873-17.332 471.344-18.1108 469.984-18.394ZM531.983 2.33643C530.68 2.33643 528.613 1.07617 525.781-1.44434 523.176-0.198242 520.882 0.743408 518.899 1.38062 516.917 2.01782 515.232 2.33643 513.844 2.33643 507.019 2.33643 501.9 0.509765 498.487-3.14355 495.075-6.79687 493.368-12.2627 493.368-19.541 493.368-26.3662 495.889-32.2073 500.93-37.0642 505.971-41.9211 512.003-44.3496 519.027-44.3496 521.717-44.3496 524.832-43.5925 528.372-42.0782 532.649-40.2556 534.787-38.1386 534.787-35.7274 534.787-34.718 534.461-33.8348 533.81-33.0777 533.527-31.9559 533.307-30.5469 533.151-28.8505 532.996-27.1542 532.918-25.1703 532.918-22.899 532.918-17.5438 533.3-13.6884 534.065-11.333 534.15-11.0808 534.801-9.62271 536.019-6.95883 537.123-4.54718 537.676-3.1732 537.676-2.8369 537.676-1.35097 537.102-0.117264 535.955 0.864212 534.808 1.84569 533.484 2.33643 531.983 2.33643ZM521.448-26.3379C521.448-27.2441 521.512-28.2849 521.639-29.4602 521.767-30.6355 521.958-31.9453 522.213-33.3896 521.646-33.6728 521.144-33.8782 520.705-34.0056 520.266-34.1331 519.89-34.1968 519.579-34.1968 515.727-34.1968 512.357-32.6887 509.469-29.6726 506.58-26.6565 505.136-23.166 505.136-19.2012 505.136-15.4062 505.815-12.553 507.175-10.6414 508.534-8.72974 510.573-7.77393 513.292-7.77393 515.048-7.77393 516.711-8.06421 518.283-8.64477 519.855-9.22534 521.335-10.082 522.722-11.2148 521.873-17.9551 521.448-22.9961 521.448-26.3379Z" fill="#462100" transform="matrix(0.200213 0 0 0.2 39.7813 42)"/></g></g><path d="M2519 2227.5C2513.89 2192.58 2550.57 2151.53 2589.44 2157 2659.32 2157.64 2712.51 2161.04 2774.97 2157 2837.43 2152.96 2880.98 2156.4 2960.5 2157 3040.03 2157.6 3136.45 2147.66 3181.56 2157 3223.33 2158.48 3253.19 2193.11 3252 2227.5L3252 2227.5C3257.22 2265.9 3213.7 2301.38 3181.55 2298 3112.64 2297.58 3020.89 2294.61 2978.26 2298 2935.64 2301.39 2842.89 2297.02 2792.74 2298 2742.58 2298.98 2683.6 2297.26 2589.44 2298 2550.32 2296.83 2520.68 2270.57 2519 2227.5L2519 2227.5Z" fill="#FFFFFF" fill-rule="evenodd"/><path d="M2519 2227.5C2517.22 2187.49 2558.58 2152.23 2589.44 2157 2680.77 2163.04 2729.58 2159.97 2792.74 2157 2855.89 2154.03 2957.7 2150.43 3001.95 2157 3046.2 2163.57 3095.72 2150.71 3181.56 2157 3219.55 2166.39 3252.83 2180.84 3252 2227.5L3252 2227.5C3250.1 2258.91 3219.84 2296.78 3181.55 2298 3110.04 2305.01 3045.88 2289 2978.26 2298 2910.64 2307 2839.99 2300.97 2792.74 2298 2745.48 2295.03 2646.02 2289.88 2589.44 2298 2557.69 2292.26 2521.65 2261.76 2519 2227.5L2519 2227.5Z" stroke="#462100" stroke-width="10.3125" stroke-miterlimit="8" fill="none" fill-rule="evenodd"/><text fill="#462100" font-family="Comic Sans MS,Comic Sans MS_MSFontService,sans-serif" font-weight="700" font-size="87" transform="matrix(1 0 0 1 2614.69 2251)">ул. Петрова</text><path d="M2934 2314C2934 2335.54 2916.54 2353 2895 2353 2873.46 2353 2856 2335.54 2856 2314 2856 2292.46 2873.46 2275 2895 2275 2916.54 2275 2934 2292.46 2934 2314Z" fill="#F2EBEA" fill-rule="evenodd"/><path d="M2917.38 2312.95C2917.89 2325.21 2908.37 2335.56 2896.11 2336.07 2883.85 2336.58 2873.5 2327.05 2872.99 2314.79 2872.48 2302.53 2882.01 2292.18 2894.26 2291.67 2906.52 2291.16 2916.87 2300.69 2917.38 2312.95Z" fill="#C9AFAB" fill-rule="evenodd"/><path d="M2961.45 2354.11C2956.69 2353.84 2952.54 2356.59 2950.7 2360.61L2950.7 2355.7C2950.7 2349.54 2945.7 2344.55 2939.55 2344.55L2939.55 2344.55C2935.48 2344.55 2931.93 2346.75 2929.99 2349.98L2929.99 2349.32C2929.99 2343.16 2924.99 2338.18 2918.85 2338.18L2918.85 2338.18C2913.52 2338.18 2909.06 2341.92 2907.95 2346.94L2907.95 2316.62C2907.95 2310.9 2903.84 2305.74 2898.16 2305.08 2891.4 2304.28 2885.66 2309.54 2885.66 2316.15L2885.66 2381.64C2885.66 2382.4 2884.63 2382.65 2884.28 2381.97L2873.25 2360.32C2870.66 2354.73 2864.03 2352.31 2858.44 2354.93 2852.86 2357.53 2850.44 2364.16 2853.05 2369.74L2872.05 2420.36 2886.59 2446.98C2887.27 2448.22 2888.57 2449 2890 2449L2957.73 2449C2959.56 2449 2961.12 2447.74 2961.51 2445.96L2971.11 2402.18C2971.69 2399.89 2972 2397.54 2972 2395.2L2972 2365.77C2972 2359.95 2967.29 2354.48 2961.47 2354.15Z" fill="#875E21" fill-rule="evenodd"/></g></svg>