<svg width="1424" height="377" xmlns="http://www.w3.org/2000/svg" xmlns:xlink="http://www.w3.org/1999/xlink" overflow="hidden"><defs><filter id="fx0" x="-10%" y="-10%" width="120%" height="120%" filterUnits="userSpaceOnUse" primitiveUnits="userSpaceOnUse"><feComponentTransfer color-interpolation-filters="sRGB"><feFuncR type="discrete" tableValues="0 0"/><feFuncG type="discrete" tableValues="0 0"/><feFuncB type="discrete" tableValues="0 0"/><feFuncA type="linear" slope="0.219608" intercept="0"/></feComponentTransfer><feGaussianBlur stdDeviation="6.41217 6.4336"/></filter><clipPath id="clip1"><rect x="2929" y="2033" width="1424" height="377"/></clipPath><clipPath id="clip2"><rect x="-17.5876" y="-17.4459" width="118.117" height="57.9525"/></clipPath><clipPath id="clip3"><rect x="0" y="0" width="285" height="76"/></clipPath></defs><g clip-path="url(#clip1)" transform="translate(-2929 -2033)"><g clip-path="url(#clip2)" filter="url(#fx0)" transform="matrix(5.00351 0 0 4.98684 2928 2032)"><g clip-path="url(#clip3)"><path d="M20.5855 36.7969C19.5641 29.7944 26.8996 21.562 34.6735 22.6596 43.7521 22.3623 59.6451 24.0925 73.491 22.6596 87.337 21.2267 97.2452 20.884 112.309 22.6596 127.372 24.4353 142.483 24.593 151.126 22.6596 159.769 20.7262 172.805 21.1567 187.787 22.6596 202.769 24.1625 228.789 20.0935 250.327 22.6596 256.754 23.3372 264.751 28.3292 264.415 36.7969L264.414 36.7969C265.291 43.1926 257.034 50.8529 250.327 50.9341 239.832 50.8089 227.822 50.9144 209.352 50.9341 190.883 50.9538 184.921 50.8474 166.222 50.9341 147.522 51.0208 142.466 51.6031 125.248 50.934 108.03 50.2649 99.3953 51.7908 88.5867 50.934 77.7781 50.0772 55.2166 52.7422 34.6735 50.934 28.6537 51.1955 20.4433 43.3307 20.5855 36.7968L20.5855 36.7969Z" fill="#FFFFFF" fill-rule="evenodd"/><path d="M20.5855 36.7969C20.0089 28.2795 25.5969 22.6463 34.6735 22.6596 50.1935 23.4186 61.4081 22.5649 75.6475 22.6596 89.887 22.7543 94.8305 21.7832 112.309 22.6596 129.787 23.536 139.583 24.6581 159.752 22.6596 179.921 20.6611 183.836 21.6675 207.196 22.6596 230.556 23.6517 228.866 21.9503 250.327 22.6596 258.33 22.2934 263.195 29.0691 264.415 36.7969L264.414 36.7969C265.254 45.4916 257.318 49.162 250.327 50.9341 230.598 50.9599 215.404 50.053 205.039 50.9341 194.675 51.8152 174.206 52.7153 164.065 50.9341 153.925 49.1529 138.379 50.0963 116.622 50.934 94.8643 51.7717 95.4075 52.0172 75.6475 50.934 55.8876 49.8508 49.2167 51.5664 34.6735 50.934 28.2882 49.6262 21.4197 44.1844 20.5855 36.7968L20.5855 36.7969Z" stroke="#462100" stroke-width="2" stroke-miterlimit="8" fill="none" fill-rule="evenodd"/><path d="M46.8984-45.2417C44.3496-45.2417 42.4663-46.5869 41.2485-49.2773 40.6821-50.5518 40.1157-51.3164 39.5493-51.5713 39.1245-51.7695 38.0059-51.8686 36.1934-51.8686 32.625-51.8686 28.5044-49.0933 23.8315-43.5425 17.2895-35.7827 14.0186-28.5186 14.0186-21.75 14.0186-18.6631 15.0522-16.0151 17.1196-13.8062 19.187-11.5972 21.665-10.4927 24.5537-10.4927 27.3574-10.4927 30.2036-11.229 33.0923-12.7017 34.1118-13.2397 36.2642-14.6274 39.5493-16.8647 41.7583-18.3374 43.4292-19.0737 44.562-19.0737 46.2612-19.0737 47.7056-18.4507 48.895-17.2046 49.9995-16.0435 50.5518-14.7124 50.5518-13.2114 50.5518-11.5405 49.8154-10.082 48.3428-8.83594 40.5547-2.26562 32.625 1.01953 24.5537 1.01953 18.1816 1.01953 12.8008-1.30273 8.41113-5.94727 4.21973-10.4219 2.12402-15.6895 2.12402-21.75 2.12402-31.2373 6.27295-40.9228 14.5708-50.8066 21.6226-59.1894 28.8301-63.3809 36.1934-63.3809 37.4394-63.3809 38.5652-63.3384 39.5706-63.2534 40.5759-63.1685 41.4609-63.041 42.2256-62.8711 43.4717-64.0889 44.9727-64.6977 46.7285-64.6977 49.6172-64.6977 51.4014-63.041 52.0811-59.7275 52.5625-57.3486 52.8032-54.5732 52.8032-51.4014 52.8032-49.9853 52.3926-48.6968 51.5713-47.5356 50.4951-46.0063 48.9375-45.2417 46.8984-45.2417ZM90.6847 0.594727C87.9093 0.594727 86.0119-0.679688 84.9923-3.22852 84.2843-5.04102 82.4718-8.00049 79.5548-12.1069 76.4113-16.5532 74.3581-18.7764 73.3952-18.7764 73.1686-18.8047 72.0358-18.8188 69.9967-18.8188L69.9543-11.0874C69.9543-10.7192 69.9684-10.0962 69.9967-9.21826 70.0251-8.34033 70.0392-7.66064 70.0392-7.1792 70.0392-1.65674 67.986 1.10449 63.8796 1.10449 62.2936 1.10449 60.9201 0.665527 59.7589-0.212402 58.5129-1.20361 57.8898-2.49219 57.8898-4.07812 57.8898-5.32422 57.9464-7.27124 58.0597-9.91919 58.173-12.5671 58.2297-14.5283 58.2297-15.8027 58.2297-18.3232 58.1305-22.0898 57.9323-27.1025 57.734-32.1152 57.6349-35.8677 57.6349-38.3599 57.6349-42.8345 59.6598-45.0718 63.7096-45.0718 65.3239-45.0718 66.6974-44.6045 67.8302-43.6699 69.048-42.6504 69.6569-41.376 69.6569-39.8467 69.6569-37.7793 69.7277-34.4092 69.8693-29.7363 72.8996-29.708 74.9953-30.3311 76.1564-31.6055 76.3547-31.8037 77.3317-33.5879 79.0876-36.958 81.5797-41.8008 84.7941-44.2222 88.7306-44.2222 90.0334-44.2222 91.4494-43.8257 92.9787-43.0327 94.8195-42.0981 95.7399-40.9653 95.7399-39.6343 95.7399-38.3315 95.308-37.227 94.4442-36.3208 93.5805-35.4145 92.4831-34.9614 91.152-34.9614 90.4157-34.9614 89.3537-33.6587 87.966-31.0532 87.2296-29.5239 86.4792-27.9946 85.7145-26.4653 85.1198-25.4458 84.4967-24.582 83.8454-23.874 86.819-21.4385 89.651-18.2524 92.3415-14.3159 95.2584-10.1245 96.7169-6.86767 96.7169-4.54541 96.7169-2.95947 96.0373-1.6709 94.6779-0.679687 93.5168 0.169922 92.1857 0.594727 90.6847 0.594727ZM107.061 1.9541C105.531 1.9541 104.115 1.41602 102.813 0.339844 101.397-0.792969 100.689-2.10986 100.689-3.61084L100.689-11.0874C100.689-14.2593 100.745-18.4082 100.859-23.5342 101.028-30.2461 101.113-34.3809 101.113-35.9385 101.142-38.0625 101.326-39.5918 101.666-40.5264 102.232-42.1123 103.365-43.1177 105.064-43.5425 107.5-44.1938 110.969-44.5195 115.472-44.5195 120.315-44.5195 124.733-43.415 128.726-41.2061 133.625-38.5439 136.075-34.9048 136.075-30.2886 136.075-26.8618 134.531-24.1431 131.444-22.1323 136.627-18.8472 139.218-15.3921 139.218-11.7671 139.218-6.61279 134.985-2.84619 126.517-0.467285 120.824 1.14697 114.339 1.9541 107.061 1.9541ZM116.916-34.5366 115.174-34.5366C114.098-34.5366 113.192-34.5225 112.456-34.4941 112.456-33.9277 112.456-32.979 112.456-31.6479 112.456-31.0815 112.498-30.1187 112.583-28.7593 112.696-27.1733 112.753-26.2104 112.753-25.8706 113.943-25.7856 114.835-25.7432 115.429-25.7432 117.327-25.7432 119.196-26.0547 121.037-26.6777 123.501-27.5273 124.733-28.731 124.733-30.2886 124.733-31.2231 123.84-32.1648 122.056-33.1135 120.272-34.0623 118.559-34.5366 116.916-34.5366ZM119.932-18.394C119.309-18.5073 116.704-18.6348 112.116-18.7764 112.059-17.7285 112.031-16.1992 112.031-14.1885L112.031-8.15625C122.283-8.60937 127.409-9.92627 127.409-12.1069 127.409-13.3247 126.446-14.6416 124.52-16.0576 122.821-17.332 121.292-18.1108 119.932-18.394ZM166.681 1.9541C159.912 1.9541 154.375 0.339844 150.071-2.88867 145.313-6.45703 142.934-11.4839 142.934-17.9692 142.934-25.1343 144.817-31.1948 148.584-36.1509 152.775-41.645 158.425-44.3921 165.534-44.3921 170.461-44.3921 174.554-43.5991 177.811-42.0132 182.087-39.9175 184.225-36.6606 184.225-32.2427 184.225-29.1274 182.483-26.3662 179-23.959 177.414-22.8545 174.228-21.2402 169.442-19.1162L155.126-12.7866C156.485-11.314 158.128-10.2095 160.054-9.47314 161.979-8.73682 164.188-8.36865 166.681-8.36865 170.476-8.36865 173.69-9.14746 176.324-10.7051 178.674-12.0928 180.558-12.7866 181.974-12.7866 184.919-12.7866 186.392-11.3564 186.392-8.49609 186.392-5.26758 184.027-2.63379 179.297-0.594727 175.332 1.10449 171.127 1.9541 166.681 1.9541ZM165.534-34.1118C162.9-34.1118 160.648-33.2339 158.779-31.478 156.91-29.7222 155.409-27.0884 154.276-23.5767 157.477-24.9644 160.663-26.3379 163.834-27.6973 167.658-29.4248 170.702-31.0249 172.968-32.4976 171.07-33.5737 168.592-34.1118 165.534-34.1118ZM213.594 2.50635C211.159 2.50635 208.596 2.22314 205.905 1.65674L205.863 18.9888C205.863 20.6313 205.311 21.9907 204.206 23.0669 203.102 24.1431 201.7 24.6812 200.001 24.6812 198.301 24.6812 196.9 24.1431 195.795 23.0669 194.691 21.9907 194.138 20.6313 194.138 18.9888 194.138 17.6577 194.167 12.376 194.223 3.14355 194.28-3.70996 194.28-9.30322 194.223-13.6362 194.138-19.7534 193.94-25.021 193.629-29.439 193.204-35.5278 192.991-38.3174 192.991-37.8076 192.991-40.1582 193.515-42.1689 194.563-43.8398 195.781-45.7373 197.423-46.686 199.491-46.686 201.077-46.686 202.408-46.1479 203.484-45.0718 204.56-43.9956 205.098-42.707 205.098-41.2061L205.056-40.7812C206.953-41.8574 208.858-42.6575 210.769-43.1814 212.681-43.7053 214.6-43.9673 216.526-43.9673 223.039-43.9673 227.797-41.2061 230.799-35.6836 233.036-31.5205 234.155-26.1255 234.155-19.4985 234.155-13.2964 232.385-8.15625 228.845-4.07812 225.05 0.311523 219.966 2.50635 213.594 2.50635ZM216.526-32.625C214.741-32.625 212.929-32.2073 211.088-31.3718 209.247-30.5364 207.392-29.2832 205.523-27.6123 205.863-21.7783 206.033-15.9302 206.033-10.0679 208.553-9.24658 211.074-8.83594 213.594-8.83594 216.511-8.83594 218.749-9.86963 220.306-11.937 221.722-13.8062 222.43-16.3267 222.43-19.4985 222.43-23.3218 222.26-25.9697 221.921-27.4424 221.099-30.8975 219.301-32.625 216.526-32.625ZM326.955 1.27441C324.717 1.18945 322.466-1.44434 320.2-6.62695 318.699-9.96875 317.411-13.8203 316.335-18.1816 314.239-17.8701 310.812-17.5586 306.054-17.2471 301.58-16.9355 298.153-16.5674 295.774-16.1426 294.471-13.0273 292.206-8.34033 288.977-2.08154 287.731-0.0424805 286.004 0.977051 283.795 0.977051 282.237 0.977051 280.835 0.446045 279.589-0.615967 278.343-1.67798 277.72-3.03027 277.72-4.67285 277.72-6.11719 279.787-11.0166 283.922-19.3711 283.526-20.249 283.356-21.0703 283.412-21.835 283.526-23.1943 284.899-24.2563 287.533-25.021 291.554-31.9878 296.029-39.2095 300.957-46.686 308.037-57.4194 312.398-62.7861 314.041-62.7861 317.156-62.7861 319.237-60.9028 320.285-57.1362 320.852-54.106 321.744-49.5605 322.962-43.5 324.689-35.3437 326.799-26.0122 329.291-15.5054 329.489-14.7124 330.212-12.8433 331.458-9.89795 332.477-7.4624 332.987-5.63574 332.987-4.41797 332.987-2.77539 332.371-1.40186 331.139-0.297363 329.907 0.807129 328.512 1.33105 326.955 1.27441ZM311.11-42.3105C308.901-38.5156 305.856-33.3472 301.976-26.8052 303.251-27.0884 305.233-27.3149 307.923-27.4849 311.095-27.6831 313.092-27.8389 313.913-27.9521 313.234-31.6338 312.299-36.4199 311.11-42.3105ZM376.785 1.57178C375.086 1.57178 373.67 1.04785 372.537 0 371.404-1.04785 370.838-2.36475 370.838-3.95068 370.838-6.41455 370.781-10.8325 370.668-17.2046 370.13-17.2046 369.662-17.2046 369.266-17.2046 363.177-17.2046 357.272-16.5957 351.551-15.3779 351.523-14.2734 351.367-12.2769 351.084-9.38818 350.858-6.92432 350.744-4.89233 350.744-3.29224 350.744-1.69214 350.185-0.368164 349.066 0.679687 347.948 1.72754 346.539 2.25146 344.84 2.25146 343.14 2.25146 341.731 1.72754 340.613 0.679687 339.494-0.368164 338.935-1.69922 338.935-3.31348 338.935-4.27637 339.069-5.58618 339.338-7.24292 339.607-8.89966 339.742-10.2095 339.742-11.1724 339.742-12.7583 339.699-15.1443 339.614-18.3303 339.529-21.5164 339.487-23.9023 339.487-25.4883 339.487-27.1592 339.487-29.623 339.487-32.8799 339.515-36.1367 339.529-38.6006 339.529-40.2715 339.529-41.8574 340.089-43.1743 341.207-44.2222 342.326-45.27 343.735-45.7939 345.434-45.7939 347.133-45.7939 348.549-45.27 349.682-44.2222 350.815-43.1743 351.381-41.8574 351.382-40.2715 351.381-38.459 351.41-36.1934 351.466-33.4746 351.551-29.708 351.594-27.4707 351.594-26.7627 357.569-27.8955 363.871-28.3911 370.498-28.2495L370.498-29.1841C370.498-30.6284 370.554-32.6958 370.668-35.3862 370.781-38.0767 370.838-40.1157 370.838-41.5034 370.838-43.0894 371.404-44.4062 372.537-45.4541 373.67-46.5019 375.086-47.0259 376.785-47.0259 378.484-47.0259 379.893-46.5019 381.012-45.4541 382.13-44.4062 382.69-43.0894 382.69-41.5034 382.69-40.0874 382.633-38.0342 382.52-35.3437 382.406-32.6533 382.35-30.6001 382.35-29.1841 382.35-26.2954 382.406-22.0898 382.52-16.5674 382.633-11.0449 382.69-6.83935 382.69-3.95068 382.69-2.36475 382.13-1.04785 381.012 0 379.893 1.04785 378.484 1.57178 376.785 1.57178ZM425.483 1.57178C423.783 1.57178 422.367 1.04785 421.235 0 420.102-1.04785 419.535-2.36475 419.535-3.95068 419.535-6.41455 419.479-10.8325 419.366-17.2046 418.827-17.2046 418.36-17.2046 417.964-17.2046 411.875-17.2046 405.97-16.5957 400.249-15.3779 400.221-14.2734 400.065-12.2769 399.782-9.38818 399.555-6.92432 399.442-4.89233 399.442-3.29224 399.442-1.69214 398.883-0.368164 397.764 0.679687 396.646 1.72754 395.237 2.25146 393.537 2.25146 391.838 2.25146 390.429 1.72754 389.311 0.679687 388.192-0.368164 387.633-1.69922 387.633-3.31348 387.633-4.27637 387.767-5.58618 388.036-7.24292 388.305-8.89966 388.44-10.2095 388.44-11.1724 388.44-12.7583 388.397-15.1443 388.312-18.3303 388.227-21.5164 388.185-23.9023 388.185-25.4883 388.185-27.1592 388.185-29.623 388.185-32.8799 388.213-36.1367 388.227-38.6006 388.227-40.2715 388.227-41.8574 388.787-43.1743 389.905-44.2222 391.024-45.27 392.433-45.7939 394.132-45.7939 395.831-45.7939 397.247-45.27 398.38-44.2222 399.513-43.1743 400.079-41.8574 400.079-40.2715 400.079-38.459 400.108-36.1934 400.164-33.4746 400.249-29.708 400.292-27.4707 400.292-26.7627 406.267-27.8955 412.569-28.3911 419.196-28.2495L419.196-29.1841C419.196-30.6284 419.252-32.6958 419.366-35.3862 419.479-38.0767 419.535-40.1157 419.535-41.5034 419.535-43.0894 420.102-44.4062 421.235-45.4541 422.367-46.5019 423.783-47.0259 425.483-47.0259 427.182-47.0259 428.591-46.5019 429.71-45.4541 430.828-44.4062 431.387-43.0894 431.388-41.5034 431.387-40.0874 431.331-38.0342 431.218-35.3437 431.104-32.6533 431.048-30.6001 431.048-29.1841 431.048-26.2954 431.104-22.0898 431.218-16.5674 431.331-11.0449 431.387-6.83935 431.388-3.95068 431.387-2.36475 430.828-1.04785 429.71 0 428.591 1.04785 427.182 1.57178 425.483 1.57178ZM495.293 0.169922C490.706 0.169922 485.523 0.708008 479.746 1.78418 479.264 1.86914 478.811 1.91162 478.386 1.91162 476.772 1.91162 475.441 1.35937 474.393 0.254883 473.345-0.849609 472.821-2.12402 472.821-3.56836 472.821-5.55078 473.869-6.98096 475.965-7.85889 477.098-8.34033 479.023-8.73682 481.742-9.04834 481.629-12.7866 481.572-15.2646 481.572-16.4824 481.572-16.9639 481.7-22.8403 481.955-34.1118 481.388-34.1401 480.765-34.1543 480.085-34.1543 479.689-34.1543 479.108-34.0977 478.344-33.9844 477.579-33.8711 476.998-33.8144 476.602-33.8144 474.988-33.8144 473.657-34.303 472.609-35.28 471.561-36.2571 471.037-37.4819 471.037-38.9546 471.037-42.5229 473.6-44.3071 478.726-44.3071 479.434-44.3071 480.51-44.2788 481.955-44.2222 483.399-44.1655 484.489-44.1372 485.226-44.1372 486.415-44.1372 488.206-44.2151 490.599-44.3708 492.992-44.5266 494.798-44.6045 496.016-44.6045 497.658-44.6045 499.018-44.1018 500.094-43.0964 501.17-42.0911 501.708-40.8096 501.708-39.2519 501.708-37.7227 501.163-36.5049 500.072-35.5986 498.982-34.6924 497.63-34.2393 496.016-34.2393 494.628-34.2393 493.608-34.2109 492.957-34.1543 492.674-23.3076 492.532-17.417 492.532-16.4824 492.532-15.123 492.589-13.0273 492.702-10.1953 493.608-10.252 494.472-10.2803 495.293-10.2803 500.448-10.2803 503.025-8.52441 503.025-5.01269 503.025-3.28516 502.147-1.9541 500.391-1.01953 498.947-0.226562 497.247 0.169922 495.293 0.169922ZM454.512 0.679687C453.578 0.679687 452.162 0.637207 450.264 0.552246 448.367 0.467285 446.951 0.424805 446.016 0.424805L445.209 0.552246C445.039 0.580566 444.841 0.594727 444.614 0.594727 440.593 0.594727 438.582-1.75586 438.582-6.45703 438.582-7.08008 438.738-8.72266 439.049-11.3848 439.446-14.7832 439.644-18.04 439.644-21.1553 439.644-23.1377 439.509-26.1184 439.24-30.0974 438.971-34.0764 438.837-37.0713 438.837-39.082 438.837-42.9336 440.777-44.8594 444.657-44.8594 446.299-44.8594 447.687-44.4204 448.82-43.5425 450.094-42.5796 450.731-41.2769 450.731-39.6343 450.731-37.0854 450.873-33.8003 451.156-29.7788 451.779-29.8071 452.346-29.8213 452.855-29.8213 459.709-29.8213 464.849-28.9575 468.276-27.23 473.147-24.8228 475.582-20.4897 475.582-14.231 475.582-8.8501 473.26-4.88525 468.616-2.33643 464.962-0.325684 460.261 0.679687 454.512 0.679687ZM454.257-19.9233C453.436-19.9233 452.487-19.895 451.411-19.8384 451.439-17.771 451.241-14.2734 450.816-9.3457 452.204-9.31738 453.436-9.30322 454.512-9.30322 460.828-9.30322 463.985-10.9458 463.985-14.231 463.985-16.8081 462.966-18.479 460.927-19.2437 459.794-19.6968 457.571-19.9233 454.257-19.9233Z" fill="#462100" transform="matrix(0.19986 0 0 0.200528 41.4156 41)"/><path d="M17.5444-23.7041C17.063-23.7041 15.8735-23.8032 13.9761-24.0015 13.8062-20.0366 13.7212-13.5229 13.7212-4.46045 13.7212-2.95947 13.1973-1.6709 12.1494-0.594727 11.1016 0.481445 9.77051 1.01953 8.15625 1.01953 6.54199 1.01953 5.20386 0.481445 4.14185-0.594727 3.07983-1.6709 2.54883-2.95947 2.54883-4.46045L2.54883-16.3125C2.54883-20.7021 2.83203-27.2017 3.39844-35.811 3.93652-44.562 4.21973-51.0898 4.24805-55.3945 4.27637-62.7578 6.34375-66.2837 10.4502-65.9722 11.4131-66.227 12.7441-66.4182 14.4434-66.5456 16.1426-66.6731 18.21-66.7368 20.6455-66.7368 26.1963-66.7368 31.4072-64.9385 36.2783-61.3418 41.6875-57.3203 44.3921-52.4209 44.3921-46.6436 44.3921-39.3936 41.5176-33.6304 35.7686-29.354 30.6709-25.5874 24.5962-23.7041 17.5444-23.7041ZM19.6685-55.7769C18.7622-55.7769 17.9622-55.7698 17.2683-55.7556 16.5745-55.7415 15.9868-55.7061 15.5054-55.6494 15.5054-54.3184 15.4912-52.3218 15.4629-49.6597 15.4062-46.5161 15.1372-41.6167 14.6558-34.9614 16.1001-34.7349 17.063-34.6216 17.5444-34.6216 21.9624-34.6216 25.6299-35.6694 28.5469-37.7651 31.6621-40.0024 33.2197-42.9619 33.2197-46.6436 33.2197-49.0508 31.7612-51.189 28.8442-53.0581 26.0405-54.8706 22.9819-55.7769 19.6685-55.7769ZM71.2998 2.63379C64.8994 2.63379 59.4336 0.863769 54.9023-2.67627 50.0596-6.49951 47.6382-11.4414 47.6382-17.502 47.6382-24.3555 49.8755-30.6284 54.3501-36.3208 59.4761-42.8628 66.0039-46.1338 73.9336-46.1338 89.1133-46.1338 96.7031-39.4219 96.7031-25.998 96.7031-19.1445 94.6499-12.9141 90.5434-7.30664 85.6724-0.679688 79.2578 2.63379 71.2998 2.63379ZM73.9336-34.9614C70.167-34.9614 66.8818-33.156 64.0781-29.5452 61.2744-25.9343 59.8726-21.9199 59.8726-17.502 59.8726-14.8398 60.9416-12.6733 63.0798-11.0024 65.218-9.33154 67.958-8.49609 71.2998-8.49609 74.9531-8.49609 78.0825-10.3086 80.688-13.9336 83.2085-17.417 84.4687-21.4385 84.4687-25.998 84.4687-29.5381 83.7395-31.917 82.281-33.1348 80.8225-34.3525 78.04-34.9614 73.9336-34.9614ZM114.069-34.0269C114.267-32.5825 114.494-30.4302 114.749-27.5698 115.173-16.1284 115.386-8.12793 115.386-3.56836 115.386-1.98242 114.819-0.665527 113.687 0.382324 112.554 1.43018 111.138 1.9541 109.438 1.9541 107.739 1.9541 106.33 1.43018 105.212 0.382324 104.093-0.665527 103.534-1.98242 103.534-3.56836 103.534-7.95801 103.335-15.8452 102.939-27.23 102.911-28.2778 102.727-30.0054 102.387-32.4126 102.104-34.6216 101.962-36.335 101.962-37.5527 101.962-42.5088 105.799-44.9868 113.474-44.9868 115.06-44.9868 117.46-44.916 120.675-44.7744 123.889-44.6328 126.289-44.562 127.875-44.562 128.526-44.562 129.496-44.6116 130.785-44.7107 132.073-44.8098 133.043-44.8594 133.695-44.8594 135.366-44.8594 136.768-44.3071 137.9-43.2026 138.948-42.1265 139.472-40.8237 139.472-39.2944 139.472-36.689 138.127-34.9756 135.437-34.1543 134.049-33.7295 131.627-33.5171 128.172-33.5171 126.671-33.5171 124.321-33.602 121.121-33.772 118.034-33.9419 115.683-34.0269 114.069-34.0269ZM163.539 2.63379C157.139 2.63379 151.673 0.863769 147.142-2.67627 142.299-6.49951 139.878-11.4414 139.878-17.502 139.878-24.3555 142.115-30.6284 146.59-36.3208 151.716-42.8628 158.243-46.1338 166.173-46.1338 181.353-46.1338 188.943-39.4219 188.943-25.998 188.943-19.1445 186.889-12.9141 182.783-7.30664 177.912-0.679688 171.497 2.63379 163.539 2.63379ZM166.173-34.9614C162.407-34.9614 159.121-33.156 156.318-29.5452 153.514-25.9343 152.112-21.9199 152.112-17.502 152.112-14.8398 153.181-12.6733 155.319-11.0024 157.458-9.33154 160.198-8.49609 163.539-8.49609 167.193-8.49609 170.322-10.3086 172.928-13.9336 175.448-17.417 176.708-21.4385 176.708-25.998 176.708-29.5381 175.979-31.917 174.521-33.1348 173.062-34.3525 170.28-34.9614 166.173-34.9614ZM209.452 1.99658C205.657 1.99658 202.23 1.43018 199.172 0.297363 195.065-1.23193 193.012-3.4834 193.012-6.45703 193.012-7.58984 193.586-8.72974 194.732-9.87671 195.879-11.0237 197.09-11.5972 198.365-11.5972 199.696-11.5972 201.529-11.1157 203.866-10.1528 206.202-9.18994 208.064-8.7085 209.452-8.7085 210.528-8.7085 211.59-9.19702 212.638-10.1741 213.686-11.1511 214.21-12.1494 214.21-13.1689 214.21-14.7549 213.091-15.9302 210.854-16.6948 208.73-17.2895 206.62-17.8701 204.524-18.4365 202.259-19.2295 201.126-20.4331 201.126-22.0474 201.126-24.1147 201.961-25.5449 203.632-26.3379 204.567-26.8193 206.28-27.2017 208.772-27.4849 210.585-27.6831 211.817-27.9946 212.468-28.4194 213.346-29.0142 213.785-30.0903 213.785-31.6479 213.785-33.7436 211.618-34.7915 207.285-34.7915 206.408-34.7915 205.19-34.2534 203.632-33.1772 202.075-32.1011 200.616-31.563 199.257-31.563 197.756-31.563 196.425-32.0161 195.264-32.9224 194.017-33.8853 193.394-35.1172 193.394-36.6182 193.394-39.1103 195.249-41.291 198.959-43.1602 202.075-44.7178 204.85-45.4966 207.285-45.4966 211.618-45.4966 215.513-44.562 218.968-42.6929 223.272-40.3706 225.425-37.1421 225.425-33.0073 225.425-28.7593 224.051-25.2476 221.304-22.4722 224.193-19.187 225.637-16.0859 225.637-13.1689 225.637-8.58105 224.164-4.90649 221.219-2.14526 218.274 0.615967 214.351 1.99658 209.452 1.99658ZM265.424 0.594727C262.649 0.594727 260.751-0.679688 259.732-3.22852 259.024-5.04102 257.211-8.00049 254.294-12.1069 251.151-16.5532 249.098-18.7764 248.135-18.7764 247.908-18.8047 246.775-18.8188 244.736-18.8188L244.694-11.0874C244.694-10.7192 244.708-10.0962 244.736-9.21826 244.765-8.34033 244.779-7.66064 244.779-7.1792 244.779-1.65674 242.726 1.10449 238.619 1.10449 237.033 1.10449 235.66 0.665527 234.499-0.212402 233.252-1.20361 232.629-2.49219 232.629-4.07812 232.629-5.32422 232.686-7.27124 232.799-9.91919 232.913-12.5671 232.969-14.5283 232.969-15.8027 232.969-18.3232 232.87-22.0898 232.672-27.1025 232.474-32.1152 232.375-35.8677 232.375-38.3599 232.375-42.8345 234.399-45.0718 238.449-45.0718 240.063-45.0718 241.437-44.6045 242.57-43.6699 243.788-42.6504 244.396-41.376 244.396-39.8467 244.396-37.7793 244.467-34.4092 244.609-29.7363 247.639-29.708 249.735-30.3311 250.896-31.6055 251.094-31.8037 252.071-33.5879 253.827-36.958 256.319-41.8008 259.534-44.2222 263.47-44.2222 264.773-44.2222 266.189-43.8257 267.718-43.0327 269.559-42.0981 270.479-40.9653 270.479-39.6343 270.479-38.3315 270.048-37.227 269.184-36.3208 268.32-35.4145 267.223-34.9614 265.892-34.9614 265.155-34.9614 264.093-33.6587 262.706-31.0532 261.969-29.5239 261.219-27.9946 260.454-26.4653 259.859-25.4458 259.236-24.582 258.585-23.874 261.559-21.4385 264.391-18.2524 267.081-14.3159 269.998-10.1245 271.457-6.86767 271.457-4.54541 271.457-2.95947 270.777-1.6709 269.417-0.679687 268.256 0.169922 266.925 0.594727 265.424 0.594727ZM322.029-3.05859C322.029-1.50098 321.463-0.191162 320.33 0.87085 319.197 1.93286 317.795 2.46387 316.125 2.46387 314.425 2.46387 313.009 1.93286 311.876 0.87085 310.744-0.191162 310.177-1.50098 310.177-3.05859 310.177-4.75781 310.262-7.31372 310.432-10.7263 310.602-14.1389 310.687-16.6948 310.687-18.394 310.687-19.9517 310.616-21.5942 310.475-23.3218 305.207-16.2134 300.478-10.9883 296.286-7.64648 292.491-4.64453 289.673-2.25854 287.833-0.488525 285.992 1.28149 284.009 2.1665 281.885 2.1665 280.299 2.1665 278.883 1.77002 277.637 0.977051 276.193 0.0141602 275.471-1.33105 275.471-3.05859 275.471-10.5635 275.329-18.394 275.046-26.5503 274.734-35.0181 274.579-39.167 274.579-38.9971 274.579-40.6113 275.131-41.9495 276.235-43.0115 277.34-44.0735 278.77-44.6045 280.526-44.6045 283.698-44.6045 285.638-42.9619 286.346-39.6768 286.459-39.2236 286.586-36.4766 286.728-31.4355L287.153-15.2505C290.806-18.5356 294.7-22.5996 298.835-27.4424 299.798-28.5752 303.324-32.9224 309.413-40.4839 311.423-43.0044 313.661-44.2646 316.125-44.2646 317.795-44.2646 319.197-43.7336 320.33-42.6716 321.463-41.6096 322.029-40.2998 322.029-38.7422 322.029-35.7969 322.086-31.3789 322.199-25.4883 322.312-19.5977 322.369-15.1797 322.369-12.2344 322.369-11.2148 322.312-9.68555 322.199-7.64648 322.086-5.60742 322.029-4.07812 322.029-3.05859ZM366.472 1.57178C364.773 1.57178 363.357 1.04785 362.224 0 361.091-1.04785 360.525-2.36475 360.525-3.95068 360.525-6.41455 360.468-10.8325 360.355-17.2046 359.817-17.2046 359.35-17.2046 358.953-17.2046 352.864-17.2046 346.96-16.5957 341.239-15.3779 341.211-14.2734 341.055-12.2769 340.772-9.38818 340.545-6.92432 340.432-4.89233 340.432-3.29224 340.432-1.69214 339.872-0.368164 338.754 0.679687 337.635 1.72754 336.226 2.25146 334.527 2.25146 332.828 2.25146 331.419 1.72754 330.3 0.679687 329.182-0.368164 328.622-1.69922 328.622-3.31348 328.622-4.27637 328.757-5.58618 329.026-7.24292 329.295-8.89966 329.429-10.2095 329.429-11.1724 329.429-12.7583 329.387-15.1443 329.302-18.3303 329.217-21.5164 329.174-23.9023 329.174-25.4883 329.174-27.1592 329.174-29.623 329.174-32.8799 329.203-36.1367 329.217-38.6006 329.217-40.2715 329.217-41.8574 329.776-43.1743 330.895-44.2222 332.014-45.27 333.422-45.7939 335.122-45.7939 336.821-45.7939 338.237-45.27 339.37-44.2222 340.503-43.1743 341.069-41.8574 341.069-40.2715 341.069-38.459 341.097-36.1934 341.154-33.4746 341.239-29.708 341.281-27.4707 341.281-26.7627 347.257-27.8955 353.558-28.3911 360.185-28.2495L360.185-29.1841C360.185-30.6284 360.242-32.6958 360.355-35.3862 360.468-38.0767 360.525-40.1157 360.525-41.5034 360.525-43.0894 361.091-44.4062 362.224-45.4541 363.357-46.5019 364.773-47.0259 366.472-47.0259 368.172-47.0259 369.58-46.5019 370.699-45.4541 371.818-44.4062 372.377-43.0894 372.377-41.5034 372.377-40.0874 372.32-38.0342 372.207-35.3437 372.094-32.6533 372.037-30.6001 372.037-29.1841 372.037-26.2954 372.094-22.0898 372.207-16.5674 372.32-11.0449 372.377-6.83935 372.377-3.95068 372.377-2.36475 371.818-1.04785 370.699 0 369.58 1.04785 368.172 1.57178 366.472 1.57178ZM400.727 2.63379C394.326 2.63379 388.861 0.863769 384.329-2.67627 379.487-6.49951 377.065-11.4414 377.065-17.502 377.065-24.3555 379.303-30.6284 383.777-36.3208 388.903-42.8628 395.431-46.1338 403.361-46.1338 418.54-46.1338 426.13-39.4219 426.13-25.998 426.13-19.1445 424.077-12.9141 419.971-7.30664 415.099-0.679688 408.685 2.63379 400.727 2.63379ZM403.361-34.9614C399.594-34.9614 396.309-33.156 393.505-29.5452 390.701-25.9343 389.3-21.9199 389.3-17.502 389.3-14.8398 390.369-12.6733 392.507-11.0024 394.645-9.33154 397.385-8.49609 400.727-8.49609 404.38-8.49609 407.51-10.3086 410.115-13.9336 412.636-17.417 413.896-21.4385 413.896-25.998 413.896-29.5381 413.167-31.917 411.708-33.1348 410.25-34.3525 407.467-34.9614 403.361-34.9614ZM477.863-3.05859C477.863-1.50098 477.296-0.191162 476.163 0.87085 475.031 1.93286 473.629 2.46387 471.958 2.46387 470.259 2.46387 468.843 1.93286 467.71 0.87085 466.577-0.191162 466.011-1.50098 466.011-3.05859 466.011-4.75781 466.095-7.31372 466.265-10.7263 466.435-14.1389 466.52-16.6948 466.52-18.394 466.52-19.9517 466.449-21.5942 466.308-23.3218 461.04-16.2134 456.311-10.9883 452.119-7.64648 448.324-4.64453 445.507-2.25854 443.666-0.488525 441.825 1.28149 439.843 2.1665 437.719 2.1665 436.133 2.1665 434.717 1.77002 433.471 0.977051 432.026 0.0141602 431.304-1.33105 431.304-3.05859 431.304-10.5635 431.162-18.394 430.879-26.5503 430.568-35.0181 430.412-39.167 430.412-38.9971 430.412-40.6113 430.964-41.9495 432.069-43.0115 433.173-44.0735 434.603-44.6045 436.359-44.6045 439.531-44.6045 441.471-42.9619 442.179-39.6768 442.292-39.2236 442.42-36.4766 442.561-31.4355L442.986-15.2505C446.639-18.5356 450.533-22.5996 454.668-27.4424 455.631-28.5752 459.157-32.9224 465.246-40.4839 467.257-43.0044 469.494-44.2646 471.958-44.2646 473.629-44.2646 475.031-43.7336 476.163-42.6716 477.296-41.6096 477.863-40.2998 477.863-38.7422 477.863-35.7969 477.919-31.3789 478.033-25.4883 478.146-19.5977 478.202-15.1797 478.202-12.2344 478.202-11.2148 478.146-9.68555 478.033-7.64648 477.919-5.60742 477.863-4.07812 477.863-3.05859ZM474.719-61.5542C474.323-57.3628 471.491-54.2759 466.223-52.2935 462.371-50.8208 457.798-50.0845 452.502-50.0845 448.055-50.0845 444.161-51.3447 440.82-53.8652 437.308-56.4707 435.552-59.6567 435.552-63.4233 435.552-64.5845 436.012-65.5544 436.933-66.3332 437.853-67.1121 439.007-67.5015 440.395-67.5015 441.783-67.5015 442.944-67.1121 443.878-66.3332 444.813-65.5544 445.28-64.5845 445.28-63.4233 445.28-62.0356 446.016-60.832 447.489-59.8125 448.962-58.7646 450.633-58.2407 452.502-58.2407 459.922-58.2407 464.127-59.7842 465.118-62.8711 465.826-65.0801 467.398-66.1846 469.834-66.1846 471.42-66.1846 472.666-65.7456 473.572-64.8677 474.478-63.9897 474.861-62.8853 474.719-61.5542Z" fill="#462100" transform="matrix(0.19986 0 0 0.200528 149.621 41)"/><path d="M46.8984-45.2417C44.3496-45.2417 42.4663-46.5869 41.2485-49.2773 40.6821-50.5518 40.1157-51.3164 39.5493-51.5713 39.1245-51.7695 38.0059-51.8686 36.1934-51.8686 32.625-51.8686 28.5044-49.0933 23.8315-43.5425 17.2895-35.7827 14.0186-28.5186 14.0186-21.75 14.0186-18.6631 15.0522-16.0151 17.1196-13.8062 19.187-11.5972 21.665-10.4927 24.5537-10.4927 27.3574-10.4927 30.2036-11.229 33.0923-12.7017 34.1118-13.2397 36.2642-14.6274 39.5493-16.8647 41.7583-18.3374 43.4292-19.0737 44.562-19.0737 46.2612-19.0737 47.7056-18.4507 48.895-17.2046 49.9995-16.0435 50.5518-14.7124 50.5518-13.2114 50.5518-11.5405 49.8154-10.082 48.3428-8.83594 40.5547-2.26562 32.625 1.01953 24.5537 1.01953 18.1816 1.01953 12.8008-1.30273 8.41113-5.94727 4.21973-10.4219 2.12402-15.6895 2.12402-21.75 2.12402-31.2373 6.27295-40.9228 14.5708-50.8066 21.6226-59.1894 28.8301-63.3809 36.1934-63.3809 37.4394-63.3809 38.5652-63.3384 39.5706-63.2534 40.5759-63.1685 41.4609-63.041 42.2256-62.8711 43.4717-64.0889 44.9727-64.6977 46.7285-64.6977 49.6172-64.6977 51.4014-63.041 52.0811-59.7275 52.5625-57.3486 52.8032-54.5732 52.8032-51.4014 52.8032-49.9853 52.3926-48.6968 51.5713-47.5356 50.4951-46.0063 48.9375-45.2417 46.8984-45.2417ZM90.6847 0.594727C87.9093 0.594727 86.0119-0.679688 84.9923-3.22852 84.2843-5.04102 82.4718-8.00049 79.5548-12.1069 76.4113-16.5532 74.3581-18.7764 73.3952-18.7764 73.1686-18.8047 72.0358-18.8188 69.9967-18.8188L69.9543-11.0874C69.9543-10.7192 69.9684-10.0962 69.9967-9.21826 70.0251-8.34033 70.0392-7.66064 70.0392-7.1792 70.0392-1.65674 67.986 1.10449 63.8796 1.10449 62.2936 1.10449 60.9201 0.665527 59.7589-0.212402 58.5129-1.20361 57.8898-2.49219 57.8898-4.07812 57.8898-5.32422 57.9464-7.27124 58.0597-9.91919 58.173-12.5671 58.2297-14.5283 58.2297-15.8027 58.2297-18.3232 58.1305-22.0898 57.9323-27.1025 57.734-32.1152 57.6349-35.8677 57.6349-38.3599 57.6349-42.8345 59.6598-45.0718 63.7096-45.0718 65.3239-45.0718 66.6974-44.6045 67.8302-43.6699 69.048-42.6504 69.6569-41.376 69.6569-39.8467 69.6569-37.7793 69.7277-34.4092 69.8693-29.7363 72.8996-29.708 74.9953-30.3311 76.1564-31.6055 76.3547-31.8037 77.3317-33.5879 79.0876-36.958 81.5797-41.8008 84.7941-44.2222 88.7306-44.2222 90.0334-44.2222 91.4494-43.8257 92.9787-43.0327 94.8195-42.0981 95.7399-40.9653 95.7399-39.6343 95.7399-38.3315 95.308-37.227 94.4442-36.3208 93.5805-35.4145 92.4831-34.9614 91.152-34.9614 90.4157-34.9614 89.3537-33.6587 87.966-31.0532 87.2296-29.5239 86.4792-27.9946 85.7145-26.4653 85.1198-25.4458 84.4967-24.582 83.8454-23.874 86.819-21.4385 89.651-18.2524 92.3415-14.3159 95.2584-10.1245 96.7169-6.86767 96.7169-4.54541 96.7169-2.95947 96.0373-1.6709 94.6779-0.679687 93.5168 0.169922 92.1857 0.594727 90.6847 0.594727ZM107.061 1.9541C105.531 1.9541 104.115 1.41602 102.813 0.339844 101.397-0.792969 100.689-2.10986 100.689-3.61084L100.689-11.0874C100.689-14.2593 100.745-18.4082 100.859-23.5342 101.028-30.2461 101.113-34.3809 101.113-35.9385 101.142-38.0625 101.326-39.5918 101.666-40.5264 102.232-42.1123 103.365-43.1177 105.064-43.5425 107.5-44.1938 110.969-44.5195 115.472-44.5195 120.315-44.5195 124.733-43.415 128.726-41.2061 133.625-38.5439 136.075-34.9048 136.075-30.2886 136.075-26.8618 134.531-24.1431 131.444-22.1323 136.627-18.8472 139.218-15.3921 139.218-11.7671 139.218-6.61279 134.985-2.84619 126.517-0.467285 120.824 1.14697 114.339 1.9541 107.061 1.9541ZM116.916-34.5366 115.174-34.5366C114.098-34.5366 113.192-34.5225 112.456-34.4941 112.456-33.9277 112.456-32.979 112.456-31.6479 112.456-31.0815 112.498-30.1187 112.583-28.7593 112.696-27.1733 112.753-26.2104 112.753-25.8706 113.943-25.7856 114.835-25.7432 115.429-25.7432 117.327-25.7432 119.196-26.0547 121.037-26.6777 123.501-27.5273 124.733-28.731 124.733-30.2886 124.733-31.2231 123.84-32.1648 122.056-33.1135 120.272-34.0623 118.559-34.5366 116.916-34.5366ZM119.932-18.394C119.309-18.5073 116.704-18.6348 112.116-18.7764 112.059-17.7285 112.031-16.1992 112.031-14.1885L112.031-8.15625C122.283-8.60937 127.409-9.92627 127.409-12.1069 127.409-13.3247 126.446-14.6416 124.52-16.0576 122.821-17.332 121.292-18.1108 119.932-18.394ZM166.681 1.9541C159.912 1.9541 154.375 0.339844 150.071-2.88867 145.313-6.45703 142.934-11.4839 142.934-17.9692 142.934-25.1343 144.817-31.1948 148.584-36.1509 152.775-41.645 158.425-44.3921 165.534-44.3921 170.461-44.3921 174.554-43.5991 177.811-42.0132 182.087-39.9175 184.225-36.6606 184.225-32.2427 184.225-29.1274 182.483-26.3662 179-23.959 177.414-22.8545 174.228-21.2402 169.442-19.1162L155.126-12.7866C156.485-11.314 158.128-10.2095 160.054-9.47314 161.979-8.73682 164.188-8.36865 166.681-8.36865 170.476-8.36865 173.69-9.14746 176.324-10.7051 178.674-12.0928 180.558-12.7866 181.974-12.7866 184.919-12.7866 186.392-11.3564 186.392-8.49609 186.392-5.26758 184.027-2.63379 179.297-0.594727 175.332 1.10449 171.127 1.9541 166.681 1.9541ZM165.534-34.1118C162.9-34.1118 160.648-33.2339 158.779-31.478 156.91-29.7222 155.409-27.0884 154.276-23.5767 157.477-24.9644 160.663-26.3379 163.834-27.6973 167.658-29.4248 170.702-31.0249 172.968-32.4976 171.07-33.5737 168.592-34.1118 165.534-34.1118ZM213.594 2.50635C211.159 2.50635 208.596 2.22314 205.905 1.65674L205.863 18.9888C205.863 20.6313 205.311 21.9907 204.206 23.0669 203.102 24.1431 201.7 24.6812 200.001 24.6812 198.301 24.6812 196.9 24.1431 195.795 23.0669 194.691 21.9907 194.138 20.6313 194.138 18.9888 194.138 17.6577 194.167 12.376 194.223 3.14355 194.28-3.70996 194.28-9.30322 194.223-13.6362 194.138-19.7534 193.94-25.021 193.629-29.439 193.204-35.5278 192.991-38.3174 192.991-37.8076 192.991-40.1582 193.515-42.1689 194.563-43.8398 195.781-45.7373 197.423-46.686 199.491-46.686 201.077-46.686 202.408-46.1479 203.484-45.0718 204.56-43.9956 205.098-42.707 205.098-41.2061L205.056-40.7812C206.953-41.8574 208.858-42.6575 210.769-43.1814 212.681-43.7053 214.6-43.9673 216.526-43.9673 223.039-43.9673 227.797-41.2061 230.799-35.6836 233.036-31.5205 234.155-26.1255 234.155-19.4985 234.155-13.2964 232.385-8.15625 228.845-4.07812 225.05 0.311523 219.966 2.50635 213.594 2.50635ZM216.526-32.625C214.741-32.625 212.929-32.2073 211.088-31.3718 209.247-30.5364 207.392-29.2832 205.523-27.6123 205.863-21.7783 206.033-15.9302 206.033-10.0679 208.553-9.24658 211.074-8.83594 213.594-8.83594 216.511-8.83594 218.749-9.86963 220.306-11.937 221.722-13.8062 222.43-16.3267 222.43-19.4985 222.43-23.3218 222.26-25.9697 221.921-27.4424 221.099-30.8975 219.301-32.625 216.526-32.625ZM326.955 1.27441C324.717 1.18945 322.466-1.44434 320.2-6.62695 318.699-9.96875 317.411-13.8203 316.335-18.1816 314.239-17.8701 310.812-17.5586 306.054-17.2471 301.58-16.9355 298.153-16.5674 295.774-16.1426 294.471-13.0273 292.206-8.34033 288.977-2.08154 287.731-0.0424805 286.004 0.977051 283.795 0.977051 282.237 0.977051 280.835 0.446045 279.589-0.615967 278.343-1.67798 277.72-3.03027 277.72-4.67285 277.72-6.11719 279.787-11.0166 283.922-19.3711 283.526-20.249 283.356-21.0703 283.412-21.835 283.526-23.1943 284.899-24.2563 287.533-25.021 291.554-31.9878 296.029-39.2095 300.957-46.686 308.037-57.4194 312.398-62.7861 314.041-62.7861 317.156-62.7861 319.237-60.9028 320.285-57.1362 320.852-54.106 321.744-49.5605 322.962-43.5 324.689-35.3437 326.799-26.0122 329.291-15.5054 329.489-14.7124 330.212-12.8433 331.458-9.89795 332.477-7.4624 332.987-5.63574 332.987-4.41797 332.987-2.77539 332.371-1.40186 331.139-0.297363 329.907 0.807129 328.512 1.33105 326.955 1.27441ZM311.11-42.3105C308.901-38.5156 305.856-33.3472 301.976-26.8052 303.251-27.0884 305.233-27.3149 307.923-27.4849 311.095-27.6831 313.092-27.8389 313.913-27.9521 313.234-31.6338 312.299-36.4199 311.11-42.3105ZM376.785 1.57178C375.086 1.57178 373.67 1.04785 372.537 0 371.404-1.04785 370.838-2.36475 370.838-3.95068 370.838-6.41455 370.781-10.8325 370.668-17.2046 370.13-17.2046 369.662-17.2046 369.266-17.2046 363.177-17.2046 357.272-16.5957 351.551-15.3779 351.523-14.2734 351.367-12.2769 351.084-9.38818 350.858-6.92432 350.744-4.89233 350.744-3.29224 350.744-1.69214 350.185-0.368164 349.066 0.679687 347.948 1.72754 346.539 2.25146 344.84 2.25146 343.14 2.25146 341.731 1.72754 340.613 0.679687 339.494-0.368164 338.935-1.69922 338.935-3.31348 338.935-4.27637 339.069-5.58618 339.338-7.24292 339.607-8.89966 339.742-10.2095 339.742-11.1724 339.742-12.7583 339.699-15.1443 339.614-18.3303 339.529-21.5164 339.487-23.9023 339.487-25.4883 339.487-27.1592 339.487-29.623 339.487-32.8799 339.515-36.1367 339.529-38.6006 339.529-40.2715 339.529-41.8574 340.089-43.1743 341.207-44.2222 342.326-45.27 343.735-45.7939 345.434-45.7939 347.133-45.7939 348.549-45.27 349.682-44.2222 350.815-43.1743 351.381-41.8574 351.382-40.2715 351.381-38.459 351.41-36.1934 351.466-33.4746 351.551-29.708 351.594-27.4707 351.594-26.7627 357.569-27.8955 363.871-28.3911 370.498-28.2495L370.498-29.1841C370.498-30.6284 370.554-32.6958 370.668-35.3862 370.781-38.0767 370.838-40.1157 370.838-41.5034 370.838-43.0894 371.404-44.4062 372.537-45.4541 373.67-46.5019 375.086-47.0259 376.785-47.0259 378.484-47.0259 379.893-46.5019 381.012-45.4541 382.13-44.4062 382.69-43.0894 382.69-41.5034 382.69-40.0874 382.633-38.0342 382.52-35.3437 382.406-32.6533 382.35-30.6001 382.35-29.1841 382.35-26.2954 382.406-22.0898 382.52-16.5674 382.633-11.0449 382.69-6.83935 382.69-3.95068 382.69-2.36475 382.13-1.04785 381.012 0 379.893 1.04785 378.484 1.57178 376.785 1.57178ZM425.483 1.57178C423.783 1.57178 422.367 1.04785 421.235 0 420.102-1.04785 419.535-2.36475 419.535-3.95068 419.535-6.41455 419.479-10.8325 419.366-17.2046 418.827-17.2046 418.36-17.2046 417.964-17.2046 411.875-17.2046 405.97-16.5957 400.249-15.3779 400.221-14.2734 400.065-12.2769 399.782-9.38818 399.555-6.92432 399.442-4.89233 399.442-3.29224 399.442-1.69214 398.883-0.368164 397.764 0.679687 396.646 1.72754 395.237 2.25146 393.537 2.25146 391.838 2.25146 390.429 1.72754 389.311 0.679687 388.192-0.368164 387.633-1.69922 387.633-3.31348 387.633-4.27637 387.767-5.58618 388.036-7.24292 388.305-8.89966 388.44-10.2095 388.44-11.1724 388.44-12.7583 388.397-15.1443 388.312-18.3303 388.227-21.5164 388.185-23.9023 388.185-25.4883 388.185-27.1592 388.185-29.623 388.185-32.8799 388.213-36.1367 388.227-38.6006 388.227-40.2715 388.227-41.8574 388.787-43.1743 389.905-44.2222 391.024-45.27 392.433-45.7939 394.132-45.7939 395.831-45.7939 397.247-45.27 398.38-44.2222 399.513-43.1743 400.079-41.8574 400.079-40.2715 400.079-38.459 400.108-36.1934 400.164-33.4746 400.249-29.708 400.292-27.4707 400.292-26.7627 406.267-27.8955 412.569-28.3911 419.196-28.2495L419.196-29.1841C419.196-30.6284 419.252-32.6958 419.366-35.3862 419.479-38.0767 419.535-40.1157 419.535-41.5034 419.535-43.0894 420.102-44.4062 421.235-45.4541 422.367-46.5019 423.783-47.0259 425.483-47.0259 427.182-47.0259 428.591-46.5019 429.71-45.4541 430.828-44.4062 431.387-43.0894 431.388-41.5034 431.387-40.0874 431.331-38.0342 431.218-35.3437 431.104-32.6533 431.048-30.6001 431.048-29.1841 431.048-26.2954 431.104-22.0898 431.218-16.5674 431.331-11.0449 431.387-6.83935 431.388-3.95068 431.387-2.36475 430.828-1.04785 429.71 0 428.591 1.04785 427.182 1.57178 425.483 1.57178ZM495.293 0.169922C490.706 0.169922 485.523 0.708008 479.746 1.78418 479.264 1.86914 478.811 1.91162 478.386 1.91162 476.772 1.91162 475.441 1.35937 474.393 0.254883 473.345-0.849609 472.821-2.12402 472.821-3.56836 472.821-5.55078 473.869-6.98096 475.965-7.85889 477.098-8.34033 479.023-8.73682 481.742-9.04834 481.629-12.7866 481.572-15.2646 481.572-16.4824 481.572-16.9639 481.7-22.8403 481.955-34.1118 481.388-34.1401 480.765-34.1543 480.085-34.1543 479.689-34.1543 479.108-34.0977 478.344-33.9844 477.579-33.8711 476.998-33.8144 476.602-33.8144 474.988-33.8144 473.657-34.303 472.609-35.28 471.561-36.2571 471.037-37.4819 471.037-38.9546 471.037-42.5229 473.6-44.3071 478.726-44.3071 479.434-44.3071 480.51-44.2788 481.955-44.2222 483.399-44.1655 484.489-44.1372 485.226-44.1372 486.415-44.1372 488.206-44.2151 490.599-44.3708 492.992-44.5266 494.798-44.6045 496.016-44.6045 497.658-44.6045 499.018-44.1018 500.094-43.0964 501.17-42.0911 501.708-40.8096 501.708-39.2519 501.708-37.7227 501.163-36.5049 500.072-35.5986 498.982-34.6924 497.63-34.2393 496.016-34.2393 494.628-34.2393 493.608-34.2109 492.957-34.1543 492.674-23.3076 492.532-17.417 492.532-16.4824 492.532-15.123 492.589-13.0273 492.702-10.1953 493.608-10.252 494.472-10.2803 495.293-10.2803 500.448-10.2803 503.025-8.52441 503.025-5.01269 503.025-3.28516 502.147-1.9541 500.391-1.01953 498.947-0.226562 497.247 0.169922 495.293 0.169922ZM454.512 0.679687C453.578 0.679687 452.162 0.637207 450.264 0.552246 448.367 0.467285 446.951 0.424805 446.016 0.424805L445.209 0.552246C445.039 0.580566 444.841 0.594727 444.614 0.594727 440.593 0.594727 438.582-1.75586 438.582-6.45703 438.582-7.08008 438.738-8.72266 439.049-11.3848 439.446-14.7832 439.644-18.04 439.644-21.1553 439.644-23.1377 439.509-26.1184 439.24-30.0974 438.971-34.0764 438.837-37.0713 438.837-39.082 438.837-42.9336 440.777-44.8594 444.657-44.8594 446.299-44.8594 447.687-44.4204 448.82-43.5425 450.094-42.5796 450.731-41.2769 450.731-39.6343 450.731-37.0854 450.873-33.8003 451.156-29.7788 451.779-29.8071 452.346-29.8213 452.855-29.8213 459.709-29.8213 464.849-28.9575 468.276-27.23 473.147-24.8228 475.582-20.4897 475.582-14.231 475.582-8.8501 473.26-4.88525 468.616-2.33643 464.962-0.325684 460.261 0.679687 454.512 0.679687ZM454.257-19.9233C453.436-19.9233 452.487-19.895 451.411-19.8384 451.439-17.771 451.241-14.2734 450.816-9.3457 452.204-9.31738 453.436-9.30322 454.512-9.30322 460.828-9.30322 463.985-10.9458 463.985-14.231 463.985-16.8081 462.966-18.479 460.927-19.2437 459.794-19.6968 457.571-19.9233 454.257-19.9233Z" fill="#462100" transform="matrix(0.19986 0 0 0.200528 41.4156 41)"/><path d="M17.5444-23.7041C17.063-23.7041 15.8735-23.8032 13.9761-24.0015 13.8062-20.0366 13.7212-13.5229 13.7212-4.46045 13.7212-2.95947 13.1973-1.6709 12.1494-0.594727 11.1016 0.481445 9.77051 1.01953 8.15625 1.01953 6.54199 1.01953 5.20386 0.481445 4.14185-0.594727 3.07983-1.6709 2.54883-2.95947 2.54883-4.46045L2.54883-16.3125C2.54883-20.7021 2.83203-27.2017 3.39844-35.811 3.93652-44.562 4.21973-51.0898 4.24805-55.3945 4.27637-62.7578 6.34375-66.2837 10.4502-65.9722 11.4131-66.227 12.7441-66.4182 14.4434-66.5456 16.1426-66.6731 18.21-66.7368 20.6455-66.7368 26.1963-66.7368 31.4072-64.9385 36.2783-61.3418 41.6875-57.3203 44.3921-52.4209 44.3921-46.6436 44.3921-39.3936 41.5176-33.6304 35.7686-29.354 30.6709-25.5874 24.5962-23.7041 17.5444-23.7041ZM19.6685-55.7769C18.7622-55.7769 17.9622-55.7698 17.2683-55.7556 16.5745-55.7415 15.9868-55.7061 15.5054-55.6494 15.5054-54.3184 15.4912-52.3218 15.4629-49.6597 15.4062-46.5161 15.1372-41.6167 14.6558-34.9614 16.1001-34.7349 17.063-34.6216 17.5444-34.6216 21.9624-34.6216 25.6299-35.6694 28.5469-37.7651 31.6621-40.0024 33.2197-42.9619 33.2197-46.6436 33.2197-49.0508 31.7612-51.189 28.8442-53.0581 26.0405-54.8706 22.9819-55.7769 19.6685-55.7769ZM71.2998 2.63379C64.8994 2.63379 59.4336 0.863769 54.9023-2.67627 50.0596-6.49951 47.6382-11.4414 47.6382-17.502 47.6382-24.3555 49.8755-30.6284 54.3501-36.3208 59.4761-42.8628 66.0039-46.1338 73.9336-46.1338 89.1133-46.1338 96.7031-39.4219 96.7031-25.998 96.7031-19.1445 94.6499-12.9141 90.5434-7.30664 85.6724-0.679688 79.2578 2.63379 71.2998 2.63379ZM73.9336-34.9614C70.167-34.9614 66.8818-33.156 64.0781-29.5452 61.2744-25.9343 59.8726-21.9199 59.8726-17.502 59.8726-14.8398 60.9416-12.6733 63.0798-11.0024 65.218-9.33154 67.958-8.49609 71.2998-8.49609 74.9531-8.49609 78.0825-10.3086 80.688-13.9336 83.2085-17.417 84.4687-21.4385 84.4687-25.998 84.4687-29.5381 83.7395-31.917 82.281-33.1348 80.8225-34.3525 78.04-34.9614 73.9336-34.9614ZM114.069-34.0269C114.267-32.5825 114.494-30.4302 114.749-27.5698 115.173-16.1284 115.386-8.12793 115.386-3.56836 115.386-1.98242 114.819-0.665527 113.687 0.382324 112.554 1.43018 111.138 1.9541 109.438 1.9541 107.739 1.9541 106.33 1.43018 105.212 0.382324 104.093-0.665527 103.534-1.98242 103.534-3.56836 103.534-7.95801 103.335-15.8452 102.939-27.23 102.911-28.2778 102.727-30.0054 102.387-32.4126 102.104-34.6216 101.962-36.335 101.962-37.5527 101.962-42.5088 105.799-44.9868 113.474-44.9868 115.06-44.9868 117.46-44.916 120.675-44.7744 123.889-44.6328 126.289-44.562 127.875-44.562 128.526-44.562 129.496-44.6116 130.785-44.7107 132.073-44.8098 133.043-44.8594 133.695-44.8594 135.366-44.8594 136.768-44.3071 137.9-43.2026 138.948-42.1265 139.472-40.8237 139.472-39.2944 139.472-36.689 138.127-34.9756 135.437-34.1543 134.049-33.7295 131.627-33.5171 128.172-33.5171 126.671-33.5171 124.321-33.602 121.121-33.772 118.034-33.9419 115.683-34.0269 114.069-34.0269ZM163.539 2.63379C157.139 2.63379 151.673 0.863769 147.142-2.67627 142.299-6.49951 139.878-11.4414 139.878-17.502 139.878-24.3555 142.115-30.6284 146.59-36.3208 151.716-42.8628 158.243-46.1338 166.173-46.1338 181.353-46.1338 188.943-39.4219 188.943-25.998 188.943-19.1445 186.889-12.9141 182.783-7.30664 177.912-0.679688 171.497 2.63379 163.539 2.63379ZM166.173-34.9614C162.407-34.9614 159.121-33.156 156.318-29.5452 153.514-25.9343 152.112-21.9199 152.112-17.502 152.112-14.8398 153.181-12.6733 155.319-11.0024 157.458-9.33154 160.198-8.49609 163.539-8.49609 167.193-8.49609 170.322-10.3086 172.928-13.9336 175.448-17.417 176.708-21.4385 176.708-25.998 176.708-29.5381 175.979-31.917 174.521-33.1348 173.062-34.3525 170.28-34.9614 166.173-34.9614ZM209.452 1.99658C205.657 1.99658 202.23 1.43018 199.172 0.297363 195.065-1.23193 193.012-3.4834 193.012-6.45703 193.012-7.58984 193.586-8.72974 194.732-9.87671 195.879-11.0237 197.09-11.5972 198.365-11.5972 199.696-11.5972 201.529-11.1157 203.866-10.1528 206.202-9.18994 208.064-8.7085 209.452-8.7085 210.528-8.7085 211.59-9.19702 212.638-10.1741 213.686-11.1511 214.21-12.1494 214.21-13.1689 214.21-14.7549 213.091-15.9302 210.854-16.6948 208.73-17.2895 206.62-17.8701 204.524-18.4365 202.259-19.2295 201.126-20.4331 201.126-22.0474 201.126-24.1147 201.961-25.5449 203.632-26.3379 204.567-26.8193 206.28-27.2017 208.772-27.4849 210.585-27.6831 211.817-27.9946 212.468-28.4194 213.346-29.0142 213.785-30.0903 213.785-31.6479 213.785-33.7436 211.618-34.7915 207.285-34.7915 206.408-34.7915 205.19-34.2534 203.632-33.1772 202.075-32.1011 200.616-31.563 199.257-31.563 197.756-31.563 196.425-32.0161 195.264-32.9224 194.017-33.8853 193.394-35.1172 193.394-36.6182 193.394-39.1103 195.249-41.291 198.959-43.1602 202.075-44.7178 204.85-45.4966 207.285-45.4966 211.618-45.4966 215.513-44.562 218.968-42.6929 223.272-40.3706 225.425-37.1421 225.425-33.0073 225.425-28.7593 224.051-25.2476 221.304-22.4722 224.193-19.187 225.637-16.0859 225.637-13.1689 225.637-8.58105 224.164-4.90649 221.219-2.14526 218.274 0.615967 214.351 1.99658 209.452 1.99658ZM265.424 0.594727C262.649 0.594727 260.751-0.679688 259.732-3.22852 259.024-5.04102 257.211-8.00049 254.294-12.1069 251.151-16.5532 249.098-18.7764 248.135-18.7764 247.908-18.8047 246.775-18.8188 244.736-18.8188L244.694-11.0874C244.694-10.7192 244.708-10.0962 244.736-9.21826 244.765-8.34033 244.779-7.66064 244.779-7.1792 244.779-1.65674 242.726 1.10449 238.619 1.10449 237.033 1.10449 235.66 0.665527 234.499-0.212402 233.252-1.20361 232.629-2.49219 232.629-4.07812 232.629-5.32422 232.686-7.27124 232.799-9.91919 232.913-12.5671 232.969-14.5283 232.969-15.8027 232.969-18.3232 232.87-22.0898 232.672-27.1025 232.474-32.1152 232.375-35.8677 232.375-38.3599 232.375-42.8345 234.399-45.0718 238.449-45.0718 240.063-45.0718 241.437-44.6045 242.57-43.6699 243.788-42.6504 244.396-41.376 244.396-39.8467 244.396-37.7793 244.467-34.4092 244.609-29.7363 247.639-29.708 249.735-30.3311 250.896-31.6055 251.094-31.8037 252.071-33.5879 253.827-36.958 256.319-41.8008 259.534-44.2222 263.47-44.2222 264.773-44.2222 266.189-43.8257 267.718-43.0327 269.559-42.0981 270.479-40.9653 270.479-39.6343 270.479-38.3315 270.048-37.227 269.184-36.3208 268.32-35.4145 267.223-34.9614 265.892-34.9614 265.155-34.9614 264.093-33.6587 262.706-31.0532 261.969-29.5239 261.219-27.9946 260.454-26.4653 259.859-25.4458 259.236-24.582 258.585-23.874 261.559-21.4385 264.391-18.2524 267.081-14.3159 269.998-10.1245 271.457-6.86767 271.457-4.54541 271.457-2.95947 270.777-1.6709 269.417-0.679687 268.256 0.169922 266.925 0.594727 265.424 0.594727ZM322.029-3.05859C322.029-1.50098 321.463-0.191162 320.33 0.87085 319.197 1.93286 317.795 2.46387 316.125 2.46387 314.425 2.46387 313.009 1.93286 311.876 0.87085 310.744-0.191162 310.177-1.50098 310.177-3.05859 310.177-4.75781 310.262-7.31372 310.432-10.7263 310.602-14.1389 310.687-16.6948 310.687-18.394 310.687-19.9517 310.616-21.5942 310.475-23.3218 305.207-16.2134 300.478-10.9883 296.286-7.64648 292.491-4.64453 289.673-2.25854 287.833-0.488525 285.992 1.28149 284.009 2.1665 281.885 2.1665 280.299 2.1665 278.883 1.77002 277.637 0.977051 276.193 0.0141602 275.471-1.33105 275.471-3.05859 275.471-10.5635 275.329-18.394 275.046-26.5503 274.734-35.0181 274.579-39.167 274.579-38.9971 274.579-40.6113 275.131-41.9495 276.235-43.0115 277.34-44.0735 278.77-44.6045 280.526-44.6045 283.698-44.6045 285.638-42.9619 286.346-39.6768 286.459-39.2236 286.586-36.4766 286.728-31.4355L287.153-15.2505C290.806-18.5356 294.7-22.5996 298.835-27.4424 299.798-28.5752 303.324-32.9224 309.413-40.4839 311.423-43.0044 313.661-44.2646 316.125-44.2646 317.795-44.2646 319.197-43.7336 320.33-42.6716 321.463-41.6096 322.029-40.2998 322.029-38.7422 322.029-35.7969 322.086-31.3789 322.199-25.4883 322.312-19.5977 322.369-15.1797 322.369-12.2344 322.369-11.2148 322.312-9.68555 322.199-7.64648 322.086-5.60742 322.029-4.07812 322.029-3.05859ZM366.472 1.57178C364.773 1.57178 363.357 1.04785 362.224 0 361.091-1.04785 360.525-2.36475 360.525-3.95068 360.525-6.41455 360.468-10.8325 360.355-17.2046 359.817-17.2046 359.35-17.2046 358.953-17.2046 352.864-17.2046 346.96-16.5957 341.239-15.3779 341.211-14.2734 341.055-12.2769 340.772-9.38818 340.545-6.92432 340.432-4.89233 340.432-3.29224 340.432-1.69214 339.872-0.368164 338.754 0.679687 337.635 1.72754 336.226 2.25146 334.527 2.25146 332.828 2.25146 331.419 1.72754 330.3 0.679687 329.182-0.368164 328.622-1.69922 328.622-3.31348 328.622-4.27637 328.757-5.58618 329.026-7.24292 329.295-8.89966 329.429-10.2095 329.429-11.1724 329.429-12.7583 329.387-15.1443 329.302-18.3303 329.217-21.5164 329.174-23.9023 329.174-25.4883 329.174-27.1592 329.174-29.623 329.174-32.8799 329.203-36.1367 329.217-38.6006 329.217-40.2715 329.217-41.8574 329.776-43.1743 330.895-44.2222 332.014-45.27 333.422-45.7939 335.122-45.7939 336.821-45.7939 338.237-45.27 339.37-44.2222 340.503-43.1743 341.069-41.8574 341.069-40.2715 341.069-38.459 341.097-36.1934 341.154-33.4746 341.239-29.708 341.281-27.4707 341.281-26.7627 347.257-27.8955 353.558-28.3911 360.185-28.2495L360.185-29.1841C360.185-30.6284 360.242-32.6958 360.355-35.3862 360.468-38.0767 360.525-40.1157 360.525-41.5034 360.525-43.0894 361.091-44.4062 362.224-45.4541 363.357-46.5019 364.773-47.0259 366.472-47.0259 368.172-47.0259 369.58-46.5019 370.699-45.4541 371.818-44.4062 372.377-43.0894 372.377-41.5034 372.377-40.0874 372.32-38.0342 372.207-35.3437 372.094-32.6533 372.037-30.6001 372.037-29.1841 372.037-26.2954 372.094-22.0898 372.207-16.5674 372.32-11.0449 372.377-6.83935 372.377-3.95068 372.377-2.36475 371.818-1.04785 370.699 0 369.58 1.04785 368.172 1.57178 366.472 1.57178ZM400.727 2.63379C394.326 2.63379 388.861 0.863769 384.329-2.67627 379.487-6.49951 377.065-11.4414 377.065-17.502 377.065-24.3555 379.303-30.6284 383.777-36.3208 388.903-42.8628 395.431-46.1338 403.361-46.1338 418.54-46.1338 426.13-39.4219 426.13-25.998 426.13-19.1445 424.077-12.9141 419.971-7.30664 415.099-0.679688 408.685 2.63379 400.727 2.63379ZM403.361-34.9614C399.594-34.9614 396.309-33.156 393.505-29.5452 390.701-25.9343 389.3-21.9199 389.3-17.502 389.3-14.8398 390.369-12.6733 392.507-11.0024 394.645-9.33154 397.385-8.49609 400.727-8.49609 404.38-8.49609 407.51-10.3086 410.115-13.9336 412.636-17.417 413.896-21.4385 413.896-25.998 413.896-29.5381 413.167-31.917 411.708-33.1348 410.25-34.3525 407.467-34.9614 403.361-34.9614ZM477.863-3.05859C477.863-1.50098 477.296-0.191162 476.163 0.87085 475.031 1.93286 473.629 2.46387 471.958 2.46387 470.259 2.46387 468.843 1.93286 467.71 0.87085 466.577-0.191162 466.011-1.50098 466.011-3.05859 466.011-4.75781 466.095-7.31372 466.265-10.7263 466.435-14.1389 466.52-16.6948 466.52-18.394 466.52-19.9517 466.449-21.5942 466.308-23.3218 461.04-16.2134 456.311-10.9883 452.119-7.64648 448.324-4.64453 445.507-2.25854 443.666-0.488525 441.825 1.28149 439.843 2.1665 437.719 2.1665 436.133 2.1665 434.717 1.77002 433.471 0.977051 432.026 0.0141602 431.304-1.33105 431.304-3.05859 431.304-10.5635 431.162-18.394 430.879-26.5503 430.568-35.0181 430.412-39.167 430.412-38.9971 430.412-40.6113 430.964-41.9495 432.069-43.0115 433.173-44.0735 434.603-44.6045 436.359-44.6045 439.531-44.6045 441.471-42.9619 442.179-39.6768 442.292-39.2236 442.42-36.4766 442.561-31.4355L442.986-15.2505C446.639-18.5356 450.533-22.5996 454.668-27.4424 455.631-28.5752 459.157-32.9224 465.246-40.4839 467.257-43.0044 469.494-44.2646 471.958-44.2646 473.629-44.2646 475.031-43.7336 476.163-42.6716 477.296-41.6096 477.863-40.2998 477.863-38.7422 477.863-35.7969 477.919-31.3789 478.033-25.4883 478.146-19.5977 478.202-15.1797 478.202-12.2344 478.202-11.2148 478.146-9.68555 478.033-7.64648 477.919-5.60742 477.863-4.07812 477.863-3.05859ZM474.719-61.5542C474.323-57.3628 471.491-54.2759 466.223-52.2935 462.371-50.8208 457.798-50.0845 452.502-50.0845 448.055-50.0845 444.161-51.3447 440.82-53.8652 437.308-56.4707 435.552-59.6567 435.552-63.4233 435.552-64.5845 436.012-65.5544 436.933-66.3332 437.853-67.1121 439.007-67.5015 440.395-67.5015 441.783-67.5015 442.944-67.1121 443.878-66.3332 444.813-65.5544 445.28-64.5845 445.28-63.4233 445.28-62.0356 446.016-60.832 447.489-59.8125 448.962-58.7646 450.633-58.2407 452.502-58.2407 459.922-58.2407 464.127-59.7842 465.118-62.8711 465.826-65.0801 467.398-66.1846 469.834-66.1846 471.42-66.1846 472.666-65.7456 473.572-64.8677 474.478-63.9897 474.861-62.8853 474.719-61.5542Z" fill="#462100" transform="matrix(0.19986 0 0 0.200528 149.621 41)"/></g></g><path d="M3031 2160.5C3025.89 2125.58 3062.59 2084.53 3101.49 2090 3146.91 2088.52 3226.43 2097.15 3295.71 2090 3364.99 2082.85 3414.57 2081.15 3489.94 2090 3565.31 2098.85 3640.91 2099.64 3684.16 2090 3727.41 2080.36 3792.63 2082.51 3867.59 2090 3942.56 2097.49 4072.75 2077.2 4180.51 2090 4212.67 2093.38 4252.68 2118.27 4251 2160.5L4251 2160.5C4255.39 2192.39 4214.07 2230.6 4180.51 2231 4128 2230.38 4067.91 2230.9 3975.5 2231 3883.09 2231.1 3853.26 2230.57 3759.69 2231 3666.13 2231.43 3640.83 2234.34 3554.68 2231 3468.53 2227.66 3425.33 2235.27 3371.24 2231 3317.16 2226.73 3204.28 2240.02 3101.49 2231 3071.37 2232.3 3030.29 2193.08 3031 2160.5L3031 2160.5Z" fill="#FFFFFF" fill-rule="evenodd"/><path d="M3031 2160.5C3028.11 2118.03 3056.07 2089.93 3101.49 2090 3179.14 2093.78 3235.26 2089.53 3306.5 2090 3377.75 2090.47 3402.48 2085.63 3489.94 2090 3577.39 2094.37 3626.41 2099.97 3727.32 2090 3828.24 2080.03 3847.83 2085.05 3964.71 2090 4081.59 2094.95 4073.13 2086.46 4180.51 2090 4220.56 2088.17 4244.9 2121.96 4251 2160.5L4251 2160.5C4255.2 2203.86 4215.49 2222.16 4180.51 2231 4081.8 2231.13 4005.77 2226.61 3953.92 2231 3902.06 2235.39 3799.64 2239.88 3748.9 2231 3698.16 2222.12 3620.38 2226.82 3511.52 2231 3402.65 2235.18 3405.37 2236.4 3306.5 2231 3207.63 2225.6 3174.26 2234.15 3101.49 2231 3069.54 2224.48 3035.17 2197.34 3031 2160.5L3031 2160.5Z" stroke="#462100" stroke-width="10.3125" stroke-miterlimit="8" fill="none" fill-rule="evenodd"/><text fill="#462100" font-family="Comic Sans MS,Comic Sans MS_MSFontService,sans-serif" font-weight="700" font-size="87" transform="matrix(1 0 0 1 3135.22 2184)">  <tspan font-size="87" x="541.406" y="0"></tspan></text><path d="M3675 2243C3675 2264.54 3657.54 2282 3636 2282 3614.46 2282 3597 2264.54 3597 2243 3597 2221.46 3614.46 2204 3636 2204 3657.54 2204 3675 2221.46 3675 2243Z" fill="#F2EBEA" fill-rule="evenodd"/><path d="M3657.88 2242.11C3658.39 2254.37 3648.86 2264.72 3636.61 2265.23 3624.35 2265.74 3614 2256.21 3613.49 2243.96 3612.98 2231.7 3622.5 2221.35 3634.76 2220.84 3647.02 2220.33 3657.37 2229.85 3657.88 2242.11Z" fill="#C9AFAB" fill-rule="evenodd"/><path d="M3702.45 2283.11C3697.69 2282.84 3693.54 2285.59 3691.7 2289.61L3691.7 2284.7C3691.7 2278.54 3686.69 2273.55 3680.55 2273.55L3680.55 2273.55C3676.48 2273.55 3672.93 2275.75 3670.99 2278.98L3670.99 2278.32C3670.99 2272.16 3665.99 2267.18 3659.85 2267.18L3659.85 2267.18C3654.52 2267.18 3650.06 2270.92 3648.95 2275.94L3648.95 2245.62C3648.95 2239.9 3644.84 2234.74 3639.16 2234.08 3632.4 2233.28 3626.66 2238.54 3626.66 2245.15L3626.66 2310.64C3626.66 2311.4 3625.63 2311.65 3625.28 2310.97L3614.25 2289.32C3611.66 2283.73 3605.03 2281.31 3599.44 2283.93 3593.86 2286.53 3591.44 2293.16 3594.05 2298.74L3613.05 2349.36 3627.59 2375.98C3628.27 2377.23 3629.57 2378 3631 2378L3698.73 2378C3700.55 2378 3702.12 2376.74 3702.51 2374.96L3712.11 2331.18C3712.69 2328.89 3713 2326.54 3713 2324.2L3713 2294.77C3713 2288.95 3708.29 2283.48 3702.47 2283.15Z" fill="#875E21" fill-rule="evenodd"/></g></svg>