<svg width="1063" height="377" xmlns="http://www.w3.org/2000/svg" xmlns:xlink="http://www.w3.org/1999/xlink" overflow="hidden"><defs><filter id="fx0" x="-10%" y="-10%" width="120%" height="120%" filterUnits="userSpaceOnUse" primitiveUnits="userSpaceOnUse"><feComponentTransfer color-interpolation-filters="sRGB"><feFuncR type="discrete" tableValues="0 0"/><feFuncG type="discrete" tableValues="0 0"/><feFuncB type="discrete" tableValues="0 0"/><feFuncA type="linear" slope="0.219608" intercept="0"/></feComponentTransfer><feGaussianBlur stdDeviation="6.41667 6.4336"/></filter><clipPath id="clip1"><rect x="1203" y="863" width="1063" height="377"/></clipPath><clipPath id="clip2"><rect x="-17.4" y="-17.4459" width="96.8" height="57.9525"/></clipPath><clipPath id="clip3"><rect x="0" y="0" width="213" height="76"/></clipPath></defs><g clip-path="url(#clip1)" transform="translate(-1203 -863)"><g clip-path="url(#clip2)" filter="url(#fx0)" transform="matrix(5 0 0 4.98684 1202 862)"><g clip-path="url(#clip3)"><path d="M20.6 36.7969C20.6709 30.0977 24.6653 24.0171 32.1109 22.6596 45.547 24.4973 64.1515 23.2389 72.281 22.6596 80.4105 22.0803 90.6832 24.5598 107.988 22.6596 125.292 20.7595 134.571 24.6685 148.158 22.6596 161.745 20.6507 173.956 23.9991 180.889 22.6596 187.474 21.4965 193.354 29.477 192.4 36.7969L192.4 36.7969C192.117 45.4312 187.277 51.4772 180.889 50.9341 162.319 52.6674 159.604 51.0888 142.207 50.9341 124.809 50.7795 120.148 49.0813 109.476 50.9341 98.8026 52.787 87.6063 49.1371 76.7444 50.9341 65.8824 52.7311 43.1543 50.6573 32.1109 50.9341 25.2564 51.0269 19.0977 44.6238 20.6 36.7968L20.6 36.7969Z" fill="#FFFFFF" fill-rule="evenodd"/><path d="M20.6 36.7969C22.0614 29.4082 24.4531 22.2626 32.1109 22.6596 40.1351 21.4931 54.5463 22.5566 66.3299 22.6596 78.1135 22.7626 83.773 21.9407 99.0611 22.6596 114.349 23.3785 118.162 21.7327 134.768 22.6596 151.374 23.5866 157.839 24.805 180.889 22.6596 187.653 23.725 192.3 28.8587 192.4 36.7969L192.4 36.7969C192.072 44.5439 186.817 50.8213 180.889 50.9341 169.075 49.9971 161.525 49.623 145.182 50.9341 128.84 52.2453 121.533 51.3718 109.476 50.9341 97.418 50.4965 88.0806 50.9205 70.7933 50.9341 53.5059 50.9477 40.9632 49.3222 32.1109 50.9341 26.106 51.2833 20.0874 44.7839 20.6 36.7968L20.6 36.7969Z" stroke="#462100" stroke-width="2" stroke-miterlimit="8" fill="none" fill-rule="evenodd"/><path d="M46.1763 1.5293C44.477 1.5293 43.0681 1.01245 41.9495-0.0212402 40.8308-1.05493 40.2715-2.36475 40.2715-3.95068 40.2715-6.10303 40.0874-9.28906 39.7192-13.5088 39.3511-17.7285 39.167-20.9004 39.167-23.0244 39.167-24.582 39.2661-27.9946 39.4644-33.2622 29.2974-33.3472 23.9731-33.3896 23.4917-33.3896 22.4438-33.3896 21.0278-33.2764 19.2437-33.0498 19.272-31.7754 19.4561-28.7734 19.7959-24.0439 20.0508-20.3623 20.1782-17.3745 20.1782-15.0806 20.1782-13.8062 20.0508-11.9016 19.7959-9.36694 19.541-6.83227 19.4136-4.92773 19.4136-3.65332 19.4136-2.06738 18.8472-0.750488 17.7144 0.297363 16.5815 1.34521 15.1655 1.86914 13.4663 1.86914 11.7671 1.86914 10.3582 1.34521 9.2395 0.297363 8.12085-0.750488 7.56152-2.06738 7.56152-3.65332 7.56152-4.92773 7.69604-6.83227 7.96509-9.36694 8.23413-11.9016 8.36865-13.8062 8.36865-15.0806 8.36865-17.5161 8.19165-21.1694 7.83765-26.0405 7.48364-30.9116 7.30664-34.5791 7.30664-37.043 7.30664-38.9121 7.95801-40.4697 9.26074-41.7158 10.5635-42.9619 12.2344-43.585 14.2734-43.585 15.293-43.585 16.8223-43.7266 18.8613-44.0098 20.9004-44.293 22.4438-44.4346 23.4917-44.4346 25.9272-44.4346 29.5947-44.4062 34.4941-44.3496 39.3936-44.293 43.061-44.2646 45.4966-44.2646 47.0825-44.2646 48.4631-43.7124 49.6384-42.6079 50.8137-41.5034 51.4014-40.2148 51.4014-38.7422 51.4014-37.0146 51.3306-34.4375 51.189-31.0107 51.0474-27.584 50.9766-25.021 50.9766-23.3218 50.9766-21.1411 51.1677-17.9126 51.55-13.6362 51.9324-9.35986 52.1235-6.13135 52.1235-3.95068 52.1235-2.36475 51.5642-1.05493 50.4456-0.0212402 49.3269 1.01245 47.9038 1.5293 46.1763 1.5293ZM80.1048 2.50635C77.6693 2.50635 75.1063 2.22314 72.4158 1.65674L72.3734 18.9888C72.3734 20.6313 71.8211 21.9907 70.7166 23.0669 69.6121 24.1431 68.2103 24.6812 66.5111 24.6812 64.8118 24.6812 63.41 24.1431 62.3055 23.0669 61.201 21.9907 60.6488 20.6313 60.6488 18.9888 60.6488 17.6577 60.6771 12.376 60.7337 3.14355 60.7904-3.70996 60.7904-9.30322 60.7337-13.6362 60.6488-19.7534 60.4505-25.021 60.139-29.439 59.7142-35.5278 59.5018-38.3174 59.5018-37.8076 59.5018-40.1582 60.0257-42.1689 61.0736-43.8398 62.2913-45.7373 63.9339-46.686 66.0013-46.686 67.5872-46.686 68.9183-46.1479 69.9945-45.0718 71.0706-43.9956 71.6087-42.707 71.6087-41.2061L71.5662-40.7812C73.4637-41.8574 75.3682-42.6575 77.2799-43.1814 79.1915-43.7053 81.1102-43.9673 83.036-43.9673 89.5496-43.9673 94.3074-41.2061 97.3094-35.6836 99.5467-31.5205 100.665-26.1255 100.665-19.4985 100.665-13.2964 98.8953-8.15625 95.3553-4.07812 91.5604 0.311523 86.4769 2.50635 80.1048 2.50635ZM83.036-32.625C81.2518-32.625 79.4393-32.2073 77.5985-31.3718 75.7576-30.5364 73.9027-29.2832 72.0335-27.6123 72.3734-21.7783 72.5433-15.9302 72.5433-10.0679 75.0638-9.24658 77.5843-8.83594 80.1048-8.83594 83.0218-8.83594 85.2591-9.86963 86.8167-11.937 88.2327-13.8062 88.9408-16.3267 88.9408-19.4985 88.9408-23.3218 88.7708-25.9697 88.431-27.4424 87.6097-30.8975 85.8114-32.625 83.036-32.625ZM127.446 2.63379C121.045 2.63379 115.579 0.863769 111.048-2.67627 106.205-6.49951 103.784-11.4414 103.784-17.502 103.784-24.3555 106.021-30.6284 110.496-36.3208 115.622-42.8628 122.15-46.1338 130.079-46.1338 145.259-46.1338 152.849-39.4219 152.849-25.998 152.849-19.1445 150.796-12.9141 146.689-7.30664 141.818-0.679688 135.404 2.63379 127.446 2.63379ZM130.079-34.9614C126.313-34.9614 123.028-33.156 120.224-29.5452 117.42-25.9343 116.018-21.9199 116.018-17.502 116.018-14.8398 117.087-12.6733 119.226-11.0024 121.364-9.33154 124.104-8.49609 127.446-8.49609 131.099-8.49609 134.228-10.3086 136.834-13.9336 139.354-17.417 140.615-21.4385 140.615-25.998 140.615-29.5381 139.885-31.917 138.427-33.1348 136.968-34.3525 134.186-34.9614 130.079-34.9614ZM179.858 1.9541C173.089 1.9541 167.553 0.339844 163.248-2.88867 158.49-6.45703 156.111-11.4839 156.111-17.9692 156.111-25.1343 157.994-31.1948 161.761-36.1509 165.952-41.645 171.602-44.3921 178.711-44.3921 183.638-44.3921 187.731-43.5991 190.988-42.0132 195.264-39.9175 197.402-36.6606 197.402-32.2427 197.402-29.1274 195.66-26.3662 192.177-23.959 190.591-22.8545 187.405-21.2402 182.619-19.1162L168.303-12.7866C169.662-11.314 171.305-10.2095 173.231-9.47314 175.157-8.73682 177.366-8.36865 179.858-8.36865 183.653-8.36865 186.867-9.14746 189.501-10.7051 191.851-12.0928 193.735-12.7866 195.151-12.7866 198.096-12.7866 199.569-11.3564 199.569-8.49609 199.569-5.26758 197.204-2.63379 192.474-0.594727 188.51 1.10449 184.304 1.9541 179.858 1.9541ZM178.711-34.1118C176.077-34.1118 173.826-33.2339 171.956-31.478 170.087-29.7222 168.586-27.0884 167.453-23.5767 170.654-24.9644 173.84-26.3379 177.012-27.6973 180.835-29.4248 183.879-31.0249 186.145-32.4976 184.247-33.5737 181.769-34.1118 178.711-34.1118ZM222.056 1.99658C218.261 1.99658 214.834 1.43018 211.776 0.297363 207.669-1.23193 205.616-3.4834 205.616-6.45703 205.616-7.58984 206.19-8.72974 207.337-9.87671 208.484-11.0237 209.694-11.5972 210.969-11.5972 212.3-11.5972 214.134-11.1157 216.47-10.1528 218.806-9.18994 220.668-8.7085 222.056-8.7085 223.132-8.7085 224.194-9.19702 225.242-10.1741 226.29-11.1511 226.814-12.1494 226.814-13.1689 226.814-14.7549 225.695-15.9302 223.458-16.6948 221.334-17.2895 219.224-17.8701 217.128-18.4365 214.863-19.2295 213.73-20.4331 213.73-22.0474 213.73-24.1147 214.565-25.5449 216.236-26.3379 217.171-26.8193 218.884-27.2017 221.376-27.4849 223.189-27.6831 224.421-27.9946 225.072-28.4194 225.95-29.0142 226.389-30.0903 226.389-31.6479 226.389-33.7436 224.223-34.7915 219.89-34.7915 219.012-34.7915 217.794-34.2534 216.236-33.1772 214.679-32.1011 213.22-31.563 211.861-31.563 210.36-31.563 209.029-32.0161 207.868-32.9224 206.622-33.8853 205.999-35.1172 205.999-36.6182 205.999-39.1103 207.854-41.291 211.563-43.1602 214.679-44.7178 217.454-45.4966 219.89-45.4966 224.223-45.4966 228.117-44.562 231.572-42.6929 235.876-40.3706 238.029-37.1421 238.029-33.0073 238.029-28.7593 236.655-25.2476 233.908-22.4722 236.797-19.187 238.241-16.0859 238.241-13.1689 238.241-8.58105 236.769-4.90649 233.823-2.14526 230.878 0.615967 226.956 1.99658 222.056 1.99658ZM286.567 10.875C283.877 10.875 282.092 9.72803 281.215 7.43408 280.648 5.98975 280.422 3.72412 280.535 0.637207L258.657 0.637207C258.431 0.637207 256.491 0.778808 252.838 1.06201 252.838 1.51514 252.852 2.24438 252.88 3.24976 252.908 4.25513 252.923 5.02685 252.923 5.56494 252.923 7.1792 252.363 8.51025 251.245 9.5581 250.126 10.606 248.717 11.1299 247.018 11.1299 242.94 11.1299 240.901 8.62353 240.901 3.61084 240.901 2.59131 240.929 1.21777 240.986-0.509766 241.042-2.2373 241.07-3.59668 241.07-4.58789 241.07-6.23047 241.637-7.57568 242.77-8.62353 243.818-9.58642 245.163-10.0962 246.805-10.1528 249.326-13.7212 251.053-17.9551 251.988-22.8545 252.639-26.3379 252.965-30.9116 252.965-36.5757 252.965-42.1548 255.995-44.9443 262.056-44.9443 262.764-44.9443 264.088-44.8948 266.028-44.7957 267.968-44.6965 269.504-44.647 270.637-44.647 271.713-44.647 273.313-44.7319 275.437-44.9019 277.561-45.0718 279.09-45.1567 280.025-45.1567 282.857-45.1567 284.74-44.0947 285.675-41.9707 286.241-40.6963 286.525-38.5723 286.525-35.5986 286.525-34.3809 286.447-32.5684 286.291-30.1611 286.135-27.7539 286.057-25.9414 286.057-24.7236 286.057-23.6475 286.128-18.479 286.27-9.21826 290.291-8.82178 292.302-6.98096 292.302-3.6958 292.302-2.59131 292.33-1.09033 292.387 0.807129 292.444 2.70459 292.472 4.19141 292.472 5.26758 292.472 6.88184 291.913 8.21997 290.794 9.28198 289.675 10.344 288.266 10.875 286.567 10.875ZM258.997-9.68555 274.418-9.68555C274.276-19.0029 274.205-24.0156 274.205-24.7236 274.205-25.8564 274.276-27.5415 274.418-29.7788 274.588-32.5542 274.673-34.2534 274.673-34.8765 269.66-34.7349 266.332-34.7065 264.69-34.7915 264.435-24.9927 262.537-16.624 258.997-9.68555Z" fill="#462100" transform="matrix(0.2 0 0 0.200528 40.2137 41)"/><path d="M55.0547-50.9341C52.8457-50.9341 49.4048-51.0898 44.7319-51.4014 40.229-51.7129 36.7881-51.8545 34.4092-51.8262 34.5225-48.5977 34.9048-42.8486 35.5561-34.5791 36.1509-27.2725 36.4482-21.4951 36.4482-17.2471 36.4482-16.2842 36.5474-14.854 36.7456-12.9565 36.9438-11.0591 37.043-9.62891 37.043-8.66601 37.043-6.54199 36.5898-4.63037 35.6836-2.93115 34.5225-0.750488 32.8657 0.339844 30.7134 0.339844 29.1558 0.339844 27.7822-0.155762 26.5928-1.14697 25.2617-2.25146 24.5962-3.63916 24.5962-5.31006 24.5962-5.70654 24.667-6.30835 24.8086-7.11548 24.9502-7.92261 25.021-8.53857 25.021-8.96338 25.021-10.2661 24.929-12.2344 24.7449-14.8682 24.5608-17.502 24.4687-19.4844 24.4687-20.8154 24.4687-24.6103 24.1714-29.7505 23.5767-36.2358 22.897-43.6841 22.5005-48.8242 22.3872-51.6562L20.1782-51.6562C13.8628-51.6562 8.8501-52.1094 5.14014-53.0156 1.99658-53.7803 0.424805-55.6353 0.424805-58.5806 0.424805-60.0249 0.93457-61.3276 1.9541-62.4888 3.14355-63.8765 4.70117-64.4995 6.62695-64.3579 7.61816-64.3013 9.86963-64.0605 13.3813-63.6357 16.1851-63.3242 18.4507-63.1685 20.1782-63.1685 21.9058-63.1685 24.49-63.1968 27.9309-63.2534 31.3718-63.3101 33.9561-63.3384 35.6836-63.3384 37.8359-63.3384 41.0644-63.1897 45.3691-62.8923 49.6738-62.595 52.9023-62.4463 55.0547-62.4463 56.7539-62.4463 58.177-61.894 59.324-60.7895 60.4709-59.6851 61.0444-58.3257 61.0444-56.7114 61.0444-55.0972 60.4709-53.7307 59.324-52.6121 58.177-51.4934 56.7539-50.9341 55.0547-50.9341ZM111.196-3.05859C111.196-1.50098 110.63-0.191162 109.497 0.87085 108.364 1.93286 106.962 2.46387 105.291 2.46387 103.592 2.46387 102.176 1.93286 101.043 0.87085 99.9103-0.191162 99.3439-1.50098 99.3439-3.05859 99.3439-4.75781 99.4289-7.31372 99.5988-10.7263 99.7687-14.1389 99.8537-16.6948 99.8537-18.394 99.8537-19.9517 99.7829-21.5942 99.6413-23.3218 94.3737-16.2134 89.6442-10.9883 85.4528-7.64648 81.6579-4.64453 78.84-2.25854 76.9992-0.488525 75.1584 1.28149 73.1759 2.1665 71.0519 2.1665 69.466 2.1665 68.05 1.77002 66.8039 0.977051 65.3595 0.0141602 64.6374-1.33105 64.6374-3.05859 64.6374-10.5635 64.4958-18.394 64.2126-26.5503 63.901-35.0181 63.7453-39.167 63.7453-38.9971 63.7453-40.6113 64.2975-41.9495 65.402-43.0115 66.5065-44.0735 67.9367-44.6045 69.6925-44.6045 72.8644-44.6045 74.8044-42.9619 75.5124-39.6768 75.6256-39.2236 75.7531-36.4766 75.8947-31.4355L76.3195-15.2505C79.9728-18.5356 83.8669-22.5996 88.0016-27.4424 88.9645-28.5752 92.4904-32.9224 98.5793-40.4839 100.59-43.0044 102.827-44.2646 105.291-44.2646 106.962-44.2646 108.364-43.7336 109.497-42.6716 110.63-41.6096 111.196-40.2998 111.196-38.7422 111.196-35.7969 111.253-31.3789 111.366-25.4883 111.479-19.5977 111.536-15.1797 111.536-12.2344 111.536-11.2148 111.479-9.68555 111.366-7.64648 111.253-5.60742 111.196-4.07812 111.196-3.05859ZM161.671 10.875C158.981 10.875 157.197 9.72803 156.319 7.43408 155.752 5.98975 155.526 3.72412 155.639 0.637207L133.762 0.637207C133.535 0.637207 131.595 0.778808 127.942 1.06201 127.942 1.51514 127.956 2.24438 127.984 3.24976 128.013 4.25513 128.027 5.02685 128.027 5.56494 128.027 7.1792 127.467 8.51025 126.349 9.5581 125.23 10.606 123.821 11.1299 122.122 11.1299 118.044 11.1299 116.005 8.62353 116.005 3.61084 116.005 2.59131 116.033 1.21777 116.09-0.509766 116.146-2.2373 116.175-3.59668 116.175-4.58789 116.175-6.23047 116.741-7.57568 117.874-8.62353 118.922-9.58642 120.267-10.0962 121.91-10.1528 124.43-13.7212 126.158-17.9551 127.092-22.8545 127.743-26.3379 128.069-30.9116 128.069-36.5757 128.069-42.1548 131.099-44.9443 137.16-44.9443 137.868-44.9443 139.192-44.8948 141.132-44.7957 143.072-44.6965 144.608-44.647 145.741-44.647 146.817-44.647 148.417-44.7319 150.541-44.9019 152.665-45.0718 154.195-45.1567 155.129-45.1567 157.961-45.1567 159.845-44.0947 160.779-41.9707 161.346-40.6963 161.629-38.5723 161.629-35.5986 161.629-34.3809 161.551-32.5684 161.395-30.1611 161.239-27.7539 161.161-25.9414 161.161-24.7236 161.161-23.6475 161.232-18.479 161.374-9.21826 165.395-8.82178 167.406-6.98096 167.406-3.6958 167.406-2.59131 167.434-1.09033 167.491 0.807129 167.548 2.70459 167.576 4.19141 167.576 5.26758 167.576 6.88184 167.017 8.21997 165.898 9.28198 164.779 10.344 163.37 10.875 161.671 10.875ZM134.101-9.68555 149.522-9.68555C149.38-19.0029 149.309-24.0156 149.309-24.7236 149.309-25.8564 149.38-27.5415 149.522-29.7788 149.692-32.5542 149.777-34.2534 149.777-34.8765 144.764-34.7349 141.436-34.7065 139.794-34.7915 139.539-24.9927 137.641-16.624 134.101-9.68555ZM193.608 1.9541C186.839 1.9541 181.303 0.339844 176.998-2.88867 172.24-6.45703 169.861-11.4839 169.861-17.9692 169.861-25.1343 171.744-31.1948 175.511-36.1509 179.702-41.645 185.352-44.3921 192.461-44.3921 197.389-44.3921 201.481-43.5991 204.738-42.0132 209.014-39.9175 211.152-36.6606 211.152-32.2427 211.152-29.1274 209.41-26.3662 205.927-23.959 204.341-22.8545 201.155-21.2402 196.369-19.1162L182.053-12.7866C183.412-11.314 185.055-10.2095 186.981-9.47314 188.907-8.73682 191.116-8.36865 193.608-8.36865 197.403-8.36865 200.617-9.14746 203.251-10.7051 205.601-12.0928 207.485-12.7866 208.901-12.7866 211.846-12.7866 213.319-11.3564 213.319-8.49609 213.319-5.26758 210.954-2.63379 206.224-0.594727 202.26 1.10449 198.054 1.9541 193.608 1.9541ZM192.461-34.1118C189.827-34.1118 187.576-33.2339 185.706-31.478 183.837-29.7222 182.336-27.0884 181.203-23.5767 184.404-24.9644 187.59-26.3379 190.762-27.6973 194.585-29.4248 197.629-31.0249 199.895-32.4976 197.997-33.5737 195.519-34.1118 192.461-34.1118ZM255.899 1.57178C254.2 1.57178 252.784 1.04785 251.651 0 250.519-1.04785 249.952-2.36475 249.952-3.95068 249.952-6.41455 249.895-10.8325 249.782-17.2046 249.244-17.2046 248.777-17.2046 248.38-17.2046 242.291-17.2046 236.387-16.5957 230.666-15.3779 230.638-14.2734 230.482-12.2769 230.199-9.38818 229.972-6.92432 229.859-4.89233 229.859-3.29224 229.859-1.69214 229.3-0.368164 228.181 0.679687 227.062 1.72754 225.653 2.25146 223.954 2.25146 222.255 2.25146 220.846 1.72754 219.727 0.679687 218.609-0.368164 218.049-1.69922 218.049-3.31348 218.049-4.27637 218.184-5.58618 218.453-7.24292 218.722-8.89966 218.856-10.2095 218.856-11.1724 218.856-12.7583 218.814-15.1443 218.729-18.3303 218.644-21.5164 218.602-23.9023 218.602-25.4883 218.602-27.1592 218.602-29.623 218.602-32.8799 218.63-36.1367 218.644-38.6006 218.644-40.2715 218.644-41.8574 219.203-43.1743 220.322-44.2222 221.441-45.27 222.85-45.7939 224.549-45.7939 226.248-45.7939 227.664-45.27 228.797-44.2222 229.93-43.1743 230.496-41.8574 230.496-40.2715 230.496-38.459 230.524-36.1934 230.581-33.4746 230.666-29.708 230.708-27.4707 230.708-26.7627 236.684-27.8955 242.985-28.3911 249.612-28.2495L249.612-29.1841C249.612-30.6284 249.669-32.6958 249.782-35.3862 249.895-38.0767 249.952-40.1157 249.952-41.5034 249.952-43.0894 250.519-44.4062 251.651-45.4541 252.784-46.5019 254.2-47.0259 255.899-47.0259 257.599-47.0259 259.008-46.5019 260.126-45.4541 261.245-44.4062 261.804-43.0894 261.804-41.5034 261.804-40.0874 261.748-38.0342 261.634-35.3437 261.521-32.6533 261.464-30.6001 261.464-29.1841 261.464-26.2954 261.521-22.0898 261.634-16.5674 261.748-11.0449 261.804-6.83935 261.804-3.95068 261.804-2.36475 261.245-1.04785 260.126 0 259.008 1.04785 257.599 1.57178 255.899 1.57178ZM306.254 2.33643C304.951 2.33643 302.884 1.07617 300.052-1.44434 297.446-0.198242 295.152 0.743408 293.17 1.38062 291.188 2.01782 289.503 2.33643 288.115 2.33643 281.29 2.33643 276.171 0.509765 272.758-3.14355 269.346-6.79687 267.639-12.2627 267.639-19.541 267.639-26.3662 270.16-32.2073 275.201-37.0642 280.242-41.9211 286.274-44.3496 293.298-44.3496 295.988-44.3496 299.103-43.5925 302.643-42.0782 306.92-40.2556 309.058-38.1386 309.058-35.7274 309.058-34.718 308.732-33.8348 308.081-33.0777 307.797-31.9559 307.578-30.5469 307.422-28.8505 307.266-27.1542 307.189-25.1703 307.189-22.899 307.189-17.5438 307.571-13.6884 308.336-11.333 308.421-11.0808 309.072-9.62271 310.29-6.95883 311.394-4.54718 311.946-3.1732 311.946-2.8369 311.946-1.35097 311.373-0.117264 310.226 0.864212 309.079 1.84569 307.755 2.33643 306.254 2.33643ZM295.719-26.3379C295.719-27.2441 295.783-28.2849 295.91-29.4602 296.037-30.6355 296.229-31.9453 296.484-33.3896 295.917-33.6728 295.414-33.8782 294.975-34.0056 294.536-34.1331 294.161-34.1968 293.85-34.1968 289.998-34.1968 286.628-32.6887 283.739-29.6726 280.851-26.6565 279.406-23.166 279.406-19.2012 279.406-15.4062 280.086-12.553 281.445-10.6414 282.805-8.72974 284.844-7.77393 287.563-7.77393 289.318-7.77393 290.982-8.06421 292.554-8.64477 294.126-9.22534 295.606-10.082 296.993-11.2148 296.144-17.9551 295.719-22.9961 295.719-26.3379Z" fill="#462100" transform="matrix(0.2 0 0 0.200528 106.328 41)"/><path d="M46.1763 1.5293C44.477 1.5293 43.0681 1.01245 41.9495-0.0212402 40.8308-1.05493 40.2715-2.36475 40.2715-3.95068 40.2715-6.10303 40.0874-9.28906 39.7192-13.5088 39.3511-17.7285 39.167-20.9004 39.167-23.0244 39.167-24.582 39.2661-27.9946 39.4644-33.2622 29.2974-33.3472 23.9731-33.3896 23.4917-33.3896 22.4438-33.3896 21.0278-33.2764 19.2437-33.0498 19.272-31.7754 19.4561-28.7734 19.7959-24.0439 20.0508-20.3623 20.1782-17.3745 20.1782-15.0806 20.1782-13.8062 20.0508-11.9016 19.7959-9.36694 19.541-6.83227 19.4136-4.92773 19.4136-3.65332 19.4136-2.06738 18.8472-0.750488 17.7144 0.297363 16.5815 1.34521 15.1655 1.86914 13.4663 1.86914 11.7671 1.86914 10.3582 1.34521 9.2395 0.297363 8.12085-0.750488 7.56152-2.06738 7.56152-3.65332 7.56152-4.92773 7.69604-6.83227 7.96509-9.36694 8.23413-11.9016 8.36865-13.8062 8.36865-15.0806 8.36865-17.5161 8.19165-21.1694 7.83765-26.0405 7.48364-30.9116 7.30664-34.5791 7.30664-37.043 7.30664-38.9121 7.95801-40.4697 9.26074-41.7158 10.5635-42.9619 12.2344-43.585 14.2734-43.585 15.293-43.585 16.8223-43.7266 18.8613-44.0098 20.9004-44.293 22.4438-44.4346 23.4917-44.4346 25.9272-44.4346 29.5947-44.4062 34.4941-44.3496 39.3936-44.293 43.061-44.2646 45.4966-44.2646 47.0825-44.2646 48.4631-43.7124 49.6384-42.6079 50.8137-41.5034 51.4014-40.2148 51.4014-38.7422 51.4014-37.0146 51.3306-34.4375 51.189-31.0107 51.0474-27.584 50.9766-25.021 50.9766-23.3218 50.9766-21.1411 51.1677-17.9126 51.55-13.6362 51.9324-9.35986 52.1235-6.13135 52.1235-3.95068 52.1235-2.36475 51.5642-1.05493 50.4456-0.0212402 49.3269 1.01245 47.9038 1.5293 46.1763 1.5293ZM80.1048 2.50635C77.6693 2.50635 75.1063 2.22314 72.4158 1.65674L72.3734 18.9888C72.3734 20.6313 71.8211 21.9907 70.7166 23.0669 69.6121 24.1431 68.2103 24.6812 66.5111 24.6812 64.8118 24.6812 63.41 24.1431 62.3055 23.0669 61.201 21.9907 60.6488 20.6313 60.6488 18.9888 60.6488 17.6577 60.6771 12.376 60.7337 3.14355 60.7904-3.70996 60.7904-9.30322 60.7337-13.6362 60.6488-19.7534 60.4505-25.021 60.139-29.439 59.7142-35.5278 59.5018-38.3174 59.5018-37.8076 59.5018-40.1582 60.0257-42.1689 61.0736-43.8398 62.2913-45.7373 63.9339-46.686 66.0013-46.686 67.5872-46.686 68.9183-46.1479 69.9945-45.0718 71.0706-43.9956 71.6087-42.707 71.6087-41.2061L71.5662-40.7812C73.4637-41.8574 75.3682-42.6575 77.2799-43.1814 79.1915-43.7053 81.1102-43.9673 83.036-43.9673 89.5496-43.9673 94.3074-41.2061 97.3094-35.6836 99.5467-31.5205 100.665-26.1255 100.665-19.4985 100.665-13.2964 98.8953-8.15625 95.3553-4.07812 91.5604 0.311523 86.4769 2.50635 80.1048 2.50635ZM83.036-32.625C81.2518-32.625 79.4393-32.2073 77.5985-31.3718 75.7576-30.5364 73.9027-29.2832 72.0335-27.6123 72.3734-21.7783 72.5433-15.9302 72.5433-10.0679 75.0638-9.24658 77.5843-8.83594 80.1048-8.83594 83.0218-8.83594 85.2591-9.86963 86.8167-11.937 88.2327-13.8062 88.9408-16.3267 88.9408-19.4985 88.9408-23.3218 88.7708-25.9697 88.431-27.4424 87.6097-30.8975 85.8114-32.625 83.036-32.625ZM127.446 2.63379C121.045 2.63379 115.579 0.863769 111.048-2.67627 106.205-6.49951 103.784-11.4414 103.784-17.502 103.784-24.3555 106.021-30.6284 110.496-36.3208 115.622-42.8628 122.15-46.1338 130.079-46.1338 145.259-46.1338 152.849-39.4219 152.849-25.998 152.849-19.1445 150.796-12.9141 146.689-7.30664 141.818-0.679688 135.404 2.63379 127.446 2.63379ZM130.079-34.9614C126.313-34.9614 123.028-33.156 120.224-29.5452 117.42-25.9343 116.018-21.9199 116.018-17.502 116.018-14.8398 117.087-12.6733 119.226-11.0024 121.364-9.33154 124.104-8.49609 127.446-8.49609 131.099-8.49609 134.228-10.3086 136.834-13.9336 139.354-17.417 140.615-21.4385 140.615-25.998 140.615-29.5381 139.885-31.917 138.427-33.1348 136.968-34.3525 134.186-34.9614 130.079-34.9614ZM179.858 1.9541C173.089 1.9541 167.553 0.339844 163.248-2.88867 158.49-6.45703 156.111-11.4839 156.111-17.9692 156.111-25.1343 157.994-31.1948 161.761-36.1509 165.952-41.645 171.602-44.3921 178.711-44.3921 183.638-44.3921 187.731-43.5991 190.988-42.0132 195.264-39.9175 197.402-36.6606 197.402-32.2427 197.402-29.1274 195.66-26.3662 192.177-23.959 190.591-22.8545 187.405-21.2402 182.619-19.1162L168.303-12.7866C169.662-11.314 171.305-10.2095 173.231-9.47314 175.157-8.73682 177.366-8.36865 179.858-8.36865 183.653-8.36865 186.867-9.14746 189.501-10.7051 191.851-12.0928 193.735-12.7866 195.151-12.7866 198.096-12.7866 199.569-11.3564 199.569-8.49609 199.569-5.26758 197.204-2.63379 192.474-0.594727 188.51 1.10449 184.304 1.9541 179.858 1.9541ZM178.711-34.1118C176.077-34.1118 173.826-33.2339 171.956-31.478 170.087-29.7222 168.586-27.0884 167.453-23.5767 170.654-24.9644 173.84-26.3379 177.012-27.6973 180.835-29.4248 183.879-31.0249 186.145-32.4976 184.247-33.5737 181.769-34.1118 178.711-34.1118ZM222.056 1.99658C218.261 1.99658 214.834 1.43018 211.776 0.297363 207.669-1.23193 205.616-3.4834 205.616-6.45703 205.616-7.58984 206.19-8.72974 207.337-9.87671 208.484-11.0237 209.694-11.5972 210.969-11.5972 212.3-11.5972 214.134-11.1157 216.47-10.1528 218.806-9.18994 220.668-8.7085 222.056-8.7085 223.132-8.7085 224.194-9.19702 225.242-10.1741 226.29-11.1511 226.814-12.1494 226.814-13.1689 226.814-14.7549 225.695-15.9302 223.458-16.6948 221.334-17.2895 219.224-17.8701 217.128-18.4365 214.863-19.2295 213.73-20.4331 213.73-22.0474 213.73-24.1147 214.565-25.5449 216.236-26.3379 217.171-26.8193 218.884-27.2017 221.376-27.4849 223.189-27.6831 224.421-27.9946 225.072-28.4194 225.95-29.0142 226.389-30.0903 226.389-31.6479 226.389-33.7436 224.223-34.7915 219.89-34.7915 219.012-34.7915 217.794-34.2534 216.236-33.1772 214.679-32.1011 213.22-31.563 211.861-31.563 210.36-31.563 209.029-32.0161 207.868-32.9224 206.622-33.8853 205.999-35.1172 205.999-36.6182 205.999-39.1103 207.854-41.291 211.563-43.1602 214.679-44.7178 217.454-45.4966 219.89-45.4966 224.223-45.4966 228.117-44.562 231.572-42.6929 235.876-40.3706 238.029-37.1421 238.029-33.0073 238.029-28.7593 236.655-25.2476 233.908-22.4722 236.797-19.187 238.241-16.0859 238.241-13.1689 238.241-8.58105 236.769-4.90649 233.823-2.14526 230.878 0.615967 226.956 1.99658 222.056 1.99658ZM286.567 10.875C283.877 10.875 282.092 9.72803 281.215 7.43408 280.648 5.98975 280.422 3.72412 280.535 0.637207L258.657 0.637207C258.431 0.637207 256.491 0.778808 252.838 1.06201 252.838 1.51514 252.852 2.24438 252.88 3.24976 252.908 4.25513 252.923 5.02685 252.923 5.56494 252.923 7.1792 252.363 8.51025 251.245 9.5581 250.126 10.606 248.717 11.1299 247.018 11.1299 242.94 11.1299 240.901 8.62353 240.901 3.61084 240.901 2.59131 240.929 1.21777 240.986-0.509766 241.042-2.2373 241.07-3.59668 241.07-4.58789 241.07-6.23047 241.637-7.57568 242.77-8.62353 243.818-9.58642 245.163-10.0962 246.805-10.1528 249.326-13.7212 251.053-17.9551 251.988-22.8545 252.639-26.3379 252.965-30.9116 252.965-36.5757 252.965-42.1548 255.995-44.9443 262.056-44.9443 262.764-44.9443 264.088-44.8948 266.028-44.7957 267.968-44.6965 269.504-44.647 270.637-44.647 271.713-44.647 273.313-44.7319 275.437-44.9019 277.561-45.0718 279.09-45.1567 280.025-45.1567 282.857-45.1567 284.74-44.0947 285.675-41.9707 286.241-40.6963 286.525-38.5723 286.525-35.5986 286.525-34.3809 286.447-32.5684 286.291-30.1611 286.135-27.7539 286.057-25.9414 286.057-24.7236 286.057-23.6475 286.128-18.479 286.27-9.21826 290.291-8.82178 292.302-6.98096 292.302-3.6958 292.302-2.59131 292.33-1.09033 292.387 0.807129 292.444 2.70459 292.472 4.19141 292.472 5.26758 292.472 6.88184 291.913 8.21997 290.794 9.28198 289.675 10.344 288.266 10.875 286.567 10.875ZM258.997-9.68555 274.418-9.68555C274.276-19.0029 274.205-24.0156 274.205-24.7236 274.205-25.8564 274.276-27.5415 274.418-29.7788 274.588-32.5542 274.673-34.2534 274.673-34.8765 269.66-34.7349 266.332-34.7065 264.69-34.7915 264.435-24.9927 262.537-16.624 258.997-9.68555Z" fill="#462100" transform="matrix(0.2 0 0 0.200528 40.2137 41)"/><path d="M55.0547-50.9341C52.8457-50.9341 49.4048-51.0898 44.7319-51.4014 40.229-51.7129 36.7881-51.8545 34.4092-51.8262 34.5225-48.5977 34.9048-42.8486 35.5561-34.5791 36.1509-27.2725 36.4482-21.4951 36.4482-17.2471 36.4482-16.2842 36.5474-14.854 36.7456-12.9565 36.9438-11.0591 37.043-9.62891 37.043-8.66601 37.043-6.54199 36.5898-4.63037 35.6836-2.93115 34.5225-0.750488 32.8657 0.339844 30.7134 0.339844 29.1558 0.339844 27.7822-0.155762 26.5928-1.14697 25.2617-2.25146 24.5962-3.63916 24.5962-5.31006 24.5962-5.70654 24.667-6.30835 24.8086-7.11548 24.9502-7.92261 25.021-8.53857 25.021-8.96338 25.021-10.2661 24.929-12.2344 24.7449-14.8682 24.5608-17.502 24.4687-19.4844 24.4687-20.8154 24.4687-24.6103 24.1714-29.7505 23.5767-36.2358 22.897-43.6841 22.5005-48.8242 22.3872-51.6562L20.1782-51.6562C13.8628-51.6562 8.8501-52.1094 5.14014-53.0156 1.99658-53.7803 0.424805-55.6353 0.424805-58.5806 0.424805-60.0249 0.93457-61.3276 1.9541-62.4888 3.14355-63.8765 4.70117-64.4995 6.62695-64.3579 7.61816-64.3013 9.86963-64.0605 13.3813-63.6357 16.1851-63.3242 18.4507-63.1685 20.1782-63.1685 21.9058-63.1685 24.49-63.1968 27.9309-63.2534 31.3718-63.3101 33.9561-63.3384 35.6836-63.3384 37.8359-63.3384 41.0644-63.1897 45.3691-62.8923 49.6738-62.595 52.9023-62.4463 55.0547-62.4463 56.7539-62.4463 58.177-61.894 59.324-60.7895 60.4709-59.6851 61.0444-58.3257 61.0444-56.7114 61.0444-55.0972 60.4709-53.7307 59.324-52.6121 58.177-51.4934 56.7539-50.9341 55.0547-50.9341ZM111.196-3.05859C111.196-1.50098 110.63-0.191162 109.497 0.87085 108.364 1.93286 106.962 2.46387 105.291 2.46387 103.592 2.46387 102.176 1.93286 101.043 0.87085 99.9103-0.191162 99.3439-1.50098 99.3439-3.05859 99.3439-4.75781 99.4289-7.31372 99.5988-10.7263 99.7687-14.1389 99.8537-16.6948 99.8537-18.394 99.8537-19.9517 99.7829-21.5942 99.6413-23.3218 94.3737-16.2134 89.6442-10.9883 85.4528-7.64648 81.6579-4.64453 78.84-2.25854 76.9992-0.488525 75.1584 1.28149 73.1759 2.1665 71.0519 2.1665 69.466 2.1665 68.05 1.77002 66.8039 0.977051 65.3595 0.0141602 64.6374-1.33105 64.6374-3.05859 64.6374-10.5635 64.4958-18.394 64.2126-26.5503 63.901-35.0181 63.7453-39.167 63.7453-38.9971 63.7453-40.6113 64.2975-41.9495 65.402-43.0115 66.5065-44.0735 67.9367-44.6045 69.6925-44.6045 72.8644-44.6045 74.8044-42.9619 75.5124-39.6768 75.6256-39.2236 75.7531-36.4766 75.8947-31.4355L76.3195-15.2505C79.9728-18.5356 83.8669-22.5996 88.0016-27.4424 88.9645-28.5752 92.4904-32.9224 98.5793-40.4839 100.59-43.0044 102.827-44.2646 105.291-44.2646 106.962-44.2646 108.364-43.7336 109.497-42.6716 110.63-41.6096 111.196-40.2998 111.196-38.7422 111.196-35.7969 111.253-31.3789 111.366-25.4883 111.479-19.5977 111.536-15.1797 111.536-12.2344 111.536-11.2148 111.479-9.68555 111.366-7.64648 111.253-5.60742 111.196-4.07812 111.196-3.05859ZM161.671 10.875C158.981 10.875 157.197 9.72803 156.319 7.43408 155.752 5.98975 155.526 3.72412 155.639 0.637207L133.762 0.637207C133.535 0.637207 131.595 0.778808 127.942 1.06201 127.942 1.51514 127.956 2.24438 127.984 3.24976 128.013 4.25513 128.027 5.02685 128.027 5.56494 128.027 7.1792 127.467 8.51025 126.349 9.5581 125.23 10.606 123.821 11.1299 122.122 11.1299 118.044 11.1299 116.005 8.62353 116.005 3.61084 116.005 2.59131 116.033 1.21777 116.09-0.509766 116.146-2.2373 116.175-3.59668 116.175-4.58789 116.175-6.23047 116.741-7.57568 117.874-8.62353 118.922-9.58642 120.267-10.0962 121.91-10.1528 124.43-13.7212 126.158-17.9551 127.092-22.8545 127.743-26.3379 128.069-30.9116 128.069-36.5757 128.069-42.1548 131.099-44.9443 137.16-44.9443 137.868-44.9443 139.192-44.8948 141.132-44.7957 143.072-44.6965 144.608-44.647 145.741-44.647 146.817-44.647 148.417-44.7319 150.541-44.9019 152.665-45.0718 154.195-45.1567 155.129-45.1567 157.961-45.1567 159.845-44.0947 160.779-41.9707 161.346-40.6963 161.629-38.5723 161.629-35.5986 161.629-34.3809 161.551-32.5684 161.395-30.1611 161.239-27.7539 161.161-25.9414 161.161-24.7236 161.161-23.6475 161.232-18.479 161.374-9.21826 165.395-8.82178 167.406-6.98096 167.406-3.6958 167.406-2.59131 167.434-1.09033 167.491 0.807129 167.548 2.70459 167.576 4.19141 167.576 5.26758 167.576 6.88184 167.017 8.21997 165.898 9.28198 164.779 10.344 163.37 10.875 161.671 10.875ZM134.101-9.68555 149.522-9.68555C149.38-19.0029 149.309-24.0156 149.309-24.7236 149.309-25.8564 149.38-27.5415 149.522-29.7788 149.692-32.5542 149.777-34.2534 149.777-34.8765 144.764-34.7349 141.436-34.7065 139.794-34.7915 139.539-24.9927 137.641-16.624 134.101-9.68555ZM193.608 1.9541C186.839 1.9541 181.303 0.339844 176.998-2.88867 172.24-6.45703 169.861-11.4839 169.861-17.9692 169.861-25.1343 171.744-31.1948 175.511-36.1509 179.702-41.645 185.352-44.3921 192.461-44.3921 197.389-44.3921 201.481-43.5991 204.738-42.0132 209.014-39.9175 211.152-36.6606 211.152-32.2427 211.152-29.1274 209.41-26.3662 205.927-23.959 204.341-22.8545 201.155-21.2402 196.369-19.1162L182.053-12.7866C183.412-11.314 185.055-10.2095 186.981-9.47314 188.907-8.73682 191.116-8.36865 193.608-8.36865 197.403-8.36865 200.617-9.14746 203.251-10.7051 205.601-12.0928 207.485-12.7866 208.901-12.7866 211.846-12.7866 213.319-11.3564 213.319-8.49609 213.319-5.26758 210.954-2.63379 206.224-0.594727 202.26 1.10449 198.054 1.9541 193.608 1.9541ZM192.461-34.1118C189.827-34.1118 187.576-33.2339 185.706-31.478 183.837-29.7222 182.336-27.0884 181.203-23.5767 184.404-24.9644 187.59-26.3379 190.762-27.6973 194.585-29.4248 197.629-31.0249 199.895-32.4976 197.997-33.5737 195.519-34.1118 192.461-34.1118ZM255.899 1.57178C254.2 1.57178 252.784 1.04785 251.651 0 250.519-1.04785 249.952-2.36475 249.952-3.95068 249.952-6.41455 249.895-10.8325 249.782-17.2046 249.244-17.2046 248.777-17.2046 248.38-17.2046 242.291-17.2046 236.387-16.5957 230.666-15.3779 230.638-14.2734 230.482-12.2769 230.199-9.38818 229.972-6.92432 229.859-4.89233 229.859-3.29224 229.859-1.69214 229.3-0.368164 228.181 0.679687 227.062 1.72754 225.653 2.25146 223.954 2.25146 222.255 2.25146 220.846 1.72754 219.727 0.679687 218.609-0.368164 218.049-1.69922 218.049-3.31348 218.049-4.27637 218.184-5.58618 218.453-7.24292 218.722-8.89966 218.856-10.2095 218.856-11.1724 218.856-12.7583 218.814-15.1443 218.729-18.3303 218.644-21.5164 218.602-23.9023 218.602-25.4883 218.602-27.1592 218.602-29.623 218.602-32.8799 218.63-36.1367 218.644-38.6006 218.644-40.2715 218.644-41.8574 219.203-43.1743 220.322-44.2222 221.441-45.27 222.85-45.7939 224.549-45.7939 226.248-45.7939 227.664-45.27 228.797-44.2222 229.93-43.1743 230.496-41.8574 230.496-40.2715 230.496-38.459 230.524-36.1934 230.581-33.4746 230.666-29.708 230.708-27.4707 230.708-26.7627 236.684-27.8955 242.985-28.3911 249.612-28.2495L249.612-29.1841C249.612-30.6284 249.669-32.6958 249.782-35.3862 249.895-38.0767 249.952-40.1157 249.952-41.5034 249.952-43.0894 250.519-44.4062 251.651-45.4541 252.784-46.5019 254.2-47.0259 255.899-47.0259 257.599-47.0259 259.008-46.5019 260.126-45.4541 261.245-44.4062 261.804-43.0894 261.804-41.5034 261.804-40.0874 261.748-38.0342 261.634-35.3437 261.521-32.6533 261.464-30.6001 261.464-29.1841 261.464-26.2954 261.521-22.0898 261.634-16.5674 261.748-11.0449 261.804-6.83935 261.804-3.95068 261.804-2.36475 261.245-1.04785 260.126 0 259.008 1.04785 257.599 1.57178 255.899 1.57178ZM306.254 2.33643C304.951 2.33643 302.884 1.07617 300.052-1.44434 297.446-0.198242 295.152 0.743408 293.17 1.38062 291.188 2.01782 289.503 2.33643 288.115 2.33643 281.29 2.33643 276.171 0.509765 272.758-3.14355 269.346-6.79687 267.639-12.2627 267.639-19.541 267.639-26.3662 270.16-32.2073 275.201-37.0642 280.242-41.9211 286.274-44.3496 293.298-44.3496 295.988-44.3496 299.103-43.5925 302.643-42.0782 306.92-40.2556 309.058-38.1386 309.058-35.7274 309.058-34.718 308.732-33.8348 308.081-33.0777 307.797-31.9559 307.578-30.5469 307.422-28.8505 307.266-27.1542 307.189-25.1703 307.189-22.899 307.189-17.5438 307.571-13.6884 308.336-11.333 308.421-11.0808 309.072-9.62271 310.29-6.95883 311.394-4.54718 311.946-3.1732 311.946-2.8369 311.946-1.35097 311.373-0.117264 310.226 0.864212 309.079 1.84569 307.755 2.33643 306.254 2.33643ZM295.719-26.3379C295.719-27.2441 295.783-28.2849 295.91-29.4602 296.037-30.6355 296.229-31.9453 296.484-33.3896 295.917-33.6728 295.414-33.8782 294.975-34.0056 294.536-34.1331 294.161-34.1968 293.85-34.1968 289.998-34.1968 286.628-32.6887 283.739-29.6726 280.851-26.6565 279.406-23.166 279.406-19.2012 279.406-15.4062 280.086-12.553 281.445-10.6414 282.805-8.72974 284.844-7.77393 287.563-7.77393 289.318-7.77393 290.982-8.06421 292.554-8.64477 294.126-9.22534 295.606-10.082 296.993-11.2148 296.144-17.9551 295.719-22.9961 295.719-26.3379Z" fill="#462100" transform="matrix(0.2 0 0 0.200528 106.328 41)"/></g></g><path d="M1305 990.5C1305.35 957.093 1325.33 926.769 1362.55 920 1429.73 929.164 1522.76 922.889 1563.4 920 1604.05 917.111 1655.42 929.476 1741.94 920 1828.46 910.524 1874.85 930.018 1942.79 920 2010.72 909.982 2071.78 926.68 2106.45 920 2139.37 914.2 2168.77 953.997 2164 990.5L2164 990.5C2162.58 1033.56 2138.39 1063.71 2106.45 1061 2013.6 1069.64 2000.02 1061.77 1913.03 1061 1826.05 1060.23 1802.74 1051.76 1749.38 1061 1696.01 1070.24 1640.03 1052.04 1585.72 1061 1531.41 1069.96 1417.77 1059.62 1362.55 1061 1328.28 1061.46 1297.49 1029.53 1305 990.5L1305 990.5Z" fill="#FFFFFF" fill-rule="evenodd"/><path d="M1305 990.5C1312.31 953.654 1324.27 918.02 1362.55 920 1402.68 914.182 1474.73 919.486 1533.65 920 1592.57 920.514 1620.86 916.415 1697.31 920 1773.75 923.585 1792.81 915.377 1875.84 920 1958.87 924.622 1991.2 930.699 2106.45 920 2140.27 925.313 2163.5 950.914 2164 990.5L2164 990.5C2162.36 1029.13 2136.08 1060.44 2106.45 1061 2047.38 1056.33 2009.63 1054.46 1927.91 1061 1846.2 1067.54 1809.67 1063.18 1749.38 1061 1689.09 1058.82 1642.4 1060.93 1555.97 1061 1469.53 1061.07 1406.82 1052.96 1362.55 1061 1332.53 1062.74 1302.44 1030.33 1305 990.5L1305 990.5Z" stroke="#462100" stroke-width="10.3125" stroke-miterlimit="8" fill="none" fill-rule="evenodd"/><text fill="#462100" font-family="Comic Sans MS,Comic Sans MS_MSFontService,sans-serif" font-weight="700" font-size="87" transform="matrix(1 0 0 1 1403.07 1014)">проезд Тидена</text><path d="M1767 1068.5C1767 1090.32 1749.32 1108 1727.5 1108 1705.69 1108 1688 1090.32 1688 1068.5 1688 1046.68 1705.69 1029 1727.5 1029 1749.32 1029 1767 1046.68 1767 1068.5Z" fill="#F2EBEA" fill-rule="evenodd"/><path d="M1749.75 1067.5C1750.26 1079.76 1740.74 1090.11 1728.48 1090.62 1716.22 1091.13 1705.87 1081.61 1705.36 1069.35 1704.85 1057.09 1714.37 1046.74 1726.63 1046.23 1738.89 1045.72 1749.24 1055.25 1749.75 1067.5Z" fill="#C9AFAB" fill-rule="evenodd"/><path d="M1794.45 1109.11C1789.69 1108.84 1785.54 1111.59 1783.7 1115.61L1783.7 1110.7C1783.7 1104.54 1778.7 1099.55 1772.55 1099.55L1772.55 1099.55C1768.48 1099.55 1764.93 1101.75 1762.99 1104.98L1762.99 1104.32C1762.99 1098.16 1757.99 1093.18 1751.85 1093.18L1751.85 1093.18C1746.52 1093.18 1742.06 1096.92 1740.95 1101.94L1740.95 1071.62C1740.95 1065.9 1736.84 1060.74 1731.16 1060.08 1724.4 1059.28 1718.66 1064.54 1718.66 1071.15L1718.66 1136.64C1718.66 1137.4 1717.63 1137.65 1717.28 1136.97L1706.25 1115.32C1703.66 1109.73 1697.03 1107.31 1691.44 1109.93 1685.86 1112.53 1683.44 1119.16 1686.05 1124.74L1705.05 1175.36 1719.59 1201.98C1720.27 1203.23 1721.57 1204 1723 1204L1790.73 1204C1792.56 1204 1794.13 1202.74 1794.51 1200.96L1804.11 1157.18C1804.69 1154.89 1805 1152.54 1805 1150.2L1805 1120.77C1805 1114.95 1800.29 1109.48 1794.47 1109.15Z" fill="#875E21" fill-rule="evenodd"/></g></svg>